<?xml version="1.0" standalone="no"?><!DOCTYPE svg PUBLIC "-//W3C//DTD SVG 1.1//EN" "http://www.w3.org/Graphics/SVG/1.1/DTD/svg11.dtd" ><svg xmlns="http://www.w3.org/2000/svg"><metadata></metadata><defs><font id="ParachuteWorldwide: PFDinTextCondPro-Medium: 2005" horiz-adv-x="1818"><font-face font-family="PF Din Text Cond Pro Medium" font-weight="500" font-stretch="normal" units-per-em="1000" panose-1="2 0 5 0 0 0 0 2 0 4" ascent="750" descent="-250" x-height="4" bbox="-185 -275 1760 944" underline-thickness="50" underline-position="-75" unicode-range="U+0020-fb05" /><missing-glyph horiz-adv-x="445" d="M0 699 l445 0 l0 -699 l-445 0 l0 699 ZM344 66 l-121 223 l-123 -223 l244 0 ZM344 633 l-244 0 l123 -222 l121 222 ZM66 133 l118 217 l-118 217 l0 -434 ZM379 133 l0 434 l-118 -218 l118 -216 Z" /><glyph glyph-name="quotedbl" unicode="&quot;" d="M185 485 l0 211 l85 0 l0 -211 l-85 0 ZM48 485 l0 211 l85 0 l0 -211 l-85 0 Z" /><glyph glyph-name="numbersign" unicode="#" d="M12 288 l86 0 q1 6 3.5 24 q2.5 18 6 38.5 q3.5 20.5 6.5 38.5 q3 18 4 24 l-73 0 l0 76 l85 0 l33 207 l83 0 l-33 -207 l88 0 q2 12 7 41.5 q5 29.5 10.5 62 q5.5 32.5 10 62 q4.5 29.5 6.5 41.5 l83 0 l-35 -207 l77 0 l0 -76 l-89 0 l-20 -125 l77 0 l0 -76 l-89 0 q-2 -13 -7 -43 q-5 -30 -10.5 -63 q-5.5 -33 -10 -63 q-4.5 -30 -6.5 -43 l-83 0 q2 13 7 43 q5 30 10.5 63 q5.5 33 10 63 q4.5 30 6.5 43 l-88 0 q-2 -13 -7 -43 q-5 -30 -10.5 -63 q-5.5 -33 -10 -63 q-4.5 -30 -6.5 -43 l-84 0 l35 212 l-73 0 l0 76 ZM180 288 l89 0 q1 6 4 24 q3 18 6.5 38.5 q3.5 20.5 6.5 38.5 q3 18 4 24 l-89 0 l-21 -125 Z" /><glyph glyph-name="dollar" unicode="$" d="M438 198 q0 -90 -46.5 -143 q-46.5 -53 -134.5 -59 l0 -95 l-45 0 l0 95 q-69 4 -116 38 q-47 34 -76 88 l91 58 q18 -32 42.5 -52.5 q24.5 -20.5 58.5 -25.5 l0 202 q-45 16 -77.5 34.5 q-32.5 18.5 -54 42 q-21.5 23.5 -32 53 q-10.5 29.5 -10.5 68.5 q0 40 12.5 74.5 q12.5 34.5 35 60.5 q22.5 26 54.5 42 q32 16 72 20 l0 72 l45 0 l0 -72 q64 -5 106.5 -35.5 q42.5 -30.5 64.5 -72.5 l-83 -62 q-31 52 -88 61 l0 -181 q51 -17 85.5 -37 q34.5 -20 55.5 -45 q21 -25 30.5 -57 q9.5 -32 9.5 -72 ZM324 194 q0 38 -17.5 58.5 q-17.5 20.5 -49.5 34.5 l0 -184 q38 6 52.5 31 q14.5 25 14.5 60 ZM150 505 q0 -27 16 -45.5 q16 -18.5 46 -32.5 l0 164 q-30 -6 -46 -29.5 q-16 -23.5 -16 -56.5 Z" /><glyph glyph-name="percent" unicode="%" d="M206 -17 l-74 0 l370 730 l74 0 l-370 -730 ZM293 387 q0 -26 -10 -46.5 q-10 -20.5 -26.5 -35 q-16.5 -14.5 -38.5 -22 q-22 -7.5 -47 -7.5 q-24 0 -46 7.5 q-22 7.5 -38.5 22 q-16.5 14.5 -26.5 35 q-10 20.5 -10 46.5 l0 202 q0 26 9.5 46.5 q9.5 20.5 26 35 q16.5 14.5 38.5 22 q22 7.5 47 7.5 q51 0 86.5 -29.5 q35.5 -29.5 35.5 -81.5 l0 -202 ZM209 588 q0 17 -10 27.5 q-10 10.5 -28 10.5 q-18 0 -28.5 -10.5 q-10.5 -10.5 -10.5 -27.5 l0 -200 q0 -17 11 -27.5 q11 -10.5 28 -10.5 q17 0 27.5 10.5 q10.5 10.5 10.5 27.5 l0 200 ZM669 105 q0 -26 -10 -46 q-10 -20 -26.5 -33.5 q-16.5 -13.5 -39 -21 q-22.5 -7.5 -46.5 -7.5 q-24 0 -46 7.5 q-22 7.5 -38.5 21 q-16.5 13.5 -26.5 33.5 q-10 20 -10 46 l0 207 q0 25 10 45.5 q10 20.5 26.5 34.5 q16.5 14 38.5 21.5 q22 7.5 46 7.5 q25 0 47 -7.5 q22 -7.5 38.5 -21.5 q16.5 -14 26.5 -34.5 q10 -20.5 10 -45.5 l0 -207 ZM585 310 q0 17 -10 26.5 q-10 9.5 -28 9.5 q-18 0 -28.5 -9.5 q-10.5 -9.5 -10.5 -26.5 l0 -203 q0 -17 11 -26.5 q11 -9.5 28 -9.5 q17 0 27.5 9.5 q10.5 9.5 10.5 26.5 l0 203 Z" /><glyph glyph-name="ampersand" unicode="&amp;" d="M385 55 q-34 -32 -73 -46.5 q-39 -14.5 -81 -14.5 q-43 0 -76 14 q-33 14 -55.5 38.5 q-22.5 24.5 -34 57.5 q-11.5 33 -11.5 71 q0 63 28 111 q28 48 85 93 q-26 40 -46 77 q-20 37 -20 83 q0 35 11 65 q11 30 32.5 51.5 q21.5 21.5 52.5 34 q31 12.5 71 12.5 q48 0 91.5 -18 q43.5 -18 74.5 -61 q-19 -16 -37.5 -32 q-18.5 -16 -37.5 -33 q-23 27 -43.5 36.5 q-20.5 9.5 -45.5 9.5 q-32 0 -47.5 -20 q-15.5 -20 -15.5 -44 q0 -25 19.5 -63 q19.5 -38 47.5 -81 q28 -43 59.5 -87 q31.5 -44 55.5 -80 q10 22 15.5 47 q5.5 25 8.5 50 l98 -11 q-5 -45 -19 -92.5 q-14 -47.5 -37 -85.5 q7 -12 19.5 -30.5 q12.5 -18.5 26.5 -38.5 q14 -20 27 -38 q13 -18 21 -30 l-125 0 l-39 55 ZM221 297 q-30 -26 -46.5 -54.5 q-16.5 -28.5 -16.5 -62.5 q0 -36 21 -61.5 q21 -25.5 62 -25.5 q25 0 49.5 12 q24.5 12 40.5 29 l-110 163 Z" /><glyph glyph-name="quoteright" unicode="&#x2019;" d="M62 456 l32 131 l-29 0 l0 133 l125 0 l0 -129 l-67 -135 l-61 0 Z" /><glyph glyph-name="parenleft" unicode="(" d="M221 -122 q-35 43 -65.5 92 q-30.5 49 -53.5 103 q-23 54 -36.5 112.5 q-13.5 58.5 -13.5 120.5 q0 63 13 121.5 q13 58.5 35.5 112 q22.5 53.5 52.5 101 q30 47.5 63 89.5 l64 -36 q-29 -43 -51 -90.5 q-22 -47.5 -37.5 -97 q-15.5 -49.5 -23.5 -99.5 q-8 -50 -8 -97 q0 -103 32.5 -205 q32.5 -102 86.5 -185 l-58 -42 Z" /><glyph glyph-name="parenright" unicode=")" d="M269 305 q0 -62 -13.5 -120 q-13.5 -58 -36.5 -112 q-23 -54 -53.5 -103 q-30.5 -49 -65.5 -92 q-2 2 -10.5 8 q-8.5 6 -18.5 13 q-10 7 -18.5 13 q-8.5 6 -10.5 8 q55 83 87 185 q32 102 32 205 q0 47 -8 96.5 q-8 49.5 -23.5 99 q-15.5 49.5 -38 97.5 q-22.5 48 -50.5 91 l64 36 q33 -42 63 -90 q30 -48 52.5 -101 q22.5 -53 35.5 -112 q13 -59 13 -122 Z" /><glyph glyph-name="asterisk" unicode="*" d="M324 423 l-67 -49 l-61 103 q-2 -3 -11.5 -18 q-9.5 -15 -20.5 -33 q-11 -18 -20 -33.5 q-9 -15.5 -11 -18.5 l-67 48 l79 93 q-4 1 -20.5 5 q-16.5 4 -36 9.5 q-19.5 5.5 -36.5 9.5 q-17 4 -20 5 l25 77 l108 -45 q0 4 -1.5 21.5 q-1.5 17.5 -3.5 38.5 q-2 21 -3.5 38.5 q-1.5 17.5 -1.5 21.5 l82 0 l-11 -120 q3 1 19 7.5 q16 6.5 35 14.5 q19 8 35 14.5 q16 6.5 19 8.5 l26 -77 l-115 -29 l79 -92 Z" /><glyph glyph-name="plus" unicode="+" d="M277 252 l0 -173 l-89 0 l0 173 l-169 0 l0 88 l169 0 l0 172 l89 0 l0 -172 l169 0 l0 -88 l-169 0 Z" /><glyph glyph-name="comma" unicode="," d="M56 -134 l32 131 l-29 0 l0 132 l124 0 l0 -128 l-66 -135 l-61 0 Z" /><glyph glyph-name="hyphen" unicode="-" d="M49 213 l0 98 l298 0 l0 -98 l-298 0 Z" /><glyph glyph-name="period" unicode="." d="M58 0 l0 130 l124 0 l0 -130 l-124 0 Z" /><glyph glyph-name="slash" unicode="/" d="M84 -42 l-87 0 l219 767 l88 0 l-220 -767 Z" /><glyph glyph-name="zero" unicode="0" d="M416 169 q0 -42 -14.5 -74 q-14.5 -32 -39.5 -54.5 q-25 -22.5 -57.5 -34 q-32.5 -11.5 -68.5 -11.5 q-36 0 -68.5 11.5 q-32.5 11.5 -57 34 q-24.5 22.5 -39 54.5 q-14.5 32 -14.5 74 l0 357 q0 42 14.5 74.5 q14.5 32.5 39.5 55 q25 22.5 57 34 q32 11.5 68 11.5 q36 0 69 -11.5 q33 -11.5 57.5 -34 q24.5 -22.5 39 -55 q14.5 -32.5 14.5 -74.5 l0 -357 ZM305 526 q0 33 -19 51.5 q-19 18.5 -50 18.5 q-31 0 -50 -18.5 q-19 -18.5 -19 -51.5 l0 -356 q0 -34 19 -52 q19 -18 50 -18 q31 0 50 18 q19 18 19 52 l0 356 Z" /><glyph glyph-name="one" unicode="1" d="M217 0 l0 572 l-97 -72 l0 119 l103 77 l104 0 l0 -696 l-110 0 Z" /><glyph glyph-name="two" unicode="2" d="M44 513 q6 90 57 139 q51 49 128 49 q86 0 134 -45 q48 -45 48 -130 q0 -40 -11.5 -76.5 q-11.5 -36.5 -34.5 -72.5 l-181 -271 l221 0 l0 -106 l-359 0 l0 99 l225 335 q14 21 19 44.5 q5 23.5 5 43.5 q0 28 -15 51 q-15 23 -52 23 q-30 0 -50 -24 q-20 -24 -23 -75 l-111 16 Z" /><glyph glyph-name="three" unicode="3" d="M339 362 q27 -12 42.5 -28.5 q15.5 -16.5 24 -37.5 q8.5 -21 10.5 -45 q2 -24 2 -51 q0 -45 -11.5 -82.5 q-11.5 -37.5 -35.5 -65 q-24 -27.5 -60 -42.5 q-36 -15 -85 -15 q-36 0 -67.5 10 q-31.5 10 -55.5 31 q-24 21 -39.5 53 q-15.5 32 -19.5 76 l110 17 q6 -83 73 -83 q37 0 56.5 27 q19.5 27 19.5 75 q0 57 -19 85 q-19 28 -65 28 l-43 0 l0 93 l44 0 q44 0 62.5 24 q18.5 24 18.5 69 q0 17 -3.5 34.5 q-3.5 17.5 -11.5 31 q-8 13.5 -21.5 22 q-13.5 8.5 -33.5 8.5 q-33 0 -49.5 -21.5 q-16.5 -21.5 -21.5 -64.5 q-9 1 -23.5 3.5 q-14.5 2.5 -31 5 q-16.5 2.5 -31 5 q-14.5 2.5 -23.5 3.5 q9 79 58 126.5 q49 47.5 124 47.5 q55 0 90 -16.5 q35 -16.5 55.5 -44 q20.5 -27.5 28.5 -63 q8 -35.5 8 -73.5 q0 -19 -3.5 -40 q-3.5 -21 -12.5 -40.5 q-9 -19.5 -23.5 -36 q-14.5 -16.5 -36.5 -25.5 Z" /><glyph glyph-name="four" unicode="4" d="M387 101 l0 -101 l-110 0 l0 101 l-251 0 l0 97 l194 498 l116 0 l-191 -491 l132 0 l0 176 l110 0 l0 -176 l51 0 l0 -104 l-51 0 Z" /><glyph glyph-name="five" unicode="5" d="M175 434 q22 20 47 26 q25 6 45 6 q46 0 75 -17 q29 -17 45.5 -46 q16.5 -29 22.5 -69 q6 -40 6 -86 q0 -60 -9 -107 q-9 -47 -30 -79.5 q-21 -32.5 -56 -49.5 q-35 -17 -88 -17 q-39 0 -71.5 9.5 q-32.5 9.5 -56.5 30.5 q-24 21 -38 56 q-14 35 -17 86 l111 7 q2 -46 20 -65.5 q18 -19.5 52 -19.5 q25 0 39 12 q14 12 21 32.5 q7 20.5 9 46 q2 25.5 2 52.5 q0 24 -2 46.5 q-2 22.5 -9 40 q-7 17.5 -20.5 28 q-13.5 10.5 -37.5 10.5 q-20 0 -38.5 -11 q-18.5 -11 -29.5 -37 l-99 0 l0 377 l339 0 l0 -103 l-236 0 l2 -159 l2 0 Z" /><glyph glyph-name="six" unicode="6" d="M231 400 q10 5 23.5 7.5 q13.5 2.5 24.5 2.5 q33 0 58.5 -14 q25.5 -14 43.5 -39.5 q18 -25.5 27.5 -61 q9.5 -35.5 9.5 -78.5 q0 -102 -44.5 -162 q-44.5 -60 -141.5 -60 q-90 0 -133 50.5 q-43 50.5 -43 156.5 q0 47 8.5 87.5 q8.5 40.5 23.5 74.5 q5 12 17.5 40 q12.5 28 28.5 63.5 q16 35.5 33.5 74 q17.5 38.5 32.5 71 q15 32.5 25.5 55.5 q10.5 23 12.5 28 l121 0 q-5 -12 -15.5 -35 q-10.5 -23 -23 -52 q-12.5 -29 -26.5 -60.5 q-14 -31.5 -26.5 -60.5 q-12.5 -29 -23 -52 q-10.5 -23 -16.5 -34 l3 -2 ZM238 317 q-22 0 -36 -9 q-14 -9 -22 -24 q-8 -15 -11 -35.5 q-3 -20.5 -3 -43.5 q0 -52 14 -79 q14 -27 54 -27 q38 0 54.5 27 q16.5 27 16.5 87 q-1 47 -14.5 75.5 q-13.5 28.5 -52.5 28.5 Z" /><glyph glyph-name="seven" unicode="7" d="M204 0 l-115 0 l204 591 l-135 0 l0 -87 l-105 0 l0 192 l361 0 l0 -98 l-210 -598 Z" /><glyph glyph-name="eight" unicode="8" d="M422 200 q0 -57 -15.5 -96 q-15.5 -39 -42 -63.5 q-26.5 -24.5 -60.5 -35 q-34 -10.5 -70 -10.5 q-38 0 -71.5 10.5 q-33.5 10.5 -59 35 q-25.5 24.5 -40.5 63.5 q-15 39 -15 96 q0 54 16.5 97.5 q16.5 43.5 58.5 63.5 l0 2 q-42 23 -55 59.5 q-13 36.5 -13 83.5 q0 94 49.5 144.5 q49.5 50.5 129.5 50.5 q40 0 73.5 -11.5 q33.5 -11.5 57.5 -35.5 q24 -24 37 -60.5 q13 -36.5 13 -87.5 q0 -47 -14 -84 q-14 -37 -52 -59 l0 -2 q22 -10 36 -26.5 q14 -16.5 22 -38 q8 -21.5 11.5 -46 q3.5 -24.5 3.5 -50.5 ZM235 596 q-36 0 -52.5 -24.5 q-16.5 -24.5 -16.5 -69.5 q0 -51 17 -73 q17 -22 52 -22 q70 0 70 98 q0 44 -16.5 67.5 q-16.5 23.5 -53.5 23.5 ZM235 315 q-36 0 -56 -26 q-20 -26 -20 -80 q0 -62 20.5 -86.5 q20.5 -24.5 55.5 -24.5 q40 0 57.5 28.5 q17.5 28.5 17.5 84.5 q0 104 -75 104 Z" /><glyph glyph-name="nine" unicode="9" d="M239 296 q-9 -5 -21.5 -7 q-12.5 -2 -23.5 -2 q-35 0 -61.5 14 q-26.5 14 -44 39.5 q-17.5 25.5 -26 60.5 q-8.5 35 -8.5 78 q0 51 10.5 92.5 q10.5 41.5 33 70 q22.5 28.5 57.5 44 q35 15.5 84 15.5 q96 0 137 -54 q41 -54 41 -152 q0 -46 -9.5 -89 q-9.5 -43 -24.5 -75 l-150 -331 l-121 0 l130 294 l-3 2 ZM237 379 q38 0 52.5 29.5 q14.5 29.5 15.5 80.5 q0 51 -13.5 79.5 q-13.5 28.5 -53.5 28.5 q-38 0 -55 -26.5 q-17 -26.5 -17 -89.5 q0 -45 14.5 -73.5 q14.5 -28.5 56.5 -28.5 Z" /><glyph glyph-name="colon" unicode=":" d="M57 0 l0 130 l124 0 l0 -130 l-124 0 ZM57 278 l0 130 l124 0 l0 -130 l-124 0 Z" /><glyph glyph-name="semicolon" unicode=";" d="M59 278 l0 130 l124 0 l0 -130 l-124 0 ZM56 -134 l32 131 l-29 0 l0 132 l125 0 l0 -128 l-66 -135 l-62 0 Z" /><glyph glyph-name="less" unicode="&lt;" d="M22 257 l0 80 l418 200 l0 -100 l-306 -140 l305 -139 l0 -101 l-417 200 Z" /><glyph glyph-name="equal" unicode="=" d="M18 347 l0 89 l428 0 l0 -89 l-428 0 ZM18 159 l0 88 l428 0 l0 -88 l-428 0 Z" /><glyph glyph-name="greater" unicode="&gt;" d="M24 57 l0 101 l305 139 l-306 140 l0 100 l418 -200 l0 -80 l-417 -200 Z" /><glyph glyph-name="question" unicode="?" d="M420 517 q0 -23 -3 -41.5 q-3 -18.5 -9 -34 q-6 -15.5 -14.5 -29 q-8.5 -13.5 -18.5 -28.5 q-12 -18 -26 -35.5 q-14 -17.5 -26.5 -36 q-12.5 -18.5 -21 -39 q-8.5 -20.5 -8.5 -42.5 l0 -45 l-112 0 l0 40 q0 38 7 66 q7 28 27 56 q16 24 31.5 45 q15.5 21 27 40 q11.5 19 19 37 q7.5 18 7.5 36 q0 14 -2.5 29.5 q-2.5 15.5 -10.5 28.5 q-8 13 -22.5 21.5 q-14.5 8.5 -38.5 8.5 q-36 0 -57.5 -26.5 q-21.5 -26.5 -23.5 -70.5 q-28 4 -55 7.5 q-27 3.5 -56 6.5 q4 47 21.5 82.5 q17.5 35.5 43.5 59.5 q26 24 60 36 q34 12 73 12 q93 0 140.5 -50 q47.5 -50 47.5 -134 ZM180 0 l0 111 l112 0 l0 -111 l-112 0 Z" /><glyph glyph-name="at" unicode="@" d="M548 392 q0 -33 -0.5 -66 q-0.5 -33 -0.5 -66 q0 -23 12.5 -37 q12.5 -14 31.5 -14 q20 0 37.5 9 q17.5 9 30 29 q12.5 20 19.5 53.5 q7 33.5 7 82.5 q0 60 -19.5 107.5 q-19.5 47.5 -53.5 81 q-34 33.5 -81.5 51.5 q-47.5 18 -102.5 18 q-69 0 -122.5 -24 q-53.5 -24 -90.5 -66 q-37 -42 -56.5 -98 q-19.5 -56 -19.5 -119 q0 -71 20.5 -128 q20.5 -57 58.5 -97.5 q38 -40.5 91.5 -62.5 q53.5 -22 120.5 -22 q28 0 53 2.5 q25 2.5 48 8 q23 5.5 46 14.5 q23 9 48 22 q8 -18 14.5 -36 q6.5 -18 14.5 -35 q-52 -23 -105.5 -36 q-53.5 -13 -113.5 -13 q-83 0 -152.5 24.5 q-69.5 24.5 -119.5 73 q-50 48.5 -78 120.5 q-28 72 -28 166 q0 82 26.5 151.5 q26.5 69.5 74.5 120.5 q48 51 116 79.5 q68 28.5 152 28.5 q80 0 143.5 -25 q63.5 -25 107.5 -69 q44 -44 67.5 -104.5 q23.5 -60.5 23.5 -132.5 q0 -63 -14 -110.5 q-14 -47.5 -38.5 -79 q-24.5 -31.5 -59 -47 q-34.5 -15.5 -74.5 -15.5 q-10 0 -24.5 3.5 q-14.5 3.5 -29.5 11 q-15 7.5 -27.5 19 q-12.5 11.5 -18.5 27.5 l-3 0 q-14 -23 -43.5 -38.5 q-29.5 -15.5 -63.5 -15.5 q-57 0 -88 33 q-31 33 -31 87 q0 24 7.5 46 q7.5 22 23.5 39 q16 17 40 27 q24 10 57 10 l79 0 l0 35 q0 20 -13.5 34 q-13.5 14 -47.5 14 q-43 0 -67 -37 q-17 10 -33.5 20 q-16.5 10 -33.5 20 q20 38 56.5 58 q36.5 20 82.5 20 q31 0 57 -6 q26 -6 45.5 -20.5 q19.5 -14.5 30.5 -38.5 q11 -24 11 -59 l0 -29 ZM340 264 q0 -18 13 -32 q13 -14 43 -14 q29 0 46.5 14.5 q17.5 14.5 17.5 43.5 l0 38 l-63 0 q-27 0 -42 -12 q-15 -12 -15 -38 Z" /><glyph glyph-name="A" unicode="a" d="M359 150 l-193 0 q-2 -9 -8 -30 q-6 -21 -12.5 -45 q-6.5 -24 -12 -45 q-5.5 -21 -8.5 -30 l-119 0 l201 696 l110 0 l202 -696 l-121 0 l-39 150 ZM227 392 l-36 -140 l142 0 l-35 139 q-2 9 -6.5 30 q-4.5 21 -10 44 q-5.5 23 -10.5 43.5 q-5 20.5 -6 29.5 l-5 0 l-33 -146 Z" /><glyph glyph-name="B" unicode="b" d="M484 206 q0 -100 -53.5 -153 q-53.5 -53 -143.5 -53 l-224 0 l0 696 l213 0 q99 0 148.5 -51 q49.5 -51 49.5 -139 q0 -44 -18.5 -81 q-18.5 -37 -66.5 -59 l0 -5 q25 -8 43 -23.5 q18 -15.5 29.5 -36.5 q11.5 -21 17 -45.5 q5.5 -24.5 5.5 -49.5 ZM362 502 q0 42 -22.5 66 q-22.5 24 -72.5 24 l-90 0 l0 -182 l91 0 q49 0 71.5 25.5 q22.5 25.5 22.5 66.5 ZM372 213 q0 44 -22 71 q-22 27 -73 27 l-100 0 l0 -202 l101 0 q27 0 45 8 q18 8 29 22.5 q11 14.5 15.5 33.5 q4.5 19 4.5 40 Z" /><glyph glyph-name="C" unicode="c" d="M466 148 q-17 -73 -72 -113.5 q-55 -40.5 -133 -40.5 q-54 0 -94 17 q-40 17 -67 47 q-27 30 -40 70.5 q-13 40.5 -13 87.5 l0 270 q0 41 13 80 q13 39 39.5 69 q26.5 30 66.5 48 q40 18 95 18 q84 0 136.5 -44 q52.5 -44 69.5 -110 l-109 -36 q-3 15 -10 29 q-7 14 -19 25.5 q-12 11.5 -29 18.5 q-17 7 -39 7 q-26 0 -44.5 -9 q-18.5 -9 -30.5 -23.5 q-12 -14.5 -18 -32.5 q-6 -18 -6 -36 l0 -277 q0 -22 6 -42 q6 -20 18.5 -35 q12.5 -15 31 -23.5 q18.5 -8.5 43.5 -8.5 q37 0 63 21 q26 21 33 58 l109 -35 Z" /><glyph glyph-name="D" unicode="d" d="M372 437 q0 71 -25 112 q-25 41 -89 41 l-81 0 l0 -484 l82 0 q64 0 88.5 33.5 q24.5 33.5 24.5 93.5 l0 204 ZM275 696 q70 0 120 -26 q50 -26 73 -86 q14 -37 16.5 -91.5 q2.5 -54.5 2.5 -123.5 q0 -85 -1 -145.5 q-1 -60.5 -17 -103.5 q-13 -35 -34 -58 q-21 -23 -48 -36.5 q-27 -13.5 -59 -19.5 q-32 -6 -66 -6 l-200 0 l0 696 l213 0 Z" /><glyph glyph-name="E" unicode="e" d="M63 0 l0 696 l387 0 l0 -106 l-273 0 l0 -186 l235 0 l0 -104 l-235 0 l0 -191 l273 0 l0 -109 l-387 0 Z" /><glyph glyph-name="F" unicode="f" d="M177 590 l0 -189 l235 0 l0 -104 l-235 0 l0 -297 l-114 0 l0 696 l387 0 l0 -106 l-273 0 Z" /><glyph glyph-name="G" unicode="g" d="M263 701 q42 0 76.5 -11.5 q34.5 -11.5 60.5 -32.5 q26 -21 43.5 -49.5 q17.5 -28.5 25.5 -61.5 l-109 -34 q-3 15 -10 29 q-7 14 -19 25 q-12 11 -29 18 q-17 7 -39 7 q-26 0 -44.5 -9 q-18.5 -9 -30.5 -23.5 q-12 -14.5 -18 -32.5 q-6 -18 -6 -36 l0 -278 q0 -22 6 -42 q6 -20 18.5 -35 q12.5 -15 31 -24 q18.5 -9 43.5 -9 q50 0 75.5 28.5 q25.5 28.5 25.5 69.5 l0 82 l-104 0 l0 99 l218 0 l0 -165 q0 -50 -15 -91 q-15 -41 -42.5 -70 q-27.5 -29 -67.5 -45 q-40 -16 -90 -16 q-54 0 -94 17 q-40 17 -66.5 47 q-26.5 30 -39.5 70.5 q-13 40.5 -13 87.5 l0 270 q0 41 12.5 80 q12.5 39 39 69 q26.5 30 66.5 48 q40 18 95 18 Z" /><glyph glyph-name="H" unicode="h" d="M373 0 l0 301 l-196 0 l0 -301 l-115 0 l0 696 l115 0 l0 -292 l196 0 l0 292 l114 0 l0 -696 l-114 0 Z" /><glyph glyph-name="I" unicode="i" d="M64 0 l0 696 l115 0 l0 -696 l-115 0 Z" /><glyph glyph-name="J" unicode="j" d="M359 190 q0 -52 -15.5 -89 q-15.5 -37 -42.5 -60.5 q-27 -23.5 -63 -34.5 q-36 -11 -76 -11 q-51 0 -93.5 18.5 q-42.5 18.5 -73.5 60.5 l80 73 q16 -23 39.5 -34 q23.5 -11 44.5 -11 q38 0 62 22.5 q24 22.5 24 68.5 l0 503 l114 0 l0 -506 Z" /><glyph glyph-name="K" unicode="k" d="M407 0 q-38 78 -75.5 155.5 q-37.5 77.5 -75.5 155.5 q-20 -30 -40 -60.5 q-20 -30.5 -40 -59.5 l0 -191 l-114 0 l0 696 l114 0 l0 -315 l3 0 l204 315 l131 0 l-186 -278 q51 -106 103 -209.5 q52 -103.5 104 -208.5 l-128 0 Z" /><glyph glyph-name="L" unicode="l" d="M63 0 l0 696 l114 0 l0 -587 l269 0 l0 -109 l-383 0 Z" /><glyph glyph-name="M" unicode="m" d="M499 0 l0 407 l-4 0 l-51 -130 l-66 -152 l-81 0 l-68 157 l-50 126 l-4 -1 l0 -407 l-114 0 l0 696 l109 0 l98 -228 l68 -168 l4 0 l67 169 l96 227 l110 0 l0 -696 l-114 0 Z" /><glyph glyph-name="N" unicode="n" d="M416 0 l-164 299 l-73 143 l-3 -1 l0 -441 l-115 0 l0 696 l105 0 l154 -284 l82 -156 l4 1 l0 439 l114 0 l0 -696 l-104 0 Z" /><glyph glyph-name="O" unicode="o" d="M471 211 q0 -50 -15.5 -90 q-15.5 -40 -44 -68.5 q-28.5 -28.5 -67.5 -43.5 q-39 -15 -86 -15 q-57 0 -98 18.5 q-41 18.5 -66.5 50 q-25.5 31.5 -37.5 73 q-12 41.5 -12 87.5 l0 263 q0 37 11.5 75 q11.5 38 37 69 q25.5 31 66 51 q40.5 20 99.5 20 q55 0 95 -19 q40 -19 66.5 -49.5 q26.5 -30.5 39 -69 q12.5 -38.5 12.5 -77.5 l0 -275 ZM355 488 q0 13 -4.5 30.5 q-4.5 17.5 -15.5 33.5 q-11 16 -29.5 27.5 q-18.5 11.5 -47.5 11.5 q-29 0 -48.5 -10.5 q-19.5 -10.5 -31 -26 q-11.5 -15.5 -16.5 -33.5 q-5 -18 -5 -34 l1 -266 q0 -50 23 -84 q23 -34 78 -34 q39 0 67.5 26.5 q28.5 26.5 28.5 72.5 l0 286 Z" /><glyph glyph-name="P" unicode="p" d="M486 481 q0 -45 -13 -84 q-13 -39 -38.5 -68 q-25.5 -29 -64.5 -45.5 q-39 -16.5 -91 -16.5 l-102 0 l0 -267 l-114 0 l0 696 l210 0 q49 0 88 -13 q39 -13 67 -39.5 q28 -26.5 43 -67 q15 -40.5 15 -95.5 ZM373 483 q0 52 -25 79.5 q-25 27.5 -76 27.5 l-95 0 l0 -216 l96 0 q51 0 75.5 29.5 q24.5 29.5 24.5 79.5 Z" /><glyph glyph-name="Q" unicode="q" d="M478 211 q0 -60 -23 -108 l70 -57 l-55 -65 q-17 14 -35 27.5 q-18 13.5 -35 27.5 q-54 -42 -135 -42 q-57 0 -98 18.5 q-41 18.5 -66.5 50 q-25.5 31.5 -37.5 73 q-12 41.5 -12 87.5 l0 263 q0 37 11.5 75.5 q11.5 38.5 37 69.5 q25.5 31 66 50.5 q40.5 19.5 99.5 19.5 q55 0 95 -18.5 q40 -18.5 66.5 -49 q26.5 -30.5 39 -69 q12.5 -38.5 12.5 -78.5 l0 -275 ZM363 489 q0 13 -4.5 30.5 q-4.5 17.5 -15.5 33.5 q-11 16 -30 27 q-19 11 -48 11 q-28 0 -47 -10 q-19 -10 -31 -25.5 q-12 -15.5 -17.5 -33.5 q-5.5 -18 -5.5 -33 l0 -16 q0 -35 -2 -76 q-2 -41 -2.5 -82 q-0.5 -41 3 -79.5 q3.5 -38.5 14.5 -68 q11 -29.5 32.5 -47.5 q21.5 -18 56.5 -18 q11 0 22.5 3.5 q11.5 3.5 19.5 8.5 l-62 49 l53 66 l59 -46 q2 5 3 11 q1 6 2 12 l0 283 Z" /><glyph glyph-name="R" unicode="r" d="M370 0 l-104 290 l-89 0 l0 -290 l-114 0 l0 696 l224 0 q43 0 80 -12.5 q37 -12.5 63.5 -37.5 q26.5 -25 41.5 -62.5 q15 -37.5 15 -87.5 q0 -66 -28 -114 q-28 -48 -83 -73 l119 -309 l-125 0 ZM375 496 q0 49 -25 72.5 q-25 23.5 -72 23.5 l-101 0 l0 -199 l100 0 q45 0 71.5 26 q26.5 26 26.5 77 Z" /><glyph glyph-name="S" unicode="s" d="M474 198 q0 -95 -58 -149.5 q-58 -54.5 -164 -54.5 q-84 0 -139 33.5 q-55 33.5 -86 86.5 l94 68 q23 -36 55 -57.5 q32 -21.5 78 -21.5 q55 0 77.5 26.5 q22.5 26.5 22.5 65.5 q0 24 -9 41 q-9 17 -25 29.5 q-16 12.5 -39 21.5 q-23 9 -50 17 q-50 16 -85 34 q-35 18 -57.5 41.5 q-22.5 23.5 -32.5 54 q-10 30.5 -10 69.5 q0 43 15 79.5 q15 36.5 43 63 q28 26.5 66.5 41 q38.5 14.5 86.5 14.5 q78 0 126.5 -26 q48.5 -26 77.5 -71 l-87 -73 q-23 32 -52 47 q-29 15 -67 15 q-45 0 -69 -24.5 q-24 -24.5 -24 -61.5 q0 -21 11 -36.5 q11 -15.5 30 -27.5 q19 -12 45 -21.5 q26 -9.5 55 -18.5 q49 -15 81.5 -34.5 q32.5 -19.5 52.5 -44.5 q20 -25 28.5 -56 q8.5 -31 8.5 -70 Z" /><glyph glyph-name="T" unicode="t" d="M271 592 l0 -592 l-114 0 l0 592 l-153 0 l0 104 l421 0 l0 -104 l-154 0 Z" /><glyph glyph-name="U" unicode="u" d="M482 696 l0 -485 q0 -50 -15.5 -90.5 q-15.5 -40.5 -44 -68.5 q-28.5 -28 -67.5 -43 q-39 -15 -86 -15 q-54 0 -94.5 17.5 q-40.5 17.5 -67 47.5 q-26.5 30 -40 70.5 q-13.5 40.5 -13.5 86.5 l0 480 l114 0 l0 -483 q0 -45 25.5 -77 q25.5 -32 75.5 -32 q42 0 69.5 27.5 q27.5 27.5 27.5 74.5 l0 490 l116 0 Z" /><glyph glyph-name="V" unicode="v" d="M304 0 l-111 0 l-185 696 l122 0 l73 -307 l45 -208 l4 0 l44 208 l73 307 l121 0 l-186 -696 Z" /><glyph glyph-name="W" unicode="w" d="M571 0 l-102 0 q-17 75 -36 150.5 q-19 75.5 -36 151.5 l-33 145 l-3 0 q-8 -36 -16 -72 q-8 -36 -16 -72 q-17 -76 -36.5 -152 q-19.5 -76 -36.5 -151 l-102 0 l-143 695 l123 0 q12 -72 25 -142.5 q13 -70.5 25 -142.5 q8 -42 14 -84.5 q6 -42.5 13 -84.5 l4 0 q7 32 13.5 65 q6.5 33 14.5 65 q19 81 37 162 q18 81 37 162 l92 0 l75 -326 q7 -33 13.5 -65 q6.5 -32 14.5 -65 l4 0 l25 166 q15 89 26.5 157 q11.5 68 22.5 133 l123 0 l-142 -695 Z" /><glyph glyph-name="X" unicode="x" d="M131 0 l-129 0 q8 15 22.5 43.5 q14.5 28.5 32.5 63.5 q18 35 37.5 73 q19.5 38 37 73 q17.5 35 32 63.5 q14.5 28.5 22.5 43.5 l-172 336 l130 0 l102 -225 l104 225 l129 0 l-173 -336 l185 -360 l-128 0 l-116 247 l-116 -247 Z" /><glyph glyph-name="Y" unicode="y" d="M241 404 q11 34 23 67 q12 33 24 67 l61 158 l121 0 l-176 -412 l0 -284 l-112 0 l0 284 l-176 413 l124 0 q15 -41 30.5 -81 q15.5 -40 29.5 -80 q11 -32 22.5 -66 q11.5 -34 22.5 -66 l6 0 Z" /><glyph glyph-name="Z" unicode="z" d="M26 0 l0 102 l253 490 l-242 0 l0 104 l372 0 l0 -97 l-253 -491 l253 0 l0 -108 l-383 0 Z" /><glyph glyph-name="bracketleft" unicode="[" d="M66 -100 l0 798 l179 0 l0 -78 l-78 0 l0 -643 l78 0 l0 -77 l-179 0 Z" /><glyph glyph-name="backslash" unicode="\" d="M1 720 l87 0 l204 -754 l-86 0 l-205 754 Z" /><glyph glyph-name="bracketright" unicode="]" d="M19 -101 l0 77 l77 0 l0 644 l-77 0 l0 78 l178 0 l0 -799 l-178 0 Z" /><glyph glyph-name="asciicircum" unicode="^" d="M115 301 l-100 0 l179 394 l80 0 q8 -18 22 -49 q14 -31 31 -69 q17 -38 36 -79 q19 -41 36.5 -79 q17.5 -38 31.5 -69 q14 -31 22 -49 l-100 0 l-119 276 l-119 -276 Z" /><glyph glyph-name="underscore" unicode="_" d="M0 -145 l0 76 l500 0 l0 -76 l-500 0 Z" /><glyph glyph-name="quoteleft" unicode="&#x2018;" d="M190 719 l-32 -131 l28 0 l0 -132 l-124 0 l0 128 l67 135 l61 0 Z" /><glyph glyph-name="a" unicode="a" d="M290 0 l0 38 l-4 2 q-18 -24 -48 -34.5 q-30 -10.5 -61 -10.5 q-73 0 -108 41 q-35 41 -35 108 q0 32 10 59.5 q10 27.5 31 48 q21 20.5 53 32.5 q32 12 76 12 l86 0 l0 45 q0 25 -17 42.5 q-17 17.5 -56 17.5 q-27 0 -50 -9.5 q-23 -9.5 -36 -34.5 q-4 2 -16 9.5 q-12 7.5 -25.5 15.5 q-13.5 8 -25 15.5 q-11.5 7.5 -15.5 10.5 q23 48 68 70 q45 22 102 22 q39 0 72 -7.5 q33 -7.5 57.5 -25.5 q24.5 -18 38.5 -47.5 q14 -29.5 14 -73.5 l0 -346 l-111 0 ZM290 212 l-79 0 q-33 0 -51.5 -15.5 q-18.5 -15.5 -18.5 -45.5 q0 -23 16.5 -40 q16.5 -17 54.5 -17 q32 0 55 16.5 q23 16.5 23 53.5 l0 48 Z" /><glyph glyph-name="b" unicode="b" d="M158 41 l0 -41 l-111 0 l0 726 l111 0 l0 -276 l3 0 q19 25 47.5 37.5 q28.5 12.5 53.5 12.5 q52 0 82.5 -22 q30.5 -22 45.5 -57.5 q15 -35.5 19 -80 q4 -44.5 4 -89.5 q0 -46 -4.5 -92 q-4.5 -46 -20.5 -82.5 q-16 -36.5 -46 -59.5 q-30 -23 -82 -23 q-29 0 -54.5 12 q-25.5 12 -45.5 37 l-2 -2 ZM228 395 q-25 0 -39 -13.5 q-14 -13.5 -21 -34.5 q-7 -21 -9 -46 q-2 -25 -2 -49 q0 -29 1 -56.5 q1 -27.5 8 -49.5 q7 -22 21.5 -35 q14.5 -13 40.5 -13 q24 0 38 11.5 q14 11.5 21.5 32 q7.5 20.5 10 48.5 q2.5 28 2.5 61 q0 30 -2.5 56.5 q-2.5 26.5 -10 46 q-7.5 19.5 -22 30.5 q-14.5 11 -37.5 11 Z" /><glyph glyph-name="c" unicode="c" d="M220 501 q58 0 101 -27 q43 -27 63 -76 q-4 -3 -17.5 -10 q-13.5 -7 -29 -14.5 q-15.5 -7.5 -29 -14.5 q-13.5 -7 -17.5 -10 q-22 49 -67 49 q-26 0 -42.5 -11 q-16.5 -11 -25.5 -30.5 q-9 -19.5 -12 -47 q-3 -27.5 -3 -59.5 q0 -33 3.5 -61.5 q3.5 -28.5 12.5 -48.5 q9 -20 25 -31.5 q16 -11.5 41 -11.5 q24 0 40.5 13 q16.5 13 27.5 34 q4 -3 17.5 -9.5 q13.5 -6.5 29 -14.5 q15.5 -8 29 -14.5 q13.5 -6.5 18.5 -9.5 q-20 -48 -63 -74.5 q-43 -26.5 -101 -26.5 q-56 0 -93 19 q-37 19 -58.5 52.5 q-21.5 33.5 -30.5 80.5 q-9 47 -9 104 q0 55 10.5 101 q10.5 46 33 79 q22.5 33 58.5 51.5 q36 18.5 88 18.5 Z" /><glyph glyph-name="d" unicode="d" d="M291 42 q-20 -25 -46 -36 q-26 -11 -55 -11 q-52 0 -82.5 21.5 q-30.5 21.5 -46 57 q-15.5 35.5 -19.5 81 q-4 45.5 -4 93.5 q0 46 5.5 91 q5.5 45 22 81 q16.5 36 47.5 58 q31 22 82 22 q25 0 51 -11 q26 -11 44 -33 l3 0 l0 270 l111 0 l0 -726 l-111 0 l0 40 l-2 2 ZM223 395 q-24 0 -38.5 -12 q-14.5 -12 -22 -32.5 q-7.5 -20.5 -9.5 -46.5 q-2 -26 -2 -53 q0 -32 2.5 -59.5 q2.5 -27.5 10 -48.5 q7.5 -21 21.5 -33 q14 -12 38 -12 q26 0 40.5 14 q14.5 14 21 36.5 q6.5 22.5 8 49.5 q1.5 27 1.5 54 q0 25 -2 51 q-2 26 -9.5 46 q-7.5 20 -21.5 33 q-14 13 -38 13 Z" /><glyph glyph-name="e" unicode="e" d="M305 145 q23 -12 45.5 -24 q22.5 -12 45.5 -25 q-23 -50 -68 -75.5 q-45 -25.5 -100 -25.5 q-105 0 -148.5 62 q-43.5 62 -43.5 190 q0 53 8.5 99 q8.5 46 30 80.5 q21.5 34.5 57.5 54.5 q36 20 91 20 q51 0 86 -17 q35 -17 57 -47 q22 -30 31.5 -71 q9.5 -41 9.5 -90 l0 -58 l-259 0 q0 -24 3 -46.5 q3 -22.5 12 -39.5 q9 -17 24 -27 q15 -10 39 -10 q24 0 44 13.5 q20 13.5 35 36.5 ZM294 295 q0 47 -16.5 75.5 q-16.5 28.5 -56.5 28.5 q-40 0 -55 -30 q-15 -30 -17 -74 l145 0 Z" /><glyph glyph-name="f" unicode="f" d="M180 407 l0 -407 l-111 0 l0 407 l-52 0 l0 88 l52 0 l0 99 q0 34 10.5 59 q10.5 25 28.5 41.5 q18 16.5 42 24.5 q24 8 52 8 l65 0 l0 -98 l-44 0 q-22 0 -32.5 -13.5 q-10.5 -13.5 -10.5 -34.5 l0 -86 l87 0 l0 -88 l-87 0 Z" /><glyph glyph-name="g" unicode="g" d="M402 -6 q0 -90 -47 -145 q-47 -55 -143 -55 q-51 0 -93 21 q-42 21 -69 61 q4 3 16 12.5 q12 9.5 25.5 20.5 q13.5 11 25.5 20.5 q12 9.5 16 12.5 q14 -21 34.5 -34 q20.5 -13 46.5 -13 q37 0 57 22.5 q20 22.5 20 60.5 l0 71 l-3 0 q-19 -25 -47.5 -37.5 q-28.5 -12.5 -53.5 -12.5 q-53 0 -83 22 q-30 22 -45.5 57 q-15.5 35 -19.5 79 q-4 44 -4 88 q0 44 4 89.5 q4 45.5 19.5 82 q15.5 36.5 46 60 q30.5 23.5 83.5 23.5 q28 0 54.5 -11.5 q26.5 -11.5 46.5 -36.5 l2 2 l0 41 l111 0 l0 -501 ZM219 105 q24 0 38 12 q14 12 22 32 q8 20 10.5 44.5 q2.5 24.5 2.5 50.5 q0 29 -1.5 56.5 q-1.5 27.5 -8.5 48.5 q-7 21 -21.5 34 q-14.5 13 -40.5 13 q-24 0 -38.5 -12 q-14.5 -12 -22 -32 q-7.5 -20 -9.5 -48 q-2 -28 -2 -59 q0 -30 2.5 -55.5 q2.5 -25.5 10 -44.5 q7.5 -19 21.5 -29.5 q14 -10.5 37 -10.5 Z" /><glyph glyph-name="h" unicode="h" d="M301 0 l0 318 q0 37 -18.5 56.5 q-18.5 19.5 -50.5 19.5 q-32 0 -52 -20 q-20 -20 -20 -58 l0 -316 l-110 0 l0 726 l110 0 l0 -278 l4 0 q19 23 47 37.5 q28 14.5 59 14.5 q64 0 103 -41 q39 -41 39 -111 l0 -348 l-111 0 Z" /><glyph glyph-name="i" unicode="i" d="M57 592 l0 104 l111 0 l0 -104 l-111 0 ZM57 0 l0 495 l111 0 l0 -495 l-111 0 Z" /><glyph glyph-name="j" unicode="j" d="M173 -58 q0 -66 -40.5 -104.5 q-40.5 -38.5 -112.5 -38.5 l-31 0 l0 100 l22 0 q29 1 40 20.5 q11 19.5 11 49.5 l0 527 l111 0 l0 -554 ZM62 592 l0 104 l111 0 l0 -104 l-111 0 Z" /><glyph glyph-name="k" unicode="k" d="M167 304 l140 190 l136 0 l-151 -192 l169 -302 l-129 0 l-114 212 l-54 -74 l0 -138 l-110 0 l0 725 l110 0 l0 -421 l3 0 Z" /><glyph glyph-name="l" unicode="l" d="M190 -2 q-65 0 -101 28 q-36 28 -36 101 l0 599 l111 0 l0 -577 q0 -29 11 -40.5 q11 -11.5 35 -11.5 l16 0 l0 -99 l-36 0 Z" /><glyph glyph-name="m" unicode="m" d="M662 0 l-110 0 l0 278 q0 54 -13 85 q-13 31 -55 31 q-22 0 -35.5 -8 q-13.5 -8 -21.5 -23 q-8 -15 -11 -36 q-3 -21 -3 -48 l0 -279 l-111 0 l0 278 q0 54 -12.5 85 q-12.5 31 -55.5 31 q-43 0 -57 -31.5 q-14 -31.5 -14 -86.5 l0 -276 l-110 0 l0 494 l110 0 l0 -48 q2 0 2 -0.5 q0 -0.5 2 -0.5 q19 26 47 40.5 q28 14.5 59 14.5 q42 0 71.5 -17.5 q29.5 -17.5 47.5 -46.5 l1 0 q26 31 57.5 47.5 q31.5 16.5 69.5 16.5 q36 0 63 -13 q27 -13 44.5 -35 q17.5 -22 26 -52 q8.5 -30 8.5 -64 l0 -336 Z" /><glyph glyph-name="n" unicode="n" d="M300 0 l0 318 q0 37 -20 56.5 q-20 19.5 -50 19.5 q-32 0 -52 -20.5 q-20 -20.5 -20 -57.5 l0 -316 l-110 0 l0 495 l111 0 l0 -48 l3 0 q20 24 48 38.5 q28 14.5 59 14.5 q67 0 104 -40.5 q37 -40.5 37 -110.5 l0 -349 l-110 0 Z" /><glyph glyph-name="o" unicode="o" d="M228 502 q64 0 101 -25.5 q37 -25.5 56 -63.5 q14 -28 19 -73.5 q5 -45.5 5 -93.5 q0 -40 -5 -84 q-5 -44 -16 -71 q-11 -28 -28.5 -46.5 q-17.5 -18.5 -40 -30 q-22.5 -11.5 -48.5 -16.5 q-26 -5 -53 -5 q-54 0 -90.5 20 q-36.5 20 -56.5 53 q-18 29 -25.5 75 q-7.5 46 -7.5 104 q0 45 4.5 87.5 q4.5 42.5 15.5 68.5 q20 47 62 74 q42 27 108 27 ZM226 400 q-22 0 -40 -11 q-18 -11 -26 -34 q-7 -18 -9.5 -47.5 q-2.5 -29.5 -2.5 -67.5 q0 -29 1.5 -55 q1.5 -26 8.5 -45 q17 -45 65 -45 q23 0 42 11.5 q19 11.5 27 45.5 q4 14 5.5 41 q1.5 27 1.5 61 q0 30 -2 55.5 q-2 25.5 -8 42.5 q-17 48 -63 48 Z" /><glyph glyph-name="p" unicode="p" d="M159 453 q19 25 45.5 36 q26.5 11 54.5 11 q52 0 82 -22.5 q30 -22.5 46 -59 q16 -36.5 20.5 -82 q4.5 -45.5 4.5 -90.5 q0 -45 -5.5 -90 q-5.5 -45 -22 -81 q-16.5 -36 -47.5 -58 q-31 -22 -82 -22 q-25 0 -51.5 11 q-26.5 11 -44.5 34 q-1 0 -1.5 -0.5 q-0.5 -0.5 -1.5 -0.5 l0 -239 l-110 0 l0 695 l110 0 l0 -41 q1 0 1.5 -0.5 q0.5 -0.5 1.5 -0.5 ZM227 100 q24 0 38.5 12.5 q14.5 12.5 22 33.5 q7.5 21 10 47 q2.5 26 2.5 53 q0 31 -2.5 58.5 q-2.5 27.5 -10 48 q-7.5 20.5 -21.5 32 q-14 11.5 -38 11.5 q-26 0 -40.5 -13 q-14.5 -13 -21.5 -35 q-7 -22 -8.5 -49.5 q-1.5 -27.5 -1.5 -56.5 q0 -24 2 -49 q2 -25 9 -45.5 q7 -20.5 21 -34 q14 -13.5 39 -13.5 Z" /><glyph glyph-name="q" unicode="q" d="M297 453 l0 41 l111 0 l0 -695 l-111 0 l0 245 l-3 0 q-19 -25 -47.5 -37.5 q-28.5 -12.5 -53.5 -12.5 q-51 0 -81.5 21 q-30.5 21 -46 56 q-15.5 35 -20.5 80 q-5 45 -5 92 q0 45 5 91 q5 46 21.5 83 q16.5 37 46.5 60 q30 23 81 23 q29 0 55 -12 q26 -12 46 -37 l2 2 ZM226 99 q24 0 38 13.5 q14 13.5 21.5 34.5 q7.5 21 10 46 q2.5 25 2.5 49 q0 29 -1.5 56.5 q-1.5 27.5 -8.5 49.5 q-7 22 -21.5 35 q-14.5 13 -40.5 13 q-23 0 -37.5 -12 q-14.5 -12 -22 -33 q-7.5 -21 -10 -49 q-2.5 -28 -2.5 -59 q0 -27 2 -53 q2 -26 9.5 -46.5 q7.5 -20.5 22 -32.5 q14.5 -12 38.5 -12 Z" /><glyph glyph-name="r" unicode="r" d="M259 391 q-42 0 -66.5 -22.5 q-24.5 -22.5 -24.5 -72.5 l0 -297 l-111 0 l0 496 l110 0 l0 -57 l3 -1 q20 36 49 49.5 q29 13.5 65 13.5 q15 0 28 -2.5 q13 -2.5 24 -10.5 l-22 -108 q-14 7 -27.5 9.5 q-13.5 2.5 -27.5 2.5 Z" /><glyph glyph-name="s" unicode="s" d="M395 147 q0 -69 -49 -111 q-49 -42 -135 -42 q-66 0 -111 23.5 q-45 23.5 -74 73.5 l82 60 q34 -59 102 -59 q34 0 53.5 15 q19.5 15 19.5 41 q0 27 -18.5 38 q-18.5 11 -51.5 19 q-35 8 -66.5 18.5 q-31.5 10.5 -55.5 27 q-24 16.5 -38.5 41.5 q-14.5 25 -14.5 61 q0 34 13.5 61.5 q13.5 27.5 36.5 46.5 q23 19 55 29 q32 10 69 10 q67 0 107.5 -22.5 q40.5 -22.5 65.5 -61.5 l-74 -64 q-33 51 -96 51 q-37 0 -51.5 -15.5 q-14.5 -15.5 -14.5 -33.5 q0 -12 7.5 -20.5 q7.5 -8.5 20.5 -14.5 q13 -6 29 -10.5 q16 -4.5 33 -8.5 q34 -8 63 -18.5 q29 -10.5 49.5 -28 q20.5 -17.5 32 -43.5 q11.5 -26 11.5 -63 Z" /><glyph glyph-name="t" unicode="t" d="M196 0 q-62 0 -93 35 q-31 35 -31 86 l0 286 l-52 0 l0 88 l52 0 l0 130 l108 0 l0 -130 l68 0 l0 -88 l-68 0 l0 -253 q0 -26 11 -40.5 q11 -14.5 37 -14.5 l24 0 l0 -99 l-56 0 Z" /><glyph glyph-name="u" unicode="u" d="M301 0 l0 46 q-1 0 -2 0.5 q-1 0.5 -2 0.5 q-19 -25 -47.5 -38.5 q-28.5 -13.5 -58.5 -13.5 q-68 0 -105 40 q-37 40 -37 110 l0 349 l110 0 l0 -318 q0 -37 20.5 -57 q20.5 -20 49.5 -20 q39 0 55.5 28.5 q16.5 28.5 16.5 76.5 l0 290 l110 0 l0 -494 l-110 0 Z" /><glyph glyph-name="v" unicode="v" d="M216 154 q3 12 7.5 31 q4.5 19 9.5 39.5 q5 20.5 9.5 39.5 q4.5 19 7.5 30 q4 19 10.5 45.5 q6.5 26.5 13.5 54.5 q7 28 13.5 54.5 q6.5 26.5 11.5 45.5 l120 0 q-4 -10 -15.5 -47.5 q-11.5 -37.5 -27.5 -89 q-16 -51.5 -33.5 -110 q-17.5 -58.5 -33.5 -110 q-16 -51.5 -27.5 -89.5 q-11.5 -38 -15.5 -48 l-108 0 q-15 46 -35.5 112 q-20.5 66 -41.5 135.5 q-21 69.5 -41 135 q-20 65.5 -35 111.5 l120 0 q5 -18 12 -44.5 q7 -26.5 14 -55 q7 -28.5 13.5 -55 q6.5 -26.5 11.5 -44.5 l36 -141 l4 0 Z" /><glyph glyph-name="w" unicode="w" d="M642 495 q-33 -125 -66 -247.5 q-33 -122.5 -67 -247.5 l-107 0 l-30 115 l-46 185 l-3 0 q-11 -42 -21 -87 q-10 -45 -21 -85 q-11 -41 -18.5 -70.5 q-7.5 -29.5 -14.5 -57.5 l-108 0 q-33 125 -66 247.5 q-33 122.5 -67 247.5 l118 0 l32 -152 q9 -44 18 -87 q9 -43 20 -87 l4 0 q11 44 20.5 86 q9.5 42 20.5 87 q9 38 18 76.5 q9 38.5 17 76.5 l101 0 l31 -138 l46 -191 l4 0 q3 10 5.5 21 q2.5 11 6.5 30 q4 19 10 49 q6 30 16 77 q8 38 15 76 q7 38 16 76 l116 0 l0 0 Z" /><glyph glyph-name="x" unicode="x" d="M298 0 l-83 166 l-83 -166 l-126 0 l149 253 q-36 60 -71.5 120.5 q-35.5 60.5 -71.5 121.5 l127 0 l76 -158 l1 0 l76 158 l125 0 l-143 -243 l150 -252 l-126 0 Z" /><glyph glyph-name="y" unicode="y" d="M230 -93 q-17 -56 -53.5 -82 q-36.5 -26 -87.5 -26 l-37 0 l0 95 l26 0 q44 0 60 61 l18 64 l-155 476 l118 0 l48 -179 l39 -152 l4 0 l38 152 l48 179 l116 0 l-182 -588 Z" /><glyph glyph-name="z" unicode="z" d="M28 0 l0 96 l203 302 l-189 0 l0 97 l318 0 l0 -92 l-203 -301 l203 0 l0 -102 l-332 0 Z" /><glyph glyph-name="braceleft" unicode="{" d="M185 -100 q-43 0 -72.5 31 q-29.5 31 -29.5 83 l0 127 q0 57 -14.5 88 q-14.5 31 -54.5 34 l0 72 q35 3 52 32.5 q17 29.5 17 76.5 l0 137 q0 54 30 84.5 q30 30.5 72 30.5 l70 0 l0 -76 l-31 0 q-21 0 -31 -21.5 q-10 -21.5 -10 -47.5 l0 -126 q0 -27 -6.5 -48 q-6.5 -21 -16.5 -36 q-10 -15 -22 -25 q-12 -10 -23 -15 l0 -2 q12 -6 24 -16 q12 -10 21.5 -25 q9.5 -15 16 -36 q6.5 -21 6.5 -48 l0 -124 q0 -14 1.5 -27 q1.5 -13 6 -24 q4.5 -11 12.5 -17.5 q8 -6.5 21 -6.5 l31 0 l0 -75 l-70 0 Z" /><glyph glyph-name="bar" unicode="|" d="M71 -179 l0 902 l91 0 l0 -902 l-91 0 Z" /><glyph glyph-name="braceright" unicode="}" d="M254 263 q-40 -3 -54.5 -34 q-14.5 -31 -14.5 -88 l0 -127 q0 -53 -30 -83.5 q-30 -30.5 -72 -30.5 l-70 0 l0 75 l32 0 q13 0 21 6.5 q8 6.5 12.5 17.5 q4.5 11 6 24 q1.5 13 1.5 27 l0 124 q0 27 6.5 48 q6.5 21 16 36 q9.5 15 21.5 25 q12 10 24 16 l0 2 q-11 5 -23 15 q-12 10 -22 25 q-10 15 -16.5 36 q-6.5 21 -6.5 48 l0 126 q0 26 -9 47.5 q-9 21.5 -32 21.5 l-32 0 l0 75 l70 0 q45 0 73.5 -31 q28.5 -31 28.5 -83 l0 -124 q0 -54 15 -86 q15 -32 54 -36 l0 -72 l0 0 Z" /><glyph glyph-name="asciitilde" unicode="~" d="M444 308 q-26 -51 -56.5 -77 q-30.5 -26 -69.5 -26 q-21 0 -42 8.5 q-21 8.5 -41.5 18.5 q-20.5 10 -40 18.5 q-19.5 8.5 -37.5 8.5 q-20 0 -36.5 -10.5 q-16.5 -10.5 -38.5 -38.5 l-61 39 q25 48 56.5 74.5 q31.5 26.5 75.5 26.5 q22 0 43.5 -8.5 q21.5 -8.5 41 -18.5 q19.5 -10 37.5 -18.5 q18 -8.5 35 -8.5 q20 0 35.5 13 q15.5 13 35.5 39 q16 -11 31.5 -20.5 q15.5 -9.5 31.5 -19.5 Z" /><glyph glyph-name="sterling" unicode="£" d="M31 367 l59 0 q-5 23 -11.5 42.5 q-6.5 19.5 -12.5 38.5 q-6 19 -10 38 q-4 19 -4 40 q0 37 12.5 69 q12.5 32 36 55.5 q23.5 23.5 57.5 37 q34 13.5 77 13.5 q70 0 120.5 -32 q50.5 -32 76.5 -107 l-99 -42 q-19 44 -41.5 60 q-22.5 16 -52.5 16 q-24 0 -46.5 -19.5 q-22.5 -19.5 -22.5 -55.5 q0 -17 4.5 -34.5 q4.5 -17.5 10.5 -36 q6 -18.5 12.5 -39 q6.5 -20.5 11.5 -44.5 l123 0 l0 -84 l-120 0 q-2 -55 -12.5 -98 q-10.5 -43 -33.5 -85 l252 0 l0 -100 l-386 0 l0 88 q24 37 41 73.5 q17 36.5 22 82.5 q2 9 2.5 18.5 q0.5 9.5 1.5 20.5 l-68 0 l0 84 Z" /><glyph glyph-name="yen" unicode="¥" d="M316 353 l97 0 l0 -63 l-121 0 l-5 -13 l0 -47 l126 0 l0 -64 l-126 0 l0 -166 l-109 0 l0 166 l-123 0 l0 64 l123 0 l0 47 l-5 13 l-118 0 l0 63 l93 0 l-138 343 l118 0 q15 -42 30.5 -83 q15.5 -41 29.5 -83 l42 -128 l5 0 q11 32 21 64.5 q10 32.5 21 64.5 q15 42 29.5 82.5 q14.5 40.5 28.5 82.5 l119 0 l-138 -343 Z" /><glyph glyph-name="section" unicode="§" d="M424 293 q0 -34 -15 -62 q-15 -28 -41 -46 q41 -44 41 -100 q0 -36 -14 -65.5 q-14 -29.5 -39 -50.5 q-25 -21 -60.5 -32.5 q-35.5 -11.5 -77.5 -11.5 q-51 0 -99 20.5 q-48 20.5 -83 54.5 l62 70 q31 -29 61.5 -41.5 q30.5 -12.5 59.5 -12.5 q42 0 64 17 q22 17 22 48 q0 29 -28 51 q-28 22 -90 48 q-34 15 -60 29.5 q-26 14.5 -44 33 q-18 18.5 -27 42 q-9 23.5 -9 55.5 q0 32 17.5 60.5 q17.5 28.5 43.5 45.5 q-44 42 -44 100 q0 34 13 63 q13 29 36.5 49 q23.5 20 55 31.5 q31.5 11.5 69.5 11.5 q51 0 94 -15 q43 -15 82 -48 q-14 -18 -29 -36.5 q-15 -18.5 -31 -36.5 q-34 27 -63 35.5 q-29 8.5 -55 8.5 q-33 0 -51.5 -17.5 q-18.5 -17.5 -18.5 -37.5 q0 -15 8 -26.5 q8 -11.5 21.5 -22 q13.5 -10.5 31 -19.5 q17.5 -9 35.5 -18 q30 -15 59 -29.5 q29 -14.5 52 -34 q23 -19.5 37 -46 q14 -26.5 14 -65.5 ZM146 345 q0 -18 13 -31.5 q13 -13.5 34.5 -25.5 q21.5 -12 48.5 -23 q27 -11 55 -25 q27 15 27 56 q0 18 -9.5 28.5 q-9.5 10.5 -27.5 20.5 q-18 10 -45 20.5 q-27 10.5 -62 28.5 q-16 -7 -25 -20 q-9 -13 -9 -29 Z" /><glyph glyph-name="quotesingle" unicode="&#39;" d="M67 485 l0 211 l85 0 l0 -211 l-85 0 Z" /><glyph glyph-name="quotedblleft" unicode="&#x201c;" d="M164 719 l-31 -131 l28 0 l0 -132 l-124 0 l0 128 l67 135 l60 0 ZM324 719 l-32 -131 l29 0 l0 -132 l-124 0 l0 128 l66 135 l61 0 Z" /><glyph glyph-name="guillemotleft" unicode="«" d="M361 37 l-124 197 l124 196 l106 0 l-121 -196 l121 -197 l-106 0 ZM169 37 l-124 197 l124 196 l107 0 l-122 -196 l122 -197 l-107 0 Z" /><glyph glyph-name="endash" unicode="&#x2013;" d="M20 225 l0 96 l458 0 l0 -96 l-458 0 Z" /><glyph glyph-name="dagger" unicode="&#x2020;" d="M268 377 l0 -555 l-103 0 l0 555 l-148 0 l0 94 l148 0 l0 220 l103 0 l0 -220 l148 0 l0 -94 l-148 0 Z" /><glyph glyph-name="periodcentered" unicode="·" d="M58 214 l0 129 l124 0 l0 -129 l-124 0 Z" /><glyph glyph-name="bullet" unicode="&#x2022;" d="M83 280 q0 29 11 55 q11 26 30 45.5 q19 19.5 44.5 30.5 q25.5 11 54.5 11 q29 0 55 -11 q26 -11 45 -30.5 q19 -19.5 30 -45.5 q11 -26 11 -55 q0 -29 -11 -55 q-11 -26 -30 -45 q-19 -19 -45 -30 q-26 -11 -55 -11 q-29 0 -54.5 11 q-25.5 11 -44.5 30 q-19 19 -30 45 q-11 26 -11 55 Z" /><glyph glyph-name="quotedblright" unicode="&#x201d;" d="M200 456 l32 131 l-29 0 l0 133 l124 0 l0 -129 l-66 -135 l-61 0 ZM39 456 l33 131 l-29 0 l0 133 l124 0 l0 -129 l-66 -135 l-62 0 Z" /><glyph glyph-name="guillemotright" unicode="»" d="M46 37 l121 197 l-121 196 l106 0 l124 -196 l-124 -197 l-106 0 ZM238 37 l122 197 l-122 196 l106 0 l124 -196 l-124 -197 l-106 0 Z" /><glyph glyph-name="ellipsis" unicode="&#x2026;" d="M67 0 l0 130 l124 0 l0 -130 l-124 0 ZM349 0 l0 130 l124 0 l0 -130 l-124 0 ZM629 0 l0 130 l123 0 l0 -130 l-123 0 Z" /><glyph glyph-name="perthousand" unicode="&#x2030;" d="M209 -17 l-74 0 l370 730 l74 0 l-370 -730 ZM293 387 q0 -26 -10 -46.5 q-10 -20.5 -26.5 -35 q-16.5 -14.5 -38.5 -22 q-22 -7.5 -47 -7.5 q-24 0 -46 7.5 q-22 7.5 -38.5 22 q-16.5 14.5 -26.5 35 q-10 20.5 -10 46.5 l0 202 q0 26 9.5 46.5 q9.5 20.5 26 35 q16.5 14.5 38.5 22 q22 7.5 47 7.5 q51 0 86.5 -29.5 q35.5 -29.5 35.5 -81.5 l0 -202 ZM209 588 q0 17 -10 27.5 q-10 10.5 -28 10.5 q-18 0 -28.5 -10.5 q-10.5 -10.5 -10.5 -27.5 l0 -200 q0 -17 11 -27.5 q11 -10.5 28 -10.5 q17 0 27.5 10.5 q10.5 10.5 10.5 27.5 l0 200 ZM674 105 q0 -26 -10 -46 q-10 -20 -26.5 -33.5 q-16.5 -13.5 -39 -21 q-22.5 -7.5 -46.5 -7.5 q-24 0 -46 7.5 q-22 7.5 -38.5 21 q-16.5 13.5 -26.5 33.5 q-10 20 -10 46 l0 207 q0 25 10 45.5 q10 20.5 26.5 34.5 q16.5 14 38.5 21.5 q22 7.5 46 7.5 q25 0 47 -7.5 q22 -7.5 38.5 -21.5 q16.5 -14 26.5 -34.5 q10 -20.5 10 -45.5 l0 -207 ZM590 310 q0 17 -10 26.5 q-10 9.5 -28 9.5 q-18 0 -28.5 -9.5 q-10.5 -9.5 -10.5 -26.5 l0 -203 q0 -17 11 -26.5 q11 -9.5 28 -9.5 q17 0 27.5 9.5 q10.5 9.5 10.5 26.5 l0 203 ZM946 105 q0 -26 -10 -46 q-10 -20 -26.5 -33.5 q-16.5 -13.5 -39 -21 q-22.5 -7.5 -46.5 -7.5 q-24 0 -46 7.5 q-22 7.5 -38.5 21 q-16.5 13.5 -26.5 33.5 q-10 20 -10 46 l0 207 q0 25 10 45.5 q10 20.5 26.5 34.5 q16.5 14 38.5 21.5 q22 7.5 46 7.5 q25 0 47 -7.5 q22 -7.5 38.5 -21.5 q16.5 -14 26.5 -34.5 q10 -20.5 10 -45.5 l0 -207 ZM862 310 q0 17 -10 26.5 q-10 9.5 -28 9.5 q-18 0 -28.5 -9.5 q-10.5 -9.5 -10.5 -26.5 l0 -203 q0 -17 11 -26.5 q11 -9.5 28 -9.5 q17 0 27.5 9.5 q10.5 9.5 10.5 26.5 l0 203 Z" /><glyph glyph-name="grave" unicode="`" d="M262 543 l-120 174 l99 38 l84 -181 l-63 -31 Z" /><glyph glyph-name="dieresis" unicode="¨" d="M252 575 l0 108 l107 0 l0 -108 l-107 0 ZM71 575 l0 108 l106 0 l0 -108 l-106 0 Z" /><glyph glyph-name="oe" unicode="&#x153;" d="M570 145 q23 -12 45.5 -24 q22.5 -12 45.5 -25 q-23 -50 -68 -75.5 q-45 -25.5 -100 -25.5 q-47 0 -80.5 12 q-33.5 12 -56.5 38 q-26 -29 -62 -40.5 q-36 -11.5 -77 -11.5 q-47 0 -80 15 q-33 15 -55 41 q-31 38 -38 85 q-7 47 -7 111 q0 45 5 87.5 q5 42.5 16 68.5 q20 47 63.5 73.5 q43.5 26.5 106.5 26.5 q45 0 77 -14 q32 -14 54 -37 q21 24 52.5 37.5 q31.5 13.5 76.5 13.5 q56 0 92 -18.5 q36 -18.5 56.5 -50.5 q20.5 -32 28 -75 q7.5 -43 7.5 -92 l0 -47 l-259 0 q0 -22 2.5 -44 q2.5 -22 10.5 -39.5 q8 -17.5 23.5 -28.5 q15.5 -11 41.5 -11 q24 0 44 13.5 q20 13.5 35 36.5 ZM226 400 q-23 0 -40 -11 q-17 -11 -27 -34 q-7 -17 -9.5 -47 q-2.5 -30 -2.5 -69 q0 -29 1.5 -55 q1.5 -26 9.5 -44 q19 -46 65 -46 q23 0 42 13 q19 13 27 47 q4 14 5.5 40 q1.5 26 1.5 60 q0 30 -2 55.5 q-2 25.5 -8 42.5 q-8 21 -24 34.5 q-16 13.5 -39 13.5 ZM559 295 q0 47 -16.5 75.5 q-16.5 28.5 -56.5 28.5 q-40 0 -55 -30 q-15 -30 -17 -74 l145 0 Z" /><glyph glyph-name="germandbls" unicode="ß" d="M344 420 q30 -13 47 -34 q17 -21 25 -46.5 q8 -25.5 9.5 -53 q1.5 -27.5 1.5 -53.5 q0 -45 -6 -88 q-6 -43 -25 -76.5 q-19 -33.5 -54 -53.5 q-35 -20 -92 -20 q-7 0 -13.5 0 q-6.5 0 -13.5 1 l0 92 l10 0 q29 0 45.5 13.5 q16.5 13.5 24 35.5 q7.5 22 9 51 q1.5 29 1.5 61 q0 21 -2.5 43 q-2.5 22 -10 39.5 q-7.5 17.5 -21 29 q-13.5 11.5 -36.5 11.5 l-8 0 l0 87 l6 0 q34 0 45.5 25 q11.5 25 11.5 56 q0 11 -2.5 26 q-2.5 15 -9.5 28.5 q-7 13.5 -20 23 q-13 9.5 -34 9.5 q-23 0 -36.5 -8.5 q-13.5 -8.5 -21 -22.5 q-7.5 -14 -9.5 -31.5 q-2 -17.5 -2 -35.5 l0 -529 l-111 0 l0 526 q0 92 43.5 146 q43.5 54 136.5 54 q45 0 77.5 -13 q32.5 -13 54 -35.5 q21.5 -22.5 32 -54 q10.5 -31.5 10.5 -67.5 q0 -43 -14 -80 q-14 -37 -48 -54 l0 -2 l0 0 Z" /><glyph glyph-name="mu" unicode="µ&#x3bc;" d="M306 46 l-3 0 q-20 -24 -48 -37.5 q-28 -13.5 -59 -13.5 q-14 0 -31 7 l0 -203 l-111 0 l0 695 l111 0 l0 -303 q0 -43 18 -67 q18 -24 52 -24 q23 0 37 9.5 q14 9.5 21.5 26 q7.5 16.5 10 39.5 q2.5 23 2.5 51 l0 268 l110 0 l0 -494 l-110 0 l0 46 Z" /><glyph glyph-name="trademark" unicode="&#x2122;" d="M670 531 q-11 -28 -23 -55.5 q-12 -27.5 -24 -55.5 l-35 -79 l-55 0 q-8 20 -17 39.5 q-9 19.5 -18 39.5 l-47 112 l-2 0 l0 -241 l-77 0 l0 404 l87 0 l53 -121 q14 -29 25.5 -57.5 q11.5 -28.5 24.5 -57.5 l1 0 q25 60 50.5 118 q25.5 58 51.5 118 l86 0 l0 -404 l-79 0 l0 240 l-2 0 ZM222 622 l0 -331 l-79 0 l0 331 l-104 0 l0 74 l287 0 l0 -74 l-104 0 Z" /><glyph glyph-name="plusminus" unicode="±" d="M278 288 l0 -163 l-89 0 l0 163 l-168 0 l0 87 l168 0 l0 166 l89 0 l0 -166 l168 0 l0 -87 l-168 0 ZM20 0 l0 86 l427 0 l0 -86 l-427 0 Z" /><glyph glyph-name="divide" unicode="÷" d="M302 474 q0 -27 -19.5 -47 q-19.5 -20 -47.5 -20 q-29 0 -49 20 q-20 20 -20 47 q0 28 20 47.5 q20 19.5 49 19.5 q28 0 47.5 -19.5 q19.5 -19.5 19.5 -47.5 ZM18 251 l0 87 l430 0 l0 -87 l-430 0 ZM302 113 q0 -29 -19.5 -48.5 q-19.5 -19.5 -47.5 -19.5 q-29 0 -49 19.5 q-20 19.5 -20 48.5 q0 27 20 47 q20 20 49 20 q28 0 47.5 -20 q19.5 -20 19.5 -47 Z" /><glyph glyph-name="degree" unicode="°" d="M315 571 q0 -27 -10.5 -50.5 q-10.5 -23.5 -28.5 -41 q-18 -17.5 -42 -27.5 q-24 -10 -51 -10 q-27 0 -51.5 10 q-24.5 10 -42.5 27.5 q-18 17.5 -28.5 41 q-10.5 23.5 -10.5 50.5 q0 27 10.5 50.5 q10.5 23.5 28.5 41.5 q18 18 42.5 28 q24.5 10 51.5 10 q27 0 51 -10 q24 -10 42 -28 q18 -18 28.5 -41.5 q10.5 -23.5 10.5 -50.5 ZM245 571 q0 26 -18 43.5 q-18 17.5 -44 17.5 q-26 0 -44 -17.5 q-18 -17.5 -18 -43.5 q0 -26 18 -44 q18 -18 44 -18 q26 0 44 18 q18 18 18 44 Z" /><glyph glyph-name="registered" unicode="®" d="M258 265 q-47 0 -85.5 16.5 q-38.5 16.5 -65.5 45.5 q-27 29 -41.5 69.5 q-14.5 40.5 -14.5 87.5 q0 47 15 87.5 q15 40.5 42 70 q27 29.5 65 46 q38 16.5 85 16.5 q46 0 84 -16.5 q38 -16.5 65 -46 q27 -29.5 42 -70 q15 -40.5 15 -87.5 q0 -47 -15 -87.5 q-15 -40.5 -42 -69.5 q-27 -29 -65 -45.5 q-38 -16.5 -84 -16.5 ZM258 660 q-37 0 -66 -13.5 q-29 -13.5 -49.5 -37 q-20.5 -23.5 -31.5 -55.5 q-11 -32 -11 -69 q0 -38 11.5 -69.5 q11.5 -31.5 32 -55 q20.5 -23.5 49.5 -36.5 q29 -13 65 -13 q37 0 65.5 13.5 q28.5 13.5 48.5 37 q20 23.5 30.5 55 q10.5 31.5 10.5 68.5 q0 37 -11 69 q-11 32 -31 55.5 q-20 23.5 -48.5 37 q-28.5 13.5 -64.5 13.5 ZM297 356 q-10 26 -20 51 q-10 25 -21 51 l-26 0 l0 -102 l-49 0 l0 257 l80 0 q36 0 59 -18.5 q23 -18.5 23 -58.5 q0 -23 -9.5 -41 q-9.5 -18 -29.5 -29 q4 -11 11 -25.5 q7 -14.5 13.5 -30 q6.5 -15.5 13 -30 q6.5 -14.5 10.5 -24.5 l-55 0 ZM295 536 q0 29 -30 32 l-35 0 l0 -66 l30 0 q35 0 35 34 Z" /><glyph glyph-name="copyright" unicode="©" d="M378 553 q50 0 85 -27.5 q35 -27.5 46 -72.5 l-71 -24 q-5 22 -20.5 36.5 q-15.5 14.5 -38.5 14.5 q-17 0 -29 -6 q-12 -6 -19 -16 q-7 -10 -10 -22 q-3 -12 -3 -25 l0 -152 q0 -26 13.5 -48 q13.5 -22 46.5 -22 q23 0 38.5 14 q15.5 14 20.5 38 q6 -2 15.5 -5.5 q9.5 -3.5 20.5 -7 q11 -3.5 20.5 -7 q9.5 -3.5 15.5 -4.5 q-11 -47 -45.5 -73.5 q-34.5 -26.5 -85.5 -26.5 q-36 0 -61.5 11.5 q-25.5 11.5 -42 30.5 q-16.5 19 -24 44.5 q-7.5 25.5 -7.5 54.5 l0 151 q0 30 8.5 56 q8.5 26 25.5 45.5 q17 19.5 42 31 q25 11.5 59 11.5 ZM377 -10 q-75 0 -135.5 26.5 q-60.5 26.5 -103.5 73 q-43 46.5 -66 111 q-23 64.5 -23 140.5 q0 76 23.5 141 q23.5 65 66 112 q42.5 47 103 74 q60.5 27 135.5 27 q74 0 134.5 -26.5 q60.5 -26.5 103.5 -74 q43 -47.5 66.5 -112.5 q23.5 -65 23.5 -141 q0 -75 -23.5 -139.5 q-23.5 -64.5 -66.5 -111.5 q-43 -47 -103.5 -73.5 q-60.5 -26.5 -134.5 -26.5 ZM377 627 q-59 0 -106 -22 q-47 -22 -80 -61 q-33 -39 -50.5 -91 q-17.5 -52 -17.5 -112 q0 -59 18 -111 q18 -52 51.5 -90.5 q33.5 -38.5 80.5 -60.5 q47 -22 104 -22 q59 0 106 22 q47 22 80 60.5 q33 38.5 50.5 90.5 q17.5 52 17.5 111 q0 61 -18 113 q-18 52 -51 90.5 q-33 38.5 -80 60.5 q-47 22 -105 22 Z" /><glyph glyph-name="acircumflex" unicode="â" d="M290 0 l0 38 l-4 2 q-18 -24 -48 -34.5 q-30 -10.5 -61 -10.5 q-73 0 -108 41 q-35 41 -35 108 q0 32 10 59.5 q10 27.5 31 48 q21 20.5 53 32.5 q32 12 76 12 l86 0 l0 45 q0 25 -17 42.5 q-17 17.5 -56 17.5 q-27 0 -50 -9.5 q-23 -9.5 -36 -34.5 q-4 2 -16 9.5 q-12 7.5 -25.5 15.5 q-13.5 8 -25 15.5 q-11.5 7.5 -15.5 10.5 q23 48 68 70 q45 22 102 22 q39 0 72 -7.5 q33 -7.5 57.5 -25.5 q24.5 -18 38.5 -47.5 q14 -29.5 14 -73.5 l0 -346 l-111 0 ZM290 212 l-79 0 q-33 0 -51.5 -15.5 q-18.5 -15.5 -18.5 -45.5 q0 -23 16.5 -40 q16.5 -17 54.5 -17 q32 0 55 16.5 q23 16.5 23 53.5 l0 48 ZM228 635 q-5 -3 -23.5 -18 q-18.5 -15 -40.5 -32.5 q-22 -17.5 -41 -32 q-19 -14.5 -23 -17.5 l-45 40 l141 152 l71 0 l135 -150 l-46 -42 l-128 100 Z" /><glyph glyph-name="adieresis" unicode="ä" d="M290 0 l0 38 l-4 2 q-18 -24 -48 -34.5 q-30 -10.5 -61 -10.5 q-73 0 -108 41 q-35 41 -35 108 q0 32 10 59.5 q10 27.5 31 48 q21 20.5 53 32.5 q32 12 76 12 l86 0 l0 45 q0 25 -17 42.5 q-17 17.5 -56 17.5 q-27 0 -50 -9.5 q-23 -9.5 -36 -34.5 q-4 2 -16 9.5 q-12 7.5 -25.5 15.5 q-13.5 8 -25 15.5 q-11.5 7.5 -15.5 10.5 q23 48 68 70 q45 22 102 22 q39 0 72 -7.5 q33 -7.5 57.5 -25.5 q24.5 -18 38.5 -47.5 q14 -29.5 14 -73.5 l0 -346 l-111 0 ZM290 212 l-79 0 q-33 0 -51.5 -15.5 q-18.5 -15.5 -18.5 -45.5 q0 -23 16.5 -40 q16.5 -17 54.5 -17 q32 0 55 16.5 q23 16.5 23 53.5 l0 48 ZM267 575 l0 108 l107 0 l0 -108 l-107 0 ZM86 575 l0 108 l106 0 l0 -108 l-106 0 Z" /><glyph glyph-name="agrave" unicode="à" d="M290 0 l0 38 l-4 2 q-18 -24 -48 -34.5 q-30 -10.5 -61 -10.5 q-73 0 -108 41 q-35 41 -35 108 q0 32 10 59.5 q10 27.5 31 48 q21 20.5 53 32.5 q32 12 76 12 l86 0 l0 45 q0 25 -17 42.5 q-17 17.5 -56 17.5 q-27 0 -50 -9.5 q-23 -9.5 -36 -34.5 q-4 2 -16 9.5 q-12 7.5 -25.5 15.5 q-13.5 8 -25 15.5 q-11.5 7.5 -15.5 10.5 q23 48 68 70 q45 22 102 22 q39 0 72 -7.5 q33 -7.5 57.5 -25.5 q24.5 -18 38.5 -47.5 q14 -29.5 14 -73.5 l0 -346 l-111 0 ZM290 212 l-79 0 q-33 0 -51.5 -15.5 q-18.5 -15.5 -18.5 -45.5 q0 -23 16.5 -40 q16.5 -17 54.5 -17 q32 0 55 16.5 q23 16.5 23 53.5 l0 48 ZM227 543 l-120 174 l99 38 l84 -181 l-63 -31 Z" /><glyph glyph-name="ccedilla" unicode="ç" d="M220 501 q58 0 101 -27 q43 -27 63 -76 q-4 -3 -17.5 -10 q-13.5 -7 -29 -14.5 q-15.5 -7.5 -29 -14.5 q-13.5 -7 -17.5 -10 q-22 49 -67 49 q-26 0 -42.5 -11 q-16.5 -11 -25.5 -30.5 q-9 -19.5 -12 -47 q-3 -27.5 -3 -59.5 q0 -33 3.5 -61.5 q3.5 -28.5 12.5 -48.5 q9 -20 25 -31.5 q16 -11.5 41 -11.5 q24 0 40.5 13 q16.5 13 27.5 34 q4 -3 17.5 -9.5 q13.5 -6.5 29 -14.5 q15.5 -8 29 -14.5 q13.5 -6.5 18.5 -9.5 q-20 -46 -59 -72 q-39 -26 -93 -28 l-12 -37 q26 -3 43.5 -12 q17.5 -9 28 -21 q10.5 -12 15 -26 q4.5 -14 4.5 -26 q0 -15 -5.5 -30 q-5.5 -15 -18 -27 q-12.5 -12 -31.5 -19.5 q-19 -7.5 -46 -7.5 q-17 0 -45.5 3.5 q-28.5 3.5 -52.5 16.5 q5 12 9.5 24.5 q4.5 12.5 9.5 24.5 q21 -11 37 -13 q16 -2 30 -2 q17 0 28.5 9.5 q11.5 9.5 11.5 23.5 q0 17 -11.5 25.5 q-11.5 8.5 -29.5 8.5 q-8 0 -12 -1 q-7 5 -13.5 9.5 q-6.5 4.5 -13.5 9.5 l21 69 q-44 7 -72.5 28 q-28.5 21 -46 54 q-17.5 33 -24.5 76.5 q-7 43.5 -7 94.5 q0 55 10.5 101 q10.5 46 33 79 q22.5 33 58.5 51.5 q36 18.5 88 18.5 Z" /><glyph glyph-name="pi" unicode="&#x3c0;" d="M305 0 l0 405 l-141 0 l0 -405 l-110 0 l0 496 l362 0 l0 -496 l-111 0 Z" /><glyph glyph-name="dieresistonos" unicode="&#x385;" d="M320 575 l0 106 l106 0 l0 -106 l-106 0 ZM53 575 l0 106 l106 0 l0 -106 l-106 0 ZM169 560 l60 193 l103 -24 l-97 -187 l-66 18 Z" /><glyph glyph-name="tonos" unicode="&#x384;" d="M179 571 l81 184 l99 -37 l-117 -175 l-63 28 Z" /><glyph glyph-name="sfthyphen" unicode="­" d="M49 213 l0 98 l298 0 l0 -98 l-298 0 Z" /><glyph glyph-name="Gamma" unicode="&#x393;" d="M177 590 l0 -590 l-114 0 l0 696 l383 0 l0 -106 l-269 0 Z" /><glyph glyph-name="Delta" unicode="&#x394;&#x2206;" d="M6 0 l202 696 l109 0 l202 -696 l-513 0 ZM372 105 q-6 24 -14.5 59.5 q-8.5 35.5 -19 76.5 q-10.5 41 -21.5 84.5 q-11 43.5 -21 83.5 q-10 40 -18.5 73.5 q-8.5 33.5 -12.5 53.5 l-5 0 q-7 -25 -15.5 -63 q-8.5 -38 -19.5 -82 l-72 -286 l219 0 Z" /><glyph glyph-name="Theta" unicode="&#x398;" d="M183 402 l149 0 l0 -101 l-149 0 l0 101 ZM471 212 q0 -50 -15.5 -90.5 q-15.5 -40.5 -44 -69 q-28.5 -28.5 -67.5 -43.5 q-39 -15 -86 -15 q-57 0 -98 19 q-41 19 -66.5 50.5 q-25.5 31.5 -37.5 73 q-12 41.5 -12 86.5 l0 263 q0 37 11.5 75.5 q11.5 38.5 37 69.5 q25.5 31 66 50.5 q40.5 19.5 99.5 19.5 q55 0 95 -18.5 q40 -18.5 66.5 -49 q26.5 -30.5 39 -69 q12.5 -38.5 12.5 -78.5 l0 -274 ZM355 489 q0 13 -4.5 30.5 q-4.5 17.5 -15.5 33.5 q-11 16 -29.5 27 q-18.5 11 -47.5 11 q-28 0 -47 -10 q-19 -10 -31 -25.5 q-12 -15.5 -17.5 -33.5 q-5.5 -18 -5.5 -33 l1 -267 q0 -25 5.5 -47 q5.5 -22 17.5 -38 q12 -16 31.5 -25 q19.5 -9 46.5 -9 q39 0 67.5 26.5 q28.5 26.5 28.5 73.5 l0 286 Z" /><glyph glyph-name="Lambda" unicode="&#x39b;" d="M397 0 l-135 527 l-4 0 q-11 -44 -20 -77 q-9 -33 -17 -62 q-14 -53 -26.5 -101.5 q-12.5 -48.5 -24.5 -95.5 q-12 -47 -23.5 -94 q-11.5 -47 -24.5 -97 l-119 0 l202 696 l109 0 l202 -696 l-119 0 Z" /><glyph glyph-name="Xi" unicode="&#x39e;" d="M44 590 l0 106 l395 0 l0 -106 l-395 0 ZM84 300 l0 104 l315 0 l0 -104 l-315 0 ZM44 0 l0 109 l396 0 l0 -109 l-396 0 Z" /><glyph glyph-name="Pi" unicode="&#x3a0;" d="M366 0 l0 591 l-189 0 l0 -591 l-114 0 l0 696 l417 0 l0 -696 l-114 0 Z" /><glyph glyph-name="Sigma" unicode="&#x3a3;" d="M25 0 l0 103 l125 255 l-127 239 l0 99 l373 0 l0 -105 l-242 0 l125 -233 l-124 -250 l254 0 l0 -108 l-384 0 Z" /><glyph glyph-name="Iotadieresis" unicode="&#x3aa;" d="M64 0 l0 696 l115 0 l0 -696 l-115 0 ZM158 742 l0 108 l106 0 l0 -108 l-106 0 ZM-24 742 l0 108 l108 0 l0 -108 l-108 0 Z" /><glyph glyph-name="Phi" unicode="&#x3a6;" d="M272 58 q-68 6 -112 29 q-44 23 -70 61.5 q-26 38.5 -36.5 91.5 q-10.5 53 -10.5 119 q0 62 11.5 114.5 q11.5 52.5 38.5 92 q27 39.5 71 63.5 q44 24 108 30 l0 37 l111 0 l0 -37 q64 -6 108 -29.5 q44 -23.5 71 -61.5 q27 -38 39 -90 q12 -52 12 -116 q0 -66 -11 -119.5 q-11 -53.5 -37 -92.5 q-26 -39 -70.5 -62.5 q-44.5 -23.5 -111.5 -29.5 l0 -58 l-111 0 l0 58 ZM271 555 q-65 -5 -90 -57 q-25 -52 -25 -136 q0 -47 5.5 -83.5 q5.5 -36.5 18.5 -62 q13 -25.5 35.5 -39.5 q22.5 -14 55.5 -17 l0 395 ZM384 160 q67 5 91.5 55.5 q24.5 50.5 24.5 147.5 q0 85 -25.5 136 q-25.5 51 -90.5 56 l0 -395 Z" /><glyph glyph-name="Psi" unicode="&#x3a8;" d="M598 350 q0 -46 -17 -84 q-17 -38 -46 -65 q-29 -27 -68.5 -43 q-39.5 -16 -84.5 -18 l0 -140 l-113 0 l0 140 q-45 2 -85 18 q-40 16 -69 44 q-29 28 -46 67 q-17 39 -17 86 l0 341 l113 0 l0 -336 q0 -51 29.5 -80 q29.5 -29 74.5 -32 l0 448 l113 0 l0 -448 q45 2 75 29 q30 27 30 78 l0 341 l111 0 l0 -346 l0 0 Z" /><glyph glyph-name="Omega" unicode="&#x3a9;" d="M292 116 q29 11 46.5 37 q17.5 26 17.5 63 l0 271 q0 19 -6 37.5 q-6 18.5 -18 33.5 q-12 15 -30.5 24 q-18.5 9 -43.5 9 q-26 0 -44.5 -9 q-18.5 -9 -31.5 -23.5 q-13 -14.5 -19 -33.5 q-6 -19 -6 -38 l0 -263 q0 -38 17 -67.5 q17 -29.5 49 -40.5 l0 -116 l-191 0 l0 105 l60 0 q0 1 0.5 1 q0.5 0 0.5 1 q-29 21 -39 58.5 q-10 37.5 -10 79.5 l0 239 q0 42 13.5 81.5 q13.5 39.5 40 69.5 q26.5 30 66.5 48 q40 18 94 18 q50 0 89.5 -17 q39.5 -17 67 -46.5 q27.5 -29.5 42 -69 q14.5 -39.5 14.5 -84.5 l0 -242 q0 -43 -11 -78.5 q-11 -35.5 -39 -57.5 l1 -1 l61 0 l0 -105 l-191 0 l0 116 l0 0 Z" /><glyph glyph-name="afii00208" unicode="&#x2015;" d="M20 225 l0 96 l973 0 l0 -96 l-973 0 Z" /><glyph glyph-name="alpha" unicode="&#x3b1;" d="M296 453 l0 41 l111 0 l0 -494 l-111 0 l0 43 q-1 0 -1.5 0.5 q-0.5 0.5 -1.5 0.5 q-19 -25 -47 -37.5 q-28 -12.5 -53 -12.5 q-53 0 -83 21.5 q-30 21.5 -46 56 q-16 34.5 -20 77.5 q-4 43 -4 87 q0 44 4 90.5 q4 46.5 19.5 85 q15.5 38.5 46.5 63.5 q31 25 85 25 q28 0 53.5 -12 q25.5 -12 45.5 -37 l2 2 ZM225 396 q-26 0 -40.5 -15.5 q-14.5 -15.5 -21.5 -40 q-7 -24.5 -8.5 -54 q-1.5 -29.5 -1.5 -57.5 q0 -27 3 -51 q3 -24 11 -41.5 q8 -17.5 21.5 -27.5 q13.5 -10 34.5 -10 q22 0 36.5 12 q14.5 12 22.5 32 q8 20 11.5 46 q3.5 26 3.5 54 q0 33 -2.5 61.5 q-2.5 28.5 -10 48.5 q-7.5 20 -21.5 31.5 q-14 11.5 -38 11.5 Z" /><glyph glyph-name="beta" unicode="&#x3b2;" d="M161 244 q0 -26 0.5 -52 q0.5 -26 7 -47.5 q6.5 -21.5 21 -35 q14.5 -13.5 42.5 -13.5 q24 0 38.5 10 q14.5 10 23 29 q8.5 19 11 46 q2.5 27 2.5 60 q0 57 -14 90 q-14 33 -60 33 l-36 0 l0 87 l28 0 q38 0 51.5 25.5 q13.5 25.5 13.5 62.5 q0 39 -17.5 62.5 q-17.5 23.5 -51.5 23.5 q-20 0 -31.5 -8 q-11.5 -8 -18 -20 q-6.5 -12 -8.5 -27.5 q-2 -15.5 -2 -30.5 l0 -295 ZM51 511 q0 49 9.5 88.5 q9.5 39.5 30 67.5 q20.5 28 54 43 q33.5 15 81.5 15 q46 0 79 -14 q33 -14 54 -38 q21 -24 31 -56 q10 -32 10 -68 q0 -46 -15.5 -81 q-15.5 -35 -49.5 -52 l0 -2 q29 -8 46 -25.5 q17 -17.5 26 -41.5 q9 -24 11.5 -53.5 q2.5 -29.5 2.5 -62.5 q0 -51 -6.5 -94.5 q-6.5 -43.5 -23.5 -75 q-17 -31.5 -46.5 -49 q-29.5 -17.5 -76.5 -17.5 q-29 0 -56 10 q-27 10 -48 35 q-1 0 -1.5 -0.5 q-0.5 -0.5 -1.5 -0.5 l0 -186 l-110 0 l0 658 Z" /><glyph glyph-name="psi" unicode="&#x3c8;" d="M546 176 q0 -46 -16.5 -79.5 q-16.5 -33.5 -44 -55.5 q-27.5 -22 -62.5 -33.5 q-35 -11.5 -71 -12.5 l0 -197 l-110 0 l0 197 q-39 1 -74 13.5 q-35 12.5 -61.5 35 q-26.5 22.5 -41.5 55 q-15 32.5 -15 74.5 l0 322 l110 0 l0 -312 q0 -40 23.5 -62 q23.5 -22 58.5 -25 l0 409 l109 0 l0 -409 q16 1 31.5 7 q15.5 6 27.5 17 q12 11 19 26.5 q7 15.5 7 36.5 l0 312 l110 0 l0 -319 l0 0 Z" /><glyph glyph-name="delta" unicode="&#x3b4;" d="M355 612 q-27 9 -50.5 13 q-23.5 4 -41.5 4 q-12 0 -25 -2.5 q-13 -2.5 -24 -8 q-11 -5.5 -18 -15 q-7 -9.5 -7 -23.5 q0 -23 20.5 -43 q20.5 -20 54.5 -40 q32 -19 61 -38 q29 -19 50 -48 q19 -26 26.5 -68.5 q7.5 -42.5 7.5 -84.5 q0 -26 -1 -53.5 q-1 -27.5 -5 -53.5 q-6 -44 -28 -81 q-26 -43 -69 -59.5 q-43 -16.5 -86 -16.5 q-57 0 -93.5 17.5 q-36.5 17.5 -58.5 51.5 q-19 35 -25 78 q-6 43 -6 97 q0 38 5 74.5 q5 36.5 21 68.5 q11 25 30.5 45.5 q19.5 20.5 47.5 32.5 q-64 49 -64 122 q0 37 13 64.5 q13 27.5 36 45.5 q23 18 54.5 27 q31.5 9 69.5 9 q38 0 70 -6 q32 -6 59 -15 l-24 -94 ZM225 390 q-31 -9 -49.5 -29 q-18.5 -20 -23.5 -56 q-2 -17 -3.5 -34.5 q-1.5 -17.5 -1.5 -40.5 q0 -28 2 -47 q2 -19 7 -36 q8 -25 23.5 -39 q15.5 -14 43.5 -14 q55 0 70 60 q5 17 6 34.5 q1 17.5 1 43.5 q0 15 -0.5 27 q-0.5 12 -1.5 26 q-2 39 -18.5 65 q-16.5 26 -54.5 40 Z" /><glyph glyph-name="epsilon" unicode="&#x3b5;" d="M219 501 q63 0 107.5 -26 q44.5 -26 65.5 -77 q-4 -3 -17.5 -9.5 q-13.5 -6.5 -29.5 -14.5 q-16 -8 -29.5 -14.5 q-13.5 -6.5 -17.5 -9.5 q-11 27 -32 37.5 q-21 10.5 -42 10.5 q-31 0 -49.5 -14.5 q-18.5 -14.5 -18.5 -40.5 q0 -21 15.5 -34 q15.5 -13 47.5 -13 l56 0 l0 -86 l-58 0 q-28 0 -46 -15 q-18 -15 -18 -41 q0 -25 20 -40.5 q20 -15.5 52 -15.5 q27 0 47 12.5 q20 12.5 28 35.5 q4 -3 18.5 -10 q14.5 -7 30 -15 q15.5 -8 29.5 -15 q14 -7 18 -10 q-23 -48 -64.5 -74.5 q-41.5 -26.5 -107.5 -26.5 q-40 0 -73.5 9.5 q-33.5 9.5 -58 28.5 q-24.5 19 -38 48 q-13.5 29 -13.5 67 q0 29 16 60 q16 31 54 47 l0 1 q-38 14 -52 41.5 q-14 27.5 -14 56.5 q0 30 11.5 57 q11.5 27 34 47 q22.5 20 55 31.5 q32.5 11.5 73.5 11.5 Z" /><glyph glyph-name="phi" unicode="&#x3c6;" d="M356 500 q45 0 82.5 -17 q37.5 -17 60.5 -48 q15 -18 24 -40 q9 -22 13 -46.5 q4 -24.5 5 -51.5 q1 -27 1 -54 q0 -38 -2.5 -69.5 q-2.5 -31.5 -13.5 -61.5 q-9 -32 -27.5 -53.5 q-18.5 -21.5 -43.5 -35.5 q-25 -14 -53.5 -20.5 q-28.5 -6.5 -57.5 -7.5 l0 -193 l-109 0 l0 193 q-66 2 -108 24.5 q-42 22.5 -65 68.5 q-16 27 -20 68 q-4 41 -4 89 q0 45 4.5 86.5 q4.5 41.5 18.5 71.5 q14 32 38 54.5 q24 22.5 63 33.5 q8 -24 17.5 -48.5 q9.5 -24.5 18.5 -48.5 q-18 -8 -28 -21 q-10 -13 -15 -32 q-5 -19 -6 -44 q-1 -25 -1 -57 q0 -23 1 -44 q1 -21 5 -38 q15 -62 81 -63 l0 405 l121 0 ZM432 246 q0 29 -1 53 q-1 24 -5 40 q-8 30 -30 44 q-22 14 -53 16 l0 -304 q73 5 85 66 q3 17 3.5 38.5 q0.5 21.5 0.5 46.5 Z" /><glyph glyph-name="gamma" unicode="&#x3b3;" d="M164 -6 q-9 36 -22 84 q-13 48 -27 98.5 q-14 50.5 -27.5 98 q-13.5 47.5 -25.5 80.5 q-9 28 -16.5 37 q-7.5 9 -28.5 9 l-6 0 q-2 23 -4 45 q-2 22 -4 45 q17 6 34 9 q17 3 29 3 q30 0 48 -15 q18 -15 30 -38 q12 -23 19 -50 q7 -27 14 -51 q4 -16 9.5 -38 q5.5 -22 11 -45 q5.5 -23 10.5 -44 q5 -21 10 -36 l6 0 q20 80 39.5 157.5 q19.5 77.5 41.5 150.5 l118 0 q-39 -121 -77 -241 q-38 -120 -74 -246 l0 -205 l-108 0 l0 192 Z" /><glyph glyph-name="eta" unicode="&#x3b7;" d="M302 0 l0 318 q0 37 -20 56.5 q-20 19.5 -50 19.5 q-32 0 -51.5 -20.5 q-19.5 -20.5 -19.5 -57.5 l0 -316 l-111 0 l0 495 l111 0 l0 -47 l3 0 q19 23 47 37.5 q28 14.5 59 14.5 q67 0 104.5 -40.5 q37.5 -40.5 37.5 -110.5 l0 -349 l-110 0 Z" /><glyph glyph-name="iota" unicode="&#x3b9;" d="M206 -3 q-4 -1 -12 -1 q-8 0 -12 0 q-42 0 -66.5 8.5 q-24.5 8.5 -38 26 q-13.5 17.5 -17.5 44 q-4 26.5 -4 62.5 l0 357 l108 0 l0 -361 q0 -26 9 -35.5 q9 -9.5 35 -9.5 l-2 -91 Z" /><glyph glyph-name="xi" unicode="&#x3be;" d="M232 726 q24 0 49 -5 q25 -5 48 -16.5 q23 -11.5 42 -30.5 q19 -19 32 -47 q-20 -14 -42 -30 q-22 -16 -42 -29 q-42 56 -90 56 q-36 0 -54 -27 q-18 -27 -18 -65 q0 -44 24.5 -72 q24.5 -28 75.5 -28 l85 0 l0 -92 l-93 0 q-27 0 -46 -11 q-19 -11 -31 -29 q-12 -18 -18 -40.5 q-6 -22.5 -6 -44.5 q0 -47 19.5 -69.5 q19.5 -22.5 53.5 -38.5 q48 -20 80.5 -34.5 q32.5 -14.5 52 -28.5 q19.5 -14 28 -29.5 q8.5 -15.5 8.5 -36.5 q0 -28 -21 -70 q-21 -42 -59 -91 q-20 11 -40.5 22.5 q-20.5 11.5 -40.5 23.5 q15 25 27 47.5 q12 22.5 12 36.5 q0 20 -35 35 q-49 19 -86.5 36.5 q-37.5 17.5 -63 41.5 q-25.5 24 -38.5 59.5 q-13 35.5 -13 91.5 q0 25 5 50.5 q5 25.5 16 48.5 q11 23 28.5 42.5 q17.5 19.5 42.5 32.5 q-25 10 -41 27 q-16 17 -25 37.5 q-9 20.5 -12 42.5 q-3 22 -3 40 q0 43 12.5 79 q12.5 36 36.5 61.5 q24 25.5 59.5 39.5 q35.5 14 80.5 14 Z" /><glyph glyph-name="kappa" unicode="&#x3ba;" d="M167 304 l140 190 l136 0 l-151 -193 l168 -301 l-127 0 l-113 213 l-56 -76 l0 -137 l-110 0 l0 494 l110 0 l0 -190 l3 0 Z" /><glyph glyph-name="lambda" unicode="&#x3bb;" d="M422 83 q1 -21 1.5 -42.5 q0.5 -21.5 0.5 -41.5 q-13 -2 -26.5 -3 q-13.5 -1 -24.5 -1 q-24 0 -41 7.5 q-17 7.5 -28 20.5 q-11 13 -18.5 31 q-7.5 18 -13.5 40 l-32 118 q-7 26 -13 50.5 q-6 24.5 -14 50.5 l-4 0 q-9 -36 -19 -71.5 q-10 -35.5 -20 -70.5 q-12 -43 -25.5 -86 q-13.5 -43 -25.5 -85 l-114 0 l158 479 l-20 80 q-4 15 -8 28 q-4 13 -11 22.5 q-7 9.5 -18.5 15.5 q-11.5 6 -30.5 6 q-3 0 -7 0 q-4 0 -8 -1 l-3 93 q34 8 59 8 q47 0 74 -19 q27 -19 41 -70 q14 -50 33.5 -118.5 q19.5 -68.5 39.5 -141 q20 -72.5 39 -141 q19 -68.5 33 -117.5 q7 -25 15 -32.5 q8 -7.5 31 -8.5 Z" /><glyph glyph-name="nu" unicode="&#x3bd;" d="M214 154 q1 7 6.5 27.5 q5.5 20.5 11 44 q5.5 23.5 10.5 44 q5 20.5 7 27.5 q3 12 10 40 q7 28 15 58.5 q8 30.5 15 58.5 q7 28 10 40 l119 0 l-153 -494 l-107 0 q-6 21 -18.5 60 q-12.5 39 -27 87 q-14.5 48 -31 100.5 q-16.5 52.5 -31.5 100.5 q-15 48 -27 86.5 q-12 38.5 -19 59.5 l120 0 q3 -12 10.5 -39.5 q7.5 -27.5 15.5 -58.5 q8 -31 15 -59 q7 -28 10 -40 l35 -143 l4 0 Z" /><glyph glyph-name="omicron" unicode="&#x3bf;" d="M228 502 q64 0 101 -25.5 q37 -25.5 56 -63.5 q14 -28 19 -73.5 q5 -45.5 5 -93.5 q0 -40 -5 -84 q-5 -44 -16 -71 q-11 -28 -28.5 -46.5 q-17.5 -18.5 -40 -30 q-22.5 -11.5 -48.5 -16.5 q-26 -5 -53 -5 q-54 0 -90.5 20 q-36.5 20 -56.5 53 q-18 29 -25.5 75 q-7.5 46 -7.5 104 q0 45 4.5 87.5 q4.5 42.5 15.5 68.5 q20 47 62 74 q42 27 108 27 ZM226 400 q-22 0 -40 -11 q-18 -11 -26 -34 q-7 -18 -9.5 -47.5 q-2.5 -29.5 -2.5 -67.5 q0 -29 1.5 -55 q1.5 -26 8.5 -45 q17 -45 65 -45 q23 0 42 11.5 q19 11.5 27 45.5 q4 14 5.5 41 q1.5 27 1.5 61 q0 30 -2 55.5 q-2 25.5 -8 42.5 q-17 48 -63 48 Z" /><glyph glyph-name="omegatonos" unicode="&#x3ce;" d="M452 -5 q-32 1 -66 15.5 q-34 14.5 -53 48.5 l-4 0 q-21 -32 -53 -48 q-32 -16 -68 -16 q-57 0 -90.5 20.5 q-33.5 20.5 -51.5 55.5 q-18 35 -23.5 81.5 q-5.5 46.5 -5.5 98.5 q0 53 7 98 q7 45 26.5 78.5 q19.5 33.5 54 53 q34.5 19.5 89.5 20.5 q0 -5 0.5 -19.5 q0.5 -14.5 1 -31.5 q0.5 -17 0.5 -32 q0 -15 0 -19 q-41 -5 -54.5 -41.5 q-13.5 -36.5 -13.5 -118.5 q0 -71 13 -106 q13 -35 53 -35 q38 0 49.5 26 q11.5 26 11.5 63 l0 157 l108 0 l0 -157 q0 -18 3 -34 q3 -16 10 -29 q7 -13 19.5 -20.5 q12.5 -7.5 31.5 -7.5 q42 0 54.5 36.5 q12.5 36.5 12.5 106.5 q0 40 -2.5 69 q-2.5 29 -10 48 q-7.5 19 -21 29.5 q-13.5 10.5 -34.5 13.5 q0 4 0.5 19 q0.5 15 1.5 32 q1 17 1.5 31.5 q0.5 14.5 0.5 19.5 q55 -1 89 -20.5 q34 -19.5 53.5 -53 q19.5 -33.5 26.5 -78.5 q7 -45 7 -98 q0 -51 -6 -97.5 q-6 -46.5 -24 -82 q-18 -35.5 -52.5 -56 q-34.5 -20.5 -91.5 -20.5 ZM271 571 l81 184 l99 -37 l-117 -175 l-63 28 Z" /><glyph glyph-name="rho" unicode="&#x3c1;" d="M43 245 q0 44 5 88 q5 44 16 68 q20 47 63 74 q43 27 106 27 q62 0 100.5 -25.5 q38.5 -25.5 57.5 -63.5 q15 -32 19.5 -77 q4.5 -45 4.5 -95 q0 -46 -5 -84.5 q-5 -38.5 -17 -65.5 q-17 -45 -51 -70.5 q-34 -25.5 -89 -25.5 q-22 0 -48.5 10.5 q-26.5 10.5 -46.5 33.5 l-4 -1 l0 -236 l-111 0 l0 443 ZM231 400 q-22 0 -39.5 -10.5 q-17.5 -10.5 -27.5 -33.5 q-6 -17 -8 -47.5 q-2 -30.5 -2 -68.5 q0 -29 0 -55 q0 -26 8 -45 q17 -45 67 -45 q20 0 40 12.5 q20 12.5 28 46.5 q4 14 5.5 39.5 q1.5 25.5 1.5 56.5 q0 32 -1.5 58.5 q-1.5 26.5 -7.5 43.5 q-17 48 -64 48 Z" /><glyph glyph-name="sigma" unicode="&#x3c3;" d="M367 405 q-1 -1 -1 -4 q14 -14 22 -32 q8 -18 12.5 -39 q4.5 -21 6 -44 q1.5 -23 1.5 -45 q0 -42 -4.5 -74 q-4.5 -32 -13.5 -61 q-20 -64 -67 -88 q-47 -24 -105 -24 q-72 0 -112.5 32 q-40.5 32 -56.5 88 q-7 25 -9.5 59 q-2.5 34 -2.5 71 q0 52 6.5 96.5 q6.5 44.5 29.5 79.5 q23 36 62.5 55.5 q39.5 19.5 90.5 19.5 l214 0 l0 -90 l-73 0 ZM224 391 q-43 0 -61 -38 q-9 -19 -12 -46 q-3 -27 -4 -68 q-1 -31 2.5 -58 q3.5 -27 11.5 -45 q9 -20 24 -30.5 q15 -10.5 38 -10.5 q18 0 33 8 q15 8 25 26 q12 25 14.5 53.5 q2.5 28.5 2.5 66.5 q0 69 -14 101 q-18 41 -60 41 Z" /><glyph glyph-name="tau" unicode="&#x3c4;" d="M205 404 l0 -249 q0 -27 10 -40.5 q10 -13.5 37 -13.5 l27 0 l0 -101 l-58 0 q-62 0 -93.5 35.5 q-31.5 35.5 -31.5 86.5 l0 282 l-83 0 l0 91 l288 0 l0 -91 l-96 0 Z" /><glyph glyph-name="theta" unicode="&#x3b8;" d="M408 247 q0 -31 -1 -52 q-1 -21 -2.5 -36 q-1.5 -15 -3.5 -25 q-2 -10 -4 -19 q-9 -35 -27 -58 q-18 -23 -42 -37 q-24 -14 -52 -20 q-28 -6 -57 -6 q-57 0 -94 22.5 q-37 22.5 -57 57.5 q-17 28 -23 72.5 q-6 44.5 -6 92.5 l0 238 q0 41 4 80 q4 39 13 64 q18 48 60.5 77 q42.5 29 108.5 29 q64 0 104 -27 q40 -27 59 -71 q13 -30 16.5 -72 q3.5 -42 3.5 -84 l0 -226 ZM149 330 l0 -121 q0 -17 1.5 -34 q1.5 -17 4.5 -27 q7 -25 22.5 -39 q15.5 -14 47.5 -14 q26 0 43 16 q17 16 24 40 q3 10 4.5 26 q1.5 16 1.5 35 l0 118 l-149 0 ZM298 469 q-1 27 -1.5 45.5 q-0.5 18.5 -1.5 30.5 q-1 12 -2.5 19.5 q-1.5 7.5 -3.5 13.5 q-8 21 -23.5 34.5 q-15.5 13.5 -40.5 13.5 q-25 0 -41 -12.5 q-16 -12.5 -25 -33.5 q-5 -14 -7.5 -33 q-2.5 -19 -2.5 -42 l0 -90 l149 0 l0 54 Z" /><glyph glyph-name="omega" unicode="&#x3c9;" d="M626 251 q0 -51 -6 -97.5 q-6 -46.5 -24 -81.5 q-18 -35 -52 -56 q-34 -21 -91 -21 q-32 0 -66.5 15 q-34.5 15 -53.5 49 l-4 0 q-21 -32 -53 -48 q-32 -16 -68 -16 q-57 0 -90.5 20.5 q-33.5 20.5 -51.5 55.5 q-18 35 -23.5 81.5 q-5.5 46.5 -5.5 98.5 q0 53 7 98 q7 45 26.5 78.5 q19.5 33.5 54 53 q34.5 19.5 89.5 20.5 q0 -5 0.5 -19.5 q0.5 -14.5 1 -31.5 q0.5 -17 0.5 -32 q0 -15 0 -19 q-41 -5 -54.5 -41.5 q-13.5 -36.5 -13.5 -118.5 q0 -71 13 -106 q13 -35 53 -35 q38 0 49.5 26 q11.5 26 11.5 63 l0 157 l108 0 l0 -157 q0 -18 3 -34 q3 -16 10 -29 q7 -13 19.5 -20.5 q12.5 -7.5 31.5 -7.5 q42 0 54.5 36.5 q12.5 36.5 12.5 106.5 q0 40 -2.5 69 q-2.5 29 -10 48 q-7.5 19 -21 29.5 q-13.5 10.5 -34.5 13.5 q0 4 0.5 19 q0.5 15 1.5 32 q1 17 1.5 31.5 q0.5 14.5 0.5 19.5 q55 -1 89 -20.5 q34 -19.5 53.5 -53 q19.5 -33.5 26.5 -78.5 q7 -45 7 -98 Z" /><glyph glyph-name="sigma1" unicode="&#x3c2;" d="M42 233 q0 61 10 110.5 q10 49.5 32.5 84.5 q22.5 35 60 54 q37.5 19 91.5 19 q59 0 103.5 -27.5 q44.5 -27.5 62.5 -81.5 l-88 -50 q-13 28 -33.5 42 q-20.5 14 -46.5 14 q-45 0 -63.5 -38.5 q-18.5 -38.5 -18.5 -113.5 q0 -33 4.5 -54.5 q4.5 -21.5 17.5 -38 q13 -16.5 37 -31.5 q24 -15 63 -34 q57 -24 78.5 -49.5 q21.5 -25.5 21.5 -55.5 q0 -31 -23 -73 q-23 -42 -56 -84 l-81 45 q14 23 26.5 46 q12.5 23 12.5 37 q0 12 -8 21 q-8 9 -31 19 q-53 20 -86.5 41 q-33.5 21 -52.5 48.5 q-19 27.5 -26 63.5 q-7 36 -7 86 Z" /><glyph glyph-name="chi" unicode="&#x3c7;" d="M298 0 l-83 166 l-83 -166 l-126 0 l149 253 q-36 60 -71.5 120.5 q-35.5 60.5 -71.5 121.5 l127 0 l76 -158 l1 0 l76 158 l125 0 l-143 -243 l150 -252 l-126 0 Z" /><glyph glyph-name="upsilon" unicode="&#x3c5;" d="M412 227 q0 -36 -0.5 -61 q-0.5 -25 -7.5 -54 q-16 -61 -64 -89 q-48 -28 -112 -28 q-59 0 -100 23.5 q-41 23.5 -61 64.5 q-9 18 -13.5 41 q-4.5 23 -5.5 48 l0 322 l110 0 l0 -255 q0 -14 0.5 -28.5 q0.5 -14.5 2 -28 q1.5 -13.5 3 -24.5 q1.5 -11 3.5 -16 q8 -20 24 -32.5 q16 -12.5 40 -12.5 q29 0 48 18 q19 18 21 50 q2 17 2.5 44.5 q0.5 27.5 0.5 52.5 l0 232 l109 0 l0 -267 Z" /><glyph glyph-name="zeta" unicode="&#x3b6;" d="M157 212 q0 -41 21 -63 q21 -22 59 -40 q46 -22 77.5 -37.5 q31.5 -15.5 50.5 -29 q19 -13.5 27 -28 q8 -14.5 8 -35.5 q0 -16 -7 -36 q-7 -20 -19 -42 q-12 -22 -28.5 -45.5 q-16.5 -23.5 -35.5 -47.5 q-20 13 -39 25 q-19 12 -39 24 q27 42 36 63 q9 21 9 30 q0 21 -47 40 q-36 15 -70 31 q-34 16 -61 40 q-27 24 -43 57.5 q-16 33.5 -16 83.5 q0 40 16 88 q16 48 46 100 q30 52 74 105 q44 53 100 103 l-204 1 l0 100 l357 0 l0 -88 q-66 -55 -116.5 -110 q-50.5 -55 -85 -107 q-34.5 -52 -52.5 -98.5 q-18 -46.5 -18 -83.5 Z" /><glyph glyph-name="iotadieresis" unicode="&#x3ca;" d="M206 -3 q-4 -1 -12 -1 q-8 0 -12 0 q-42 0 -66.5 8.5 q-24.5 8.5 -38 26 q-13.5 17.5 -17.5 44 q-4 26.5 -4 62.5 l0 357 l108 0 l0 -361 q0 -26 9 -35.5 q9 -9.5 35 -9.5 l-2 -91 ZM147 575 l0 108 l107 0 l0 -108 l-107 0 ZM-34 575 l0 108 l106 0 l0 -108 l-106 0 Z" /><glyph glyph-name="upsilondieresis" unicode="&#x3cb;" d="M412 227 q0 -36 -0.5 -61 q-0.5 -25 -7.5 -54 q-16 -61 -64 -89 q-48 -28 -112 -28 q-59 0 -100 23.5 q-41 23.5 -61 64.5 q-9 18 -13.5 41 q-4.5 23 -5.5 48 l0 322 l110 0 l0 -255 q0 -14 0.5 -28.5 q0.5 -14.5 2 -28 q1.5 -13.5 3 -24.5 q1.5 -11 3.5 -16 q8 -20 24 -32.5 q16 -12.5 40 -12.5 q29 0 48 18 q19 18 21 50 q2 17 2.5 44.5 q0.5 27.5 0.5 52.5 l0 232 l109 0 l0 -267 ZM265 575 l0 108 l107 0 l0 -108 l-107 0 ZM84 575 l0 108 l106 0 l0 -108 l-106 0 Z" /><glyph glyph-name="iotadieresistonos" unicode="&#x390;" d="M229 -3 q-4 -1 -12 -1 q-8 0 -12 0 q-42 0 -66.5 8.5 q-24.5 8.5 -38 26 q-13.5 17.5 -17.5 44 q-4 26.5 -4 62.5 l0 357 l108 0 l0 -361 q0 -26 9 -35.5 q9 -9.5 35 -9.5 l-2 -91 ZM221 575 l0 106 l106 0 l0 -106 l-106 0 ZM-46 575 l0 106 l106 0 l0 -106 l-106 0 ZM70 560 l60 193 l103 -24 l-97 -187 l-66 18 Z" /><glyph glyph-name="upsilondieresistonos" unicode="&#x3b0;" d="M412 227 q0 -36 -0.5 -61 q-0.5 -25 -7.5 -54 q-16 -61 -64 -89 q-48 -28 -112 -28 q-59 0 -100 23.5 q-41 23.5 -61 64.5 q-9 18 -13.5 41 q-4.5 23 -5.5 48 l0 322 l110 0 l0 -255 q0 -14 0.5 -28.5 q0.5 -14.5 2 -28 q1.5 -13.5 3 -24.5 q1.5 -11 3.5 -16 q8 -20 24 -32.5 q16 -12.5 40 -12.5 q29 0 48 18 q19 18 21 50 q2 17 2.5 44.5 q0.5 27.5 0.5 52.5 l0 232 l109 0 l0 -267 ZM310 575 l0 106 l106 0 l0 -106 l-106 0 ZM43 575 l0 106 l106 0 l0 -106 l-106 0 ZM159 560 l60 193 l103 -24 l-97 -187 l-66 18 Z" /><glyph glyph-name="Euro" unicode="&#x20ac;" d="M455 151 q-16 -74 -68.5 -115.5 q-52.5 -41.5 -127.5 -41.5 q-51 0 -89 17 q-38 17 -63 46.5 q-25 29.5 -37.5 70 q-12.5 40.5 -12.5 87.5 l0 46 l-39 0 l0 63 l39 0 l0 47 l-39 0 l0 63 l39 0 l0 54 q0 41 12 79.5 q12 38.5 37 68 q25 29.5 63 47.5 q38 18 90 18 q40 0 73 -12 q33 -12 58 -33 q25 -21 41.5 -49.5 q16.5 -28.5 23.5 -62.5 l-105 -32 q-3 14 -10 28.5 q-7 14.5 -18 26 q-11 11.5 -26.5 18.5 q-15.5 7 -36.5 7 q-25 0 -42.5 -9 q-17.5 -9 -28.5 -23 q-11 -14 -16 -32 q-5 -18 -5 -36 l0 -58 l164 0 l0 -63 l-164 0 l0 -47 l164 0 l0 -63 l-164 0 l0 -53 q0 -44 22 -75 q22 -31 70 -31 q36 0 60 22 q24 22 32 58 l104 -31 Z" /><glyph glyph-name="logicalnot" unicode="¬" d="M445 79 l-90 0 l0 173 l-336 0 l0 88 l426 0 l0 -261 Z" /><glyph glyph-name="space" unicode=" " d="" /><glyph glyph-name="circumflex" unicode="&#x2c6;" d="M241 635 q-5 -3 -23.5 -18 q-18.5 -15 -40.5 -32.5 q-22 -17.5 -41 -32 q-19 -14.5 -23 -17.5 l-45 40 l141 152 l71 0 l135 -150 l-46 -42 l-128 100 Z" /><glyph glyph-name="caron" unicode="&#x2c7;" d="M354 727 l46 -41 l-136 -151 l-71 0 l-141 152 l46 40 q4 -3 23 -17.5 q19 -14.5 40.5 -31.5 q21.5 -17 40.5 -32 q19 -15 24 -18 l128 99 Z" /><glyph glyph-name="breve" unicode="&#x2d8;" d="M237 557 q-42 0 -70.5 15 q-28.5 15 -46 37 q-17.5 22 -25.5 48 q-8 26 -9 48 l86 0 q1 -11 5.5 -22.5 q4.5 -11.5 13 -21.5 q8.5 -10 20 -16.5 q11.5 -6.5 26.5 -6.5 q16 0 28 6.5 q12 6.5 20 16.5 q8 10 12 21.5 q4 11.5 4 22.5 l85 0 q-2 -22 -10.5 -48 q-8.5 -26 -25.5 -48 q-17 -22 -45 -37 q-28 -15 -68 -15 Z" /><glyph glyph-name="tilde" unicode="&#x2dc;" d="M157 694 q17 0 33 -6.5 q16 -6.5 31.5 -14.5 q15.5 -8 29.5 -14.5 q14 -6.5 26 -6.5 q15 0 28.5 10 q13.5 10 30.5 33 l56 -33 q-23 -49 -49.5 -71 q-26.5 -22 -56.5 -22 q-18 0 -34.5 6.5 q-16.5 6.5 -32 14 q-15.5 7.5 -30 14 q-14.5 6.5 -27.5 6.5 q-15 0 -29.5 -9 q-14.5 -9 -32.5 -32 q-14 8 -27 16 q-13 8 -27 16 q20 45 49 69 q29 24 62 24 Z" /><glyph glyph-name="Dieresis" unicode="&#xf6cb;" d="M298 742 l0 108 l106 0 l0 -108 l-106 0 ZM116 742 l0 108 l108 0 l0 -108 l-108 0 Z" /><glyph glyph-name="acute" unicode="´" d="M160 571 l82 184 l98 -37 l-116 -175 l-64 28 Z" /><glyph glyph-name="cedilla" unicode="¸" d="M189 35 q14 -1 27 -1 q13 0 27 0 l-25 -75 q26 -3 43.5 -12 q17.5 -9 28 -21 q10.5 -12 15 -26 q4.5 -14 4.5 -26 q0 -15 -5.5 -30 q-5.5 -15 -18 -27 q-12.5 -12 -31.5 -19.5 q-19 -7.5 -46 -7.5 q-17 0 -45.5 3.5 q-28.5 3.5 -52.5 16.5 q5 12 9.5 24.5 q4.5 12.5 9.5 24.5 q21 -11 37 -13 q16 -2 30 -2 q17 0 28.5 9.5 q11.5 9.5 11.5 23.5 q0 17 -11.5 25.5 q-11.5 8.5 -29.5 8.5 q-8 0 -12 -1 q-7 5 -13.5 9.5 q-6.5 4.5 -13.5 9.5 l33 106 l0 0 Z" /><glyph glyph-name="AE" unicode="æ" d="M797 696 l0 -106 l-274 0 l0 -186 l235 0 l0 -104 l-235 0 l0 -191 l274 0 l0 -109 l-388 0 l0 171 l-189 0 q-6 -12 -17 -35.5 q-11 -23.5 -22.5 -50 q-11.5 -26.5 -22.5 -50 q-11 -23.5 -17 -35.5 l-124 0 q14 29 40 84 q26 55 57.5 122.5 q31.5 67.5 66 141.5 q34.5 74 66 141.5 q31.5 67.5 57.5 122.5 q26 55 40 84 l453 0 ZM406 589 q-11 -22 -30 -65.5 q-19 -43.5 -40.5 -91.5 q-21.5 -48 -41 -91.5 q-19.5 -43.5 -29.5 -65.5 l144 0 l0 314 l-3 0 Z" /><glyph glyph-name="Ccedilla" unicode="ç" d="M466 148 q-16 -69 -66.5 -109 q-50.5 -40 -123.5 -44 l-11 -36 q26 -3 43.5 -12 q17.5 -9 28 -21 q10.5 -12 15 -26 q4.5 -14 4.5 -26 q0 -15 -5.5 -30 q-5.5 -15 -18 -27 q-12.5 -12 -31.5 -19.5 q-19 -7.5 -46 -7.5 q-17 0 -45.5 3.5 q-28.5 3.5 -52.5 16.5 q5 12 9.5 24.5 q4.5 12.5 9.5 24.5 q21 -11 37 -13 q16 -2 30 -2 q17 0 28.5 9.5 q11.5 9.5 11.5 23.5 q0 17 -11.5 25.5 q-11.5 8.5 -29.5 8.5 q-8 0 -12 -1 q-7 5 -13.5 9.5 q-6.5 4.5 -13.5 9.5 l21 68 q-45 6 -78 25 q-33 19 -55 48 q-22 29 -33 66.5 q-11 37.5 -11 79.5 l0 270 q0 41 13 80 q13 39 39.5 69 q26.5 30 66.5 48 q40 18 95 18 q84 0 136.5 -44 q52.5 -44 69.5 -110 l-109 -36 q-3 15 -10 29 q-7 14 -19 25.5 q-12 11.5 -29 18.5 q-17 7 -39 7 q-26 0 -44.5 -9 q-18.5 -9 -30.5 -23.5 q-12 -14.5 -18 -32.5 q-6 -18 -6 -36 l0 -277 q0 -22 6 -42 q6 -20 18.5 -35 q12.5 -15 31 -23.5 q18.5 -8.5 43.5 -8.5 q37 0 63 21 q26 21 33 58 l109 -35 Z" /><glyph glyph-name="Ntilde" unicode="ñ" d="M416 0 l-164 299 l-73 143 l-3 -1 l0 -441 l-115 0 l0 696 l105 0 l154 -284 l82 -156 l4 1 l0 439 l114 0 l0 -696 l-104 0 ZM222 862 q17 0 33 -6.5 q16 -6.5 31.5 -14.5 q15.5 -8 29.5 -14.5 q14 -6.5 26 -6.5 q15 0 28.5 10 q13.5 10 30.5 33 l56 -33 q-23 -49 -49.5 -71 q-26.5 -22 -56.5 -22 q-18 0 -34.5 6.5 q-16.5 6.5 -32 14 q-15.5 7.5 -30 14 q-14.5 6.5 -27.5 6.5 q-15 0 -29.5 -9 q-14.5 -9 -32.5 -32 q-14 8 -27 16 q-13 8 -27 16 q20 45 49 69 q29 24 62 24 Z" /><glyph glyph-name="multiply" unicode="×" d="M312 290 l145 -147 l-62 -61 l-145 146 l-147 -144 q-15 15 -30.5 31 q-15.5 16 -31.5 31 l147 146 l-146 146 q16 16 31.5 31 q15.5 15 30.5 31 l145 -147 l146 145 l62 -64 l-145 -144 Z" /><glyph glyph-name="ae" unicode="æ" d="M652 92 q-23 -50 -67 -73.5 q-44 -23.5 -99 -23.5 q-105 0 -150 63 q-23 -24 -46.5 -36.5 q-23.5 -12.5 -44.5 -18.5 q-21 -6 -38.5 -7 q-17.5 -1 -29.5 -1 q-73 0 -108 41 q-35 41 -35 107 q0 32 10 60 q10 28 31 48.5 q21 20.5 53 32.5 q32 12 76 12 l86 0 l0 40 q0 26 -18.5 43.5 q-18.5 17.5 -55.5 17.5 q-25 0 -49.5 -8 q-24.5 -8 -35.5 -32 q-21 12 -41.5 25 q-20.5 13 -40.5 26 q23 48 67.5 70 q44.5 22 101.5 22 q43 0 79.5 -9.5 q36.5 -9.5 59.5 -38.5 q40 49 121 49 q54 0 90 -18.5 q36 -18.5 57 -51 q21 -32.5 29.5 -77 q8.5 -44.5 8.5 -97.5 l0 -44 l-259 0 q0 -26 3 -47.5 q3 -21.5 11.5 -37 q8.5 -15.5 24 -24.5 q15.5 -9 39.5 -9 q50 0 79 47 l91 -50 ZM290 212 l-79 0 q-34 0 -52.5 -15.5 q-18.5 -15.5 -18.5 -45.5 q0 -24 16.5 -41 q16.5 -17 54.5 -17 q33 0 56 16.5 q23 16.5 23 53.5 l0 49 ZM551 295 q0 47 -17 75.5 q-17 28.5 -57 28.5 q-20 0 -33.5 -8 q-13.5 -8 -22 -22 q-8.5 -14 -12 -33 q-3.5 -19 -4.5 -41 l146 0 Z" /><glyph glyph-name="eth" unicode="ð" d="M210 477 q10 0 24.5 -2.5 q14.5 -2.5 29.5 -8.5 q15 -6 29 -15.5 q14 -9.5 23 -22.5 l3 0 q-2 35 -6 68 q-4 33 -20 62 l-57 -44 q-8 10 -16 21 q-8 11 -16 21 l57 43 q-20 20 -51 32.5 q-31 12.5 -71 18.5 l12 81 q75 -6 118.5 -27.5 q43.5 -21.5 66.5 -45.5 l64 50 l35 -40 q-17 -13 -33 -25.5 q-16 -12.5 -33 -24.5 q15 -22 24 -55 q9 -33 14.5 -73 q5.5 -40 7 -86 q1.5 -46 1.5 -93 q0 -35 -2 -69.5 q-2 -34.5 -8 -67 q-6 -32.5 -16.5 -61.5 q-10.5 -29 -26.5 -52 q-23 -32 -58.5 -49.5 q-35.5 -17.5 -89.5 -17.5 q-54 0 -89.5 17.5 q-35.5 17.5 -56 49 q-20.5 31.5 -28.5 74.5 q-8 43 -8 94 q0 37 4.5 74.5 q4.5 37.5 15.5 66.5 q17 48 55.5 77.5 q38.5 29.5 101.5 29.5 ZM220 376 q-16 0 -29.5 -5.5 q-13.5 -5.5 -24 -21.5 q-10.5 -16 -16.5 -44.5 q-6 -28.5 -6 -74.5 q0 -31 3.5 -56 q3.5 -25 12 -43 q8.5 -18 23 -27.5 q14.5 -9.5 36.5 -9.5 q18 0 32.5 7.5 q14.5 7.5 24 24.5 q9.5 17 14.5 45 q5 28 5 69 q0 72 -17.5 104 q-17.5 32 -57.5 32 Z" /><glyph glyph-name="otilde" unicode="õ" d="M228 502 q64 0 101 -25.5 q37 -25.5 56 -63.5 q14 -28 19 -73.5 q5 -45.5 5 -93.5 q0 -40 -5 -84 q-5 -44 -16 -71 q-11 -28 -28.5 -46.5 q-17.5 -18.5 -40 -30 q-22.5 -11.5 -48.5 -16.5 q-26 -5 -53 -5 q-54 0 -90.5 20 q-36.5 20 -56.5 53 q-18 29 -25.5 75 q-7.5 46 -7.5 104 q0 45 4.5 87.5 q4.5 42.5 15.5 68.5 q20 47 62 74 q42 27 108 27 ZM226 400 q-22 0 -40 -11 q-18 -11 -26 -34 q-7 -18 -9.5 -47.5 q-2.5 -29.5 -2.5 -67.5 q0 -29 1.5 -55 q1.5 -26 8.5 -45 q17 -45 65 -45 q23 0 42 11.5 q19 11.5 27 45.5 q4 14 5.5 41 q1.5 27 1.5 61 q0 30 -2 55.5 q-2 25.5 -8 42.5 q-17 48 -63 48 ZM161 694 q17 0 33 -6.5 q16 -6.5 31.5 -14.5 q15.5 -8 29.5 -14.5 q14 -6.5 26 -6.5 q15 0 28.5 10 q13.5 10 30.5 33 l56 -33 q-23 -49 -49.5 -71 q-26.5 -22 -56.5 -22 q-18 0 -34.5 6.5 q-16.5 6.5 -32 14 q-15.5 7.5 -30 14 q-14.5 6.5 -27.5 6.5 q-15 0 -29.5 -9 q-14.5 -9 -32.5 -32 q-14 8 -27 16 q-13 8 -27 16 q20 45 49 69 q29 24 62 24 Z" /><glyph glyph-name="dotlessi" unicode="&#x131;" d="M57 0 l0 495 l111 0 l0 -495 l-111 0 Z" /><glyph glyph-name="florin" unicode="&#x192;" d="M106 427 l87 0 q0 1 1.5 12 q1.5 11 3 23 q1.5 12 3 22.5 q1.5 10.5 1.5 12.5 q4 36 14 72 q10 36 30 65 q20 29 51 47 q31 18 78 18 q22 0 45 -4 q23 -4 41 -12 l-23 -93 q-18 8 -32.5 10 q-14.5 2 -28.5 2 q-17 0 -28.5 -8.5 q-11.5 -8.5 -19.5 -22.5 q-8 -14 -13 -32.5 q-5 -18.5 -7 -37.5 l-10 -74 l88 0 l0 -93 l-100 0 l-27 -217 q-6 -47 -16.5 -85.5 q-10.5 -38.5 -29 -66 q-18.5 -27.5 -46 -42.5 q-27.5 -15 -66.5 -15 q-20 0 -47.5 5.5 q-27.5 5.5 -50.5 16.5 l28 87 q19 -8 31.5 -10.5 q12.5 -2.5 22.5 -2.5 q31 0 45 28 q14 28 21 85 l27 217 l-72 0 l-1 93 Z" /><glyph glyph-name="Adieresis" unicode="ä" d="M359 150 l-193 0 q-2 -9 -8 -30 q-6 -21 -12.5 -45 q-6.5 -24 -12 -45 q-5.5 -21 -8.5 -30 l-119 0 l201 696 l110 0 l202 -696 l-121 0 l-39 150 ZM227 392 l-36 -140 l142 0 l-35 139 q-2 9 -6.5 30 q-4.5 21 -10 44 q-5.5 23 -10.5 43.5 q-5 20.5 -6 29.5 l-5 0 l-33 -146 ZM117 742 l0 108 l108 0 l0 -108 l-108 0 ZM299 742 l0 108 l106 0 l0 -108 l-106 0 Z" /><glyph glyph-name="Eacute" unicode="é" d="M63 0 l0 696 l387 0 l0 -106 l-273 0 l0 -186 l235 0 l0 -104 l-235 0 l0 -191 l273 0 l0 -109 l-387 0 ZM173 780 l159 124 l69 -80 l-185 -98 l-43 54 Z" /><glyph glyph-name="Odieresis" unicode="ö" d="M471 211 q0 -50 -15.5 -90 q-15.5 -40 -44 -68.5 q-28.5 -28.5 -67.5 -43.5 q-39 -15 -86 -15 q-57 0 -98 18.5 q-41 18.5 -66.5 50 q-25.5 31.5 -37.5 73 q-12 41.5 -12 87.5 l0 263 q0 37 11.5 75 q11.5 38 37 69 q25.5 31 66 51 q40.5 20 99.5 20 q55 0 95 -19 q40 -19 66.5 -49.5 q26.5 -30.5 39 -69 q12.5 -38.5 12.5 -77.5 l0 -275 ZM355 488 q0 13 -4.5 30.5 q-4.5 17.5 -15.5 33.5 q-11 16 -29.5 27.5 q-18.5 11.5 -47.5 11.5 q-29 0 -48.5 -10.5 q-19.5 -10.5 -31 -26 q-11.5 -15.5 -16.5 -33.5 q-5 -18 -5 -34 l1 -266 q0 -50 23 -84 q23 -34 78 -34 q39 0 67.5 26.5 q28.5 26.5 28.5 72.5 l0 286 ZM297 742 l0 108 l106 0 l0 -108 l-106 0 ZM115 742 l0 108 l108 0 l0 -108 l-108 0 Z" /><glyph glyph-name="Udieresis" unicode="ü" d="M482 696 l0 -485 q0 -50 -15.5 -90.5 q-15.5 -40.5 -44 -68.5 q-28.5 -28 -67.5 -43 q-39 -15 -86 -15 q-54 0 -94.5 17.5 q-40.5 17.5 -67 47.5 q-26.5 30 -40 70.5 q-13.5 40.5 -13.5 86.5 l0 480 l114 0 l0 -483 q0 -45 25.5 -77 q25.5 -32 75.5 -32 q42 0 69.5 27.5 q27.5 27.5 27.5 74.5 l0 490 l116 0 ZM307 742 l0 108 l106 0 l0 -108 l-106 0 ZM125 742 l0 108 l108 0 l0 -108 l-108 0 Z" /><glyph glyph-name="eacute" unicode="é" d="M305 145 q23 -12 45.5 -24 q22.5 -12 45.5 -25 q-23 -50 -68 -75.5 q-45 -25.5 -100 -25.5 q-105 0 -148.5 62 q-43.5 62 -43.5 190 q0 53 8.5 99 q8.5 46 30 80.5 q21.5 34.5 57.5 54.5 q36 20 91 20 q51 0 86 -17 q35 -17 57 -47 q22 -30 31.5 -71 q9.5 -41 9.5 -90 l0 -58 l-259 0 q0 -24 3 -46.5 q3 -22.5 12 -39.5 q9 -17 24 -27 q15 -10 39 -10 q24 0 44 13.5 q20 13.5 35 36.5 ZM294 295 q0 47 -16.5 75.5 q-16.5 28.5 -56.5 28.5 q-40 0 -55 -30 q-15 -30 -17 -74 l145 0 ZM169 571 l82 184 l98 -37 l-116 -175 l-64 28 Z" /><glyph glyph-name="egrave" unicode="è" d="M305 145 q23 -12 45.5 -24 q22.5 -12 45.5 -25 q-23 -50 -68 -75.5 q-45 -25.5 -100 -25.5 q-105 0 -148.5 62 q-43.5 62 -43.5 190 q0 53 8.5 99 q8.5 46 30 80.5 q21.5 34.5 57.5 54.5 q36 20 91 20 q51 0 86 -17 q35 -17 57 -47 q22 -30 31.5 -71 q9.5 -41 9.5 -90 l0 -58 l-259 0 q0 -24 3 -46.5 q3 -22.5 12 -39.5 q9 -17 24 -27 q15 -10 39 -10 q24 0 44 13.5 q20 13.5 35 36.5 ZM294 295 q0 47 -16.5 75.5 q-16.5 28.5 -56.5 28.5 q-40 0 -55 -30 q-15 -30 -17 -74 l145 0 ZM206 543 l-120 174 l99 38 l84 -181 l-63 -31 Z" /><glyph glyph-name="ecircumflex" unicode="ê" d="M305 145 q23 -12 45.5 -24 q22.5 -12 45.5 -25 q-23 -50 -68 -75.5 q-45 -25.5 -100 -25.5 q-105 0 -148.5 62 q-43.5 62 -43.5 190 q0 53 8.5 99 q8.5 46 30 80.5 q21.5 34.5 57.5 54.5 q36 20 91 20 q51 0 86 -17 q35 -17 57 -47 q22 -30 31.5 -71 q9.5 -41 9.5 -90 l0 -58 l-259 0 q0 -24 3 -46.5 q3 -22.5 12 -39.5 q9 -17 24 -27 q15 -10 39 -10 q24 0 44 13.5 q20 13.5 35 36.5 ZM294 295 q0 47 -16.5 75.5 q-16.5 28.5 -56.5 28.5 q-40 0 -55 -30 q-15 -30 -17 -74 l145 0 ZM222 635 q-5 -3 -23.5 -18 q-18.5 -15 -40.5 -32.5 q-22 -17.5 -41 -32 q-19 -14.5 -23 -17.5 l-45 40 l141 152 l71 0 l135 -150 l-46 -42 l-128 100 Z" /><glyph glyph-name="edieresis" unicode="ë" d="M305 145 q23 -12 45.5 -24 q22.5 -12 45.5 -25 q-23 -50 -68 -75.5 q-45 -25.5 -100 -25.5 q-105 0 -148.5 62 q-43.5 62 -43.5 190 q0 53 8.5 99 q8.5 46 30 80.5 q21.5 34.5 57.5 54.5 q36 20 91 20 q51 0 86 -17 q35 -17 57 -47 q22 -30 31.5 -71 q9.5 -41 9.5 -90 l0 -58 l-259 0 q0 -24 3 -46.5 q3 -22.5 12 -39.5 q9 -17 24 -27 q15 -10 39 -10 q24 0 44 13.5 q20 13.5 35 36.5 ZM294 295 q0 47 -16.5 75.5 q-16.5 28.5 -56.5 28.5 q-40 0 -55 -30 q-15 -30 -17 -74 l145 0 ZM261 575 l0 108 l107 0 l0 -108 l-107 0 ZM80 575 l0 108 l106 0 l0 -108 l-106 0 Z" /><glyph glyph-name="icircumflex" unicode="î" d="M92 0 l0 495 l111 0 l0 -495 l-111 0 ZM148 635 q-5 -3 -23.5 -18 q-18.5 -15 -40.5 -32.5 q-22 -17.5 -41 -32 q-19 -14.5 -23 -17.5 l-45 40 l141 152 l71 0 l135 -150 l-46 -42 l-128 100 Z" /><glyph glyph-name="idieresis" unicode="ï" d="M78 0 l0 495 l111 0 l0 -495 l-111 0 ZM171 575 l0 108 l107 0 l0 -108 l-107 0 ZM-10 575 l0 108 l106 0 l0 -108 l-106 0 Z" /><glyph glyph-name="ocircumflex" unicode="ô" d="M228 502 q64 0 101 -25.5 q37 -25.5 56 -63.5 q14 -28 19 -73.5 q5 -45.5 5 -93.5 q0 -40 -5 -84 q-5 -44 -16 -71 q-11 -28 -28.5 -46.5 q-17.5 -18.5 -40 -30 q-22.5 -11.5 -48.5 -16.5 q-26 -5 -53 -5 q-54 0 -90.5 20 q-36.5 20 -56.5 53 q-18 29 -25.5 75 q-7.5 46 -7.5 104 q0 45 4.5 87.5 q4.5 42.5 15.5 68.5 q20 47 62 74 q42 27 108 27 ZM226 400 q-22 0 -40 -11 q-18 -11 -26 -34 q-7 -18 -9.5 -47.5 q-2.5 -29.5 -2.5 -67.5 q0 -29 1.5 -55 q1.5 -26 8.5 -45 q17 -45 65 -45 q23 0 42 11.5 q19 11.5 27 45.5 q4 14 5.5 41 q1.5 27 1.5 61 q0 30 -2 55.5 q-2 25.5 -8 42.5 q-17 48 -63 48 ZM222 635 q-5 -3 -23.5 -18 q-18.5 -15 -40.5 -32.5 q-22 -17.5 -41 -32 q-19 -14.5 -23 -17.5 l-45 40 l141 152 l71 0 l135 -150 l-46 -42 l-128 100 Z" /><glyph glyph-name="odieresis" unicode="ö" d="M228 502 q64 0 101 -25.5 q37 -25.5 56 -63.5 q14 -28 19 -73.5 q5 -45.5 5 -93.5 q0 -40 -5 -84 q-5 -44 -16 -71 q-11 -28 -28.5 -46.5 q-17.5 -18.5 -40 -30 q-22.5 -11.5 -48.5 -16.5 q-26 -5 -53 -5 q-54 0 -90.5 20 q-36.5 20 -56.5 53 q-18 29 -25.5 75 q-7.5 46 -7.5 104 q0 45 4.5 87.5 q4.5 42.5 15.5 68.5 q20 47 62 74 q42 27 108 27 ZM226 400 q-22 0 -40 -11 q-18 -11 -26 -34 q-7 -18 -9.5 -47.5 q-2.5 -29.5 -2.5 -67.5 q0 -29 1.5 -55 q1.5 -26 8.5 -45 q17 -45 65 -45 q23 0 42 11.5 q19 11.5 27 45.5 q4 14 5.5 41 q1.5 27 1.5 61 q0 30 -2 55.5 q-2 25.5 -8 42.5 q-17 48 -63 48 ZM259 575 l0 108 l107 0 l0 -108 l-107 0 ZM78 575 l0 108 l106 0 l0 -108 l-106 0 Z" /><glyph glyph-name="ugrave" unicode="ù" d="M301 0 l0 46 q-1 0 -2 0.5 q-1 0.5 -2 0.5 q-19 -25 -47.5 -38.5 q-28.5 -13.5 -58.5 -13.5 q-68 0 -105 40 q-37 40 -37 110 l0 349 l110 0 l0 -318 q0 -37 20.5 -57 q20.5 -20 49.5 -20 q39 0 55.5 28.5 q16.5 28.5 16.5 76.5 l0 290 l110 0 l0 -494 l-110 0 ZM223 543 l-120 174 l99 38 l84 -181 l-63 -31 Z" /><glyph glyph-name="ucircumflex" unicode="û" d="M301 0 l0 46 q-1 0 -2 0.5 q-1 0.5 -2 0.5 q-19 -25 -47.5 -38.5 q-28.5 -13.5 -58.5 -13.5 q-68 0 -105 40 q-37 40 -37 110 l0 349 l110 0 l0 -318 q0 -37 20.5 -57 q20.5 -20 49.5 -20 q39 0 55.5 28.5 q16.5 28.5 16.5 76.5 l0 290 l110 0 l0 -494 l-110 0 ZM231 635 q-5 -3 -23.5 -18 q-18.5 -15 -40.5 -32.5 q-22 -17.5 -41 -32 q-19 -14.5 -23 -17.5 l-45 40 l141 152 l71 0 l135 -150 l-46 -42 l-128 100 Z" /><glyph glyph-name="udieresis" unicode="ü" d="M301 0 l0 46 q-1 0 -2 0.5 q-1 0.5 -2 0.5 q-19 -25 -47.5 -38.5 q-28.5 -13.5 -58.5 -13.5 q-68 0 -105 40 q-37 40 -37 110 l0 349 l110 0 l0 -318 q0 -37 20.5 -57 q20.5 -20 49.5 -20 q39 0 55.5 28.5 q16.5 28.5 16.5 76.5 l0 290 l110 0 l0 -494 l-110 0 ZM265 575 l0 108 l107 0 l0 -108 l-107 0 ZM84 575 l0 108 l106 0 l0 -108 l-106 0 Z" /><glyph glyph-name="Alpha" unicode="&#x391;" d="M359 150 l-193 0 q-2 -9 -8 -30 q-6 -21 -12.5 -45 q-6.5 -24 -12 -45 q-5.5 -21 -8.5 -30 l-119 0 l201 696 l110 0 l202 -696 l-121 0 l-39 150 ZM227 392 l-36 -140 l142 0 l-35 139 q-2 9 -6.5 30 q-4.5 21 -10 44 q-5.5 23 -10.5 43.5 q-5 20.5 -6 29.5 l-5 0 l-33 -146 Z" /><glyph glyph-name="Beta" unicode="&#x392;" d="M484 206 q0 -100 -53.5 -153 q-53.5 -53 -143.5 -53 l-224 0 l0 696 l213 0 q99 0 148.5 -51 q49.5 -51 49.5 -139 q0 -44 -18.5 -81 q-18.5 -37 -66.5 -59 l0 -5 q25 -8 43 -23.5 q18 -15.5 29.5 -36.5 q11.5 -21 17 -45.5 q5.5 -24.5 5.5 -49.5 ZM362 502 q0 42 -22.5 66 q-22.5 24 -72.5 24 l-90 0 l0 -182 l91 0 q49 0 71.5 25.5 q22.5 25.5 22.5 66.5 ZM372 213 q0 44 -22 71 q-22 27 -73 27 l-100 0 l0 -202 l101 0 q27 0 45 8 q18 8 29 22.5 q11 14.5 15.5 33.5 q4.5 19 4.5 40 Z" /><glyph glyph-name="Epsilon" unicode="&#x395;" d="M63 0 l0 696 l387 0 l0 -106 l-273 0 l0 -186 l235 0 l0 -104 l-235 0 l0 -191 l273 0 l0 -109 l-387 0 Z" /><glyph glyph-name="Zeta" unicode="&#x396;" d="M26 0 l0 102 l253 490 l-242 0 l0 104 l372 0 l0 -97 l-253 -491 l253 0 l0 -108 l-383 0 Z" /><glyph glyph-name="Eta" unicode="&#x397;" d="M373 0 l0 301 l-196 0 l0 -301 l-115 0 l0 696 l115 0 l0 -292 l196 0 l0 292 l114 0 l0 -696 l-114 0 Z" /><glyph glyph-name="Iota" unicode="&#x399;" d="M64 0 l0 696 l115 0 l0 -696 l-115 0 Z" /><glyph glyph-name="Kappa" unicode="&#x39a;" d="M407 0 q-38 78 -75.5 155.5 q-37.5 77.5 -75.5 155.5 q-20 -30 -40 -60.5 q-20 -30.5 -40 -59.5 l0 -191 l-114 0 l0 696 l114 0 l0 -315 l3 0 l204 315 l131 0 l-186 -278 q51 -106 103 -209.5 q52 -103.5 104 -208.5 l-128 0 Z" /><glyph glyph-name="Mu" unicode="&#x39c;" d="M499 0 l0 407 l-4 0 l-51 -130 l-66 -152 l-81 0 l-68 157 l-50 126 l-4 -1 l0 -407 l-114 0 l0 696 l109 0 l98 -228 l68 -168 l4 0 l67 169 l96 227 l110 0 l0 -696 l-114 0 Z" /><glyph glyph-name="Upsilondieresis" unicode="&#x3ab;" d="M241 404 q11 34 23 67 q12 33 24 67 l61 158 l121 0 l-176 -412 l0 -284 l-112 0 l0 284 l-176 413 l124 0 q15 -41 30.5 -81 q15.5 -40 29.5 -80 q11 -32 22.5 -66 q11.5 -34 22.5 -66 l6 0 ZM93 742 l0 108 l108 0 l0 -108 l-108 0 ZM275 742 l0 108 l106 0 l0 -108 l-106 0 Z" /><glyph glyph-name="alphatonos" unicode="&#x3ac;" d="M296 453 l0 41 l111 0 l0 -494 l-111 0 l0 43 q-1 0 -1.5 0.5 q-0.5 0.5 -1.5 0.5 q-19 -25 -47 -37.5 q-28 -12.5 -53 -12.5 q-53 0 -83 21.5 q-30 21.5 -46 56 q-16 34.5 -20 77.5 q-4 43 -4 87 q0 44 4 90.5 q4 46.5 19.5 85 q15.5 38.5 46.5 63.5 q31 25 85 25 q28 0 53.5 -12 q25.5 -12 45.5 -37 l2 2 ZM225 396 q-26 0 -40.5 -15.5 q-14.5 -15.5 -21.5 -40 q-7 -24.5 -8.5 -54 q-1.5 -29.5 -1.5 -57.5 q0 -27 3 -51 q3 -24 11 -41.5 q8 -17.5 21.5 -27.5 q13.5 -10 34.5 -10 q22 0 36.5 12 q14.5 12 22.5 32 q8 20 11.5 46 q3.5 26 3.5 54 q0 33 -2.5 61.5 q-2.5 28.5 -10 48.5 q-7.5 20 -21.5 31.5 q-14 11.5 -38 11.5 ZM170 571 l81 184 l99 -37 l-117 -175 l-63 28 Z" /><glyph glyph-name="Nu" unicode="&#x39d;" d="M416 0 l-164 299 l-73 143 l-3 -1 l0 -441 l-115 0 l0 696 l105 0 l154 -284 l82 -156 l4 1 l0 439 l114 0 l0 -696 l-104 0 Z" /><glyph glyph-name="Omicron" unicode="&#x39f;" d="M471 211 q0 -50 -15.5 -90 q-15.5 -40 -44 -68.5 q-28.5 -28.5 -67.5 -43.5 q-39 -15 -86 -15 q-57 0 -98 18.5 q-41 18.5 -66.5 50 q-25.5 31.5 -37.5 73 q-12 41.5 -12 87.5 l0 263 q0 37 11.5 75 q11.5 38 37 69 q25.5 31 66 51 q40.5 20 99.5 20 q55 0 95 -19 q40 -19 66.5 -49.5 q26.5 -30.5 39 -69 q12.5 -38.5 12.5 -77.5 l0 -275 ZM355 488 q0 13 -4.5 30.5 q-4.5 17.5 -15.5 33.5 q-11 16 -29.5 27.5 q-18.5 11.5 -47.5 11.5 q-29 0 -48.5 -10.5 q-19.5 -10.5 -31 -26 q-11.5 -15.5 -16.5 -33.5 q-5 -18 -5 -34 l1 -266 q0 -50 23 -84 q23 -34 78 -34 q39 0 67.5 26.5 q28.5 26.5 28.5 72.5 l0 286 Z" /><glyph glyph-name="Rho" unicode="&#x3a1;" d="M486 481 q0 -45 -13 -84 q-13 -39 -38.5 -68 q-25.5 -29 -64.5 -45.5 q-39 -16.5 -91 -16.5 l-102 0 l0 -267 l-114 0 l0 696 l210 0 q49 0 88 -13 q39 -13 67 -39.5 q28 -26.5 43 -67 q15 -40.5 15 -95.5 ZM373 483 q0 52 -25 79.5 q-25 27.5 -76 27.5 l-95 0 l0 -216 l96 0 q51 0 75.5 29.5 q24.5 29.5 24.5 79.5 Z" /><glyph glyph-name="Tau" unicode="&#x3a4;" d="M271 592 l0 -592 l-114 0 l0 592 l-153 0 l0 104 l421 0 l0 -104 l-154 0 Z" /><glyph glyph-name="Upsilon" unicode="&#x3a5;" d="M241 404 q11 34 23 67 q12 33 24 67 l61 158 l121 0 l-176 -412 l0 -284 l-112 0 l0 284 l-176 413 l124 0 q15 -41 30.5 -81 q15.5 -40 29.5 -80 q11 -32 22.5 -66 q11.5 -34 22.5 -66 l6 0 Z" /><glyph glyph-name="Chi" unicode="&#x3a7;" d="M131 0 l-129 0 q8 15 22.5 43.5 q14.5 28.5 32.5 63.5 q18 35 37.5 73 q19.5 38 37 73 q17.5 35 32 63.5 q14.5 28.5 22.5 43.5 l-172 336 l130 0 l102 -225 l104 225 l129 0 l-173 -336 l185 -360 l-128 0 l-116 247 l-116 -247 Z" /><glyph glyph-name="Alphatonos" unicode="&#x386;" d="M359 150 l-193 0 q-2 -9 -8 -30 q-6 -21 -12.5 -45 q-6.5 -24 -12 -45 q-5.5 -21 -8.5 -30 l-119 0 l201 696 l110 0 l202 -696 l-121 0 l-39 150 ZM227 392 l-36 -140 l142 0 l-35 139 q-2 9 -6.5 30 q-4.5 21 -10 44 q-5.5 23 -10.5 43.5 q-5 20.5 -6 29.5 l-5 0 l-33 -146 ZM-57 549 l81 184 l99 -37 l-117 -175 l-63 28 Z" /><glyph glyph-name="Epsilontonos" unicode="&#x388;" d="M63 0 l0 696 l387 0 l0 -106 l-273 0 l0 -186 l235 0 l0 -104 l-235 0 l0 -191 l273 0 l0 -109 l-387 0 ZM-145 554 l81 184 l99 -37 l-117 -175 l-63 28 Z" /><glyph glyph-name="Etatonos" unicode="&#x389;" d="M373 0 l0 301 l-196 0 l0 -301 l-115 0 l0 696 l115 0 l0 -292 l196 0 l0 292 l114 0 l0 -696 l-114 0 ZM-143 549 l81 184 l99 -37 l-117 -175 l-63 28 Z" /><glyph glyph-name="Iotatonos" unicode="&#x38a;" d="M64 0 l0 696 l115 0 l0 -696 l-115 0 ZM-147 549 l81 184 l99 -37 l-117 -175 l-63 28 Z" /><glyph glyph-name="Omicrontonos" unicode="&#x38c;" d="M471 211 q0 -50 -15.5 -90 q-15.5 -40 -44 -68.5 q-28.5 -28.5 -67.5 -43.5 q-39 -15 -86 -15 q-57 0 -98 18.5 q-41 18.5 -66.5 50 q-25.5 31.5 -37.5 73 q-12 41.5 -12 87.5 l0 263 q0 37 11.5 75 q11.5 38 37 69 q25.5 31 66 51 q40.5 20 99.5 20 q55 0 95 -19 q40 -19 66.5 -49.5 q26.5 -30.5 39 -69 q12.5 -38.5 12.5 -77.5 l0 -275 ZM355 488 q0 13 -4.5 30.5 q-4.5 17.5 -15.5 33.5 q-11 16 -29.5 27.5 q-18.5 11.5 -47.5 11.5 q-29 0 -48.5 -10.5 q-19.5 -10.5 -31 -26 q-11.5 -15.5 -16.5 -33.5 q-5 -18 -5 -34 l1 -266 q0 -50 23 -84 q23 -34 78 -34 q39 0 67.5 26.5 q28.5 26.5 28.5 72.5 l0 286 ZM-124 549 l81 184 l99 -37 l-117 -175 l-63 28 Z" /><glyph glyph-name="Upsilontonos" unicode="&#x38e;" d="M241 404 q11 34 23 67 q12 33 24 67 l61 158 l121 0 l-176 -412 l0 -284 l-112 0 l0 284 l-176 413 l124 0 q15 -41 30.5 -81 q15.5 -40 29.5 -80 q11 -32 22.5 -66 q11.5 -34 22.5 -66 l6 0 ZM-185 549 l81 184 l99 -37 l-117 -175 l-63 28 Z" /><glyph glyph-name="epsilontonos" unicode="&#x3ad;" d="M219 501 q63 0 107.5 -26 q44.5 -26 65.5 -77 q-4 -3 -17.5 -9.5 q-13.5 -6.5 -29.5 -14.5 q-16 -8 -29.5 -14.5 q-13.5 -6.5 -17.5 -9.5 q-11 27 -32 37.5 q-21 10.5 -42 10.5 q-31 0 -49.5 -14.5 q-18.5 -14.5 -18.5 -40.5 q0 -21 15.5 -34 q15.5 -13 47.5 -13 l56 0 l0 -86 l-58 0 q-28 0 -46 -15 q-18 -15 -18 -41 q0 -25 20 -40.5 q20 -15.5 52 -15.5 q27 0 47 12.5 q20 12.5 28 35.5 q4 -3 18.5 -10 q14.5 -7 30 -15 q15.5 -8 29.5 -15 q14 -7 18 -10 q-23 -48 -64.5 -74.5 q-41.5 -26.5 -107.5 -26.5 q-40 0 -73.5 9.5 q-33.5 9.5 -58 28.5 q-24.5 19 -38 48 q-13.5 29 -13.5 67 q0 29 16 60 q16 31 54 47 l0 1 q-38 14 -52 41.5 q-14 27.5 -14 56.5 q0 30 11.5 57 q11.5 27 34 47 q22.5 20 55 31.5 q32.5 11.5 73.5 11.5 ZM159 571 l81 184 l99 -37 l-117 -175 l-63 28 Z" /><glyph glyph-name="etatonos" unicode="&#x3ae;" d="M302 0 l0 318 q0 37 -20 56.5 q-20 19.5 -50 19.5 q-32 0 -51.5 -20.5 q-19.5 -20.5 -19.5 -57.5 l0 -316 l-111 0 l0 495 l111 0 l0 -47 l3 0 q19 23 47 37.5 q28 14.5 59 14.5 q67 0 104.5 -40.5 q37.5 -40.5 37.5 -110.5 l0 -349 l-110 0 ZM151 571 l81 184 l99 -37 l-117 -175 l-63 28 Z" /><glyph glyph-name="iotatonos" unicode="&#x3af;" d="M206 -3 q-4 -1 -12 -1 q-8 0 -12 0 q-42 0 -66.5 8.5 q-24.5 8.5 -38 26 q-13.5 17.5 -17.5 44 q-4 26.5 -4 62.5 l0 357 l108 0 l0 -361 q0 -26 9 -35.5 q9 -9.5 35 -9.5 l-2 -91 ZM60 571 l81 184 l99 -37 l-117 -175 l-63 28 Z" /><glyph glyph-name="omicrontonos" unicode="&#x3cc;" d="M228 502 q64 0 101 -25.5 q37 -25.5 56 -63.5 q14 -28 19 -73.5 q5 -45.5 5 -93.5 q0 -40 -5 -84 q-5 -44 -16 -71 q-11 -28 -28.5 -46.5 q-17.5 -18.5 -40 -30 q-22.5 -11.5 -48.5 -16.5 q-26 -5 -53 -5 q-54 0 -90.5 20 q-36.5 20 -56.5 53 q-18 29 -25.5 75 q-7.5 46 -7.5 104 q0 45 4.5 87.5 q4.5 42.5 15.5 68.5 q20 47 62 74 q42 27 108 27 ZM226 400 q-22 0 -40 -11 q-18 -11 -26 -34 q-7 -18 -9.5 -47.5 q-2.5 -29.5 -2.5 -67.5 q0 -29 1.5 -55 q1.5 -26 8.5 -45 q17 -45 65 -45 q23 0 42 11.5 q19 11.5 27 45.5 q4 14 5.5 41 q1.5 27 1.5 61 q0 30 -2 55.5 q-2 25.5 -8 42.5 q-17 48 -63 48 ZM170 571 l81 184 l99 -37 l-117 -175 l-63 28 Z" /><glyph glyph-name="Omegatonos" unicode="&#x38f;" d="M292 116 q29 11 46.5 37 q17.5 26 17.5 63 l0 271 q0 19 -6 37.5 q-6 18.5 -18 33.5 q-12 15 -30.5 24 q-18.5 9 -43.5 9 q-26 0 -44.5 -9 q-18.5 -9 -31.5 -23.5 q-13 -14.5 -19 -33.5 q-6 -19 -6 -38 l0 -263 q0 -38 17 -67.5 q17 -29.5 49 -40.5 l0 -116 l-191 0 l0 105 l60 0 q0 1 0.5 1 q0.5 0 0.5 1 q-29 21 -39 58.5 q-10 37.5 -10 79.5 l0 239 q0 42 13.5 81.5 q13.5 39.5 40 69.5 q26.5 30 66.5 48 q40 18 94 18 q50 0 89.5 -17 q39.5 -17 67 -46.5 q27.5 -29.5 42 -69 q14.5 -39.5 14.5 -84.5 l0 -242 q0 -43 -11 -78.5 q-11 -35.5 -39 -57.5 l1 -1 l61 0 l0 -105 l-191 0 l0 116 ZM-124 549 l81 184 l99 -37 l-117 -175 l-63 28 Z" /><glyph glyph-name="upsilontonos" unicode="&#x3cd;" d="M412 227 q0 -36 -0.5 -61 q-0.5 -25 -7.5 -54 q-16 -61 -64 -89 q-48 -28 -112 -28 q-59 0 -100 23.5 q-41 23.5 -61 64.5 q-9 18 -13.5 41 q-4.5 23 -5.5 48 l0 322 l110 0 l0 -255 q0 -14 0.5 -28.5 q0.5 -14.5 2 -28 q1.5 -13.5 3 -24.5 q1.5 -11 3.5 -16 q8 -20 24 -32.5 q16 -12.5 40 -12.5 q29 0 48 18 q19 18 21 50 q2 17 2.5 44.5 q0.5 27.5 0.5 52.5 l0 232 l109 0 l0 -267 ZM174 571 l81 184 l99 -37 l-117 -175 l-63 28 Z" /><glyph glyph-name="exclam" unicode="!" d="M175 187 l-89 0 l-11 509 l110 0 l-10 -509 ZM75 0 l0 111 l112 0 l0 -111 l-112 0 Z" /><glyph glyph-name="guilsinglleft" unicode="&#x2039;" d="M170 37 l-124 197 l124 196 l106 0 l-122 -196 l122 -197 l-106 0 Z" /><glyph glyph-name="guilsinglright" unicode="&#x203a;" d="M46 37 l122 197 l-122 196 l106 0 l124 -196 l-124 -197 l-106 0 Z" /><glyph glyph-name="exclamdown" unicode="¡" d="M85 408 l91 0 l9 -509 l-109 0 l9 509 ZM187 595 l0 -111 l-112 0 l0 111 l112 0 Z" /><glyph glyph-name="quotesinglbase" unicode="&#x201a;" d="M56 -134 l32 131 l-29 0 l0 132 l124 0 l0 -128 l-66 -135 l-61 0 Z" /><glyph glyph-name="quotedblbase" unicode="&#x201e;" d="M56 -134 l32 131 l-29 0 l0 132 l124 0 l0 -128 l-66 -135 l-61 0 ZM251 -134 l32 131 l-29 0 l0 132 l124 0 l0 -128 l-66 -135 l-61 0 Z" /><glyph glyph-name="questiondown" unicode="¿" d="M55 -24 q0 46 12 75 q12 29 33 58 q12 18 26 35.5 q14 17.5 26.5 36 q12.5 18.5 21 38.5 q8.5 20 8.5 43 l0 45 l112 0 l0 -47 q0 -41 -13.5 -74.5 q-13.5 -33.5 -35.5 -64.5 q-29 -40 -49 -71 q-20 -31 -21 -62 q0 -17 3.5 -33 q3.5 -16 12 -28.5 q8.5 -12.5 23 -20 q14.5 -7.5 36.5 -7.5 q35 0 56.5 26.5 q21.5 26.5 23.5 70.5 q9 -1 24 -3 q15 -2 31.5 -4.5 q16.5 -2.5 31.5 -4 q15 -1.5 24 -2.5 q-5 -47 -22 -82.5 q-17 -35.5 -43 -59.5 q-26 -24 -60 -36 q-34 -12 -73 -12 q-93 0 -140.5 50 q-47.5 50 -47.5 134 ZM295 493 l0 -111 l-112 0 l0 111 l112 0 Z" /><glyph glyph-name="daggerdbl" unicode="&#x2021;" d="M165 377 l-148 0 l0 94 l148 0 l0 220 l103 0 l0 -220 l148 0 l0 -94 l-148 0 l0 -164 l148 0 l0 -94 l-148 0 l0 -297 l-103 0 l0 297 l-148 0 l0 94 l148 0 l0 164 Z" /><glyph glyph-name="OE" unicode="&#x152;" d="M314 0 q-26 -6 -56 -6 q-57 0 -98 18.5 q-41 18.5 -66.5 50 q-25.5 31.5 -37.5 72.5 q-12 41 -12 87 l0 265 q0 37 11.5 75 q11.5 38 37 69 q25.5 31 66 50.5 q40.5 19.5 99.5 19.5 q14 0 27 -1.5 q13 -1.5 25 -3.5 l384 0 l0 -106 l-273 0 l0 -186 l234 0 l0 -104 l-234 0 l0 -191 l273 0 l0 -109 l-380 0 ZM258 103 q25 0 49 13 l0 463 q-10 5 -22 8.5 q-12 3.5 -27 3.5 q-28 0 -47 -10 q-19 -10 -31 -25 q-12 -15 -17 -32.5 q-5 -17.5 -5 -32.5 l0 -271 q0 -50 22.5 -83.5 q22.5 -33.5 77.5 -33.5 Z" /><glyph glyph-name="brokenbar" unicode="¦" d="M71 301 l0 420 l91 0 l0 -420 l-91 0 ZM162 240 l0 -421 l-91 0 l0 421 l91 0 Z" /><glyph glyph-name="emdash" unicode="&#x2014;" d="M20 225 l0 96 l959 0 l0 -96 l-959 0 Z" /><glyph glyph-name="Thorn" unicode="þ" d="M485 355 q0 -45 -13 -84 q-13 -39 -38.5 -68 q-25.5 -29 -64.5 -45.5 q-39 -16.5 -91 -16.5 l-102 0 l1 -141 l-114 0 l0 711 l114 0 l-1 -141 l96 0 q49 0 88 -13 q39 -13 67 -39.5 q28 -26.5 43 -67 q15 -40.5 15 -95.5 ZM372 357 q0 52 -25 79.5 q-25 27.5 -76 27.5 l-95 0 l0 -216 l96 0 q51 0 75.5 29.5 q24.5 29.5 24.5 79.5 Z" /><glyph glyph-name="thorn" unicode="þ" d="M159 453 q19 25 45.5 36 q26.5 11 54.5 11 q52 0 82 -22.5 q30 -22.5 46 -59 q16 -36.5 20.5 -82 q4.5 -45.5 4.5 -90.5 q0 -45 -5.5 -90 q-5.5 -45 -22 -81 q-16.5 -36 -47.5 -58 q-31 -22 -82 -22 q-25 0 -51.5 11 q-26.5 11 -44.5 34 q-1 0 -1.5 -0.5 q-0.5 -0.5 -1.5 -0.5 l0 -239 l-110 0 l0 906 l110 0 l0 -252 q1 0 1.5 -0.5 q0.5 -0.5 1.5 -0.5 ZM227 100 q24 0 38.5 12.5 q14.5 12.5 22 33.5 q7.5 21 10 47 q2.5 26 2.5 53 q0 31 -2.5 58.5 q-2.5 27.5 -10 48 q-7.5 20.5 -21.5 32 q-14 11.5 -38 11.5 q-26 0 -40.5 -13 q-14.5 -13 -21.5 -35 q-7 -22 -8.5 -49.5 q-1.5 -27.5 -1.5 -56.5 q0 -24 2 -49 q2 -25 9 -45.5 q7 -20.5 21 -34 q14 -13.5 39 -13.5 Z" /><glyph glyph-name="Circumflex" unicode="&#xf6c0;" d="M255 808 l-132 -80 l-41 44 l141 127 l69 0 l137 -126 l-42 -45 l-132 80 Z" /><glyph glyph-name="commaaccent" unicode="&#xf6c3;" d="M192 -275 l32 99 l-29 0 l0 117 l116 0 l0 -114 l-62 -102 l-57 0 Z" /><glyph glyph-name="Acute" unicode="&#xf6c9;" d="M173 780 l159 124 l69 -80 l-185 -98 l-43 54 Z" /><glyph glyph-name="Caron" unicode="&#xf6ca;" d="M386 901 l42 -44 l-137 -126 l-70 0 l-140 127 l41 43 l132 -80 l132 80 Z" /><glyph glyph-name="DieresisAcute" unicode="&#xf6cc;" d="M322 762 l0 106 l105 0 l0 -106 l-105 0 ZM21 762 l0 106 l106 0 l0 -106 l-106 0 ZM138 768 l102 176 l93 -46 l-136 -163 l-59 33 Z" /><glyph glyph-name="DieresisGrave" unicode="&#xf6cd;" d="M320 764 l0 105 l106 0 l0 -105 l-106 0 ZM20 764 l0 105 l106 0 l0 -105 l-106 0 ZM252 733 l-132 162 l94 45 l98 -176 l-60 -31 Z" /><glyph glyph-name="Grave" unicode="&#xf6ce;" d="M292 732 l-188 100 l72 81 l160 -126 l-44 -55 Z" /><glyph glyph-name="Hungarumlaut" unicode="&#xf6cf;" d="M104 774 l152 132 l73 -72 l-179 -111 l-46 51 ZM292 775 l154 130 l71 -72 l-179 -109 l-46 51 Z" /><glyph glyph-name="Macron" unicode="&#xf6d0;" d="M121 757 l0 95 l270 0 l0 -95 l-270 0 Z" /><glyph glyph-name="cyrBreve" unicode="&#xf6d1;" d="M263 739 q-42 0 -70.5 14.5 q-28.5 14.5 -46 36.5 q-17.5 22 -25.5 47.5 q-8 25.5 -9 47.5 l86 0 q1 -10 5.5 -22 q4.5 -12 13 -22 q8.5 -10 20 -16.5 q11.5 -6.5 26.5 -6.5 q16 0 28 6.5 q12 6.5 20 16.5 q8 10 12 22 q4 12 4 22 l85 0 q-2 -22 -10.5 -47.5 q-8.5 -25.5 -25.5 -47.5 q-17 -22 -45 -36.5 q-28 -14.5 -68 -14.5 Z" /><glyph glyph-name="cyrbreve" unicode="&#xf6d4;" d="M241 557 q-42 0 -70.5 14.5 q-28.5 14.5 -46 36.5 q-17.5 22 -25.5 48 q-8 26 -9 48 l86 0 q1 -11 5.5 -22.5 q4.5 -11.5 13 -22 q8.5 -10.5 20 -17 q11.5 -6.5 26.5 -6.5 q16 0 28 6.5 q12 6.5 20 17 q8 10.5 12 22 q4 11.5 4 22.5 l85 0 q-2 -22 -10.5 -48 q-8.5 -26 -25.5 -48 q-17 -22 -45 -36.5 q-28 -14.5 -68 -14.5 Z" /><glyph glyph-name="dotaccent" unicode="&#x2d9;" d="M159 575 l0 108 l106 0 l0 -108 l-106 0 Z" /><glyph glyph-name="ring" unicode="&#x2da;" d="M280 633 q0 17 -11.5 28 q-11.5 11 -28.5 11 q-17 0 -29 -11 q-12 -11 -12 -28 q0 -16 12 -27 q12 -11 29 -11 q17 0 28.5 11 q11.5 11 11.5 27 ZM139 633 q0 20 8 38 q8 18 21.5 31.5 q13.5 13.5 32 21 q18.5 7.5 39.5 7.5 q42 0 70.5 -28.5 q28.5 -28.5 28.5 -69.5 q0 -20 -7.5 -37.5 q-7.5 -17.5 -21 -30.5 q-13.5 -13 -31.5 -20.5 q-18 -7.5 -39 -7.5 q-21 0 -39.5 7.5 q-18.5 7.5 -32 20.5 q-13.5 13 -21.5 30.5 q-8 17.5 -8 37.5 Z" /><glyph glyph-name="ogonek" unicode="&#x2db;" d="M102 -100 q0 21 9.5 47 q9.5 26 32.5 58 l70 0 q0 -1 1 -1 q-37 -54 -37 -83 q0 -23 9.5 -34.5 q9.5 -11.5 32.5 -11.5 q11 0 25 3.5 q14 3.5 33 11.5 l22 -57 q-22 -12 -47.5 -19.5 q-25.5 -7.5 -50.5 -7.5 q-44 0 -72 27 q-28 27 -28 67 Z" /><glyph glyph-name="hungarumlaut" unicode="&#x2dd;" d="M113 578 l82 184 l98 -36 l-117 -176 l-63 28 ZM257 571 l82 184 l98 -37 l-117 -175 l-63 28 Z" /><glyph glyph-name="macron" unicode="¯" d="M94 580 l0 95 l271 0 l0 -95 l-271 0 Z" /><glyph glyph-name="Scaron" unicode="&#x160;" d="M474 198 q0 -95 -58 -149.5 q-58 -54.5 -164 -54.5 q-84 0 -139 33.5 q-55 33.5 -86 86.5 l94 68 q23 -36 55 -57.5 q32 -21.5 78 -21.5 q55 0 77.5 26.5 q22.5 26.5 22.5 65.5 q0 24 -9 41 q-9 17 -25 29.5 q-16 12.5 -39 21.5 q-23 9 -50 17 q-50 16 -85 34 q-35 18 -57.5 41.5 q-22.5 23.5 -32.5 54 q-10 30.5 -10 69.5 q0 43 15 79.5 q15 36.5 43 63 q28 26.5 66.5 41 q38.5 14.5 86.5 14.5 q78 0 126.5 -26 q48.5 -26 77.5 -71 l-87 -73 q-23 32 -52 47 q-29 15 -67 15 q-45 0 -69 -24.5 q-24 -24.5 -24 -61.5 q0 -21 11 -36.5 q11 -15.5 30 -27.5 q19 -12 45 -21.5 q26 -9.5 55 -18.5 q49 -15 81.5 -34.5 q32.5 -19.5 52.5 -44.5 q20 -25 28.5 -56 q8.5 -31 8.5 -70 ZM379 901 l42 -44 l-137 -126 l-70 0 l-140 127 l41 43 l132 -80 l132 80 Z" /><glyph glyph-name="Zcaron" unicode="&#x17d;" d="M26 0 l0 102 l253 490 l-242 0 l0 104 l372 0 l0 -97 l-253 -491 l253 0 l0 -108 l-383 0 ZM359 901 l42 -44 l-137 -126 l-70 0 l-140 127 l41 43 l132 -80 l132 80 Z" /><glyph glyph-name="scaron" unicode="&#x161;" d="M395 147 q0 -69 -49 -111 q-49 -42 -135 -42 q-66 0 -111 23.5 q-45 23.5 -74 73.5 l82 60 q34 -59 102 -59 q34 0 53.5 15 q19.5 15 19.5 41 q0 27 -18.5 38 q-18.5 11 -51.5 19 q-35 8 -66.5 18.5 q-31.5 10.5 -55.5 27 q-24 16.5 -38.5 41.5 q-14.5 25 -14.5 61 q0 34 13.5 61.5 q13.5 27.5 36.5 46.5 q23 19 55 29 q32 10 69 10 q67 0 107.5 -22.5 q40.5 -22.5 65.5 -61.5 l-74 -64 q-33 51 -96 51 q-37 0 -51.5 -15.5 q-14.5 -15.5 -14.5 -33.5 q0 -12 7.5 -20.5 q7.5 -8.5 20.5 -14.5 q13 -6 29 -10.5 q16 -4.5 33 -8.5 q34 -8 63 -18.5 q29 -10.5 49.5 -28 q20.5 -17.5 32 -43.5 q11.5 -26 11.5 -63 ZM337 727 l46 -41 l-136 -151 l-71 0 l-141 152 l46 40 q4 -3 23 -17.5 q19 -14.5 40.5 -31.5 q21.5 -17 40.5 -32 q19 -15 24 -18 l128 99 Z" /><glyph glyph-name="zcaron" unicode="&#x17e;" d="M28 0 l0 96 l203 302 l-189 0 l0 97 l318 0 l0 -92 l-203 -301 l203 0 l0 -102 l-332 0 ZM326 727 l46 -41 l-136 -151 l-71 0 l-141 152 l46 40 q4 -3 23 -17.5 q19 -14.5 40.5 -31.5 q21.5 -17 40.5 -32 q19 -15 24 -18 l128 99 Z" /><glyph glyph-name="Ydieresis" unicode="&#x178;" d="M241 404 q11 34 23 67 q12 33 24 67 l61 158 l121 0 l-176 -412 l0 -284 l-112 0 l0 284 l-176 413 l124 0 q15 -41 30.5 -81 q15.5 -40 29.5 -80 q11 -32 22.5 -66 q11.5 -34 22.5 -66 l6 0 ZM95 742 l0 108 l108 0 l0 -108 l-108 0 ZM277 742 l0 108 l106 0 l0 -108 l-106 0 Z" /><glyph glyph-name="Agrave" unicode="à" d="M359 150 l-193 0 q-2 -9 -8 -30 q-6 -21 -12.5 -45 q-6.5 -24 -12 -45 q-5.5 -21 -8.5 -30 l-119 0 l201 696 l110 0 l202 -696 l-121 0 l-39 150 ZM227 392 l-36 -140 l142 0 l-35 139 q-2 9 -6.5 30 q-4.5 21 -10 44 q-5.5 23 -10.5 43.5 q-5 20.5 -6 29.5 l-5 0 l-33 -146 ZM274 732 l-188 100 l72 81 l160 -126 l-44 -55 Z" /><glyph glyph-name="Aacute" unicode="á" d="M359 150 l-193 0 q-2 -9 -8 -30 q-6 -21 -12.5 -45 q-6.5 -24 -12 -45 q-5.5 -21 -8.5 -30 l-119 0 l201 696 l110 0 l202 -696 l-121 0 l-39 150 ZM227 392 l-36 -140 l142 0 l-35 139 q-2 9 -6.5 30 q-4.5 21 -10 44 q-5.5 23 -10.5 43.5 q-5 20.5 -6 29.5 l-5 0 l-33 -146 ZM213 780 l159 124 l69 -80 l-185 -98 l-43 54 Z" /><glyph glyph-name="Acircumflex" unicode="â" d="M359 150 l-193 0 q-2 -9 -8 -30 q-6 -21 -12.5 -45 q-6.5 -24 -12 -45 q-5.5 -21 -8.5 -30 l-119 0 l201 696 l110 0 l202 -696 l-121 0 l-39 150 ZM262 808 l-132 -80 l-41 44 l141 127 l69 0 l137 -126 l-42 -45 l-132 80 ZM227 392 l-36 -140 l142 0 l-35 139 q-2 9 -6.5 30 q-4.5 21 -10 44 q-5.5 23 -10.5 43.5 q-5 20.5 -6 29.5 l-5 0 l-33 -146 Z" /><glyph glyph-name="Atilde" unicode="ã" d="M359 150 l-193 0 q-2 -9 -8 -30 q-6 -21 -12.5 -45 q-6.5 -24 -12 -45 q-5.5 -21 -8.5 -30 l-119 0 l201 696 l110 0 l202 -696 l-121 0 l-39 150 ZM193 864 q17 0 33 -6.5 q16 -6.5 31.5 -14.5 q15.5 -8 29.5 -14.5 q14 -6.5 26 -6.5 q15 0 28.5 10 q13.5 10 30.5 33 l56 -33 q-23 -49 -49.5 -71 q-26.5 -22 -56.5 -22 q-18 0 -34.5 6.5 q-16.5 6.5 -32 14 q-15.5 7.5 -30 14 q-14.5 6.5 -27.5 6.5 q-15 0 -29.5 -9 q-14.5 -9 -32.5 -32 q-14 8 -27 16 q-13 8 -27 16 q20 45 49 69 q29 24 62 24 ZM227 392 l-36 -140 l142 0 l-35 139 q-2 9 -6.5 30 q-4.5 21 -10 44 q-5.5 23 -10.5 43.5 q-5 20.5 -6 29.5 l-5 0 l-33 -146 Z" /><glyph glyph-name="Aring" unicode="å" d="M359 150 l-193 0 q-2 -9 -8 -30 q-6 -21 -12.5 -45 q-6.5 -24 -12 -45 q-5.5 -21 -8.5 -30 l-119 0 l201 696 l110 0 l202 -696 l-121 0 l-39 150 ZM162 801 q0 20 8 38 q8 18 21.5 31.5 q13.5 13.5 32 21 q18.5 7.5 39.5 7.5 q42 0 70.5 -28.5 q28.5 -28.5 28.5 -69.5 q0 -20 -7.5 -37.5 q-7.5 -17.5 -21 -30.5 q-13.5 -13 -31.5 -20.5 q-18 -7.5 -39 -7.5 q-21 0 -39.5 7.5 q-18.5 7.5 -32 20.5 q-13.5 13 -21.5 30.5 q-8 17.5 -8 37.5 ZM227 392 l-36 -140 l142 0 l-35 139 q-2 9 -6.5 30 q-4.5 21 -10 44 q-5.5 23 -10.5 43.5 q-5 20.5 -6 29.5 l-5 0 l-33 -146 ZM303 801 q0 17 -11.5 28 q-11.5 11 -28.5 11 q-17 0 -29 -11 q-12 -11 -12 -28 q0 -16 12 -27 q12 -11 29 -11 q17 0 28.5 11 q11.5 11 11.5 27 Z" /><glyph glyph-name="Egrave" unicode="è" d="M63 0 l0 696 l387 0 l0 -106 l-273 0 l0 -186 l235 0 l0 -104 l-235 0 l0 -191 l273 0 l0 -109 l-387 0 ZM273 732 l-188 100 l72 81 l160 -126 l-44 -55 Z" /><glyph glyph-name="Ecircumflex" unicode="ê" d="M63 0 l0 696 l387 0 l0 -106 l-273 0 l0 -186 l235 0 l0 -104 l-235 0 l0 -191 l273 0 l0 -109 l-387 0 ZM255 808 l-132 -80 l-41 44 l141 127 l69 0 l137 -126 l-42 -45 l-132 80 Z" /><glyph glyph-name="Edieresis" unicode="ë" d="M63 0 l0 696 l387 0 l0 -106 l-273 0 l0 -186 l235 0 l0 -104 l-235 0 l0 -191 l273 0 l0 -109 l-387 0 ZM289 745 l0 108 l107 0 l0 -108 l-107 0 ZM108 745 l0 108 l106 0 l0 -108 l-106 0 Z" /><glyph glyph-name="Igrave" unicode="ì" d="M64 0 l0 696 l115 0 l0 -696 l-115 0 ZM134 732 l-188 100 l72 81 l160 -126 l-44 -55 Z" /><glyph glyph-name="Iacute" unicode="í" d="M64 0 l0 696 l115 0 l0 -696 l-115 0 ZM66 780 l159 124 l69 -80 l-185 -98 l-43 54 Z" /><glyph glyph-name="Icircumflex" unicode="î" d="M64 0 l0 696 l115 0 l0 -696 l-115 0 ZM121 808 l-132 -80 l-41 44 l141 127 l69 0 l137 -126 l-42 -45 l-132 80 Z" /><glyph glyph-name="Idieresis" unicode="ï" d="M64 0 l0 696 l115 0 l0 -696 l-115 0 ZM157 745 l0 108 l107 0 l0 -108 l-107 0 ZM-24 745 l0 108 l106 0 l0 -108 l-106 0 Z" /><glyph glyph-name="Eth" unicode="ð" d="M11 394 l51 0 l0 302 l213 0 q70 0 120 -26 q50 -26 73 -86 q14 -37 16.5 -91.5 q2.5 -54.5 2.5 -123.5 q0 -85 -1 -145.5 q-1 -60.5 -17 -103.5 q-13 -35 -34 -58 q-21 -23 -48 -36.5 q-27 -13.5 -59 -19.5 q-32 -6 -66 -6 l-200 0 l0 318 l-51 0 l0 76 ZM372 437 q0 71 -25 112 q-25 41 -89 41 l-81 0 l0 -196 l107 0 l0 -76 l-107 0 l0 -212 l82 0 q64 0 88.5 33.5 q24.5 33.5 24.5 93.5 l0 204 Z" /><glyph glyph-name="Ograve" unicode="ò" d="M471 211 q0 -50 -15.5 -90 q-15.5 -40 -44 -68.5 q-28.5 -28.5 -67.5 -43.5 q-39 -15 -86 -15 q-57 0 -98 18.5 q-41 18.5 -66.5 50 q-25.5 31.5 -37.5 73 q-12 41.5 -12 87.5 l0 263 q0 37 11.5 75 q11.5 38 37 69 q25.5 31 66 51 q40.5 20 99.5 20 q55 0 95 -19 q40 -19 66.5 -49.5 q26.5 -30.5 39 -69 q12.5 -38.5 12.5 -77.5 l0 -275 ZM355 488 q0 13 -4.5 30.5 q-4.5 17.5 -15.5 33.5 q-11 16 -29.5 27.5 q-18.5 11.5 -47.5 11.5 q-29 0 -48.5 -10.5 q-19.5 -10.5 -31 -26 q-11.5 -15.5 -16.5 -33.5 q-5 -18 -5 -34 l1 -266 q0 -50 23 -84 q23 -34 78 -34 q39 0 67.5 26.5 q28.5 26.5 28.5 72.5 l0 286 ZM299 732 l-188 100 l72 81 l160 -126 l-44 -55 Z" /><glyph glyph-name="Oacute" unicode="ó" d="M471 211 q0 -50 -15.5 -90 q-15.5 -40 -44 -68.5 q-28.5 -28.5 -67.5 -43.5 q-39 -15 -86 -15 q-57 0 -98 18.5 q-41 18.5 -66.5 50 q-25.5 31.5 -37.5 73 q-12 41.5 -12 87.5 l0 263 q0 37 11.5 75 q11.5 38 37 69 q25.5 31 66 51 q40.5 20 99.5 20 q55 0 95 -19 q40 -19 66.5 -49.5 q26.5 -30.5 39 -69 q12.5 -38.5 12.5 -77.5 l0 -275 ZM355 488 q0 13 -4.5 30.5 q-4.5 17.5 -15.5 33.5 q-11 16 -29.5 27.5 q-18.5 11.5 -47.5 11.5 q-29 0 -48.5 -10.5 q-19.5 -10.5 -31 -26 q-11.5 -15.5 -16.5 -33.5 q-5 -18 -5 -34 l1 -266 q0 -50 23 -84 q23 -34 78 -34 q39 0 67.5 26.5 q28.5 26.5 28.5 72.5 l0 286 ZM186 780 l159 124 l69 -80 l-185 -98 l-43 54 Z" /><glyph glyph-name="Ocircumflex" unicode="ô" d="M471 211 q0 -50 -15.5 -90 q-15.5 -40 -44 -68.5 q-28.5 -28.5 -67.5 -43.5 q-39 -15 -86 -15 q-57 0 -98 18.5 q-41 18.5 -66.5 50 q-25.5 31.5 -37.5 73 q-12 41.5 -12 87.5 l0 263 q0 37 11.5 75 q11.5 38 37 69 q25.5 31 66 51 q40.5 20 99.5 20 q55 0 95 -19 q40 -19 66.5 -49.5 q26.5 -30.5 39 -69 q12.5 -38.5 12.5 -77.5 l0 -275 ZM355 488 q0 13 -4.5 30.5 q-4.5 17.5 -15.5 33.5 q-11 16 -29.5 27.5 q-18.5 11.5 -47.5 11.5 q-29 0 -48.5 -10.5 q-19.5 -10.5 -31 -26 q-11.5 -15.5 -16.5 -33.5 q-5 -18 -5 -34 l1 -266 q0 -50 23 -84 q23 -34 78 -34 q39 0 67.5 26.5 q28.5 26.5 28.5 72.5 l0 286 ZM255 808 l-132 -80 l-41 44 l141 127 l69 0 l137 -126 l-42 -45 l-132 80 Z" /><glyph glyph-name="Otilde" unicode="õ" d="M471 211 q0 -50 -15.5 -90 q-15.5 -40 -44 -68.5 q-28.5 -28.5 -67.5 -43.5 q-39 -15 -86 -15 q-57 0 -98 18.5 q-41 18.5 -66.5 50 q-25.5 31.5 -37.5 73 q-12 41.5 -12 87.5 l0 263 q0 37 11.5 75 q11.5 38 37 69 q25.5 31 66 51 q40.5 20 99.5 20 q55 0 95 -19 q40 -19 66.5 -49.5 q26.5 -30.5 39 -69 q12.5 -38.5 12.5 -77.5 l0 -275 ZM355 488 q0 13 -4.5 30.5 q-4.5 17.5 -15.5 33.5 q-11 16 -29.5 27.5 q-18.5 11.5 -47.5 11.5 q-29 0 -48.5 -10.5 q-19.5 -10.5 -31 -26 q-11.5 -15.5 -16.5 -33.5 q-5 -18 -5 -34 l1 -266 q0 -50 23 -84 q23 -34 78 -34 q39 0 67.5 26.5 q28.5 26.5 28.5 72.5 l0 286 ZM194 864 q17 0 33 -6.5 q16 -6.5 31.5 -14.5 q15.5 -8 29.5 -14.5 q14 -6.5 26 -6.5 q15 0 28.5 10 q13.5 10 30.5 33 l56 -33 q-23 -49 -49.5 -71 q-26.5 -22 -56.5 -22 q-18 0 -34.5 6.5 q-16.5 6.5 -32 14 q-15.5 7.5 -30 14 q-14.5 6.5 -27.5 6.5 q-15 0 -29.5 -9 q-14.5 -9 -32.5 -32 q-14 8 -27 16 q-13 8 -27 16 q20 45 49 69 q29 24 62 24 Z" /><glyph glyph-name="Ugrave" unicode="ù" d="M482 696 l0 -485 q0 -50 -15.5 -90.5 q-15.5 -40.5 -44 -68.5 q-28.5 -28 -67.5 -43 q-39 -15 -86 -15 q-54 0 -94.5 17.5 q-40.5 17.5 -67 47.5 q-26.5 30 -40 70.5 q-13.5 40.5 -13.5 86.5 l0 480 l114 0 l0 -483 q0 -45 25.5 -77 q25.5 -32 75.5 -32 q42 0 69.5 27.5 q27.5 27.5 27.5 74.5 l0 490 l116 0 ZM304 732 l-188 100 l72 81 l160 -126 l-44 -55 Z" /><glyph glyph-name="Uacute" unicode="ú" d="M482 696 l0 -485 q0 -50 -15.5 -90.5 q-15.5 -40.5 -44 -68.5 q-28.5 -28 -67.5 -43 q-39 -15 -86 -15 q-54 0 -94.5 17.5 q-40.5 17.5 -67 47.5 q-26.5 30 -40 70.5 q-13.5 40.5 -13.5 86.5 l0 480 l114 0 l0 -483 q0 -45 25.5 -77 q25.5 -32 75.5 -32 q42 0 69.5 27.5 q27.5 27.5 27.5 74.5 l0 490 l116 0 ZM183 780 l159 124 l69 -80 l-185 -98 l-43 54 Z" /><glyph glyph-name="Ucircumflex" unicode="û" d="M482 696 l0 -485 q0 -50 -15.5 -90.5 q-15.5 -40.5 -44 -68.5 q-28.5 -28 -67.5 -43 q-39 -15 -86 -15 q-54 0 -94.5 17.5 q-40.5 17.5 -67 47.5 q-26.5 30 -40 70.5 q-13.5 40.5 -13.5 86.5 l0 480 l114 0 l0 -483 q0 -45 25.5 -77 q25.5 -32 75.5 -32 q42 0 69.5 27.5 q27.5 27.5 27.5 74.5 l0 490 l116 0 ZM261 808 l-132 -80 l-41 44 l141 127 l69 0 l137 -126 l-42 -45 l-132 80 Z" /><glyph glyph-name="Yacute" unicode="ý" d="M241 404 q11 34 23 67 q12 33 24 67 l61 158 l121 0 l-176 -412 l0 -284 l-112 0 l0 284 l-176 413 l124 0 q15 -41 30.5 -81 q15.5 -40 29.5 -80 q11 -32 22.5 -66 q11.5 -34 22.5 -66 l6 0 ZM161 780 l159 124 l69 -80 l-185 -98 l-43 54 Z" /><glyph glyph-name="aacute" unicode="á" d="M290 0 l0 38 l-4 2 q-18 -24 -48 -34.5 q-30 -10.5 -61 -10.5 q-73 0 -108 41 q-35 41 -35 108 q0 32 10 59.5 q10 27.5 31 48 q21 20.5 53 32.5 q32 12 76 12 l86 0 l0 45 q0 25 -17 42.5 q-17 17.5 -56 17.5 q-27 0 -50 -9.5 q-23 -9.5 -36 -34.5 q-4 2 -16 9.5 q-12 7.5 -25.5 15.5 q-13.5 8 -25 15.5 q-11.5 7.5 -15.5 10.5 q23 48 68 70 q45 22 102 22 q39 0 72 -7.5 q33 -7.5 57.5 -25.5 q24.5 -18 38.5 -47.5 q14 -29.5 14 -73.5 l0 -346 l-111 0 ZM290 212 l-79 0 q-33 0 -51.5 -15.5 q-18.5 -15.5 -18.5 -45.5 q0 -23 16.5 -40 q16.5 -17 54.5 -17 q32 0 55 16.5 q23 16.5 23 53.5 l0 48 ZM190 571 l82 184 l98 -37 l-116 -175 l-64 28 Z" /><glyph glyph-name="atilde" unicode="ã" d="M290 0 l0 38 l-4 2 q-18 -24 -48 -34.5 q-30 -10.5 -61 -10.5 q-73 0 -108 41 q-35 41 -35 108 q0 32 10 59.5 q10 27.5 31 48 q21 20.5 53 32.5 q32 12 76 12 l86 0 l0 45 q0 25 -17 42.5 q-17 17.5 -56 17.5 q-27 0 -50 -9.5 q-23 -9.5 -36 -34.5 q-4 2 -16 9.5 q-12 7.5 -25.5 15.5 q-13.5 8 -25 15.5 q-11.5 7.5 -15.5 10.5 q23 48 68 70 q45 22 102 22 q39 0 72 -7.5 q33 -7.5 57.5 -25.5 q24.5 -18 38.5 -47.5 q14 -29.5 14 -73.5 l0 -346 l-111 0 ZM168 694 q17 0 33 -6.5 q16 -6.5 31.5 -14.5 q15.5 -8 29.5 -14.5 q14 -6.5 26 -6.5 q15 0 28.5 10 q13.5 10 30.5 33 l56 -33 q-23 -49 -49.5 -71 q-26.5 -22 -56.5 -22 q-18 0 -34.5 6.5 q-16.5 6.5 -32 14 q-15.5 7.5 -30 14 q-14.5 6.5 -27.5 6.5 q-15 0 -29.5 -9 q-14.5 -9 -32.5 -32 q-14 8 -27 16 q-13 8 -27 16 q20 45 49 69 q29 24 62 24 ZM290 212 l-79 0 q-33 0 -51.5 -15.5 q-18.5 -15.5 -18.5 -45.5 q0 -23 16.5 -40 q16.5 -17 54.5 -17 q32 0 55 16.5 q23 16.5 23 53.5 l0 48 Z" /><glyph glyph-name="aring" unicode="å" d="M290 0 l0 38 l-4 2 q-18 -24 -48 -34.5 q-30 -10.5 -61 -10.5 q-73 0 -108 41 q-35 41 -35 108 q0 32 10 59.5 q10 27.5 31 48 q21 20.5 53 32.5 q32 12 76 12 l86 0 l0 45 q0 25 -17 42.5 q-17 17.5 -56 17.5 q-27 0 -50 -9.5 q-23 -9.5 -36 -34.5 q-4 2 -16 9.5 q-12 7.5 -25.5 15.5 q-13.5 8 -25 15.5 q-11.5 7.5 -15.5 10.5 q23 48 68 70 q45 22 102 22 q39 0 72 -7.5 q33 -7.5 57.5 -25.5 q24.5 -18 38.5 -47.5 q14 -29.5 14 -73.5 l0 -346 l-111 0 ZM290 212 l-79 0 q-33 0 -51.5 -15.5 q-18.5 -15.5 -18.5 -45.5 q0 -23 16.5 -40 q16.5 -17 54.5 -17 q32 0 55 16.5 q23 16.5 23 53.5 l0 48 ZM270 633 q0 17 -11.5 28 q-11.5 11 -28.5 11 q-17 0 -29 -11 q-12 -11 -12 -28 q0 -16 12 -27 q12 -11 29 -11 q17 0 28.5 11 q11.5 11 11.5 27 ZM129 633 q0 20 8 38 q8 18 21.5 31.5 q13.5 13.5 32 21 q18.5 7.5 39.5 7.5 q42 0 70.5 -28.5 q28.5 -28.5 28.5 -69.5 q0 -20 -7.5 -37.5 q-7.5 -17.5 -21 -30.5 q-13.5 -13 -31.5 -20.5 q-18 -7.5 -39 -7.5 q-21 0 -39.5 7.5 q-18.5 7.5 -32 20.5 q-13.5 13 -21.5 30.5 q-8 17.5 -8 37.5 Z" /><glyph glyph-name="igrave" unicode="ì" d="M57 0 l0 495 l111 0 l0 -495 l-111 0 ZM87 543 l-120 174 l99 38 l84 -181 l-63 -31 Z" /><glyph glyph-name="iacute" unicode="í" d="M57 0 l0 495 l111 0 l0 -495 l-111 0 ZM63 571 l82 184 l98 -37 l-116 -175 l-64 28 Z" /><glyph glyph-name="ntilde" unicode="ñ" d="M300 0 l0 318 q0 37 -20 56.5 q-20 19.5 -50 19.5 q-32 0 -52 -20.5 q-20 -20.5 -20 -57.5 l0 -316 l-110 0 l0 495 l111 0 l0 -48 l3 0 q20 24 48 38.5 q28 14.5 59 14.5 q67 0 104 -40.5 q37 -40.5 37 -110.5 l0 -349 l-110 0 ZM151 694 q17 0 33 -6.5 q16 -6.5 31.5 -14.5 q15.5 -8 29.5 -14.5 q14 -6.5 26 -6.5 q15 0 28.5 10 q13.5 10 30.5 33 l56 -33 q-23 -49 -49.5 -71 q-26.5 -22 -56.5 -22 q-18 0 -34.5 6.5 q-16.5 6.5 -32 14 q-15.5 7.5 -30 14 q-14.5 6.5 -27.5 6.5 q-15 0 -29.5 -9 q-14.5 -9 -32.5 -32 q-14 8 -27 16 q-13 8 -27 16 q20 45 49 69 q29 24 62 24 Z" /><glyph glyph-name="ograve" unicode="ò" d="M228 502 q64 0 101 -25.5 q37 -25.5 56 -63.5 q14 -28 19 -73.5 q5 -45.5 5 -93.5 q0 -40 -5 -84 q-5 -44 -16 -71 q-11 -28 -28.5 -46.5 q-17.5 -18.5 -40 -30 q-22.5 -11.5 -48.5 -16.5 q-26 -5 -53 -5 q-54 0 -90.5 20 q-36.5 20 -56.5 53 q-18 29 -25.5 75 q-7.5 46 -7.5 104 q0 45 4.5 87.5 q4.5 42.5 15.5 68.5 q20 47 62 74 q42 27 108 27 ZM226 400 q-22 0 -40 -11 q-18 -11 -26 -34 q-7 -18 -9.5 -47.5 q-2.5 -29.5 -2.5 -67.5 q0 -29 1.5 -55 q1.5 -26 8.5 -45 q17 -45 65 -45 q23 0 42 11.5 q19 11.5 27 45.5 q4 14 5.5 41 q1.5 27 1.5 61 q0 30 -2 55.5 q-2 25.5 -8 42.5 q-17 48 -63 48 ZM210 543 l-120 174 l99 38 l84 -181 l-63 -31 Z" /><glyph glyph-name="oacute" unicode="ó" d="M228 502 q64 0 101 -25.5 q37 -25.5 56 -63.5 q14 -28 19 -73.5 q5 -45.5 5 -93.5 q0 -40 -5 -84 q-5 -44 -16 -71 q-11 -28 -28.5 -46.5 q-17.5 -18.5 -40 -30 q-22.5 -11.5 -48.5 -16.5 q-26 -5 -53 -5 q-54 0 -90.5 20 q-36.5 20 -56.5 53 q-18 29 -25.5 75 q-7.5 46 -7.5 104 q0 45 4.5 87.5 q4.5 42.5 15.5 68.5 q20 47 62 74 q42 27 108 27 ZM226 400 q-22 0 -40 -11 q-18 -11 -26 -34 q-7 -18 -9.5 -47.5 q-2.5 -29.5 -2.5 -67.5 q0 -29 1.5 -55 q1.5 -26 8.5 -45 q17 -45 65 -45 q23 0 42 11.5 q19 11.5 27 45.5 q4 14 5.5 41 q1.5 27 1.5 61 q0 30 -2 55.5 q-2 25.5 -8 42.5 q-17 48 -63 48 ZM167 571 l82 184 l98 -37 l-116 -175 l-64 28 Z" /><glyph glyph-name="uacute" unicode="ú" d="M301 0 l0 46 q-1 0 -2 0.5 q-1 0.5 -2 0.5 q-19 -25 -47.5 -38.5 q-28.5 -13.5 -58.5 -13.5 q-68 0 -105 40 q-37 40 -37 110 l0 349 l110 0 l0 -318 q0 -37 20.5 -57 q20.5 -20 49.5 -20 q39 0 55.5 28.5 q16.5 28.5 16.5 76.5 l0 290 l110 0 l0 -494 l-110 0 ZM172 571 l82 184 l98 -37 l-116 -175 l-64 28 Z" /><glyph glyph-name="yacute" unicode="ý" d="M230 -93 q-17 -56 -53.5 -82 q-36.5 -26 -87.5 -26 l-37 0 l0 95 l26 0 q44 0 60 61 l18 64 l-155 476 l118 0 l48 -179 l39 -152 l4 0 l38 152 l48 179 l116 0 l-182 -588 ZM162 571 l82 184 l98 -37 l-116 -175 l-64 28 Z" /><glyph glyph-name="ydieresis" unicode="ÿ" d="M230 -93 q-17 -56 -53.5 -82 q-36.5 -26 -87.5 -26 l-37 0 l0 95 l26 0 q44 0 60 61 l18 64 l-155 476 l118 0 l48 -179 l39 -152 l4 0 l38 152 l48 179 l116 0 l-182 -588 ZM243 575 l0 108 l107 0 l0 -108 l-107 0 ZM62 575 l0 108 l106 0 l0 -108 l-106 0 Z" /><glyph glyph-name="Amacron" unicode="&#x100;" d="M359 150 l-193 0 q-2 -9 -8 -30 q-6 -21 -12.5 -45 q-6.5 -24 -12 -45 q-5.5 -21 -8.5 -30 l-119 0 l201 696 l110 0 l202 -696 l-121 0 l-39 150 ZM127 757 l0 95 l270 0 l0 -95 l-270 0 ZM227 392 l-36 -140 l142 0 l-35 139 q-2 9 -6.5 30 q-4.5 21 -10 44 q-5.5 23 -10.5 43.5 q-5 20.5 -6 29.5 l-5 0 l-33 -146 Z" /><glyph glyph-name="amacron" unicode="&#x101;" d="M290 0 l0 38 l-4 2 q-18 -24 -48 -34.5 q-30 -10.5 -61 -10.5 q-73 0 -108 41 q-35 41 -35 108 q0 32 10 59.5 q10 27.5 31 48 q21 20.5 53 32.5 q32 12 76 12 l86 0 l0 45 q0 25 -17 42.5 q-17 17.5 -56 17.5 q-27 0 -50 -9.5 q-23 -9.5 -36 -34.5 q-4 2 -16 9.5 q-12 7.5 -25.5 15.5 q-13.5 8 -25 15.5 q-11.5 7.5 -15.5 10.5 q23 48 68 70 q45 22 102 22 q39 0 72 -7.5 q33 -7.5 57.5 -25.5 q24.5 -18 38.5 -47.5 q14 -29.5 14 -73.5 l0 -346 l-111 0 ZM290 212 l-79 0 q-33 0 -51.5 -15.5 q-18.5 -15.5 -18.5 -45.5 q0 -23 16.5 -40 q16.5 -17 54.5 -17 q32 0 55 16.5 q23 16.5 23 53.5 l0 48 ZM94 580 l0 95 l271 0 l0 -95 l-271 0 Z" /><glyph glyph-name="Abreve" unicode="&#x102;" d="M359 150 l-193 0 q-2 -9 -8 -30 q-6 -21 -12.5 -45 q-6.5 -24 -12 -45 q-5.5 -21 -8.5 -30 l-119 0 l201 696 l110 0 l202 -696 l-121 0 l-39 150 ZM264 739 q-42 0 -70.5 14.5 q-28.5 14.5 -46 36.5 q-17.5 22 -25.5 47.5 q-8 25.5 -9 47.5 l86 0 q1 -10 5.5 -22 q4.5 -12 13 -22 q8.5 -10 20 -16.5 q11.5 -6.5 26.5 -6.5 q16 0 28 6.5 q12 6.5 20 16.5 q8 10 12 22 q4 12 4 22 l85 0 q-2 -22 -10.5 -47.5 q-8.5 -25.5 -25.5 -47.5 q-17 -22 -45 -36.5 q-28 -14.5 -68 -14.5 ZM227 392 l-36 -140 l142 0 l-35 139 q-2 9 -6.5 30 q-4.5 21 -10 44 q-5.5 23 -10.5 43.5 q-5 20.5 -6 29.5 l-5 0 l-33 -146 Z" /><glyph glyph-name="abreve" unicode="&#x103;" d="M290 0 l0 38 l-4 2 q-18 -24 -48 -34.5 q-30 -10.5 -61 -10.5 q-73 0 -108 41 q-35 41 -35 108 q0 32 10 59.5 q10 27.5 31 48 q21 20.5 53 32.5 q32 12 76 12 l86 0 l0 45 q0 25 -17 42.5 q-17 17.5 -56 17.5 q-27 0 -50 -9.5 q-23 -9.5 -36 -34.5 q-4 2 -16 9.5 q-12 7.5 -25.5 15.5 q-13.5 8 -25 15.5 q-11.5 7.5 -15.5 10.5 q23 48 68 70 q45 22 102 22 q39 0 72 -7.5 q33 -7.5 57.5 -25.5 q24.5 -18 38.5 -47.5 q14 -29.5 14 -73.5 l0 -346 l-111 0 ZM290 212 l-79 0 q-33 0 -51.5 -15.5 q-18.5 -15.5 -18.5 -45.5 q0 -23 16.5 -40 q16.5 -17 54.5 -17 q32 0 55 16.5 q23 16.5 23 53.5 l0 48 ZM227 557 q-42 0 -70.5 15 q-28.5 15 -46 37 q-17.5 22 -25.5 48 q-8 26 -9 48 l86 0 q1 -11 5.5 -22.5 q4.5 -11.5 13 -21.5 q8.5 -10 20 -16.5 q11.5 -6.5 26.5 -6.5 q16 0 28 6.5 q12 6.5 20 16.5 q8 10 12 21.5 q4 11.5 4 22.5 l85 0 q-2 -22 -10.5 -48 q-8.5 -26 -25.5 -48 q-17 -22 -45 -37 q-28 -15 -68 -15 Z" /><glyph glyph-name="Aogonek" unicode="&#x104;" d="M359 150 l-193 0 q-2 -9 -8 -30 q-6 -21 -12.5 -45 q-6.5 -24 -12 -45 q-5.5 -21 -8.5 -30 l-119 0 l201 696 l110 0 l202 -696 l-49 0 q-34 -51 -34 -79 q0 -23 9.5 -34.5 q9.5 -11.5 32.5 -11.5 q11 0 25 3.5 q14 3.5 33 11.5 l22 -57 q-22 -12 -47.5 -19.5 q-25.5 -7.5 -50.5 -7.5 q-44 0 -72 27 q-28 27 -28 67 q0 20 9 45 q9 25 29 55 l-39 150 ZM227 392 l-36 -140 l142 0 l-35 139 q-2 9 -6.5 30 q-4.5 21 -10 44 q-5.5 23 -10.5 43.5 q-5 20.5 -6 29.5 l-5 0 l-33 -146 Z" /><glyph glyph-name="aogonek" unicode="&#x105;" d="M250 -100 q0 21 9 46 q9 25 31 56 l0 36 l-4 2 q-18 -24 -48 -34.5 q-30 -10.5 -61 -10.5 q-73 0 -108 41 q-35 41 -35 108 q0 32 10 59.5 q10 27.5 31 48 q21 20.5 53 32.5 q32 12 76 12 l86 0 l0 45 q0 25 -17 42.5 q-17 17.5 -56 17.5 q-27 0 -50 -9.5 q-23 -9.5 -36 -34.5 q-4 2 -16 9.5 q-12 7.5 -25.5 15.5 q-13.5 8 -25 15.5 q-11.5 7.5 -15.5 10.5 q23 48 68 70 q45 22 102 22 q39 0 72 -7.5 q33 -7.5 57.5 -25.5 q24.5 -18 38.5 -47.5 q14 -29.5 14 -73.5 l0 -346 l-41 0 q-34 -51 -34 -79 q0 -23 9.5 -34.5 q9.5 -11.5 32.5 -11.5 q11 0 25 3.5 q14 3.5 33 11.5 l22 -57 q-22 -12 -47.5 -19.5 q-25.5 -7.5 -50.5 -7.5 q-44 0 -72 27 q-28 27 -28 67 ZM290 212 l-79 0 q-33 0 -51.5 -15.5 q-18.5 -15.5 -18.5 -45.5 q0 -23 16.5 -40 q16.5 -17 54.5 -17 q32 0 55 16.5 q23 16.5 23 53.5 l0 48 Z" /><glyph glyph-name="Cacute" unicode="&#x106;" d="M466 148 q-17 -73 -72 -113.5 q-55 -40.5 -133 -40.5 q-54 0 -94 17 q-40 17 -67 47 q-27 30 -40 70.5 q-13 40.5 -13 87.5 l0 270 q0 41 13 80 q13 39 39.5 69 q26.5 30 66.5 48 q40 18 95 18 q84 0 136.5 -44 q52.5 -44 69.5 -110 l-109 -36 q-3 15 -10 29 q-7 14 -19 25.5 q-12 11.5 -29 18.5 q-17 7 -39 7 q-26 0 -44.5 -9 q-18.5 -9 -30.5 -23.5 q-12 -14.5 -18 -32.5 q-6 -18 -6 -36 l0 -277 q0 -22 6 -42 q6 -20 18.5 -35 q12.5 -15 31 -23.5 q18.5 -8.5 43.5 -8.5 q37 0 63 21 q26 21 33 58 l109 -35 ZM175 780 l159 124 l69 -80 l-185 -98 l-43 54 Z" /><glyph glyph-name="cacute" unicode="&#x107;" d="M220 501 q58 0 101 -27 q43 -27 63 -76 q-4 -3 -17.5 -10 q-13.5 -7 -29 -14.5 q-15.5 -7.5 -29 -14.5 q-13.5 -7 -17.5 -10 q-22 49 -67 49 q-26 0 -42.5 -11 q-16.5 -11 -25.5 -30.5 q-9 -19.5 -12 -47 q-3 -27.5 -3 -59.5 q0 -33 3.5 -61.5 q3.5 -28.5 12.5 -48.5 q9 -20 25 -31.5 q16 -11.5 41 -11.5 q24 0 40.5 13 q16.5 13 27.5 34 q4 -3 17.5 -9.5 q13.5 -6.5 29 -14.5 q15.5 -8 29 -14.5 q13.5 -6.5 18.5 -9.5 q-20 -48 -63 -74.5 q-43 -26.5 -101 -26.5 q-56 0 -93 19 q-37 19 -58.5 52.5 q-21.5 33.5 -30.5 80.5 q-9 47 -9 104 q0 55 10.5 101 q10.5 46 33 79 q22.5 33 58.5 51.5 q36 18.5 88 18.5 ZM160 571 l82 184 l98 -37 l-116 -175 l-64 28 Z" /><glyph glyph-name="Ccircumflex" unicode="&#x108;" d="M466 148 q-17 -73 -72 -113.5 q-55 -40.5 -133 -40.5 q-54 0 -94 17 q-40 17 -67 47 q-27 30 -40 70.5 q-13 40.5 -13 87.5 l0 270 q0 41 13 80 q13 39 39.5 69 q26.5 30 66.5 48 q40 18 95 18 q84 0 136.5 -44 q52.5 -44 69.5 -110 l-109 -36 q-3 15 -10 29 q-7 14 -19 25.5 q-12 11.5 -29 18.5 q-17 7 -39 7 q-26 0 -44.5 -9 q-18.5 -9 -30.5 -23.5 q-12 -14.5 -18 -32.5 q-6 -18 -6 -36 l0 -277 q0 -22 6 -42 q6 -20 18.5 -35 q12.5 -15 31 -23.5 q18.5 -8.5 43.5 -8.5 q37 0 63 21 q26 21 33 58 l109 -35 ZM258 808 l-132 -80 l-41 44 l141 127 l69 0 l137 -126 l-42 -45 l-132 80 Z" /><glyph glyph-name="ccircumflex" unicode="&#x109;" d="M220 501 q58 0 101 -27 q43 -27 63 -76 q-4 -3 -17.5 -10 q-13.5 -7 -29 -14.5 q-15.5 -7.5 -29 -14.5 q-13.5 -7 -17.5 -10 q-22 49 -67 49 q-26 0 -42.5 -11 q-16.5 -11 -25.5 -30.5 q-9 -19.5 -12 -47 q-3 -27.5 -3 -59.5 q0 -33 3.5 -61.5 q3.5 -28.5 12.5 -48.5 q9 -20 25 -31.5 q16 -11.5 41 -11.5 q24 0 40.5 13 q16.5 13 27.5 34 q4 -3 17.5 -9.5 q13.5 -6.5 29 -14.5 q15.5 -8 29 -14.5 q13.5 -6.5 18.5 -9.5 q-20 -48 -63 -74.5 q-43 -26.5 -101 -26.5 q-56 0 -93 19 q-37 19 -58.5 52.5 q-21.5 33.5 -30.5 80.5 q-9 47 -9 104 q0 55 10.5 101 q10.5 46 33 79 q22.5 33 58.5 51.5 q36 18.5 88 18.5 ZM221 635 q-5 -3 -23.5 -18 q-18.5 -15 -40.5 -32.5 q-22 -17.5 -41 -32 q-19 -14.5 -23 -17.5 l-45 40 l141 152 l71 0 l135 -150 l-46 -42 l-128 100 Z" /><glyph glyph-name="Cdotaccent" unicode="&#x10a;" d="M466 148 q-17 -73 -72 -113.5 q-55 -40.5 -133 -40.5 q-54 0 -94 17 q-40 17 -67 47 q-27 30 -40 70.5 q-13 40.5 -13 87.5 l0 270 q0 41 13 80 q13 39 39.5 69 q26.5 30 66.5 48 q40 18 95 18 q84 0 136.5 -44 q52.5 -44 69.5 -110 l-109 -36 q-3 15 -10 29 q-7 14 -19 25.5 q-12 11.5 -29 18.5 q-17 7 -39 7 q-26 0 -44.5 -9 q-18.5 -9 -30.5 -23.5 q-12 -14.5 -18 -32.5 q-6 -18 -6 -36 l0 -277 q0 -22 6 -42 q6 -20 18.5 -35 q12.5 -15 31 -23.5 q18.5 -8.5 43.5 -8.5 q37 0 63 21 q26 21 33 58 l109 -35 ZM205 752 l0 108 l106 0 l0 -108 l-106 0 Z" /><glyph glyph-name="cdotaccent" unicode="&#x10b;" d="M220 501 q58 0 101 -27 q43 -27 63 -76 q-4 -3 -17.5 -10 q-13.5 -7 -29 -14.5 q-15.5 -7.5 -29 -14.5 q-13.5 -7 -17.5 -10 q-22 49 -67 49 q-26 0 -42.5 -11 q-16.5 -11 -25.5 -30.5 q-9 -19.5 -12 -47 q-3 -27.5 -3 -59.5 q0 -33 3.5 -61.5 q3.5 -28.5 12.5 -48.5 q9 -20 25 -31.5 q16 -11.5 41 -11.5 q24 0 40.5 13 q16.5 13 27.5 34 q4 -3 17.5 -9.5 q13.5 -6.5 29 -14.5 q15.5 -8 29 -14.5 q13.5 -6.5 18.5 -9.5 q-20 -48 -63 -74.5 q-43 -26.5 -101 -26.5 q-56 0 -93 19 q-37 19 -58.5 52.5 q-21.5 33.5 -30.5 80.5 q-9 47 -9 104 q0 55 10.5 101 q10.5 46 33 79 q22.5 33 58.5 51.5 q36 18.5 88 18.5 ZM161 576 l0 108 l106 0 l0 -108 l-106 0 Z" /><glyph glyph-name="Ccaron" unicode="&#x10c;" d="M466 148 q-17 -73 -72 -113.5 q-55 -40.5 -133 -40.5 q-54 0 -94 17 q-40 17 -67 47 q-27 30 -40 70.5 q-13 40.5 -13 87.5 l0 270 q0 41 13 80 q13 39 39.5 69 q26.5 30 66.5 48 q40 18 95 18 q84 0 136.5 -44 q52.5 -44 69.5 -110 l-109 -36 q-3 15 -10 29 q-7 14 -19 25.5 q-12 11.5 -29 18.5 q-17 7 -39 7 q-26 0 -44.5 -9 q-18.5 -9 -30.5 -23.5 q-12 -14.5 -18 -32.5 q-6 -18 -6 -36 l0 -277 q0 -22 6 -42 q6 -20 18.5 -35 q12.5 -15 31 -23.5 q18.5 -8.5 43.5 -8.5 q37 0 63 21 q26 21 33 58 l109 -35 ZM393 901 l42 -44 l-137 -126 l-70 0 l-140 127 l41 43 l132 -80 l132 80 Z" /><glyph glyph-name="ccaron" unicode="&#x10d;" d="M220 501 q58 0 101 -27 q43 -27 63 -76 q-4 -3 -17.5 -10 q-13.5 -7 -29 -14.5 q-15.5 -7.5 -29 -14.5 q-13.5 -7 -17.5 -10 q-22 49 -67 49 q-26 0 -42.5 -11 q-16.5 -11 -25.5 -30.5 q-9 -19.5 -12 -47 q-3 -27.5 -3 -59.5 q0 -33 3.5 -61.5 q3.5 -28.5 12.5 -48.5 q9 -20 25 -31.5 q16 -11.5 41 -11.5 q24 0 40.5 13 q16.5 13 27.5 34 q4 -3 17.5 -9.5 q13.5 -6.5 29 -14.5 q15.5 -8 29 -14.5 q13.5 -6.5 18.5 -9.5 q-20 -48 -63 -74.5 q-43 -26.5 -101 -26.5 q-56 0 -93 19 q-37 19 -58.5 52.5 q-21.5 33.5 -30.5 80.5 q-9 47 -9 104 q0 55 10.5 101 q10.5 46 33 79 q22.5 33 58.5 51.5 q36 18.5 88 18.5 ZM345 728 l46 -41 l-136 -151 l-71 0 l-141 152 l46 40 q4 -3 23 -17.5 q19 -14.5 40.5 -31.5 q21.5 -17 40.5 -32 q19 -15 24 -18 l128 99 Z" /><glyph glyph-name="Dcaron" unicode="&#x10e;" d="M372 437 q0 71 -25 112 q-25 41 -89 41 l-81 0 l0 -484 l82 0 q64 0 88.5 33.5 q24.5 33.5 24.5 93.5 l0 204 ZM275 696 q70 0 120 -26 q50 -26 73 -86 q14 -37 16.5 -91.5 q2.5 -54.5 2.5 -123.5 q0 -85 -1 -145.5 q-1 -60.5 -17 -103.5 q-13 -35 -34 -58 q-21 -23 -48 -36.5 q-27 -13.5 -59 -19.5 q-32 -6 -66 -6 l-200 0 l0 696 l213 0 ZM373 901 l42 -44 l-137 -126 l-70 0 l-140 127 l41 43 l132 -80 l132 80 Z" /><glyph glyph-name="dcaron" unicode="&#x10f;" d="M448 507 l32 99 l-29 0 l0 117 l116 0 l0 -114 l-62 -102 l-57 0 ZM291 42 q-20 -25 -46 -36 q-26 -11 -55 -11 q-52 0 -82.5 21.5 q-30.5 21.5 -46 57 q-15.5 35.5 -19.5 81 q-4 45.5 -4 93.5 q0 46 5.5 91 q5.5 45 22 81 q16.5 36 47.5 58 q31 22 82 22 q25 0 51 -11 q26 -11 44 -33 l3 0 l0 270 l111 0 l0 -726 l-111 0 l0 40 l-2 2 ZM223 395 q-24 0 -38.5 -12 q-14.5 -12 -22 -32.5 q-7.5 -20.5 -9.5 -46.5 q-2 -26 -2 -53 q0 -32 2.5 -59.5 q2.5 -27.5 10 -48.5 q7.5 -21 21.5 -33 q14 -12 38 -12 q26 0 40.5 14 q14.5 14 21 36.5 q6.5 22.5 8 49.5 q1.5 27 1.5 54 q0 25 -2 51 q-2 26 -9.5 46 q-7.5 20 -21.5 33 q-14 13 -38 13 Z" /><glyph glyph-name="Dcroat" unicode="&#x110;" d="M14 395 l48 0 l0 301 l213 0 q70 0 120 -26 q50 -26 73 -86 q14 -37 16.5 -91.5 q2.5 -54.5 2.5 -123.5 q0 -85 -1 -145.5 q-1 -60.5 -17 -103.5 q-13 -35 -34 -58 q-21 -23 -48 -36.5 q-27 -13.5 -59 -19.5 q-32 -6 -66 -6 l-200 0 l0 319 l-48 0 l0 76 ZM372 437 q0 71 -25 112 q-25 41 -89 41 l-81 0 l0 -195 l85 0 l0 -76 l-85 0 l0 -213 l82 0 q64 0 88.5 33.5 q24.5 33.5 24.5 93.5 l0 204 Z" /><glyph glyph-name="dcroat" unicode="&#x111;" d="M177 631 l116 0 l0 95 l111 0 l0 -95 l45 0 l0 -69 l-45 0 l0 -562 l-111 0 l0 40 l-2 2 q-20 -25 -46 -36 q-26 -11 -55 -11 q-52 0 -82.5 21.5 q-30.5 21.5 -46 57 q-15.5 35.5 -19.5 81 q-4 45.5 -4 93.5 q0 46 5.5 91 q5.5 45 22 81 q16.5 36 47.5 58 q31 22 82 22 q25 0 51 -11 q26 -11 44 -33 l3 0 l0 106 l-116 0 l0 69 ZM223 395 q-24 0 -38.5 -12 q-14.5 -12 -22 -32.5 q-7.5 -20.5 -9.5 -46.5 q-2 -26 -2 -53 q0 -32 2.5 -59.5 q2.5 -27.5 10 -48.5 q7.5 -21 21.5 -33 q14 -12 38 -12 q26 0 40.5 14 q14.5 14 21 36.5 q6.5 22.5 8 49.5 q1.5 27 1.5 54 q0 25 -2 51 q-2 26 -9.5 46 q-7.5 20 -21.5 33 q-14 13 -38 13 Z" /><glyph glyph-name="Emacron" unicode="&#x112;" d="M63 0 l0 696 l387 0 l0 -106 l-273 0 l0 -186 l235 0 l0 -104 l-235 0 l0 -191 l273 0 l0 -109 l-387 0 ZM118 757 l0 95 l270 0 l0 -95 l-270 0 Z" /><glyph glyph-name="emacron" unicode="&#x113;" d="M305 145 q23 -12 45.5 -24 q22.5 -12 45.5 -25 q-23 -50 -68 -75.5 q-45 -25.5 -100 -25.5 q-105 0 -148.5 62 q-43.5 62 -43.5 190 q0 53 8.5 99 q8.5 46 30 80.5 q21.5 34.5 57.5 54.5 q36 20 91 20 q51 0 86 -17 q35 -17 57 -47 q22 -30 31.5 -71 q9.5 -41 9.5 -90 l0 -58 l-259 0 q0 -24 3 -46.5 q3 -22.5 12 -39.5 q9 -17 24 -27 q15 -10 39 -10 q24 0 44 13.5 q20 13.5 35 36.5 ZM294 295 q0 47 -16.5 75.5 q-16.5 28.5 -56.5 28.5 q-40 0 -55 -30 q-15 -30 -17 -74 l145 0 ZM94 580 l0 95 l271 0 l0 -95 l-271 0 Z" /><glyph glyph-name="Ebreve" unicode="&#x114;" d="M63 0 l0 696 l387 0 l0 -106 l-273 0 l0 -186 l235 0 l0 -104 l-235 0 l0 -191 l273 0 l0 -109 l-387 0 ZM257 738 q-42 0 -70.5 14.5 q-28.5 14.5 -46 36.5 q-17.5 22 -25.5 47.5 q-8 25.5 -9 47.5 l86 0 q1 -10 5.5 -22 q4.5 -12 13 -22 q8.5 -10 20 -16.5 q11.5 -6.5 26.5 -6.5 q16 0 28 6.5 q12 6.5 20 16.5 q8 10 12 22 q4 12 4 22 l85 0 q-2 -22 -10.5 -47.5 q-8.5 -25.5 -25.5 -47.5 q-17 -22 -45 -36.5 q-28 -14.5 -68 -14.5 Z" /><glyph glyph-name="ebreve" unicode="&#x115;" d="M305 145 q23 -12 45.5 -24 q22.5 -12 45.5 -25 q-23 -50 -68 -75.5 q-45 -25.5 -100 -25.5 q-105 0 -148.5 62 q-43.5 62 -43.5 190 q0 53 8.5 99 q8.5 46 30 80.5 q21.5 34.5 57.5 54.5 q36 20 91 20 q51 0 86 -17 q35 -17 57 -47 q22 -30 31.5 -71 q9.5 -41 9.5 -90 l0 -58 l-259 0 q0 -24 3 -46.5 q3 -22.5 12 -39.5 q9 -17 24 -27 q15 -10 39 -10 q24 0 44 13.5 q20 13.5 35 36.5 ZM294 295 q0 47 -16.5 75.5 q-16.5 28.5 -56.5 28.5 q-40 0 -55 -30 q-15 -30 -17 -74 l145 0 ZM227 557 q-42 0 -70.5 15 q-28.5 15 -46 37 q-17.5 22 -25.5 48 q-8 26 -9 48 l86 0 q1 -11 5.5 -22.5 q4.5 -11.5 13 -21.5 q8.5 -10 20 -16.5 q11.5 -6.5 26.5 -6.5 q16 0 28 6.5 q12 6.5 20 16.5 q8 10 12 21.5 q4 11.5 4 22.5 l85 0 q-2 -22 -10.5 -48 q-8.5 -26 -25.5 -48 q-17 -22 -45 -37 q-28 -15 -68 -15 Z" /><glyph glyph-name="Edotaccent" unicode="&#x116;" d="M63 0 l0 696 l387 0 l0 -106 l-273 0 l0 -186 l235 0 l0 -104 l-235 0 l0 -191 l273 0 l0 -109 l-387 0 ZM198 750 l0 108 l106 0 l0 -108 l-106 0 Z" /><glyph glyph-name="edotaccent" unicode="&#x117;" d="M305 145 q23 -12 45.5 -24 q22.5 -12 45.5 -25 q-23 -50 -68 -75.5 q-45 -25.5 -100 -25.5 q-105 0 -148.5 62 q-43.5 62 -43.5 190 q0 53 8.5 99 q8.5 46 30 80.5 q21.5 34.5 57.5 54.5 q36 20 91 20 q51 0 86 -17 q35 -17 57 -47 q22 -30 31.5 -71 q9.5 -41 9.5 -90 l0 -58 l-259 0 q0 -24 3 -46.5 q3 -22.5 12 -39.5 q9 -17 24 -27 q15 -10 39 -10 q24 0 44 13.5 q20 13.5 35 36.5 ZM294 295 q0 47 -16.5 75.5 q-16.5 28.5 -56.5 28.5 q-40 0 -55 -30 q-15 -30 -17 -74 l145 0 ZM172 575 l0 108 l106 0 l0 -108 l-106 0 Z" /><glyph glyph-name="Eogonek" unicode="&#x118;" d="M338 -100 q0 20 9 45 q9 25 29 55 l-313 0 l0 696 l387 0 l0 -106 l-273 0 l0 -186 l235 0 l0 -104 l-235 0 l0 -191 l273 0 l0 -104 q0 -1 1 -1 q-1 -1 -1 -2 l0 -2 l-2 0 q-34 -51 -34 -79 q0 -23 9.5 -34.5 q9.5 -11.5 32.5 -11.5 q11 0 25 3.5 q14 3.5 33 11.5 l22 -57 q-22 -12 -47.5 -19.5 q-25.5 -7.5 -50.5 -7.5 q-44 0 -72 27 q-28 27 -28 67 Z" /><glyph glyph-name="eogonek" unicode="&#x119;" d="M245 -56 q0 12 2.5 25 q2.5 13 9.5 28 q-8 -1 -14.5 -1.5 q-6.5 -0.5 -14.5 -0.5 q-105 0 -148.5 62 q-43.5 62 -43.5 190 q0 53 8.5 99 q8.5 46 30 80.5 q21.5 34.5 57.5 54.5 q36 20 91 20 q51 0 86 -17 q35 -17 57 -47 q22 -30 31.5 -71 q9.5 -41 9.5 -90 l0 -58 l-259 0 q0 -24 3 -46.5 q3 -22.5 12 -39.5 q9 -17 24 -27 q15 -10 39 -10 q24 0 44 13.5 q20 13.5 35 36.5 q23 -12 45.5 -24 q22.5 -12 45.5 -25 q-16 -36 -47 -61 q-14 -22 -21 -39 q-7 -17 -7 -31 q0 -23 9.5 -34.5 q9.5 -11.5 32.5 -11.5 q11 0 25 3.5 q14 3.5 33 11.5 l22 -57 q-22 -12 -47.5 -19.5 q-25.5 -7.5 -50.5 -7.5 q-44 0 -72 27 q-28 27 -28 67 ZM294 295 q0 47 -16.5 75.5 q-16.5 28.5 -56.5 28.5 q-40 0 -55 -30 q-15 -30 -17 -74 l145 0 Z" /><glyph glyph-name="Ecaron" unicode="&#x11a;" d="M63 0 l0 696 l387 0 l0 -106 l-273 0 l0 -186 l235 0 l0 -104 l-235 0 l0 -191 l273 0 l0 -109 l-387 0 ZM384 901 l42 -44 l-137 -126 l-70 0 l-140 127 l41 43 l132 -80 l132 80 Z" /><glyph glyph-name="ecaron" unicode="&#x11b;" d="M305 145 q23 -12 45.5 -24 q22.5 -12 45.5 -25 q-23 -50 -68 -75.5 q-45 -25.5 -100 -25.5 q-105 0 -148.5 62 q-43.5 62 -43.5 190 q0 53 8.5 99 q8.5 46 30 80.5 q21.5 34.5 57.5 54.5 q36 20 91 20 q51 0 86 -17 q35 -17 57 -47 q22 -30 31.5 -71 q9.5 -41 9.5 -90 l0 -58 l-259 0 q0 -24 3 -46.5 q3 -22.5 12 -39.5 q9 -17 24 -27 q15 -10 39 -10 q24 0 44 13.5 q20 13.5 35 36.5 ZM294 295 q0 47 -16.5 75.5 q-16.5 28.5 -56.5 28.5 q-40 0 -55 -30 q-15 -30 -17 -74 l145 0 ZM354 727 l46 -41 l-136 -151 l-71 0 l-141 152 l46 40 q4 -3 23 -17.5 q19 -14.5 40.5 -31.5 q21.5 -17 40.5 -32 q19 -15 24 -18 l128 99 Z" /><glyph glyph-name="Gcircumflex" unicode="&#x11c;" d="M263 701 q42 0 76.5 -11.5 q34.5 -11.5 60.5 -32.5 q26 -21 43.5 -49.5 q17.5 -28.5 25.5 -61.5 l-109 -34 q-3 15 -10 29 q-7 14 -19 25 q-12 11 -29 18 q-17 7 -39 7 q-26 0 -44.5 -9 q-18.5 -9 -30.5 -23.5 q-12 -14.5 -18 -32.5 q-6 -18 -6 -36 l0 -278 q0 -22 6 -42 q6 -20 18.5 -35 q12.5 -15 31 -24 q18.5 -9 43.5 -9 q50 0 75.5 28.5 q25.5 28.5 25.5 69.5 l0 82 l-104 0 l0 99 l218 0 l0 -165 q0 -50 -15 -91 q-15 -41 -42.5 -70 q-27.5 -29 -67.5 -45 q-40 -16 -90 -16 q-54 0 -94 17 q-40 17 -66.5 47 q-26.5 30 -39.5 70.5 q-13 40.5 -13 87.5 l0 270 q0 41 12.5 80 q12.5 39 39 69 q26.5 30 66.5 48 q40 18 95 18 ZM258 808 l-132 -80 l-41 44 l141 127 l69 0 l137 -126 l-42 -45 l-132 80 Z" /><glyph glyph-name="gcircumflex" unicode="&#x11d;" d="M402 -6 q0 -90 -47 -145 q-47 -55 -143 -55 q-51 0 -93 21 q-42 21 -69 61 q4 3 16 12.5 q12 9.5 25.5 20.5 q13.5 11 25.5 20.5 q12 9.5 16 12.5 q14 -21 34.5 -34 q20.5 -13 46.5 -13 q37 0 57 22.5 q20 22.5 20 60.5 l0 71 l-3 0 q-19 -25 -47.5 -37.5 q-28.5 -12.5 -53.5 -12.5 q-53 0 -83 22 q-30 22 -45.5 57 q-15.5 35 -19.5 79 q-4 44 -4 88 q0 44 4 89.5 q4 45.5 19.5 82 q15.5 36.5 46 60 q30.5 23.5 83.5 23.5 q28 0 54.5 -11.5 q26.5 -11.5 46.5 -36.5 l2 2 l0 41 l111 0 l0 -501 ZM219 105 q24 0 38 12 q14 12 22 32 q8 20 10.5 44.5 q2.5 24.5 2.5 50.5 q0 29 -1.5 56.5 q-1.5 27.5 -8.5 48.5 q-7 21 -21.5 34 q-14.5 13 -40.5 13 q-24 0 -38.5 -12 q-14.5 -12 -22 -32 q-7.5 -20 -9.5 -48 q-2 -28 -2 -59 q0 -30 2.5 -55.5 q2.5 -25.5 10 -44.5 q7.5 -19 21.5 -29.5 q14 -10.5 37 -10.5 ZM231 635 q-5 -3 -23.5 -18 q-18.5 -15 -40.5 -32.5 q-22 -17.5 -41 -32 q-19 -14.5 -23 -17.5 l-45 40 l141 152 l71 0 l135 -150 l-46 -42 l-128 100 Z" /><glyph glyph-name="Gbreve" unicode="&#x11e;" d="M263 701 q42 0 76.5 -11.5 q34.5 -11.5 60.5 -32.5 q26 -21 43.5 -49.5 q17.5 -28.5 25.5 -61.5 l-109 -34 q-3 15 -10 29 q-7 14 -19 25 q-12 11 -29 18 q-17 7 -39 7 q-26 0 -44.5 -9 q-18.5 -9 -30.5 -23.5 q-12 -14.5 -18 -32.5 q-6 -18 -6 -36 l0 -278 q0 -22 6 -42 q6 -20 18.5 -35 q12.5 -15 31 -24 q18.5 -9 43.5 -9 q50 0 75.5 28.5 q25.5 28.5 25.5 69.5 l0 82 l-104 0 l0 99 l218 0 l0 -165 q0 -50 -15 -91 q-15 -41 -42.5 -70 q-27.5 -29 -67.5 -45 q-40 -16 -90 -16 q-54 0 -94 17 q-40 17 -66.5 47 q-26.5 30 -39.5 70.5 q-13 40.5 -13 87.5 l0 270 q0 41 12.5 80 q12.5 39 39 69 q26.5 30 66.5 48 q40 18 95 18 ZM261 739 q-42 0 -70.5 14.5 q-28.5 14.5 -46 36.5 q-17.5 22 -25.5 47.5 q-8 25.5 -9 47.5 l86 0 q1 -10 5.5 -22 q4.5 -12 13 -22 q8.5 -10 20 -16.5 q11.5 -6.5 26.5 -6.5 q16 0 28 6.5 q12 6.5 20 16.5 q8 10 12 22 q4 12 4 22 l85 0 q-2 -22 -10.5 -47.5 q-8.5 -25.5 -25.5 -47.5 q-17 -22 -45 -36.5 q-28 -14.5 -68 -14.5 Z" /><glyph glyph-name="gbreve" unicode="&#x11f;" d="M402 -6 q0 -90 -47 -145 q-47 -55 -143 -55 q-51 0 -93 21 q-42 21 -69 61 q4 3 16 12.5 q12 9.5 25.5 20.5 q13.5 11 25.5 20.5 q12 9.5 16 12.5 q14 -21 34.5 -34 q20.5 -13 46.5 -13 q37 0 57 22.5 q20 22.5 20 60.5 l0 71 l-3 0 q-19 -25 -47.5 -37.5 q-28.5 -12.5 -53.5 -12.5 q-53 0 -83 22 q-30 22 -45.5 57 q-15.5 35 -19.5 79 q-4 44 -4 88 q0 44 4 89.5 q4 45.5 19.5 82 q15.5 36.5 46 60 q30.5 23.5 83.5 23.5 q28 0 54.5 -11.5 q26.5 -11.5 46.5 -36.5 l2 2 l0 41 l111 0 l0 -501 ZM219 105 q24 0 38 12 q14 12 22 32 q8 20 10.5 44.5 q2.5 24.5 2.5 50.5 q0 29 -1.5 56.5 q-1.5 27.5 -8.5 48.5 q-7 21 -21.5 34 q-14.5 13 -40.5 13 q-24 0 -38.5 -12 q-14.5 -12 -22 -32 q-7.5 -20 -9.5 -48 q-2 -28 -2 -59 q0 -30 2.5 -55.5 q2.5 -25.5 10 -44.5 q7.5 -19 21.5 -29.5 q14 -10.5 37 -10.5 ZM234 557 q-42 0 -70.5 15 q-28.5 15 -46 37 q-17.5 22 -25.5 48 q-8 26 -9 48 l86 0 q1 -11 5.5 -22.5 q4.5 -11.5 13 -21.5 q8.5 -10 20 -16.5 q11.5 -6.5 26.5 -6.5 q16 0 28 6.5 q12 6.5 20 16.5 q8 10 12 21.5 q4 11.5 4 22.5 l85 0 q-2 -22 -10.5 -48 q-8.5 -26 -25.5 -48 q-17 -22 -45 -37 q-28 -15 -68 -15 Z" /><glyph glyph-name="Gdotaccent" unicode="&#x120;" d="M263 701 q42 0 76.5 -11.5 q34.5 -11.5 60.5 -32.5 q26 -21 43.5 -49.5 q17.5 -28.5 25.5 -61.5 l-109 -34 q-3 15 -10 29 q-7 14 -19 25 q-12 11 -29 18 q-17 7 -39 7 q-26 0 -44.5 -9 q-18.5 -9 -30.5 -23.5 q-12 -14.5 -18 -32.5 q-6 -18 -6 -36 l0 -278 q0 -22 6 -42 q6 -20 18.5 -35 q12.5 -15 31 -24 q18.5 -9 43.5 -9 q50 0 75.5 28.5 q25.5 28.5 25.5 69.5 l0 82 l-104 0 l0 99 l218 0 l0 -165 q0 -50 -15 -91 q-15 -41 -42.5 -70 q-27.5 -29 -67.5 -45 q-40 -16 -90 -16 q-54 0 -94 17 q-40 17 -66.5 47 q-26.5 30 -39.5 70.5 q-13 40.5 -13 87.5 l0 270 q0 41 12.5 80 q12.5 39 39 69 q26.5 30 66.5 48 q40 18 95 18 ZM209 750 l0 108 l106 0 l0 -108 l-106 0 Z" /><glyph glyph-name="gdotaccent" unicode="&#x121;" d="M402 -6 q0 -90 -47 -145 q-47 -55 -143 -55 q-51 0 -93 21 q-42 21 -69 61 q4 3 16 12.5 q12 9.5 25.5 20.5 q13.5 11 25.5 20.5 q12 9.5 16 12.5 q14 -21 34.5 -34 q20.5 -13 46.5 -13 q37 0 57 22.5 q20 22.5 20 60.5 l0 71 l-3 0 q-19 -25 -47.5 -37.5 q-28.5 -12.5 -53.5 -12.5 q-53 0 -83 22 q-30 22 -45.5 57 q-15.5 35 -19.5 79 q-4 44 -4 88 q0 44 4 89.5 q4 45.5 19.5 82 q15.5 36.5 46 60 q30.5 23.5 83.5 23.5 q28 0 54.5 -11.5 q26.5 -11.5 46.5 -36.5 l2 2 l0 41 l111 0 l0 -501 ZM219 105 q24 0 38 12 q14 12 22 32 q8 20 10.5 44.5 q2.5 24.5 2.5 50.5 q0 29 -1.5 56.5 q-1.5 27.5 -8.5 48.5 q-7 21 -21.5 34 q-14.5 13 -40.5 13 q-24 0 -38.5 -12 q-14.5 -12 -22 -32 q-7.5 -20 -9.5 -48 q-2 -28 -2 -59 q0 -30 2.5 -55.5 q2.5 -25.5 10 -44.5 q7.5 -19 21.5 -29.5 q14 -10.5 37 -10.5 ZM176 575 l0 108 l106 0 l0 -108 l-106 0 Z" /><glyph glyph-name="Gcommaaccent" unicode="&#x122;" d="M263 701 q42 0 76.5 -11.5 q34.5 -11.5 60.5 -32.5 q26 -21 43.5 -49.5 q17.5 -28.5 25.5 -61.5 l-109 -34 q-3 15 -10 29 q-7 14 -19 25 q-12 11 -29 18 q-17 7 -39 7 q-26 0 -44.5 -9 q-18.5 -9 -30.5 -23.5 q-12 -14.5 -18 -32.5 q-6 -18 -6 -36 l0 -278 q0 -22 6 -42 q6 -20 18.5 -35 q12.5 -15 31 -24 q18.5 -9 43.5 -9 q50 0 75.5 28.5 q25.5 28.5 25.5 69.5 l0 82 l-104 0 l0 99 l218 0 l0 -165 q0 -50 -15 -91 q-15 -41 -42.5 -70 q-27.5 -29 -67.5 -45 q-40 -16 -90 -16 q-54 0 -94 17 q-40 17 -66.5 47 q-26.5 30 -39.5 70.5 q-13 40.5 -13 87.5 l0 270 q0 41 12.5 80 q12.5 39 39 69 q26.5 30 66.5 48 q40 18 95 18 ZM198 -275 l32 99 l-29 0 l0 117 l116 0 l0 -114 l-62 -102 l-57 0 Z" /><glyph glyph-name="gcommaaccent" unicode="&#x123;" d="M402 -6 q0 -90 -47 -145 q-47 -55 -143 -55 q-51 0 -93 21 q-42 21 -69 61 q4 3 16 12.5 q12 9.5 25.5 20.5 q13.5 11 25.5 20.5 q12 9.5 16 12.5 q14 -21 34.5 -34 q20.5 -13 46.5 -13 q37 0 57 22.5 q20 22.5 20 60.5 l0 71 l-3 0 q-19 -25 -47.5 -37.5 q-28.5 -12.5 -53.5 -12.5 q-53 0 -83 22 q-30 22 -45.5 57 q-15.5 35 -19.5 79 q-4 44 -4 88 q0 44 4 89.5 q4 45.5 19.5 82 q15.5 36.5 46 60 q30.5 23.5 83.5 23.5 q28 0 54.5 -11.5 q26.5 -11.5 46.5 -36.5 l2 2 l0 41 l111 0 l0 -501 ZM219 105 q24 0 38 12 q14 12 22 32 q8 20 10.5 44.5 q2.5 24.5 2.5 50.5 q0 29 -1.5 56.5 q-1.5 27.5 -8.5 48.5 q-7 21 -21.5 34 q-14.5 13 -40.5 13 q-24 0 -38.5 -12 q-14.5 -12 -22 -32 q-7.5 -20 -9.5 -48 q-2 -28 -2 -59 q0 -30 2.5 -55.5 q2.5 -25.5 10 -44.5 q7.5 -19 21.5 -29.5 q14 -10.5 37 -10.5 ZM230 785 l56 0 q-6 -24 -13 -47 q-7 -23 -13 -47 l26 0 l0 -117 l-115 0 l0 114 l59 97 Z" /><glyph glyph-name="Hcircumflex" unicode="&#x124;" d="M373 0 l0 301 l-196 0 l0 -301 l-115 0 l0 696 l115 0 l0 -292 l196 0 l0 292 l114 0 l0 -696 l-114 0 ZM270 808 l-132 -80 l-41 44 l141 127 l69 0 l137 -126 l-42 -45 l-132 80 Z" /><glyph glyph-name="hcircumflex" unicode="&#x125;" d="M301 0 l0 318 q0 37 -18.5 56.5 q-18.5 19.5 -50.5 19.5 q-32 0 -52 -20 q-20 -20 -20 -58 l0 -316 l-110 0 l0 726 l110 0 l0 -278 l4 0 q19 23 47 37.5 q28 14.5 59 14.5 q64 0 103 -41 q39 -41 39 -111 l0 -348 l-111 0 ZM103 808 l-132 -80 l-41 44 l141 127 l69 0 l137 -126 l-42 -45 l-132 80 Z" /><glyph glyph-name="Hbar" unicode="&#x126;" d="M373 0 l0 301 l-196 0 l0 -301 l-115 0 l0 525 l-47 0 l0 70 l47 0 l0 101 l115 0 l0 -101 l196 0 l0 101 l114 0 l0 -101 l46 0 l0 -70 l-46 0 l0 -525 l-114 0 ZM373 404 l0 121 l-196 0 l0 -121 l196 0 Z" /><glyph glyph-name="hbar" unicode="&#x127;" d="M301 0 l0 318 q0 37 -18.5 56.5 q-18.5 19.5 -50.5 19.5 q-32 0 -52 -20 q-20 -20 -20 -58 l0 -316 l-110 0 l0 573 l-50 0 l0 71 l50 0 l0 82 l110 0 l0 -82 l158 0 l0 -71 l-158 0 l0 -125 l4 0 q19 23 47 37.5 q28 14.5 59 14.5 q64 0 103 -41 q39 -41 39 -111 l0 -348 l-111 0 Z" /><glyph glyph-name="Itilde" unicode="&#x128;" d="M64 0 l0 696 l115 0 l0 -696 l-115 0 ZM59 864 q17 0 33 -6.5 q16 -6.5 31.5 -14.5 q15.5 -8 29.5 -14.5 q14 -6.5 26 -6.5 q15 0 28.5 10 q13.5 10 30.5 33 l56 -33 q-23 -49 -49.5 -71 q-26.5 -22 -56.5 -22 q-18 0 -34.5 6.5 q-16.5 6.5 -32 14 q-15.5 7.5 -30 14 q-14.5 6.5 -27.5 6.5 q-15 0 -29.5 -9 q-14.5 -9 -32.5 -32 q-14 8 -27 16 q-13 8 -27 16 q20 45 49 69 q29 24 62 24 Z" /><glyph glyph-name="itilde" unicode="&#x129;" d="M90 0 l0 495 l111 0 l0 -495 l-111 0 ZM81 694 q17 0 33 -6.5 q16 -6.5 31.5 -14.5 q15.5 -8 29.5 -14.5 q14 -6.5 26 -6.5 q15 0 28.5 10 q13.5 10 30.5 33 l56 -33 q-23 -49 -49.5 -71 q-26.5 -22 -56.5 -22 q-18 0 -34.5 6.5 q-16.5 6.5 -32 14 q-15.5 7.5 -30 14 q-14.5 6.5 -27.5 6.5 q-15 0 -29.5 -9 q-14.5 -9 -32.5 -32 q-14 8 -27 16 q-13 8 -27 16 q20 45 49 69 q29 24 62 24 Z" /><glyph glyph-name="Imacron" unicode="&#x12a;" d="M64 0 l0 696 l115 0 l0 -696 l-115 0 ZM-12 757 l0 95 l270 0 l0 -95 l-270 0 Z" /><glyph glyph-name="imacron" unicode="&#x12b;" d="M57 0 l0 495 l111 0 l0 -495 l-111 0 ZM-22 580 l0 95 l271 0 l0 -95 l-271 0 Z" /><glyph glyph-name="Ibreve" unicode="&#x12c;" d="M125 744 q-42 0 -70.5 14.5 q-28.5 14.5 -46 36.5 q-17.5 22 -25.5 47.5 q-8 25.5 -9 47.5 l86 0 q1 -10 5.5 -22 q4.5 -12 13 -22 q8.5 -10 20 -16.5 q11.5 -6.5 26.5 -6.5 q16 0 28 6.5 q12 6.5 20 16.5 q8 10 12 22 q4 12 4 22 l85 0 q-2 -22 -10.5 -47.5 q-8.5 -25.5 -25.5 -47.5 q-17 -22 -45 -36.5 q-28 -14.5 -68 -14.5 ZM64 0 l0 696 l115 0 l0 -696 l-115 0 Z" /><glyph glyph-name="ibreve" unicode="&#x12d;" d="M81 0 l0 495 l111 0 l0 -495 l-111 0 ZM132 557 q-42 0 -70.5 15 q-28.5 15 -46 37 q-17.5 22 -25.5 48 q-8 26 -9 48 l86 0 q1 -11 5.5 -22.5 q4.5 -11.5 13 -21.5 q8.5 -10 20 -16.5 q11.5 -6.5 26.5 -6.5 q16 0 28 6.5 q12 6.5 20 16.5 q8 10 12 21.5 q4 11.5 4 22.5 l85 0 q-2 -22 -10.5 -48 q-8.5 -26 -25.5 -48 q-17 -22 -45 -37 q-28 -15 -68 -15 Z" /><glyph glyph-name="Iogonek" unicode="&#x12e;" d="M46 -100 q0 20 9 45 q9 25 29 55 l-20 0 l0 696 l115 0 l0 -696 l-23 0 q-34 -51 -34 -79 q0 -23 9.5 -34.5 q9.5 -11.5 32.5 -11.5 q11 0 25 3.5 q14 3.5 33 11.5 l22 -57 q-22 -12 -47.5 -19.5 q-25.5 -7.5 -50.5 -7.5 q-44 0 -72 27 q-28 27 -28 67 Z" /><glyph glyph-name="iogonek" unicode="&#x12f;" d="M40 -99 q0 20 9 44.5 q9 24.5 29 54.5 l-21 0 l0 495 l111 0 l0 -495 l-19 0 q-33 -48 -33 -78 q0 -23 9.5 -34.5 q9.5 -11.5 32.5 -11.5 q11 0 25 3.5 q14 3.5 33 11.5 l22 -57 q-22 -12 -47.5 -19.5 q-25.5 -7.5 -50.5 -7.5 q-44 0 -72 27 q-28 27 -28 67 ZM57 592 l0 104 l111 0 l0 -104 l-111 0 Z" /><glyph glyph-name="Idotaccent" unicode="&#x130;" d="M64 0 l0 696 l115 0 l0 -696 l-115 0 ZM68 750 l0 108 l106 0 l0 -108 l-106 0 Z" /><glyph glyph-name="IJ" unicode="&#x132;" d="M64 0 l0 696 l115 0 l0 -696 l-115 0 ZM588 190 q0 -52 -15.5 -89 q-15.5 -37 -42.5 -60.5 q-27 -23.5 -63 -34.5 q-36 -11 -76 -11 q-51 0 -93.5 18.5 q-42.5 18.5 -73.5 60.5 l80 73 q16 -23 39.5 -34 q23.5 -11 44.5 -11 q38 0 62 22.5 q24 22.5 24 68.5 l0 503 l114 0 l0 -506 Z" /><glyph glyph-name="ij" unicode="&#x133;" d="M401 -58 q0 -66 -40.5 -104.5 q-40.5 -38.5 -112.5 -38.5 l-31 0 l0 100 l22 0 q29 1 40 20.5 q11 19.5 11 49.5 l0 527 l111 0 l0 -554 ZM57 0 l0 495 l111 0 l0 -495 l-111 0 ZM290 592 l0 104 l111 0 l0 -104 l-111 0 ZM57 592 l0 104 l111 0 l0 -104 l-111 0 Z" /><glyph glyph-name="Jcircumflex" unicode="&#x134;" d="M359 191 q0 -52 -15.5 -89 q-15.5 -37 -42.5 -60.5 q-27 -23.5 -63 -34.5 q-36 -11 -76 -11 q-51 0 -93.5 18.5 q-42.5 18.5 -73.5 60.5 l80 73 q16 -23 39.5 -34 q23.5 -11 44.5 -11 q38 0 62 22.5 q24 22.5 24 68.5 l0 503 l114 0 l0 -506 ZM300 810 l-132 -80 l-41 44 l141 127 l69 0 l137 -126 l-42 -45 l-132 80 Z" /><glyph glyph-name="jcircumflex" unicode="&#x135;" d="M181 -58 q0 -66 -40.5 -104.5 q-40.5 -38.5 -112.5 -38.5 l-31 0 l0 100 l22 0 q29 1 40.5 20.5 q11.5 19.5 11.5 49.5 l0 527 l110 0 l0 -554 ZM127 635 q-5 -3 -23.5 -18 q-18.5 -15 -40.5 -32.5 q-22 -17.5 -41 -32 q-19 -14.5 -23 -17.5 l-45 40 l141 152 l70 0 l136 -150 l-46 -42 l-128 100 Z" /><glyph glyph-name="Kcommaaccent" unicode="&#x136;" d="M407 0 q-38 78 -75.5 155.5 q-37.5 77.5 -75.5 155.5 q-20 -30 -40 -60.5 q-20 -30.5 -40 -59.5 l0 -191 l-114 0 l0 696 l114 0 l0 -315 l3 0 l204 315 l131 0 l-186 -278 q51 -106 103 -209.5 q52 -103.5 104 -208.5 l-128 0 ZM217 -255 l32 99 l-29 0 l0 117 l116 0 l0 -114 l-62 -102 l-57 0 Z" /><glyph glyph-name="kcommaaccent" unicode="&#x137;" d="M167 304 l140 190 l136 0 l-151 -192 l169 -302 l-129 0 l-114 212 l-54 -74 l0 -138 l-110 0 l0 725 l110 0 l0 -421 l3 0 ZM182 -275 l32 99 l-29 0 l0 117 l116 0 l0 -114 l-62 -102 l-57 0 Z" /><glyph glyph-name="kgreenlandic" unicode="&#x138;" d="M167 304 l140 190 l136 0 l-151 -193 l168 -301 l-127 0 l-113 213 l-56 -76 l0 -137 l-110 0 l0 494 l110 0 l0 -190 l3 0 Z" /><glyph glyph-name="Lacute" unicode="&#x139;" d="M63 0 l0 696 l114 0 l0 -587 l269 0 l0 -109 l-383 0 ZM73 780 l159 124 l69 -80 l-185 -98 l-43 54 Z" /><glyph glyph-name="lacute" unicode="&#x13a;" d="M190 -2 q-65 0 -101 28 q-36 28 -36 101 l0 599 l111 0 l0 -577 q0 -29 11 -40.5 q11 -11.5 35 -11.5 l16 0 l0 -99 l-36 0 ZM55 792 l159 124 l69 -80 l-185 -98 l-43 54 Z" /><glyph glyph-name="Lcommaaccent" unicode="&#x13b;" d="M63 0 l0 696 l114 0 l0 -587 l269 0 l0 -109 l-383 0 ZM190 -275 l32 99 l-29 0 l0 117 l116 0 l0 -114 l-62 -102 l-57 0 Z" /><glyph glyph-name="lcommaaccent" unicode="&#x13c;" d="M190 -2 q-65 0 -101 28 q-36 28 -36 101 l0 599 l111 0 l0 -577 q0 -29 11 -40.5 q11 -11.5 35 -11.5 l16 0 l0 -99 l-36 0 ZM69 -270 l32 99 l-29 0 l0 117 l116 0 l0 -114 l-62 -102 l-57 0 Z" /><glyph glyph-name="Lcaron" unicode="&#x13d;" d="M63 0 l0 696 l114 0 l0 -587 l269 0 l0 -109 l-383 0 ZM264 478 l32 99 l-29 0 l0 117 l116 0 l0 -114 l-62 -102 l-57 0 Z" /><glyph glyph-name="lcaron" unicode="&#x13e;" d="M207 506 l32 99 l-29 0 l0 117 l116 0 l0 -114 l-62 -102 l-57 0 ZM190 -2 q-65 0 -101 28 q-36 28 -36 101 l0 599 l111 0 l0 -577 q0 -29 11 -40.5 q11 -11.5 35 -11.5 l16 0 l0 -99 l-36 0 Z" /><glyph glyph-name="Ldot" unicode="&#x13f;" d="M63 0 l0 696 l114 0 l0 -587 l269 0 l0 -109 l-383 0 ZM293 304 l0 108 l106 0 l0 -108 l-106 0 Z" /><glyph glyph-name="ldot" unicode="&#x140;" d="M212 327 l0 108 l106 0 l0 -108 l-106 0 ZM190 -2 q-65 0 -101 28 q-36 28 -36 101 l0 599 l111 0 l0 -577 q0 -29 11 -40.5 q11 -11.5 35 -11.5 l16 0 l0 -99 l-36 0 Z" /><glyph glyph-name="Lslash" unicode="&#x141;" d="M86 0 l0 238 l-48 -29 l-38 61 l86 52 l0 374 l114 0 l0 -304 l94 58 l37 -62 l-131 -80 l0 -199 l269 0 l0 -109 l-383 0 Z" /><glyph glyph-name="lslash" unicode="&#x142;" d="M226 -2 q-65 0 -101 28 q-36 28 -36 101 l0 144 l-46 -28 l-39 61 l85 52 l0 370 l111 0 l0 -302 l59 36 l37 -61 l-96 -59 l0 -191 q0 -29 11 -40.5 q11 -11.5 35 -11.5 l16 0 l0 -99 l-36 0 Z" /><glyph glyph-name="Nacute" unicode="&#x143;" d="M416 0 l-164 299 l-73 143 l-3 -1 l0 -441 l-115 0 l0 696 l105 0 l154 -284 l82 -156 l4 1 l0 439 l114 0 l0 -696 l-104 0 ZM212 780 l159 124 l69 -80 l-185 -98 l-43 54 Z" /><glyph glyph-name="nacute" unicode="&#x144;" d="M300 0 l0 318 q0 37 -20 56.5 q-20 19.5 -50 19.5 q-32 0 -52 -20.5 q-20 -20.5 -20 -57.5 l0 -316 l-110 0 l0 495 l111 0 l0 -48 l3 0 q20 24 48 38.5 q28 14.5 59 14.5 q67 0 104 -40.5 q37 -40.5 37 -110.5 l0 -349 l-110 0 ZM158 571 l82 184 l98 -37 l-116 -175 l-64 28 Z" /><glyph glyph-name="Ncommaaccent" unicode="&#x145;" d="M416 0 l-164 299 l-73 143 l-3 -1 l0 -441 l-115 0 l0 696 l105 0 l154 -284 l82 -156 l4 1 l0 439 l114 0 l0 -696 l-104 0 ZM226 -255 l32 99 l-29 0 l0 117 l116 0 l0 -114 l-62 -102 l-57 0 Z" /><glyph glyph-name="ncommaaccent" unicode="&#x146;" d="M300 0 l0 318 q0 37 -20 56.5 q-20 19.5 -50 19.5 q-32 0 -52 -20.5 q-20 -20.5 -20 -57.5 l0 -316 l-110 0 l0 495 l111 0 l0 -48 l3 0 q20 24 48 38.5 q28 14.5 59 14.5 q67 0 104 -40.5 q37 -40.5 37 -110.5 l0 -349 l-110 0 ZM167 -275 l32 99 l-29 0 l0 117 l116 0 l0 -114 l-62 -102 l-57 0 Z" /><glyph glyph-name="Ncaron" unicode="&#x147;" d="M416 0 l-164 299 l-73 143 l-3 -1 l0 -441 l-115 0 l0 696 l105 0 l154 -284 l82 -156 l4 1 l0 439 l114 0 l0 -696 l-104 0 ZM426 901 l42 -44 l-137 -126 l-70 0 l-140 127 l41 43 l132 -80 l132 80 Z" /><glyph glyph-name="ncaron" unicode="&#x148;" d="M300 0 l0 318 q0 37 -20 56.5 q-20 19.5 -50 19.5 q-32 0 -52 -20.5 q-20 -20.5 -20 -57.5 l0 -316 l-110 0 l0 495 l111 0 l0 -48 l3 0 q20 24 48 38.5 q28 14.5 59 14.5 q67 0 104 -40.5 q37 -40.5 37 -110.5 l0 -349 l-110 0 ZM345 727 l46 -41 l-136 -151 l-71 0 l-141 152 l46 40 q4 -3 23 -17.5 q19 -14.5 40.5 -31.5 q21.5 -17 40.5 -32 q19 -15 24 -18 l128 99 Z" /><glyph glyph-name="napostrophe" unicode="&#x149;" d="M368 0 l0 318 q0 37 -20 56.5 q-20 19.5 -50 19.5 q-32 0 -52 -20.5 q-20 -20.5 -20 -57.5 l0 -316 l-110 0 l0 495 l111 0 l0 -48 l3 0 q20 24 48 38.5 q28 14.5 59 14.5 q67 0 104 -40.5 q37 -40.5 37 -110.5 l0 -349 l-110 0 ZM-2 452 l32 99 l-29 0 l0 117 l116 0 l0 -114 l-62 -102 l-57 0 Z" /><glyph glyph-name="Eng" unicode="&#x14a;" d="M519 -59 q0 -34 -9.5 -56 q-9.5 -22 -25.5 -35.5 q-16 -13.5 -38 -19 q-22 -5.5 -47 -5.5 q-34 0 -70 12 l15 85 q6 -1 12 -1.5 q6 -0.5 11 -0.5 q26 0 34 12.5 q8 12.5 8 35.5 l0 49 q-6 11 -23.5 44 q-17.5 33 -41 77 q-23.5 44 -50 93 q-26.5 49 -50 93 q-23.5 44 -41.5 77.5 q-18 33.5 -25 45.5 l-3 0 l0 -447 l-114 0 l0 696 l104 0 l116 -214 l69 -129 q14 -25 26 -50.5 q12 -25.5 26 -51.5 q1 0 1.5 0.5 q0.5 0.5 2.5 0.5 l0 444 l113 0 l0 -755 Z" /><glyph glyph-name="eng" unicode="&#x14b;" d="M410 -59 q0 -33 -9 -55.5 q-9 -22.5 -24.5 -36.5 q-15.5 -14 -36 -20 q-20.5 -6 -44.5 -6 q-38 0 -76 14 l15 85 q6 -1 12 -1.5 q6 -0.5 11 -0.5 q29 0 35.5 15.5 q6.5 15.5 6.5 41.5 l0 341 q0 37 -19 56.5 q-19 19.5 -51 19.5 q-31 0 -51.5 -21 q-20.5 -21 -20.5 -58 l0 -315 l-110 0 l0 495 l111 0 l0 -48 l3 0 q20 24 50 38.5 q30 14.5 61 14.5 q38 0 64.5 -12.5 q26.5 -12.5 42.5 -34.5 q16 -22 23 -53 q7 -31 7 -67 l0 -392 Z" /><glyph glyph-name="Omacron" unicode="&#x14c;" d="M471 211 q0 -50 -15.5 -90 q-15.5 -40 -44 -68.5 q-28.5 -28.5 -67.5 -43.5 q-39 -15 -86 -15 q-57 0 -98 18.5 q-41 18.5 -66.5 50 q-25.5 31.5 -37.5 73 q-12 41.5 -12 87.5 l0 263 q0 37 11.5 75 q11.5 38 37 69 q25.5 31 66 51 q40.5 20 99.5 20 q55 0 95 -19 q40 -19 66.5 -49.5 q26.5 -30.5 39 -69 q12.5 -38.5 12.5 -77.5 l0 -275 ZM355 488 q0 13 -4.5 30.5 q-4.5 17.5 -15.5 33.5 q-11 16 -29.5 27.5 q-18.5 11.5 -47.5 11.5 q-29 0 -48.5 -10.5 q-19.5 -10.5 -31 -26 q-11.5 -15.5 -16.5 -33.5 q-5 -18 -5 -34 l1 -266 q0 -50 23 -84 q23 -34 78 -34 q39 0 67.5 26.5 q28.5 26.5 28.5 72.5 l0 286 ZM121 757 l0 95 l270 0 l0 -95 l-270 0 Z" /><glyph glyph-name="omacron" unicode="&#x14d;" d="M228 502 q64 0 101 -25.5 q37 -25.5 56 -63.5 q14 -28 19 -73.5 q5 -45.5 5 -93.5 q0 -40 -5 -84 q-5 -44 -16 -71 q-11 -28 -28.5 -46.5 q-17.5 -18.5 -40 -30 q-22.5 -11.5 -48.5 -16.5 q-26 -5 -53 -5 q-54 0 -90.5 20 q-36.5 20 -56.5 53 q-18 29 -25.5 75 q-7.5 46 -7.5 104 q0 45 4.5 87.5 q4.5 42.5 15.5 68.5 q20 47 62 74 q42 27 108 27 ZM226 400 q-22 0 -40 -11 q-18 -11 -26 -34 q-7 -18 -9.5 -47.5 q-2.5 -29.5 -2.5 -67.5 q0 -29 1.5 -55 q1.5 -26 8.5 -45 q17 -45 65 -45 q23 0 42 11.5 q19 11.5 27 45.5 q4 14 5.5 41 q1.5 27 1.5 61 q0 30 -2 55.5 q-2 25.5 -8 42.5 q-17 48 -63 48 ZM85 580 l0 95 l271 0 l0 -95 l-271 0 Z" /><glyph glyph-name="Obreve" unicode="&#x14e;" d="M471 211 q0 -50 -15.5 -90 q-15.5 -40 -44 -68.5 q-28.5 -28.5 -67.5 -43.5 q-39 -15 -86 -15 q-57 0 -98 18.5 q-41 18.5 -66.5 50 q-25.5 31.5 -37.5 73 q-12 41.5 -12 87.5 l0 263 q0 37 11.5 75 q11.5 38 37 69 q25.5 31 66 51 q40.5 20 99.5 20 q55 0 95 -19 q40 -19 66.5 -49.5 q26.5 -30.5 39 -69 q12.5 -38.5 12.5 -77.5 l0 -275 ZM355 488 q0 13 -4.5 30.5 q-4.5 17.5 -15.5 33.5 q-11 16 -29.5 27.5 q-18.5 11.5 -47.5 11.5 q-29 0 -48.5 -10.5 q-19.5 -10.5 -31 -26 q-11.5 -15.5 -16.5 -33.5 q-5 -18 -5 -34 l1 -266 q0 -50 23 -84 q23 -34 78 -34 q39 0 67.5 26.5 q28.5 26.5 28.5 72.5 l0 286 ZM254 739 q-42 0 -70.5 14.5 q-28.5 14.5 -46 36.5 q-17.5 22 -25.5 47.5 q-8 25.5 -9 47.5 l86 0 q1 -10 5.5 -22 q4.5 -12 13 -22 q8.5 -10 20 -16.5 q11.5 -6.5 26.5 -6.5 q16 0 28 6.5 q12 6.5 20 16.5 q8 10 12 22 q4 12 4 22 l85 0 q-2 -22 -10.5 -47.5 q-8.5 -25.5 -25.5 -47.5 q-17 -22 -45 -36.5 q-28 -14.5 -68 -14.5 Z" /><glyph glyph-name="obreve" unicode="&#x14f;" d="M228 502 q64 0 101 -25.5 q37 -25.5 56 -63.5 q14 -28 19 -73.5 q5 -45.5 5 -93.5 q0 -40 -5 -84 q-5 -44 -16 -71 q-11 -28 -28.5 -46.5 q-17.5 -18.5 -40 -30 q-22.5 -11.5 -48.5 -16.5 q-26 -5 -53 -5 q-54 0 -90.5 20 q-36.5 20 -56.5 53 q-18 29 -25.5 75 q-7.5 46 -7.5 104 q0 45 4.5 87.5 q4.5 42.5 15.5 68.5 q20 47 62 74 q42 27 108 27 ZM226 400 q-22 0 -40 -11 q-18 -11 -26 -34 q-7 -18 -9.5 -47.5 q-2.5 -29.5 -2.5 -67.5 q0 -29 1.5 -55 q1.5 -26 8.5 -45 q17 -45 65 -45 q23 0 42 11.5 q19 11.5 27 45.5 q4 14 5.5 41 q1.5 27 1.5 61 q0 30 -2 55.5 q-2 25.5 -8 42.5 q-17 48 -63 48 ZM226 557 q-42 0 -70.5 15 q-28.5 15 -46 37 q-17.5 22 -25.5 48 q-8 26 -9 48 l86 0 q1 -11 5.5 -22.5 q4.5 -11.5 13 -21.5 q8.5 -10 20 -16.5 q11.5 -6.5 26.5 -6.5 q16 0 28 6.5 q12 6.5 20 16.5 q8 10 12 21.5 q4 11.5 4 22.5 l85 0 q-2 -22 -10.5 -48 q-8.5 -26 -25.5 -48 q-17 -22 -45 -37 q-28 -15 -68 -15 Z" /><glyph glyph-name="Ohungarumlaut" unicode="&#x150;" d="M471 211 q0 -50 -15.5 -90 q-15.5 -40 -44 -68.5 q-28.5 -28.5 -67.5 -43.5 q-39 -15 -86 -15 q-57 0 -98 18.5 q-41 18.5 -66.5 50 q-25.5 31.5 -37.5 73 q-12 41.5 -12 87.5 l0 263 q0 37 11.5 75 q11.5 38 37 69 q25.5 31 66 51 q40.5 20 99.5 20 q55 0 95 -19 q40 -19 66.5 -49.5 q26.5 -30.5 39 -69 q12.5 -38.5 12.5 -77.5 l0 -275 ZM355 488 q0 13 -4.5 30.5 q-4.5 17.5 -15.5 33.5 q-11 16 -29.5 27.5 q-18.5 11.5 -47.5 11.5 q-29 0 -48.5 -10.5 q-19.5 -10.5 -31 -26 q-11.5 -15.5 -16.5 -33.5 q-5 -18 -5 -34 l1 -266 q0 -50 23 -84 q23 -34 78 -34 q39 0 67.5 26.5 q28.5 26.5 28.5 72.5 l0 286 ZM92 774 l152 132 l73 -72 l-179 -111 l-46 51 ZM280 775 l154 130 l71 -72 l-179 -109 l-46 51 Z" /><glyph glyph-name="ohungarumlaut" unicode="&#x151;" d="M228 502 q64 0 101 -25.5 q37 -25.5 56 -63.5 q14 -28 19 -73.5 q5 -45.5 5 -93.5 q0 -40 -5 -84 q-5 -44 -16 -71 q-11 -28 -28.5 -46.5 q-17.5 -18.5 -40 -30 q-22.5 -11.5 -48.5 -16.5 q-26 -5 -53 -5 q-54 0 -90.5 20 q-36.5 20 -56.5 53 q-18 29 -25.5 75 q-7.5 46 -7.5 104 q0 45 4.5 87.5 q4.5 42.5 15.5 68.5 q20 47 62 74 q42 27 108 27 ZM226 400 q-22 0 -40 -11 q-18 -11 -26 -34 q-7 -18 -9.5 -47.5 q-2.5 -29.5 -2.5 -67.5 q0 -29 1.5 -55 q1.5 -26 8.5 -45 q17 -45 65 -45 q23 0 42 11.5 q19 11.5 27 45.5 q4 14 5.5 41 q1.5 27 1.5 61 q0 30 -2 55.5 q-2 25.5 -8 42.5 q-17 48 -63 48 ZM107 578 l82 184 l98 -36 l-117 -176 l-63 28 ZM251 571 l82 184 l98 -37 l-117 -175 l-63 28 Z" /><glyph glyph-name="Racute" unicode="&#x154;" d="M370 0 l-104 290 l-89 0 l0 -290 l-114 0 l0 696 l224 0 q43 0 80 -12.5 q37 -12.5 63.5 -37.5 q26.5 -25 41.5 -62.5 q15 -37.5 15 -87.5 q0 -66 -28 -114 q-28 -48 -83 -73 l119 -309 l-125 0 ZM375 496 q0 49 -25 72.5 q-25 23.5 -72 23.5 l-101 0 l0 -199 l100 0 q45 0 71.5 26 q26.5 26 26.5 77 ZM160 780 l159 124 l69 -80 l-185 -98 l-43 54 Z" /><glyph glyph-name="racute" unicode="&#x155;" d="M259 391 q-42 0 -66.5 -22.5 q-24.5 -22.5 -24.5 -72.5 l0 -297 l-111 0 l0 496 l110 0 l0 -57 l3 -1 q20 36 49 49.5 q29 13.5 65 13.5 q15 0 28 -2.5 q13 -2.5 24 -10.5 l-22 -108 q-14 7 -27.5 9.5 q-13.5 2.5 -27.5 2.5 ZM125 571 l82 184 l98 -37 l-116 -175 l-64 28 Z" /><glyph glyph-name="Rcommaaccent" unicode="&#x156;" d="M370 0 l-104 290 l-89 0 l0 -290 l-114 0 l0 696 l224 0 q43 0 80 -12.5 q37 -12.5 63.5 -37.5 q26.5 -25 41.5 -62.5 q15 -37.5 15 -87.5 q0 -66 -28 -114 q-28 -48 -83 -73 l119 -309 l-125 0 ZM375 496 q0 49 -25 72.5 q-25 23.5 -72 23.5 l-101 0 l0 -199 l100 0 q45 0 71.5 26 q26.5 26 26.5 77 ZM208 -255 l32 99 l-29 0 l0 117 l116 0 l0 -114 l-62 -102 l-57 0 Z" /><glyph glyph-name="rcommaaccent" unicode="&#x157;" d="M259 391 q-42 0 -66.5 -22.5 q-24.5 -22.5 -24.5 -72.5 l0 -297 l-111 0 l0 496 l110 0 l0 -57 l3 -1 q20 36 49 49.5 q29 13.5 65 13.5 q15 0 28 -2.5 q13 -2.5 24 -10.5 l-22 -108 q-14 7 -27.5 9.5 q-13.5 2.5 -27.5 2.5 ZM51 -275 l32 99 l-29 0 l0 117 l116 0 l0 -114 l-62 -102 l-57 0 Z" /><glyph glyph-name="Rcaron" unicode="&#x158;" d="M370 0 l-104 290 l-89 0 l0 -290 l-114 0 l0 696 l224 0 q43 0 80 -12.5 q37 -12.5 63.5 -37.5 q26.5 -25 41.5 -62.5 q15 -37.5 15 -87.5 q0 -66 -28 -114 q-28 -48 -83 -73 l119 -309 l-125 0 ZM375 496 q0 49 -25 72.5 q-25 23.5 -72 23.5 l-101 0 l0 -199 l100 0 q45 0 71.5 26 q26.5 26 26.5 77 ZM368 901 l42 -44 l-137 -126 l-70 0 l-140 127 l41 43 l132 -80 l132 80 Z" /><glyph glyph-name="rcaron" unicode="&#x159;" d="M259 391 q-42 0 -66.5 -22.5 q-24.5 -22.5 -24.5 -72.5 l0 -297 l-111 0 l0 496 l110 0 l0 -57 l3 -1 q20 36 49 49.5 q29 13.5 65 13.5 q15 0 28 -2.5 q13 -2.5 24 -10.5 l-22 -108 q-14 7 -27.5 9.5 q-13.5 2.5 -27.5 2.5 ZM299 727 l46 -41 l-136 -151 l-71 0 l-141 152 l46 40 q4 -3 23 -17.5 q19 -14.5 40.5 -31.5 q21.5 -17 40.5 -32 q19 -15 24 -18 l128 99 Z" /><glyph glyph-name="Sacute" unicode="&#x15a;" d="M474 198 q0 -95 -58 -149.5 q-58 -54.5 -164 -54.5 q-84 0 -139 33.5 q-55 33.5 -86 86.5 l94 68 q23 -36 55 -57.5 q32 -21.5 78 -21.5 q55 0 77.5 26.5 q22.5 26.5 22.5 65.5 q0 24 -9 41 q-9 17 -25 29.5 q-16 12.5 -39 21.5 q-23 9 -50 17 q-50 16 -85 34 q-35 18 -57.5 41.5 q-22.5 23.5 -32.5 54 q-10 30.5 -10 69.5 q0 43 15 79.5 q15 36.5 43 63 q28 26.5 66.5 41 q38.5 14.5 86.5 14.5 q78 0 126.5 -26 q48.5 -26 77.5 -71 l-87 -73 q-23 32 -52 47 q-29 15 -67 15 q-45 0 -69 -24.5 q-24 -24.5 -24 -61.5 q0 -21 11 -36.5 q11 -15.5 30 -27.5 q19 -12 45 -21.5 q26 -9.5 55 -18.5 q49 -15 81.5 -34.5 q32.5 -19.5 52.5 -44.5 q20 -25 28.5 -56 q8.5 -31 8.5 -70 ZM180 780 l159 124 l69 -80 l-185 -98 l-43 54 Z" /><glyph glyph-name="sacute" unicode="&#x15b;" d="M395 147 q0 -69 -49 -111 q-49 -42 -135 -42 q-66 0 -111 23.5 q-45 23.5 -74 73.5 l82 60 q34 -59 102 -59 q34 0 53.5 15 q19.5 15 19.5 41 q0 27 -18.5 38 q-18.5 11 -51.5 19 q-35 8 -66.5 18.5 q-31.5 10.5 -55.5 27 q-24 16.5 -38.5 41.5 q-14.5 25 -14.5 61 q0 34 13.5 61.5 q13.5 27.5 36.5 46.5 q23 19 55 29 q32 10 69 10 q67 0 107.5 -22.5 q40.5 -22.5 65.5 -61.5 l-74 -64 q-33 51 -96 51 q-37 0 -51.5 -15.5 q-14.5 -15.5 -14.5 -33.5 q0 -12 7.5 -20.5 q7.5 -8.5 20.5 -14.5 q13 -6 29 -10.5 q16 -4.5 33 -8.5 q34 -8 63 -18.5 q29 -10.5 49.5 -28 q20.5 -17.5 32 -43.5 q11.5 -26 11.5 -63 ZM152 571 l82 184 l98 -37 l-116 -175 l-64 28 Z" /><glyph glyph-name="Scircumflex" unicode="&#x15c;" d="M474 198 q0 -95 -58 -149.5 q-58 -54.5 -164 -54.5 q-84 0 -139 33.5 q-55 33.5 -86 86.5 l94 68 q23 -36 55 -57.5 q32 -21.5 78 -21.5 q55 0 77.5 26.5 q22.5 26.5 22.5 65.5 q0 24 -9 41 q-9 17 -25 29.5 q-16 12.5 -39 21.5 q-23 9 -50 17 q-50 16 -85 34 q-35 18 -57.5 41.5 q-22.5 23.5 -32.5 54 q-10 30.5 -10 69.5 q0 43 15 79.5 q15 36.5 43 63 q28 26.5 66.5 41 q38.5 14.5 86.5 14.5 q78 0 126.5 -26 q48.5 -26 77.5 -71 l-87 -73 q-23 32 -52 47 q-29 15 -67 15 q-45 0 -69 -24.5 q-24 -24.5 -24 -61.5 q0 -21 11 -36.5 q11 -15.5 30 -27.5 q19 -12 45 -21.5 q26 -9.5 55 -18.5 q49 -15 81.5 -34.5 q32.5 -19.5 52.5 -44.5 q20 -25 28.5 -56 q8.5 -31 8.5 -70 ZM255 808 l-132 -80 l-41 44 l141 127 l69 0 l137 -126 l-42 -45 l-132 80 Z" /><glyph glyph-name="scircumflex" unicode="&#x15d;" d="M395 147 q0 -69 -49 -111 q-49 -42 -135 -42 q-66 0 -111 23.5 q-45 23.5 -74 73.5 l82 60 q34 -59 102 -59 q34 0 53.5 15 q19.5 15 19.5 41 q0 27 -18.5 38 q-18.5 11 -51.5 19 q-35 8 -66.5 18.5 q-31.5 10.5 -55.5 27 q-24 16.5 -38.5 41.5 q-14.5 25 -14.5 61 q0 34 13.5 61.5 q13.5 27.5 36.5 46.5 q23 19 55 29 q32 10 69 10 q67 0 107.5 -22.5 q40.5 -22.5 65.5 -61.5 l-74 -64 q-33 51 -96 51 q-37 0 -51.5 -15.5 q-14.5 -15.5 -14.5 -33.5 q0 -12 7.5 -20.5 q7.5 -8.5 20.5 -14.5 q13 -6 29 -10.5 q16 -4.5 33 -8.5 q34 -8 63 -18.5 q29 -10.5 49.5 -28 q20.5 -17.5 32 -43.5 q11.5 -26 11.5 -63 ZM215 635 q-5 -3 -23.5 -18 q-18.5 -15 -40.5 -32.5 q-22 -17.5 -41 -32 q-19 -14.5 -23 -17.5 l-45 40 l141 152 l71 0 l135 -150 l-46 -42 l-128 100 Z" /><glyph glyph-name="Scedilla" unicode="&#x15e;" d="M474 198 q0 -91 -54 -145 q-54 -54 -152 -58 l-11 -36 q26 -3 43.5 -12 q17.5 -9 28 -21 q10.5 -12 15 -26 q4.5 -14 4.5 -26 q0 -15 -5.5 -30 q-5.5 -15 -18 -27 q-12.5 -12 -31.5 -19.5 q-19 -7.5 -46 -7.5 q-17 0 -45.5 3.5 q-28.5 3.5 -52.5 16.5 q5 12 9.5 24.5 q4.5 12.5 9.5 24.5 q21 -11 37 -13 q16 -2 30 -2 q17 0 28.5 9.5 q11.5 9.5 11.5 23.5 q0 17 -11.5 25.5 q-11.5 8.5 -29.5 8.5 q-8 0 -12 -1 q-7 5 -13.5 9.5 q-6.5 4.5 -13.5 9.5 l20 67 q-69 7 -114.5 38.5 q-45.5 31.5 -73.5 79.5 l94 68 q23 -36 55 -57.5 q32 -21.5 78 -21.5 q55 0 77.5 26.5 q22.5 26.5 22.5 65.5 q0 24 -9 41 q-9 17 -25 29.5 q-16 12.5 -39 21.5 q-23 9 -50 17 q-50 16 -85 34 q-35 18 -57.5 41.5 q-22.5 23.5 -32.5 54 q-10 30.5 -10 69.5 q0 43 15 79.5 q15 36.5 43 63 q28 26.5 66.5 41 q38.5 14.5 86.5 14.5 q78 0 126.5 -26 q48.5 -26 77.5 -71 l-87 -73 q-23 32 -52 47 q-29 15 -67 15 q-45 0 -69 -24.5 q-24 -24.5 -24 -61.5 q0 -21 11 -36.5 q11 -15.5 30 -27.5 q19 -12 45 -21.5 q26 -9.5 55 -18.5 q49 -15 81.5 -34.5 q32.5 -19.5 52.5 -44.5 q20 -25 28.5 -56 q8.5 -31 8.5 -70 Z" /><glyph glyph-name="scedilla" unicode="&#x15f;" d="M395 147 q0 -64 -41.5 -104.5 q-41.5 -40.5 -115.5 -47.5 l-12 -36 q26 -3 43.5 -12 q17.5 -9 28 -21 q10.5 -12 15 -26 q4.5 -14 4.5 -26 q0 -15 -5.5 -30 q-5.5 -15 -18 -27 q-12.5 -12 -31.5 -19.5 q-19 -7.5 -46 -7.5 q-17 0 -45.5 3.5 q-28.5 3.5 -52.5 16.5 q5 12 9.5 24.5 q4.5 12.5 9.5 24.5 q21 -11 37 -13 q16 -2 30 -2 q17 0 28.5 9.5 q11.5 9.5 11.5 23.5 q0 17 -11.5 25.5 q-11.5 8.5 -29.5 8.5 q-8 0 -12 -1 q-7 5 -13.5 9.5 q-6.5 4.5 -13.5 9.5 l20 66 q-55 5 -93.5 28 q-38.5 23 -64.5 68 l82 60 q34 -59 102 -59 q34 0 53.5 15 q19.5 15 19.5 41 q0 27 -18.5 38 q-18.5 11 -51.5 19 q-35 8 -66.5 18.5 q-31.5 10.5 -55.5 27 q-24 16.5 -38.5 41.5 q-14.5 25 -14.5 61 q0 34 13.5 61.5 q13.5 27.5 36.5 46.5 q23 19 55 29 q32 10 69 10 q67 0 107.5 -22.5 q40.5 -22.5 65.5 -61.5 l-74 -64 q-33 51 -96 51 q-37 0 -51.5 -15.5 q-14.5 -15.5 -14.5 -33.5 q0 -12 7.5 -20.5 q7.5 -8.5 20.5 -14.5 q13 -6 29 -10.5 q16 -4.5 33 -8.5 q34 -8 63 -18.5 q29 -10.5 49.5 -28 q20.5 -17.5 32 -43.5 q11.5 -26 11.5 -63 Z" /><glyph glyph-name="Tcommaaccent" unicode="&#x162;" d="M271 592 l0 -592 l-114 0 l0 592 l-153 0 l0 104 l421 0 l0 -104 l-154 0 ZM156 -275 l32 99 l-29 0 l0 117 l116 0 l0 -114 l-62 -102 l-57 0 Z" /><glyph glyph-name="tcommaaccent" unicode="&#x163;" d="M196 0 q-62 0 -93 35 q-31 35 -31 86 l0 286 l-52 0 l0 88 l52 0 l0 130 l108 0 l0 -130 l68 0 l0 -88 l-68 0 l0 -253 q0 -26 11 -40.5 q11 -14.5 37 -14.5 l24 0 l0 -99 l-56 0 ZM79 -275 l32 99 l-29 0 l0 117 l116 0 l0 -114 l-62 -102 l-57 0 Z" /><glyph glyph-name="Tcaron" unicode="&#x164;" d="M271 592 l0 -592 l-114 0 l0 592 l-153 0 l0 104 l421 0 l0 -104 l-154 0 ZM349 901 l42 -44 l-137 -126 l-70 0 l-140 127 l41 43 l132 -80 l132 80 Z" /><glyph glyph-name="tcaron" unicode="&#x165;" d="M230 554 l32 99 l-29 0 l0 117 l116 0 l0 -114 l-62 -102 l-57 0 ZM196 0 q-62 0 -93 35 q-31 35 -31 86 l0 286 l-52 0 l0 88 l52 0 l0 130 l108 0 l0 -130 l68 0 l0 -88 l-68 0 l0 -253 q0 -26 11 -40.5 q11 -14.5 37 -14.5 l24 0 l0 -99 l-56 0 Z" /><glyph glyph-name="Tbar" unicode="&#x166;" d="M271 592 l0 -193 l125 0 l0 -80 l-125 0 l0 -319 l-114 0 l0 319 l-120 0 l0 80 l120 0 l0 193 l-153 0 l0 104 l421 0 l0 -104 l-154 0 Z" /><glyph glyph-name="tbar" unicode="&#x167;" d="M196 0 q-62 0 -93 35 q-31 35 -31 86 l0 129 l-52 0 l0 73 l52 0 l0 84 l-52 0 l0 88 l52 0 l0 130 l108 0 l0 -130 l68 0 l0 -88 l-68 0 l0 -84 l68 0 l0 -73 l-68 0 l0 -96 q0 -26 11 -40.5 q11 -14.5 37 -14.5 l24 0 l0 -99 l-56 0 Z" /><glyph glyph-name="Utilde" unicode="&#x168;" d="M482 696 l0 -485 q0 -50 -15.5 -90.5 q-15.5 -40.5 -44 -68.5 q-28.5 -28 -67.5 -43 q-39 -15 -86 -15 q-54 0 -94.5 17.5 q-40.5 17.5 -67 47.5 q-26.5 30 -40 70.5 q-13.5 40.5 -13.5 86.5 l0 480 l114 0 l0 -483 q0 -45 25.5 -77 q25.5 -32 75.5 -32 q42 0 69.5 27.5 q27.5 27.5 27.5 74.5 l0 490 l116 0 ZM206 866 q17 0 33 -6.5 q16 -6.5 31.5 -14.5 q15.5 -8 29.5 -14.5 q14 -6.5 26 -6.5 q15 0 28.5 10 q13.5 10 30.5 33 l56 -33 q-23 -49 -49.5 -71 q-26.5 -22 -56.5 -22 q-18 0 -34.5 6.5 q-16.5 6.5 -32 14 q-15.5 7.5 -30 14 q-14.5 6.5 -27.5 6.5 q-15 0 -29.5 -9 q-14.5 -9 -32.5 -32 q-14 8 -27 16 q-13 8 -27 16 q20 45 49 69 q29 24 62 24 Z" /><glyph glyph-name="utilde" unicode="&#x169;" d="M301 0 l0 46 q-1 0 -2 0.5 q-1 0.5 -2 0.5 q-19 -25 -47.5 -38.5 q-28.5 -13.5 -58.5 -13.5 q-68 0 -105 40 q-37 40 -37 110 l0 349 l110 0 l0 -318 q0 -37 20.5 -57 q20.5 -20 49.5 -20 q39 0 55.5 28.5 q16.5 28.5 16.5 76.5 l0 290 l110 0 l0 -494 l-110 0 ZM164 694 q17 0 33 -6.5 q16 -6.5 31.5 -14.5 q15.5 -8 29.5 -14.5 q14 -6.5 26 -6.5 q15 0 28.5 10 q13.5 10 30.5 33 l56 -33 q-23 -49 -49.5 -71 q-26.5 -22 -56.5 -22 q-18 0 -34.5 6.5 q-16.5 6.5 -32 14 q-15.5 7.5 -30 14 q-14.5 6.5 -27.5 6.5 q-15 0 -29.5 -9 q-14.5 -9 -32.5 -32 q-14 8 -27 16 q-13 8 -27 16 q20 45 49 69 q29 24 62 24 Z" /><glyph glyph-name="Umacron" unicode="&#x16a;" d="M482 696 l0 -485 q0 -50 -15.5 -90.5 q-15.5 -40.5 -44 -68.5 q-28.5 -28 -67.5 -43 q-39 -15 -86 -15 q-54 0 -94.5 17.5 q-40.5 17.5 -67 47.5 q-26.5 30 -40 70.5 q-13.5 40.5 -13.5 86.5 l0 480 l114 0 l0 -483 q0 -45 25.5 -77 q25.5 -32 75.5 -32 q42 0 69.5 27.5 q27.5 27.5 27.5 74.5 l0 490 l116 0 ZM135 757 l0 95 l270 0 l0 -95 l-270 0 Z" /><glyph glyph-name="umacron" unicode="&#x16b;" d="M301 0 l0 46 q-1 0 -2 0.5 q-1 0.5 -2 0.5 q-19 -25 -47.5 -38.5 q-28.5 -13.5 -58.5 -13.5 q-68 0 -105 40 q-37 40 -37 110 l0 349 l110 0 l0 -318 q0 -37 20.5 -57 q20.5 -20 49.5 -20 q39 0 55.5 28.5 q16.5 28.5 16.5 76.5 l0 290 l110 0 l0 -494 l-110 0 ZM97 580 l0 95 l271 0 l0 -95 l-271 0 Z" /><glyph glyph-name="Ubreve" unicode="&#x16c;" d="M482 696 l0 -485 q0 -50 -15.5 -90.5 q-15.5 -40.5 -44 -68.5 q-28.5 -28 -67.5 -43 q-39 -15 -86 -15 q-54 0 -94.5 17.5 q-40.5 17.5 -67 47.5 q-26.5 30 -40 70.5 q-13.5 40.5 -13.5 86.5 l0 480 l114 0 l0 -483 q0 -45 25.5 -77 q25.5 -32 75.5 -32 q42 0 69.5 27.5 q27.5 27.5 27.5 74.5 l0 490 l116 0 ZM274 725 q-42 0 -70.5 15 q-28.5 15 -46 37 q-17.5 22 -25.5 48 q-8 26 -9 48 l86 0 q1 -11 5.5 -22.5 q4.5 -11.5 13 -21.5 q8.5 -10 20 -16.5 q11.5 -6.5 26.5 -6.5 q16 0 28 6.5 q12 6.5 20 16.5 q8 10 12 21.5 q4 11.5 4 22.5 l85 0 q-2 -22 -10.5 -48 q-8.5 -26 -25.5 -48 q-17 -22 -45 -37 q-28 -15 -68 -15 Z" /><glyph glyph-name="ubreve" unicode="&#x16d;" d="M301 0 l0 46 q-1 0 -2 0.5 q-1 0.5 -2 0.5 q-19 -25 -47.5 -38.5 q-28.5 -13.5 -58.5 -13.5 q-68 0 -105 40 q-37 40 -37 110 l0 349 l110 0 l0 -318 q0 -37 20.5 -57 q20.5 -20 49.5 -20 q39 0 55.5 28.5 q16.5 28.5 16.5 76.5 l0 290 l110 0 l0 -494 l-110 0 ZM236 557 q-42 0 -70.5 15 q-28.5 15 -46 37 q-17.5 22 -25.5 48 q-8 26 -9 48 l86 0 q1 -11 5.5 -22.5 q4.5 -11.5 13 -21.5 q8.5 -10 20 -16.5 q11.5 -6.5 26.5 -6.5 q16 0 28 6.5 q12 6.5 20 16.5 q8 10 12 21.5 q4 11.5 4 22.5 l85 0 q-2 -22 -10.5 -48 q-8.5 -26 -25.5 -48 q-17 -22 -45 -37 q-28 -15 -68 -15 Z" /><glyph glyph-name="Uring" unicode="&#x16e;" d="M482 696 l0 -485 q0 -50 -15.5 -90.5 q-15.5 -40.5 -44 -68.5 q-28.5 -28 -67.5 -43 q-39 -15 -86 -15 q-54 0 -94.5 17.5 q-40.5 17.5 -67 47.5 q-26.5 30 -40 70.5 q-13.5 40.5 -13.5 86.5 l0 480 l114 0 l0 -483 q0 -45 25.5 -77 q25.5 -32 75.5 -32 q42 0 69.5 27.5 q27.5 27.5 27.5 74.5 l0 490 l116 0 ZM308 807 q0 17 -11.5 28 q-11.5 11 -28.5 11 q-17 0 -29 -11 q-12 -11 -12 -28 q0 -16 12 -27 q12 -11 29 -11 q17 0 28.5 11 q11.5 11 11.5 27 ZM167 807 q0 20 8 38 q8 18 21.5 31.5 q13.5 13.5 32 21 q18.5 7.5 39.5 7.5 q42 0 70.5 -28.5 q28.5 -28.5 28.5 -69.5 q0 -20 -7.5 -37.5 q-7.5 -17.5 -21 -30.5 q-13.5 -13 -31.5 -20.5 q-18 -7.5 -39 -7.5 q-21 0 -39.5 7.5 q-18.5 7.5 -32 20.5 q-13.5 13 -21.5 30.5 q-8 17.5 -8 37.5 Z" /><glyph glyph-name="uring" unicode="&#x16f;" d="M301 0 l0 46 q-1 0 -2 0.5 q-1 0.5 -2 0.5 q-19 -25 -47.5 -38.5 q-28.5 -13.5 -58.5 -13.5 q-68 0 -105 40 q-37 40 -37 110 l0 349 l110 0 l0 -318 q0 -37 20.5 -57 q20.5 -20 49.5 -20 q39 0 55.5 28.5 q16.5 28.5 16.5 76.5 l0 290 l110 0 l0 -494 l-110 0 ZM276 633 q0 17 -11.5 28 q-11.5 11 -28.5 11 q-17 0 -29 -11 q-12 -11 -12 -28 q0 -16 12 -27 q12 -11 29 -11 q17 0 28.5 11 q11.5 11 11.5 27 ZM135 633 q0 20 8 38 q8 18 21.5 31.5 q13.5 13.5 32 21 q18.5 7.5 39.5 7.5 q42 0 70.5 -28.5 q28.5 -28.5 28.5 -69.5 q0 -20 -7.5 -37.5 q-7.5 -17.5 -21 -30.5 q-13.5 -13 -31.5 -20.5 q-18 -7.5 -39 -7.5 q-21 0 -39.5 7.5 q-18.5 7.5 -32 20.5 q-13.5 13 -21.5 30.5 q-8 17.5 -8 37.5 Z" /><glyph glyph-name="Uhungarumlaut" unicode="&#x170;" d="M482 696 l0 -485 q0 -50 -15.5 -90.5 q-15.5 -40.5 -44 -68.5 q-28.5 -28 -67.5 -43 q-39 -15 -86 -15 q-54 0 -94.5 17.5 q-40.5 17.5 -67 47.5 q-26.5 30 -40 70.5 q-13.5 40.5 -13.5 86.5 l0 480 l114 0 l0 -483 q0 -45 25.5 -77 q25.5 -32 75.5 -32 q42 0 69.5 27.5 q27.5 27.5 27.5 74.5 l0 490 l116 0 ZM104 774 l152 132 l73 -72 l-179 -111 l-46 51 ZM292 775 l154 130 l71 -72 l-179 -109 l-46 51 Z" /><glyph glyph-name="uhungarumlaut" unicode="&#x171;" d="M301 0 l0 46 q-1 0 -2 0.5 q-1 0.5 -2 0.5 q-19 -25 -47.5 -38.5 q-28.5 -13.5 -58.5 -13.5 q-68 0 -105 40 q-37 40 -37 110 l0 349 l110 0 l0 -318 q0 -37 20.5 -57 q20.5 -20 49.5 -20 q39 0 55.5 28.5 q16.5 28.5 16.5 76.5 l0 290 l110 0 l0 -494 l-110 0 ZM101 578 l82 184 l98 -36 l-117 -176 l-63 28 ZM245 571 l82 184 l98 -37 l-117 -175 l-63 28 Z" /><glyph glyph-name="Uogonek" unicode="&#x172;" d="M198 -100 q0 20 8 43.5 q8 23.5 28 52.5 q-45 6 -79 25 q-34 19 -56.5 48 q-22.5 29 -33.5 67 q-11 38 -11 80 l0 480 l114 0 l0 -483 q0 -45 25.5 -77 q25.5 -32 75.5 -32 q42 0 69.5 27.5 q27.5 27.5 27.5 74.5 l0 490 l116 0 l0 -485 q0 -91 -48.5 -147 q-48.5 -56 -127.5 -67 q-16 -24 -24 -42.5 q-8 -18.5 -8 -33.5 q0 -23 9.5 -34.5 q9.5 -11.5 32.5 -11.5 q11 0 25 3.5 q14 3.5 33 11.5 l22 -57 q-22 -12 -47.5 -19.5 q-25.5 -7.5 -50.5 -7.5 q-44 0 -72 27 q-28 27 -28 67 Z" /><glyph glyph-name="uogonek" unicode="&#x173;" d="M262 -98 q0 20 9 45 q9 25 30 55 l0 44 q-1 0 -2 0.5 q-1 0.5 -2 0.5 q-19 -25 -47.5 -38.5 q-28.5 -13.5 -58.5 -13.5 q-68 0 -105 40 q-37 40 -37 110 l0 349 l110 0 l0 -318 q0 -37 20.5 -57 q20.5 -20 49.5 -20 q39 0 55.5 28.5 q16.5 28.5 16.5 76.5 l0 290 l110 0 l0 -494 l-40 0 q-33 -48 -33 -77 q0 -23 9.5 -34.5 q9.5 -11.5 32.5 -11.5 q11 0 25 3.5 q14 3.5 33 11.5 l22 -57 q-22 -12 -47.5 -19.5 q-25.5 -7.5 -50.5 -7.5 q-44 0 -72 27 q-28 27 -28 67 Z" /><glyph glyph-name="Wcircumflex" unicode="&#x174;" d="M571 0 l-102 0 q-17 75 -36 150.5 q-19 75.5 -36 151.5 l-33 145 l-3 0 q-8 -36 -16 -72 q-8 -36 -16 -72 q-17 -76 -36.5 -152 q-19.5 -76 -36.5 -151 l-102 0 l-143 695 l123 0 q12 -72 25 -142.5 q13 -70.5 25 -142.5 q8 -42 14 -84.5 q6 -42.5 13 -84.5 l4 0 q7 32 13.5 65 q6.5 33 14.5 65 q19 81 37 162 q18 81 37 162 l92 0 l75 -326 q7 -33 13.5 -65 q6.5 -32 14.5 -65 l4 0 l25 166 q15 89 26.5 157 q11.5 68 22.5 133 l123 0 l-142 -695 ZM360 808 l-132 -80 l-41 44 l141 127 l69 0 l137 -126 l-42 -45 l-132 80 Z" /><glyph glyph-name="wcircumflex" unicode="&#x175;" d="M642 495 q-33 -125 -66 -247.5 q-33 -122.5 -67 -247.5 l-107 0 l-30 115 l-46 185 l-3 0 q-11 -42 -21 -87 q-10 -45 -21 -85 q-11 -41 -18.5 -70.5 q-7.5 -29.5 -14.5 -57.5 l-108 0 q-33 125 -66 247.5 q-33 122.5 -67 247.5 l118 0 l32 -152 q9 -44 18 -87 q9 -43 20 -87 l4 0 q11 44 20.5 86 q9.5 42 20.5 87 q9 38 18 76.5 q9 38.5 17 76.5 l101 0 l31 -138 l46 -191 l4 0 q3 10 5.5 21 q2.5 11 6.5 30 q4 19 10 49 q6 30 16 77 q8 38 15 76 q7 38 16 76 l116 0 ZM322 635 q-5 -3 -23.5 -18 q-18.5 -15 -40.5 -32.5 q-22 -17.5 -41 -32 q-19 -14.5 -23 -17.5 l-45 40 l141 152 l71 0 l135 -150 l-46 -42 l-128 100 Z" /><glyph glyph-name="Ycircumflex" unicode="&#x176;" d="M241 404 q11 34 23 67 q12 33 24 67 l61 158 l121 0 l-176 -412 l0 -284 l-112 0 l0 284 l-176 413 l124 0 q15 -41 30.5 -81 q15.5 -40 29.5 -80 q11 -32 22.5 -66 q11.5 -34 22.5 -66 l6 0 ZM240 808 l-132 -80 l-41 44 l141 127 l69 0 l137 -126 l-42 -45 l-132 80 Z" /><glyph glyph-name="ycircumflex" unicode="&#x177;" d="M230 -93 q-17 -56 -53.5 -82 q-36.5 -26 -87.5 -26 l-37 0 l0 95 l26 0 q44 0 60 61 l18 64 l-155 476 l118 0 l48 -179 l39 -152 l4 0 l38 152 l48 179 l116 0 l-182 -588 ZM204 635 q-5 -3 -23.5 -18 q-18.5 -15 -40.5 -32.5 q-22 -17.5 -41 -32 q-19 -14.5 -23 -17.5 l-45 40 l141 152 l71 0 l135 -150 l-46 -42 l-128 100 Z" /><glyph glyph-name="Zacute" unicode="&#x179;" d="M26 0 l0 102 l253 490 l-242 0 l0 104 l372 0 l0 -97 l-253 -491 l253 0 l0 -108 l-383 0 ZM143 780 l159 124 l69 -80 l-185 -98 l-43 54 Z" /><glyph glyph-name="zacute" unicode="&#x17a;" d="M28 0 l0 96 l203 302 l-189 0 l0 97 l318 0 l0 -92 l-203 -301 l203 0 l0 -102 l-332 0 ZM153 571 l82 184 l98 -37 l-116 -175 l-64 28 Z" /><glyph glyph-name="Zdotaccent" unicode="&#x17b;" d="M26 0 l0 102 l253 490 l-242 0 l0 104 l372 0 l0 -97 l-253 -491 l253 0 l0 -108 l-383 0 ZM174 750 l0 108 l106 0 l0 -108 l-106 0 Z" /><glyph glyph-name="zdotaccent" unicode="&#x17c;" d="M28 0 l0 96 l203 302 l-189 0 l0 97 l318 0 l0 -92 l-203 -301 l203 0 l0 -102 l-332 0 ZM157 575 l0 108 l106 0 l0 -108 l-106 0 Z" /><glyph glyph-name="AEacute" unicode="&#x1fc;" d="M797 696 l0 -106 l-274 0 l0 -186 l235 0 l0 -104 l-235 0 l0 -191 l274 0 l0 -109 l-388 0 l0 171 l-189 0 q-6 -12 -17 -35.5 q-11 -23.5 -22.5 -50 q-11.5 -26.5 -22.5 -50 q-11 -23.5 -17 -35.5 l-124 0 q14 29 40 84 q26 55 57.5 122.5 q31.5 67.5 66 141.5 q34.5 74 66 141.5 q31.5 67.5 57.5 122.5 q26 55 40 84 l453 0 ZM406 589 q-11 -22 -30 -65.5 q-19 -43.5 -40.5 -91.5 q-21.5 -48 -41 -91.5 q-19.5 -43.5 -29.5 -65.5 l144 0 l0 314 l-3 0 ZM457 780 l159 124 l69 -80 l-185 -98 l-43 54 Z" /><glyph glyph-name="aeacute" unicode="&#x1fd;" d="M652 92 q-23 -50 -67 -73.5 q-44 -23.5 -99 -23.5 q-105 0 -150 63 q-23 -24 -46.5 -36.5 q-23.5 -12.5 -44.5 -18.5 q-21 -6 -38.5 -7 q-17.5 -1 -29.5 -1 q-73 0 -108 41 q-35 41 -35 107 q0 32 10 60 q10 28 31 48.5 q21 20.5 53 32.5 q32 12 76 12 l86 0 l0 40 q0 26 -18.5 43.5 q-18.5 17.5 -55.5 17.5 q-25 0 -49.5 -8 q-24.5 -8 -35.5 -32 q-21 12 -41.5 25 q-20.5 13 -40.5 26 q23 48 67.5 70 q44.5 22 101.5 22 q43 0 79.5 -9.5 q36.5 -9.5 59.5 -38.5 q40 49 121 49 q54 0 90 -18.5 q36 -18.5 57 -51 q21 -32.5 29.5 -77 q8.5 -44.5 8.5 -97.5 l0 -44 l-259 0 q0 -26 3 -47.5 q3 -21.5 11.5 -37 q8.5 -15.5 24 -24.5 q15.5 -9 39.5 -9 q50 0 79 47 l91 -50 ZM311 571 l82 184 l98 -37 l-116 -175 l-64 28 ZM290 212 l-79 0 q-34 0 -52.5 -15.5 q-18.5 -15.5 -18.5 -45.5 q0 -24 16.5 -41 q16.5 -17 54.5 -17 q33 0 56 16.5 q23 16.5 23 53.5 l0 49 ZM551 295 q0 47 -17 75.5 q-17 28.5 -57 28.5 q-20 0 -33.5 -8 q-13.5 -8 -22 -22 q-8.5 -14 -12 -33 q-3.5 -19 -4.5 -41 l146 0 Z" /><glyph glyph-name="Oslash" unicode="ø" d="M471 211 q0 -50 -15.5 -90 q-15.5 -40 -44 -68.5 q-28.5 -28.5 -67.5 -43.5 q-39 -15 -86 -15 q-47 0 -82 12 q-35 12 -61 34 l-28 -50 l-48 31 l37 67 q-17 29 -24.5 63 q-7.5 34 -7.5 72 l0 263 q0 37 11.5 75 q11.5 38 37 69 q25.5 31 66 51 q40.5 20 99.5 20 q42 0 75.5 -11.5 q33.5 -11.5 58.5 -31.5 l24 43 l50 -30 l-32 -57 q19 -29 28 -62 q9 -33 9 -66 l0 -275 ZM355 471 l-181 -324 q12 -20 32.5 -32 q20.5 -12 52.5 -12 q39 0 67.5 26.5 q28.5 26.5 28.5 72.5 l0 269 ZM258 591 q-29 0 -48.5 -10.5 q-19.5 -10.5 -31 -26 q-11.5 -15.5 -16.5 -33.5 q-5 -18 -5 -34 l1 -252 l176 319 q-11 16 -29.5 26.5 q-18.5 10.5 -46.5 10.5 Z" /><glyph glyph-name="oslash" unicode="ø" d="M228 502 q33 0 58 -7 q25 -7 45 -20 l21 35 l40 -22 l-27 -45 q6 -7 10.5 -14.5 q4.5 -7.5 9.5 -15.5 q14 -28 19 -73.5 q5 -45.5 5 -93.5 q0 -40 -5 -84 q-5 -44 -16 -71 q-11 -28 -28.5 -46.5 q-17.5 -18.5 -40 -30 q-22.5 -11.5 -48.5 -16.5 q-26 -5 -53 -5 q-32 0 -58 7 q-26 7 -46 20 l-18 -31 l-38 22 l23 40 q-3 4 -5.5 7.5 q-2.5 3.5 -4.5 7.5 q-18 29 -25.5 75 q-7.5 46 -7.5 104 q0 45 4.5 87.5 q4.5 42.5 15.5 68.5 q20 47 62 74 q42 27 108 27 ZM299 254 q0 20 -1 38 q-1 18 -3 33 l-124 -209 q18 -21 52 -21 q23 0 42 11.5 q19 11.5 27 45.5 q4 14 5.5 41 q1.5 27 1.5 61 ZM226 400 q-22 0 -40 -11 q-18 -11 -26 -34 q-7 -18 -9.5 -47.5 q-2.5 -29.5 -2.5 -67.5 q0 -20 0.5 -37.5 q0.5 -17.5 2.5 -33.5 l123 209 q-18 22 -48 22 Z" /><glyph glyph-name="Oslashacute" unicode="&#x1fe;" d="M471 211 q0 -50 -15.5 -90 q-15.5 -40 -44 -68.5 q-28.5 -28.5 -67.5 -43.5 q-39 -15 -86 -15 q-47 0 -82 12 q-35 12 -61 34 l-28 -50 l-48 31 l37 67 q-17 29 -24.5 63 q-7.5 34 -7.5 72 l0 263 q0 37 11.5 75 q11.5 38 37 69 q25.5 31 66 51 q40.5 20 99.5 20 q42 0 75.5 -11.5 q33.5 -11.5 58.5 -31.5 l24 43 l50 -30 l-32 -57 q19 -29 28 -62 q9 -33 9 -66 l0 -275 ZM355 471 l-181 -324 q12 -20 32.5 -32 q20.5 -12 52.5 -12 q39 0 67.5 26.5 q28.5 26.5 28.5 72.5 l0 269 ZM258 591 q-29 0 -48.5 -10.5 q-19.5 -10.5 -31 -26 q-11.5 -15.5 -16.5 -33.5 q-5 -18 -5 -34 l1 -252 l176 319 q-11 16 -29.5 26.5 q-18.5 10.5 -46.5 10.5 ZM173 780 l159 124 l69 -80 l-185 -98 l-43 54 Z" /><glyph glyph-name="oslashacute" unicode="&#x1ff;" d="M228 502 q33 0 58 -7 q25 -7 45 -20 l21 35 l40 -22 l-27 -45 q6 -7 10.5 -14.5 q4.5 -7.5 9.5 -15.5 q14 -28 19 -73.5 q5 -45.5 5 -93.5 q0 -40 -5 -84 q-5 -44 -16 -71 q-11 -28 -28.5 -46.5 q-17.5 -18.5 -40 -30 q-22.5 -11.5 -48.5 -16.5 q-26 -5 -53 -5 q-32 0 -58 7 q-26 7 -46 20 l-18 -31 l-38 22 l23 40 q-3 4 -5.5 7.5 q-2.5 3.5 -4.5 7.5 q-18 29 -25.5 75 q-7.5 46 -7.5 104 q0 45 4.5 87.5 q4.5 42.5 15.5 68.5 q20 47 62 74 q42 27 108 27 ZM172 571 l82 184 l98 -37 l-116 -175 l-64 28 ZM299 254 q0 20 -1 38 q-1 18 -3 33 l-124 -209 q18 -21 52 -21 q23 0 42 11.5 q19 11.5 27 45.5 q4 14 5.5 41 q1.5 27 1.5 61 ZM226 400 q-22 0 -40 -11 q-18 -11 -26 -34 q-7 -18 -9.5 -47.5 q-2.5 -29.5 -2.5 -67.5 q0 -20 0.5 -37.5 q0.5 -17.5 2.5 -33.5 l123 209 q-18 22 -48 22 Z" /><glyph glyph-name="paragraph" unicode="¶" d="M191 315 l-2 0 q-44 2 -74.5 19.5 q-30.5 17.5 -49.5 44 q-19 26.5 -27.5 59 q-8.5 32.5 -8.5 65.5 q0 32 8.5 67 q8.5 35 29.5 64.5 q21 29.5 56 48.5 q35 19 87 19 q26 0 51 0 q25 0 53.5 -0.5 q28.5 -0.5 63.5 -0.5 q35 0 81 0 l0 -80 l-40 0 l0 -696 l-82 0 l0 696 l-63 0 l0 -696 l-83 0 l0 390 Z" /><glyph glyph-name="cent" unicode="¢" d="M220 -107 l0 103 q-48 4 -80 24.5 q-32 20.5 -50.5 54 q-18.5 33.5 -26.5 78.5 q-8 45 -8 98 q0 52 9 95.5 q9 43.5 29 76 q20 32.5 51 52.5 q31 20 76 25 l0 91 l39 0 l0 -91 q53 -3 91.5 -30 q38.5 -27 57.5 -72 q-23 -13 -46 -25 q-23 -12 -46 -24 q-20 43 -57 48 l0 -301 q20 3 33.5 15.5 q13.5 12.5 23.5 31.5 l93 -47 q-19 -45 -58 -71 q-39 -26 -92 -29 l0 -103 l-39 0 ZM166 250 q0 -59 11 -98 q11 -39 43 -51 l0 293 q-34 -12 -44 -50.5 q-10 -38.5 -10 -93.5 Z" /><glyph glyph-name="currency" unicode="¤" d="M33 497 l62 63 l67 -67 q50 32 105 32 q56 0 106 -31 l66 67 q15 -17 30.5 -32 q15.5 -15 31.5 -31 l-67 -66 q15 -25 23.5 -50 q8.5 -25 8.5 -51 q0 -58 -32 -110 q17 -15 34 -32 q17 -17 33 -32 l-63 -64 q-17 17 -33 33.5 q-16 16.5 -32 33.5 q-52 -32 -107 -32 q-56 0 -106 32 l-66 -67 q-30 32 -62 62 l67 66 q-17 25 -23.5 51.5 q-6.5 26.5 -6.5 54.5 q0 51 31 104 l-67 66 ZM153 326 q0 -23 8.5 -43 q8.5 -20 23.5 -35 q15 -15 34.5 -24 q19.5 -9 41.5 -9 q25 0 46.5 8.5 q21.5 8.5 37.5 23.5 q16 15 25.5 35.5 q9.5 20.5 9.5 44.5 q0 24 -9 45 q-9 21 -24.5 36 q-15.5 15 -36 23.5 q-20.5 8.5 -44.5 8.5 q-23 0 -43.5 -9 q-20.5 -9 -36 -24 q-15.5 -15 -24.5 -36 q-9 -21 -9 -45 Z" /><glyph glyph-name="afii10023" unicode="&#x401;" d="M63 0 l0 696 l387 0 l0 -106 l-273 0 l0 -186 l235 0 l0 -104 l-235 0 l0 -191 l273 0 l0 -109 l-387 0 ZM292 742 l0 108 l106 0 l0 -108 l-106 0 ZM110 742 l0 108 l108 0 l0 -108 l-108 0 Z" /><glyph glyph-name="afii10051" unicode="&#x402;" d="M269 416 q27 25 64.5 39.5 q37.5 14.5 71.5 14.5 q47 0 79 -15.5 q32 -15.5 52 -45.5 q20 -30 28.5 -74 q8.5 -44 8.5 -100 q0 -63 -12 -110.5 q-12 -47.5 -39 -79 q-27 -31.5 -70 -46 q-43 -14.5 -105 -12.5 l0 91 q37 3 59 16 q22 13 33.5 33.5 q11.5 20.5 15 46.5 q3.5 26 3.5 56 q0 29 -3 54 q-3 25 -12.5 43 q-9.5 18 -26.5 28.5 q-17 10.5 -44 10.5 q-33 0 -61.5 -16 q-28.5 -16 -44.5 -38 l0 -312 l-114 0 l0 593 l-147 0 l0 102 l452 0 l0 -102 l-191 0 l0 -177 l3 0 Z" /><glyph glyph-name="afii10052" unicode="&#x403;" d="M177 590 l0 -590 l-114 0 l0 696 l383 0 l0 -106 l-269 0 ZM165 780 l159 124 l69 -80 l-185 -98 l-43 54 Z" /><glyph glyph-name="afii10053" unicode="&#x404;" d="M466 151 q-16 -74 -70 -115.5 q-54 -41.5 -135 -41.5 q-106 0 -160 60 q-54 60 -54 160 l0 274 q0 48 15 87.5 q15 39.5 42.5 67.5 q27.5 28 67 43 q39.5 15 89.5 15 q84 0 138 -42.5 q54 -42.5 68 -113.5 q-28 -8 -55 -17 q-27 -9 -54 -17 q-8 36 -31 57 q-23 21 -62 21 q-51 0 -77.5 -29.5 q-26.5 -29.5 -26.5 -71.5 l0 -85 l190 0 l0 -104 l-190 0 l0 -84 q0 -21 5 -41 q5 -20 17 -36 q12 -16 30.5 -26 q18.5 -10 45.5 -10 q40 0 65 22 q25 22 32 60 l110 -33 Z" /><glyph glyph-name="afii10054" unicode="&#x405;" d="M474 198 q0 -95 -58 -149.5 q-58 -54.5 -164 -54.5 q-84 0 -139 33.5 q-55 33.5 -86 86.5 l94 68 q23 -36 55 -57.5 q32 -21.5 78 -21.5 q55 0 77.5 26.5 q22.5 26.5 22.5 65.5 q0 24 -9 41 q-9 17 -25 29.5 q-16 12.5 -39 21.5 q-23 9 -50 17 q-50 16 -85 34 q-35 18 -57.5 41.5 q-22.5 23.5 -32.5 54 q-10 30.5 -10 69.5 q0 43 15 79.5 q15 36.5 43 63 q28 26.5 66.5 41 q38.5 14.5 86.5 14.5 q78 0 126.5 -26 q48.5 -26 77.5 -71 l-87 -73 q-23 32 -52 47 q-29 15 -67 15 q-45 0 -69 -24.5 q-24 -24.5 -24 -61.5 q0 -21 11 -36.5 q11 -15.5 30 -27.5 q19 -12 45 -21.5 q26 -9.5 55 -18.5 q49 -15 81.5 -34.5 q32.5 -19.5 52.5 -44.5 q20 -25 28.5 -56 q8.5 -31 8.5 -70 Z" /><glyph glyph-name="afii10055" unicode="&#x406;" d="M64 0 l0 696 l115 0 l0 -696 l-115 0 Z" /><glyph glyph-name="afii10056" unicode="&#x407;" d="M64 0 l0 696 l115 0 l0 -696 l-115 0 ZM157 754 l0 108 l107 0 l0 -108 l-107 0 ZM-24 754 l0 108 l106 0 l0 -108 l-106 0 Z" /><glyph glyph-name="afii10057" unicode="&#x408;" d="M359 190 q0 -52 -15.5 -89 q-15.5 -37 -42.5 -60.5 q-27 -23.5 -63 -34.5 q-36 -11 -76 -11 q-51 0 -93.5 18.5 q-42.5 18.5 -73.5 60.5 l80 73 q16 -23 39.5 -34 q23.5 -11 44.5 -11 q38 0 62 22.5 q24 22.5 24 68.5 l0 503 l114 0 l0 -506 Z" /><glyph glyph-name="afii10058" unicode="&#x409;" d="M115 696 l346 0 l0 -276 l104 0 q55 0 94 -15.5 q39 -15.5 64 -43 q25 -27.5 37 -65 q12 -37.5 12 -80.5 q0 -106 -56.5 -161 q-56.5 -55 -154.5 -55 l-215 0 l0 591 l-126 0 l0 -258 q0 -83 -9 -143 q-9 -60 -30 -101.5 q-21 -41.5 -56 -66.5 q-35 -25 -88 -37 l-31 90 q31 13 52 30 q21 17 34 44 q13 27 18 67.5 q5 40.5 5 100.5 l0 379 ZM657 213 q0 47 -22.5 74.5 q-22.5 27.5 -76.5 27.5 l-97 0 l0 -209 l97 0 q52 0 75.5 29.5 q23.5 29.5 23.5 77.5 Z" /><glyph glyph-name="afii10059" unicode="&#x40a;" d="M346 0 l0 309 l-171 0 l0 -309 l-115 0 l0 696 l115 0 l0 -281 l171 0 l0 281 l115 0 l0 -281 l100 0 q55 0 94.5 -14.5 q39.5 -14.5 65.5 -41 q26 -26.5 38.5 -63.5 q12.5 -37 12.5 -82 q0 -107 -56.5 -160.5 q-56.5 -53.5 -154.5 -53.5 l-215 0 ZM556 106 q53 0 77 28 q24 28 24 76 q0 47 -24 73 q-24 26 -78 26 l-95 0 l0 -203 l96 0 Z" /><glyph glyph-name="afii10060" unicode="&#x40b;" d="M457 0 l0 265 q0 21 -3 39.5 q-3 18.5 -12 32 q-9 13.5 -25 21.5 q-16 8 -42 8 q-29 0 -56.5 -14.5 q-27.5 -14.5 -47.5 -37.5 l0 -314 l-115 0 l0 593 l-147 0 l0 103 l459 0 l0 -103 l-197 0 l0 -173 l3 -2 q31 26 67 39.5 q36 13.5 71 13.5 q81 0 120.5 -45.5 q39.5 -45.5 39.5 -118.5 l0 -307 l-115 0 Z" /><glyph glyph-name="afii10145" unicode="&#x40f;" d="M483 696 l0 -696 l-158 0 l0 -152 l-103 0 l0 152 l-159 0 l0 696 l114 0 l0 -588 l192 0 l0 588 l114 0 Z" /><glyph glyph-name="afii10017" unicode="&#x410;" d="M359 150 l-193 0 q-2 -9 -8 -30 q-6 -21 -12.5 -45 q-6.5 -24 -12 -45 q-5.5 -21 -8.5 -30 l-119 0 l201 696 l110 0 l202 -696 l-121 0 l-39 150 ZM227 392 l-36 -140 l142 0 l-35 139 q-2 9 -6.5 30 q-4.5 21 -10 44 q-5.5 23 -10.5 43.5 q-5 20.5 -6 29.5 l-5 0 l-33 -146 Z" /><glyph glyph-name="afii10018" unicode="&#x411;" d="M172 106 l96 0 q53 0 76.5 28.5 q23.5 28.5 23.5 77.5 q0 47 -23.5 74.5 q-23.5 27.5 -77.5 27.5 l-95 0 l0 -208 ZM172 420 l100 0 q55 0 94.5 -15.5 q39.5 -15.5 65.5 -42.5 q26 -27 38.5 -64.5 q12.5 -37.5 12.5 -82.5 q0 -107 -56.5 -161 q-56.5 -54 -153.5 -54 l-216 0 l0 696 l370 0 l0 -106 l-255 0 l0 -170 Z" /><glyph glyph-name="afii10019" unicode="&#x412;" d="M484 206 q0 -100 -53.5 -153 q-53.5 -53 -143.5 -53 l-224 0 l0 696 l213 0 q99 0 148.5 -51 q49.5 -51 49.5 -139 q0 -44 -18.5 -81 q-18.5 -37 -66.5 -59 l0 -5 q25 -8 43 -23.5 q18 -15.5 29.5 -36.5 q11.5 -21 17 -45.5 q5.5 -24.5 5.5 -49.5 ZM362 502 q0 42 -22.5 66 q-22.5 24 -72.5 24 l-90 0 l0 -182 l91 0 q49 0 71.5 25.5 q22.5 25.5 22.5 66.5 ZM372 213 q0 44 -22 71 q-22 27 -73 27 l-100 0 l0 -202 l101 0 q27 0 45 8 q18 8 29 22.5 q11 14.5 15.5 33.5 q4.5 19 4.5 40 Z" /><glyph glyph-name="afii10020" unicode="&#x413;" d="M177 590 l0 -590 l-114 0 l0 696 l383 0 l0 -106 l-269 0 Z" /><glyph glyph-name="afii10021" unicode="&#x414;" d="M113 -143 l-99 0 l0 237 q13 2 25 4.5 q12 2.5 25 5.5 q22 19 34.5 44 q12.5 25 20 61.5 q7.5 36.5 10.5 86 q3 49.5 5 116.5 l10 284 l384 0 q0 -149 0.5 -297 q0.5 -148 0.5 -297 l55 0 l0 -245 l-99 0 l0 143 l-372 0 l0 -143 ZM416 102 l0 490 l-172 0 l-8 -209 q-2 -45 -4 -87 q-2 -42 -6.5 -78 q-4.5 -36 -12.5 -65.5 q-8 -29.5 -22 -50.5 l225 0 Z" /><glyph glyph-name="afii10022" unicode="&#x415;" d="M63 0 l0 696 l387 0 l0 -106 l-273 0 l0 -186 l235 0 l0 -104 l-235 0 l0 -191 l273 0 l0 -109 l-387 0 Z" /><glyph glyph-name="afii10025" unicode="&#x417;" d="M22 155 q9 3 23.5 7.5 q14.5 4.5 30.5 10 q16 5.5 30.5 10.5 q14.5 5 23.5 8 q8 -43 37 -66.5 q29 -23.5 69 -23.5 q45 0 70.5 29 q25.5 29 25.5 78 q0 22 -4.5 41 q-4.5 19 -15.5 33.5 q-11 14.5 -29 23 q-18 8.5 -45 8.5 l-54 0 l0 97 l55 0 q42 0 66 25 q24 25 24 72 q0 38 -23 61.5 q-23 23.5 -65 23.5 q-41 0 -67.5 -24 q-26.5 -24 -36.5 -62 l-105 38 q17 72 71.5 114.5 q54.5 42.5 139.5 42.5 q97 0 149 -47 q52 -47 52 -138 q0 -17 -3.5 -39 q-3.5 -22 -12 -43.5 q-8.5 -21.5 -24 -40 q-15.5 -18.5 -39.5 -28.5 l0 -4 q25 -10 41.5 -27.5 q16.5 -17.5 26.5 -39.5 q10 -22 13.5 -45.5 q3.5 -23.5 3.5 -45.5 q0 -52 -15.5 -91 q-15.5 -39 -44 -65.5 q-28.5 -26.5 -68 -40 q-39.5 -13.5 -87.5 -13.5 q-86 0 -142.5 42 q-56.5 42 -70.5 119 Z" /><glyph glyph-name="afii10026" unicode="&#x418;" d="M61 0 l0 696 l113 0 l0 -466 q1 0 1.5 -0.5 q0.5 -0.5 1.5 -0.5 q23 43 43.5 86 q20.5 43 41.5 86 q38 74 75 147 q37 73 74 148 l106 0 l0 -696 l-114 0 l0 454 l-2 0 q-17 -33 -34 -67 q-17 -34 -34 -67 l-164 -320 l-108 0 Z" /><glyph glyph-name="afii10029" unicode="&#x41b;" d="M223 332 q0 -83 -8.5 -143.5 q-8.5 -60.5 -30 -102 q-21.5 -41.5 -57.5 -66 q-36 -24.5 -90 -35.5 l-31 89 q32 13 53.5 30.5 q21.5 17.5 34.5 44.5 q13 27 18.5 67 q5.5 40 5.5 100 l0 380 l376 0 l0 -696 l-113 0 l0 590 l-158 0 l0 -258 Z" /><glyph glyph-name="afii10030" unicode="&#x41c;" d="M499 0 l0 407 l-4 0 l-51 -130 l-66 -152 l-81 0 l-68 157 l-50 126 l-4 -1 l0 -407 l-114 0 l0 696 l109 0 l98 -228 l68 -168 l4 0 l67 169 l96 227 l110 0 l0 -696 l-114 0 Z" /><glyph glyph-name="afii10031" unicode="&#x41d;" d="M373 0 l0 301 l-196 0 l0 -301 l-115 0 l0 696 l115 0 l0 -292 l196 0 l0 292 l114 0 l0 -696 l-114 0 Z" /><glyph glyph-name="afii10032" unicode="&#x41e;" d="M471 211 q0 -50 -15.5 -90 q-15.5 -40 -44 -68.5 q-28.5 -28.5 -67.5 -43.5 q-39 -15 -86 -15 q-57 0 -98 18.5 q-41 18.5 -66.5 50 q-25.5 31.5 -37.5 73 q-12 41.5 -12 87.5 l0 263 q0 37 11.5 75 q11.5 38 37 69 q25.5 31 66 51 q40.5 20 99.5 20 q55 0 95 -19 q40 -19 66.5 -49.5 q26.5 -30.5 39 -69 q12.5 -38.5 12.5 -77.5 l0 -275 ZM355 488 q0 13 -4.5 30.5 q-4.5 17.5 -15.5 33.5 q-11 16 -29.5 27.5 q-18.5 11.5 -47.5 11.5 q-29 0 -48.5 -10.5 q-19.5 -10.5 -31 -26 q-11.5 -15.5 -16.5 -33.5 q-5 -18 -5 -34 l1 -266 q0 -50 23 -84 q23 -34 78 -34 q39 0 67.5 26.5 q28.5 26.5 28.5 72.5 l0 286 Z" /><glyph glyph-name="afii10033" unicode="&#x41f;" d="M366 0 l0 591 l-189 0 l0 -591 l-114 0 l0 696 l417 0 l0 -696 l-114 0 Z" /><glyph glyph-name="afii10034" unicode="&#x420;" d="M486 481 q0 -45 -13 -84 q-13 -39 -38.5 -68 q-25.5 -29 -64.5 -45.5 q-39 -16.5 -91 -16.5 l-102 0 l0 -267 l-114 0 l0 696 l210 0 q49 0 88 -13 q39 -13 67 -39.5 q28 -26.5 43 -67 q15 -40.5 15 -95.5 ZM373 483 q0 52 -25 79.5 q-25 27.5 -76 27.5 l-95 0 l0 -216 l96 0 q51 0 75.5 29.5 q24.5 29.5 24.5 79.5 Z" /><glyph glyph-name="afii10035" unicode="&#x421;" d="M466 148 q-17 -73 -72 -113.5 q-55 -40.5 -133 -40.5 q-54 0 -94 17 q-40 17 -67 47 q-27 30 -40 70.5 q-13 40.5 -13 87.5 l0 270 q0 41 13 80 q13 39 39.5 69 q26.5 30 66.5 48 q40 18 95 18 q84 0 136.5 -44 q52.5 -44 69.5 -110 l-109 -36 q-3 15 -10 29 q-7 14 -19 25.5 q-12 11.5 -29 18.5 q-17 7 -39 7 q-26 0 -44.5 -9 q-18.5 -9 -30.5 -23.5 q-12 -14.5 -18 -32.5 q-6 -18 -6 -36 l0 -277 q0 -22 6 -42 q6 -20 18.5 -35 q12.5 -15 31 -23.5 q18.5 -8.5 43.5 -8.5 q37 0 63 21 q26 21 33 58 l109 -35 Z" /><glyph glyph-name="afii10036" unicode="&#x422;" d="M271 592 l0 -592 l-114 0 l0 592 l-153 0 l0 104 l421 0 l0 -104 l-154 0 Z" /><glyph glyph-name="afii10037" unicode="&#x423;" d="M469 695 q-44 -138 -86 -274.5 q-42 -136.5 -87 -274.5 q-16 -49 -34 -78.5 q-18 -29.5 -38 -45 q-20 -15.5 -43 -20.5 q-23 -5 -50 -6 l-56 0 l0 94 l41 0 q21 0 36.5 11 q15.5 11 29.5 43 q2 6 5 12.5 q3 6.5 5 14.5 l-181 524 l118 0 l66 -215 l50 -164 l5 0 q8 28 22.5 79 q14.5 51 30.5 107.5 q16 56.5 31 109 q15 52.5 23 83.5 l112 0 l0 0 Z" /><glyph glyph-name="afii10038" unicode="&#x424;" d="M272 58 q-68 6 -112 29 q-44 23 -70 61.5 q-26 38.5 -36.5 91.5 q-10.5 53 -10.5 119 q0 62 11.5 114.5 q11.5 52.5 38.5 92 q27 39.5 71 63.5 q44 24 108 30 l0 37 l111 0 l0 -37 q64 -6 108 -29.5 q44 -23.5 71 -61.5 q27 -38 39 -90 q12 -52 12 -116 q0 -66 -11 -119.5 q-11 -53.5 -37 -92.5 q-26 -39 -70.5 -62.5 q-44.5 -23.5 -111.5 -29.5 l0 -58 l-111 0 l0 58 ZM271 555 q-65 -5 -90 -57 q-25 -52 -25 -136 q0 -47 5.5 -83.5 q5.5 -36.5 18.5 -62 q13 -25.5 35.5 -39.5 q22.5 -14 55.5 -17 l0 395 ZM384 160 q67 5 91.5 55.5 q24.5 50.5 24.5 147.5 q0 85 -25.5 136 q-25.5 51 -90.5 56 l0 -395 Z" /><glyph glyph-name="afii10039" unicode="&#x425;" d="M131 0 l-129 0 q8 15 22.5 43.5 q14.5 28.5 32.5 63.5 q18 35 37.5 73 q19.5 38 37 73 q17.5 35 32 63.5 q14.5 28.5 22.5 43.5 l-172 336 l130 0 l102 -225 l104 225 l129 0 l-173 -336 l185 -360 l-128 0 l-116 247 l-116 -247 Z" /><glyph glyph-name="afii10040" unicode="&#x426;" d="M451 0 l-389 0 l0 696 l115 0 l0 -590 l194 0 l0 590 l114 0 l0 -591 l64 0 l0 -249 l-98 0 l0 144 Z" /><glyph glyph-name="afii10041" unicode="&#x427;" d="M160 696 l0 -198 q0 -74 22.5 -103.5 q22.5 -29.5 73.5 -29.5 q20 0 46.5 6.5 q26.5 6.5 49.5 20.5 l0 304 l114 0 l0 -696 l-114 0 l0 293 q-26 -13 -58.5 -19.5 q-32.5 -6.5 -64.5 -6.5 q-90 0 -136 51 q-46 51 -46 168 l0 210 l113 0 Z" /><glyph glyph-name="afii10042" unicode="&#x428;" d="M720 696 l0 -696 l-659 0 l0 696 l115 0 l0 -590 l157 0 l0 590 l115 0 l0 -590 l159 0 l0 590 l113 0 Z" /><glyph glyph-name="afii10043" unicode="&#x429;" d="M685 0 l-625 0 l0 696 l115 0 l0 -590 l157 0 l0 590 l115 0 l0 -590 l159 0 l0 590 l114 0 l0 -591 l64 0 l0 -249 l-99 0 l0 144 Z" /><glyph glyph-name="afii10044" unicode="&#x42a;" d="M191 0 l0 590 l-179 0 l0 106 l293 0 l0 -275 l102 0 q55 0 94.5 -15.5 q39.5 -15.5 65 -42.5 q25.5 -27 37.5 -65 q12 -38 12 -83 q0 -106 -56 -160.5 q-56 -54.5 -154 -54.5 l-215 0 ZM502 212 q0 48 -23.5 75 q-23.5 27 -77.5 27 l-96 0 l0 -208 l97 0 q52 0 76 29 q24 29 24 77 Z" /><glyph glyph-name="afii10045" unicode="&#x42b;" d="M64 0 l0 696 l114 0 l0 -276 l102 0 q55 0 94.5 -15 q39.5 -15 65 -42.5 q25.5 -27.5 37.5 -65 q12 -37.5 12 -82.5 q0 -107 -56 -161 q-56 -54 -154 -54 l-215 0 ZM275 106 q52 0 76 28.5 q24 28.5 24 77.5 q0 47 -23.5 74.5 q-23.5 27.5 -77.5 27.5 l-96 0 l0 -208 l97 0 ZM548 0 l0 696 l114 0 l0 -696 l-114 0 Z" /><glyph glyph-name="afii10046" unicode="&#x42c;" d="M488 215 q0 -106 -56.5 -160.5 q-56.5 -54.5 -154.5 -54.5 l-215 0 l0 696 l115 0 l0 -275 l100 0 q55 0 94.5 -15.5 q39.5 -15.5 65.5 -42.5 q26 -27 38.5 -65 q12.5 -38 12.5 -83 ZM373 212 q0 48 -23.5 75 q-23.5 27 -77.5 27 l-96 0 l0 -208 l97 0 q52 0 76 29 q24 29 24 77 Z" /><glyph glyph-name="afii10047" unicode="&#x42d;" d="M152 408 l177 0 l0 76 q0 20 -3.5 39.5 q-3.5 19.5 -14 35 q-10.5 15.5 -29 25 q-18.5 9.5 -47.5 9.5 q-22 0 -39 -7.5 q-17 -7.5 -29.5 -19.5 q-12.5 -12 -20.5 -27.5 q-8 -15.5 -11 -31.5 l-108 35 q8 34 25 63 q17 29 43.5 50.5 q26.5 21.5 61.5 33.5 q35 12 79 12 q62 0 102 -19.5 q40 -19.5 63.5 -51 q23.5 -31.5 33 -71.5 q9.5 -40 9.5 -80 l0 -261 q0 -47 -12.5 -87.5 q-12.5 -40.5 -38.5 -71 q-26 -30.5 -66.5 -48 q-40.5 -17.5 -95.5 -17.5 q-81 0 -135 41.5 q-54 41.5 -70 116.5 l110 34 q7 -39 32.5 -62 q25.5 -23 62.5 -23 q28 0 47 10 q19 10 30 26.5 q11 16.5 16 38 q5 21.5 5 43.5 l0 85 l-177 0 l0 104 Z" /><glyph glyph-name="afii10048" unicode="&#x42e;" d="M447 701 q54 0 92.5 -16 q38.5 -16 63 -44.5 q24.5 -28.5 36.5 -67 q12 -38.5 12 -83.5 l0 -284 q0 -102 -55 -157 q-55 -55 -150 -55 q-54 0 -92.5 16.5 q-38.5 16.5 -63 45.5 q-24.5 29 -36 69 q-11.5 40 -11.5 87 l0 89 l-72 0 l0 -301 l-114 0 l0 696 l114 0 l0 -292 l72 0 l0 86 q0 42 12 80.5 q12 38.5 36.5 67.5 q24.5 29 63 46 q38.5 17 92.5 17 ZM446 592 q-26 0 -43.5 -8.5 q-17.5 -8.5 -28 -23 q-10.5 -14.5 -15.5 -32 q-5 -17.5 -5 -35.5 l1 -284 q0 -48 21 -78 q21 -30 71 -30 q40 0 65 24.5 q25 24.5 25 72.5 l0 295 q0 16 -4.5 34 q-4.5 18 -15 32 q-10.5 14 -28 23.5 q-17.5 9.5 -43.5 9.5 Z" /><glyph glyph-name="afii10065" unicode="&#x430;" d="M290 0 l0 38 l-4 2 q-18 -24 -48 -34.5 q-30 -10.5 -61 -10.5 q-73 0 -108 41 q-35 41 -35 108 q0 32 10 59.5 q10 27.5 31 48 q21 20.5 53 32.5 q32 12 76 12 l86 0 l0 45 q0 25 -17 42.5 q-17 17.5 -56 17.5 q-27 0 -50 -9.5 q-23 -9.5 -36 -34.5 q-4 2 -16 9.5 q-12 7.5 -25.5 15.5 q-13.5 8 -25 15.5 q-11.5 7.5 -15.5 10.5 q23 48 68 70 q45 22 102 22 q39 0 72 -7.5 q33 -7.5 57.5 -25.5 q24.5 -18 38.5 -47.5 q14 -29.5 14 -73.5 l0 -346 l-111 0 ZM290 212 l-79 0 q-33 0 -51.5 -15.5 q-18.5 -15.5 -18.5 -45.5 q0 -23 16.5 -40 q16.5 -17 54.5 -17 q32 0 55 16.5 q23 16.5 23 53.5 l0 48 Z" /><glyph glyph-name="afii10070" unicode="&#x435;" d="M305 145 q23 -12 45.5 -24 q22.5 -12 45.5 -25 q-23 -50 -68 -75.5 q-45 -25.5 -100 -25.5 q-105 0 -148.5 62 q-43.5 62 -43.5 190 q0 53 8.5 99 q8.5 46 30 80.5 q21.5 34.5 57.5 54.5 q36 20 91 20 q51 0 86 -17 q35 -17 57 -47 q22 -30 31.5 -71 q9.5 -41 9.5 -90 l0 -58 l-259 0 q0 -24 3 -46.5 q3 -22.5 12 -39.5 q9 -17 24 -27 q15 -10 39 -10 q24 0 44 13.5 q20 13.5 35 36.5 ZM294 295 q0 47 -16.5 75.5 q-16.5 28.5 -56.5 28.5 q-40 0 -55 -30 q-15 -30 -17 -74 l145 0 Z" /><glyph glyph-name="afii10080" unicode="&#x43e;" d="M228 502 q64 0 101 -25.5 q37 -25.5 56 -63.5 q14 -28 19 -73.5 q5 -45.5 5 -93.5 q0 -40 -5 -84 q-5 -44 -16 -71 q-11 -28 -28.5 -46.5 q-17.5 -18.5 -40 -30 q-22.5 -11.5 -48.5 -16.5 q-26 -5 -53 -5 q-54 0 -90.5 20 q-36.5 20 -56.5 53 q-18 29 -25.5 75 q-7.5 46 -7.5 104 q0 45 4.5 87.5 q4.5 42.5 15.5 68.5 q20 47 62 74 q42 27 108 27 ZM226 400 q-22 0 -40 -11 q-18 -11 -26 -34 q-7 -18 -9.5 -47.5 q-2.5 -29.5 -2.5 -67.5 q0 -29 1.5 -55 q1.5 -26 8.5 -45 q17 -45 65 -45 q23 0 42 11.5 q19 11.5 27 45.5 q4 14 5.5 41 q1.5 27 1.5 61 q0 30 -2 55.5 q-2 25.5 -8 42.5 q-17 48 -63 48 Z" /><glyph glyph-name="afii10081" unicode="&#x43f;" d="M305 0 l0 405 l-141 0 l0 -405 l-110 0 l0 496 l362 0 l0 -496 l-111 0 Z" /><glyph glyph-name="afii10082" unicode="&#x440;" d="M159 453 q19 25 45.5 36 q26.5 11 54.5 11 q52 0 82 -22.5 q30 -22.5 46 -59 q16 -36.5 20.5 -82 q4.5 -45.5 4.5 -90.5 q0 -45 -5.5 -90 q-5.5 -45 -22 -81 q-16.5 -36 -47.5 -58 q-31 -22 -82 -22 q-25 0 -51.5 11 q-26.5 11 -44.5 34 q-1 0 -1.5 -0.5 q-0.5 -0.5 -1.5 -0.5 l0 -239 l-110 0 l0 695 l110 0 l0 -41 q1 0 1.5 -0.5 q0.5 -0.5 1.5 -0.5 ZM227 100 q24 0 38.5 12.5 q14.5 12.5 22 33.5 q7.5 21 10 47 q2.5 26 2.5 53 q0 31 -2.5 58.5 q-2.5 27.5 -10 48 q-7.5 20.5 -21.5 32 q-14 11.5 -38 11.5 q-26 0 -40.5 -13 q-14.5 -13 -21.5 -35 q-7 -22 -8.5 -49.5 q-1.5 -27.5 -1.5 -56.5 q0 -24 2 -49 q2 -25 9 -45.5 q7 -20.5 21 -34 q14 -13.5 39 -13.5 Z" /><glyph glyph-name="afii10083" unicode="&#x441;" d="M220 501 q58 0 101 -27 q43 -27 63 -76 q-4 -3 -17.5 -10 q-13.5 -7 -29 -14.5 q-15.5 -7.5 -29 -14.5 q-13.5 -7 -17.5 -10 q-22 49 -67 49 q-26 0 -42.5 -11 q-16.5 -11 -25.5 -30.5 q-9 -19.5 -12 -47 q-3 -27.5 -3 -59.5 q0 -33 3.5 -61.5 q3.5 -28.5 12.5 -48.5 q9 -20 25 -31.5 q16 -11.5 41 -11.5 q24 0 40.5 13 q16.5 13 27.5 34 q4 -3 17.5 -9.5 q13.5 -6.5 29 -14.5 q15.5 -8 29 -14.5 q13.5 -6.5 18.5 -9.5 q-20 -48 -63 -74.5 q-43 -26.5 -101 -26.5 q-56 0 -93 19 q-37 19 -58.5 52.5 q-21.5 33.5 -30.5 80.5 q-9 47 -9 104 q0 55 10.5 101 q10.5 46 33 79 q22.5 33 58.5 51.5 q36 18.5 88 18.5 Z" /><glyph glyph-name="afii10085" unicode="&#x443;" d="M230 -93 q-17 -56 -53.5 -82 q-36.5 -26 -87.5 -26 l-37 0 l0 95 l26 0 q44 0 60 61 l18 64 l-155 476 l118 0 l48 -179 l39 -152 l4 0 l38 152 l48 179 l116 0 l-182 -588 Z" /><glyph glyph-name="afii10087" unicode="&#x445;" d="M298 0 l-83 166 l-83 -166 l-126 0 l149 253 q-36 60 -71.5 120.5 q-35.5 60.5 -71.5 121.5 l127 0 l76 -158 l1 0 l76 158 l125 0 l-143 -243 l150 -252 l-126 0 Z" /><glyph glyph-name="afii10071" unicode="&#x451;" d="M305 145 q23 -12 45.5 -24 q22.5 -12 45.5 -25 q-23 -50 -68 -75.5 q-45 -25.5 -100 -25.5 q-105 0 -148.5 62 q-43.5 62 -43.5 190 q0 53 8.5 99 q8.5 46 30 80.5 q21.5 34.5 57.5 54.5 q36 20 91 20 q51 0 86 -17 q35 -17 57 -47 q22 -30 31.5 -71 q9.5 -41 9.5 -90 l0 -58 l-259 0 q0 -24 3 -46.5 q3 -22.5 12 -39.5 q9 -17 24 -27 q15 -10 39 -10 q24 0 44 13.5 q20 13.5 35 36.5 ZM294 295 q0 47 -16.5 75.5 q-16.5 28.5 -56.5 28.5 q-40 0 -55 -30 q-15 -30 -17 -74 l145 0 ZM262 582 l0 108 l107 0 l0 -108 l-107 0 ZM81 582 l0 108 l106 0 l0 -108 l-106 0 Z" /><glyph glyph-name="afii10102" unicode="&#x455;" d="M395 147 q0 -69 -49 -111 q-49 -42 -135 -42 q-66 0 -111 23.5 q-45 23.5 -74 73.5 l82 60 q34 -59 102 -59 q34 0 53.5 15 q19.5 15 19.5 41 q0 27 -18.5 38 q-18.5 11 -51.5 19 q-35 8 -66.5 18.5 q-31.5 10.5 -55.5 27 q-24 16.5 -38.5 41.5 q-14.5 25 -14.5 61 q0 34 13.5 61.5 q13.5 27.5 36.5 46.5 q23 19 55 29 q32 10 69 10 q67 0 107.5 -22.5 q40.5 -22.5 65.5 -61.5 l-74 -64 q-33 51 -96 51 q-37 0 -51.5 -15.5 q-14.5 -15.5 -14.5 -33.5 q0 -12 7.5 -20.5 q7.5 -8.5 20.5 -14.5 q13 -6 29 -10.5 q16 -4.5 33 -8.5 q34 -8 63 -18.5 q29 -10.5 49.5 -28 q20.5 -17.5 32 -43.5 q11.5 -26 11.5 -63 Z" /><glyph glyph-name="afii10103" unicode="&#x456;" d="M57 592 l0 104 l111 0 l0 -104 l-111 0 ZM57 0 l0 495 l111 0 l0 -495 l-111 0 Z" /><glyph glyph-name="afii10104" unicode="&#x457;" d="M151 575 l0 108 l107 0 l0 -108 l-107 0 ZM-30 575 l0 108 l106 0 l0 -108 l-106 0 ZM57 0 l0 495 l111 0 l0 -495 l-111 0 Z" /><glyph glyph-name="afii10105" unicode="&#x458;" d="M173 -58 q0 -66 -40.5 -104.5 q-40.5 -38.5 -112.5 -38.5 l-31 0 l0 100 l22 0 q29 1 40 20.5 q11 19.5 11 49.5 l0 527 l111 0 l0 -554 ZM62 592 l0 104 l111 0 l0 -104 l-111 0 Z" /><glyph glyph-name="afii10110" unicode="&#x45e;" d="M230 -93 q-17 -56 -53.5 -82 q-36.5 -26 -87.5 -26 l-37 0 l0 95 l26 0 q44 0 60 61 l18 64 l-155 476 l118 0 l48 -179 l39 -152 l4 0 l38 152 l48 179 l116 0 l-182 -588 ZM217 557 q-42 0 -70.5 15 q-28.5 15 -46 37 q-17.5 22 -25.5 48 q-8 26 -9 48 l86 0 q1 -11 5.5 -22.5 q4.5 -11.5 13 -21.5 q8.5 -10 20 -16.5 q11.5 -6.5 26.5 -6.5 q16 0 28 6.5 q12 6.5 20 16.5 q8 10 12 21.5 q4 11.5 4 22.5 l85 0 q-2 -22 -10.5 -48 q-8.5 -26 -25.5 -48 q-17 -22 -45 -37 q-28 -15 -68 -15 Z" /><glyph glyph-name="afii10050" unicode="&#x490;" d="M177 590 l0 -590 l-114 0 l0 696 l287 0 l0 118 l96 0 l0 -224 l-269 0 Z" /><glyph glyph-name="afii10067" unicode="&#x432;" d="M410 151 q0 -38 -13 -66.5 q-13 -28.5 -35.5 -47 q-22.5 -18.5 -54 -28 q-31.5 -9.5 -68.5 -9.5 l-190 0 l0 495 l187 0 q85 0 125.5 -37 q40.5 -37 40.5 -101 q0 -31 -13.5 -58 q-13.5 -27 -45.5 -41 q36 -14 51.5 -44 q15.5 -30 15.5 -63 ZM158 215 l0 -119 l71 0 q32 0 51.5 15.5 q19.5 15.5 19.5 46.5 q0 26 -16.5 41.5 q-16.5 15.5 -51.5 15.5 l-74 0 ZM158 403 l0 -107 l66 0 q31 0 49.5 11.5 q18.5 11.5 18.5 42.5 q0 27 -18.5 40 q-18.5 13 -49.5 13 l-66 0 Z" /><glyph glyph-name="afii10068" unicode="&#x433;" d="M158 398 l0 -398 l-109 0 l0 495 l330 0 l0 -97 l-221 0 Z" /><glyph glyph-name="afii10069" unicode="&#x434;" d="M113 -131 l-96 0 l0 220 l46 9 q14 15 23 28.5 q9 13.5 14.5 32.5 q5.5 19 9 46 q3.5 27 6.5 68 q3 56 6 111 q3 55 5 111 l322 0 l0 -398 l50 0 l0 -228 l-96 0 l0 131 l-290 0 l0 -131 ZM340 398 l-118 0 l-5 -118 q-3 -63 -11.5 -111 q-8.5 -48 -22.5 -72 l157 0 l0 301 Z" /><glyph glyph-name="afii10074" unicode="&#x438;" d="M334 291 l-53 -87 l-127 -204 l-101 0 l0 494 l109 0 l0 -307 l2 0 q13 22 25.5 43.5 q12.5 21.5 26.5 43.5 q32 56 65 110.5 q33 54.5 65 109.5 l101 0 l0 -494 l-110 0 l0 291 l-3 0 Z" /><glyph glyph-name="afii10077" unicode="&#x43b;" d="M8 70 q28 12 45.5 24.5 q17.5 12.5 27 34 q9.5 21.5 12.5 55.5 q3 34 3 88 l0 223 l322 0 l0 -495 l-110 0 l0 398 l-111 0 l0 -117 q0 -76 -8 -128.5 q-8 -52.5 -27 -86.5 q-19 -34 -50 -52.5 q-31 -18.5 -77 -26.5 l-27 83 Z" /><glyph glyph-name="afii10078" unicode="&#x43c;" d="M286 227 l57 119 l75 149 l102 0 l0 -495 l-110 0 l0 267 l-1 0 l-34 -72 l-53 -109 l-74 0 l-49 98 q-3 6 -14 30.5 q-11 24.5 -25 50.5 l-1 0 l0 -265 l-110 0 l0 495 l102 0 q5 -10 15.5 -31 q10.5 -21 22 -44 q11.5 -23 22 -44 q10.5 -21 15.5 -31 q4 -8 12 -24.5 q8 -16.5 17 -34.5 q9 -18 17 -34.5 q8 -16.5 13 -24.5 l1 0 Z" /><glyph glyph-name="afii10079" unicode="&#x43d;" d="M304 0 l0 207 l-146 0 l0 -207 l-109 0 l0 495 l109 0 l0 -201 l146 0 l0 201 l109 0 l0 -495 l-109 0 Z" /><glyph glyph-name="afii10084" unicode="&#x442;" d="M236 403 l0 -403 l-108 0 l0 403 l-125 0 l0 92 l360 0 l0 -92 l-127 0 Z" /><glyph glyph-name="afii10086" unicode="&#x444;" d="M236 -7 q-57 3 -98.5 22 q-41.5 19 -64.5 54 q-20 30 -27.5 72.5 q-7.5 42.5 -7.5 96.5 q0 45 4.5 85 q4.5 40 17.5 69 q20 48 66.5 77 q46.5 29 109.5 31 l0 208 l107 0 q0 -52 0.5 -103.5 q0.5 -51.5 0.5 -104.5 q65 -2 107.5 -27.5 q42.5 -25.5 63.5 -68.5 q16 -32 21.5 -72.5 q5.5 -40.5 5.5 -86.5 q0 -57 -9 -100.5 q-9 -43.5 -30 -74.5 q-26 -38 -67 -55.5 q-41 -17.5 -92 -21.5 l0 -187 l-108 0 l0 187 ZM236 398 q-26 -3 -46 -15.5 q-20 -12.5 -30 -37.5 q-7 -17 -9.5 -45 q-2.5 -28 -2.5 -63 q0 -29 2.5 -54 q2.5 -25 9.5 -42 q20 -46 76 -48 l0 305 ZM343 93 q61 3 79 57 q6 17 7.5 39.5 q1.5 22.5 1.5 48.5 q0 36 -1.5 64.5 q-1.5 28.5 -8.5 45.5 q-9 26 -29.5 37 q-20.5 11 -48.5 13 l0 -305 Z" /><glyph glyph-name="afii10088" unicode="&#x446;" d="M416 495 l0 -395 l59 0 l0 -231 l-96 0 l0 131 l-327 0 l0 495 l110 0 l0 -395 l144 0 l0 395 l110 0 Z" /><glyph glyph-name="afii10089" unicode="&#x447;" d="M283 202 q-26 -13 -57.5 -20 q-31.5 -7 -54.5 -7 q-72 0 -106 39 q-34 39 -34 124 l0 157 l111 0 l0 -155 q0 -36 15.5 -51.5 q15.5 -15.5 47.5 -15.5 q15 0 37 5.5 q22 5.5 41 16.5 l0 200 l109 0 l0 -495 l-109 0 l0 202 Z" /><glyph glyph-name="afii10090" unicode="&#x448;" d="M635 495 l0 -495 l-582 0 l0 495 l109 0 l0 -394 l127 0 l0 394 l109 0 l0 -394 l129 0 l0 394 l108 0 Z" /><glyph glyph-name="afii10091" unicode="&#x449;" d="M634 495 l0 -395 l59 0 l0 -227 l-96 0 l0 127 l-545 0 l0 495 l109 0 l0 -395 l127 0 l0 395 l110 0 l0 -395 l128 0 l0 395 l108 0 Z" /><glyph glyph-name="afii10092" unicode="&#x44a;" d="M341 95 q38 0 54.5 18.5 q16.5 18.5 16.5 46.5 q0 24 -15 43.5 q-15 19.5 -55 19.5 l-74 1 l0 -129 l73 0 ZM11 400 l0 95 l257 0 l0 -177 l76 0 q49 0 82.5 -12.5 q33.5 -12.5 54 -33.5 q20.5 -21 29.5 -49 q9 -28 9 -60 q0 -76 -45 -119.5 q-45 -43.5 -127 -43.5 l-189 0 l0 400 l-147 0 Z" /><glyph glyph-name="afii10093" unicode="&#x44b;" d="M455 0 l0 495 l110 0 l0 -495 l-110 0 ZM158 94 l73 0 q39 0 55 19 q16 19 16 46 q0 25 -15 44.5 q-15 19.5 -55 19.5 q-19 0 -37 0.5 q-18 0.5 -37 0.5 l0 -130 ZM49 0 l0 495 l110 0 l0 -178 l76 0 q48 0 81.5 -12 q33.5 -12 54 -33 q20.5 -21 29.5 -49.5 q9 -28.5 9 -60.5 q0 -75 -45 -118.5 q-45 -43.5 -126 -43.5 l-189 0 Z" /><glyph glyph-name="afii10094" unicode="&#x44c;" d="M157 94 l73 0 q39 0 55 19 q16 19 16 46 q0 25 -15 44.5 q-15 19.5 -55 19.5 q-19 0 -37 0.5 q-18 0.5 -37 0.5 l0 -130 ZM48 0 l0 495 l110 0 l0 -178 l76 0 q48 0 81.5 -12 q33.5 -12 54 -33 q20.5 -21 29.5 -49.5 q9 -28.5 9 -60.5 q0 -75 -45 -118.5 q-45 -43.5 -126 -43.5 l-189 0 Z" /><glyph glyph-name="afii10095" unicode="&#x44d;" d="M117 294 l141 0 q-2 23 -6 42.5 q-4 19.5 -13.5 33.5 q-9.5 14 -24.5 21.5 q-15 7.5 -38 7.5 q-20 0 -39.5 -12.5 q-19.5 -12.5 -30.5 -37.5 q-7 3 -18.5 9.5 q-11.5 6.5 -24.5 13.5 q-13 7 -24.5 14 q-11.5 7 -18.5 10 q21 49 65 76.5 q44 27.5 99 27.5 q102 0 145.5 -66 q43.5 -66 42.5 -184 q0 -57 -10 -103.5 q-10 -46.5 -33 -80.5 q-23 -34 -61 -52.5 q-38 -18.5 -93 -18.5 q-58 0 -99.5 27.5 q-41.5 27.5 -60.5 75.5 l91 45 q9 -22 28 -34 q19 -12 42 -12 q22 0 37 9 q15 9 24.5 24.5 q9.5 15.5 14 36 q4.5 20.5 6.5 44.5 l-141 0 l0 83 Z" /></font>
</defs>
</svg>
