<?xml version="1.0" standalone="no"?><!DOCTYPE svg PUBLIC "-//W3C//DTD SVG 1.1//EN" "http://www.w3.org/Graphics/SVG/1.1/DTD/svg11.dtd" ><svg xmlns="http://www.w3.org/2000/svg"><metadata></metadata><defs><font id="ParachuteWorldwide: PFDinTextCompPro-XThin: 2005" horiz-adv-x="1818"><font-face font-family="PF Din Text Comp Pro X Thin" font-weight="100" font-stretch="normal" units-per-em="1000" panose-1="2 0 3 6 2 0 0 2 0 4" ascent="750" descent="-250" x-height="4" bbox="-119 -217 1760 913" underline-thickness="40" underline-position="-110" unicode-range="U+0020-fb05" /><missing-glyph horiz-adv-x="428" d="M0 700 l428 0 l0 -700 l-428 0 l0 700 ZM408 27 l0 650 l-179 -327 l179 -323 ZM20 29 l179 321 l-179 322 l0 -643 ZM384 679 l-340 0 l170 -310 l170 310 ZM384 21 l-170 310 l-170 -310 l340 0 Z" /><glyph glyph-name="exclam" unicode="!" d="M82 153 q-1 64 -1.5 132.5 q-0.5 68.5 -0.5 138.5 q0 70 -0.5 138.5 q-0.5 68.5 -1.5 133.5 l29 0 q-1 -65 -1.5 -133.5 q-0.5 -68.5 -0.5 -138.5 q0 -70 -0.5 -138.5 q-0.5 -68.5 -1.5 -132.5 l-21 0 ZM76 0 l0 35 l34 0 l0 -35 l-34 0 Z" /><glyph glyph-name="quotedbl" unicode="&quot;" d="M98 696 l23 0 l0 -158 l-23 0 l0 158 ZM40 696 l23 0 l0 -158 l-23 0 l0 158 Z" /><glyph glyph-name="numbersign" unicode="#" d="M1 241 l60 0 l41 216 l-51 0 l0 20 l55 0 l43 225 l23 0 l-43 -225 l130 0 l43 225 l23 0 l-43 -225 l57 0 l0 -20 l-61 0 l-41 -216 l48 0 l0 -19 l-52 0 l-42 -222 l-22 0 l42 222 l-131 0 l-42 -222 l-22 0 l42 222 l-57 0 l0 19 ZM84 241 l130 0 l41 216 l-130 0 l-41 -216 Z" /><glyph glyph-name="dollar" unicode="$" d="M322 178 q0 -41 -7 -74 q-7 -33 -23 -57 q-16 -24 -43.5 -38 q-27.5 -14 -67.5 -16 l0 -102 l-22 0 l0 102 q-39 1 -66 12.5 q-27 11.5 -44 31 q-17 19.5 -25 45 q-8 25.5 -9 55.5 l27 5 q0 -24 6.5 -46 q6.5 -22 20.5 -39 q14 -17 36 -28 q22 -11 54 -12 l0 343 q-47 22 -74 41.5 q-27 19.5 -41.5 39.5 q-14.5 20 -18.5 42 q-4 22 -4 49 q0 36 8 66 q8 30 24.5 52.5 q16.5 22.5 42.5 35.5 q26 13 63 15 l0 95 l22 0 l0 -94 q41 -2 68.5 -15 q27.5 -13 43.5 -32.5 q16 -19.5 22.5 -44 q6.5 -24.5 6.5 -48.5 l-26 -6 q0 23 -6 44.5 q-6 21.5 -19.5 38 q-13.5 16.5 -35.5 27 q-22 10.5 -54 12.5 l0 -300 l14 -6 q46 -20 71.5 -39 q25.5 -19 38 -41.5 q12.5 -22.5 15 -50 q2.5 -27.5 2.5 -63.5 ZM295 177 q0 36 -3 60.5 q-3 24.5 -15 43.5 q-12 19 -34.5 35 q-22.5 16 -61.5 34 l0 -333 q37 2 59.5 16 q22.5 14 34.5 35.5 q12 21.5 16 49.5 q4 28 4 59 ZM48 533 q0 -24 4.5 -43.5 q4.5 -19.5 16.5 -36 q12 -16.5 33.5 -32 q21.5 -15.5 56.5 -32.5 l0 288 q-35 -2 -56.5 -16.5 q-21.5 -14.5 -33.5 -35 q-12 -20.5 -16.5 -45 q-4.5 -24.5 -4.5 -47.5 Z" /><glyph glyph-name="ampersand" unicode="&amp;" d="M215 701 q41 0 65.5 -10 q24.5 -10 43.5 -34 l-22 -16 q-14 21 -37.5 28.5 q-23.5 7.5 -47.5 7.5 q-24 0 -41.5 -10 q-17.5 -10 -29.5 -26 q-12 -16 -17.5 -36 q-5.5 -20 -5.5 -39 q0 -29 7 -59 q7 -30 28 -66 l186 -318 q18 38 26 74 q8 36 11 70 l23 0 q-2 -40 -14.5 -85 q-12.5 -45 -30.5 -81 l61 -101 l-32 0 l-46 78 q-21 -27 -40.5 -44 q-19.5 -17 -38.5 -26 q-19 -9 -36.5 -12 q-17.5 -3 -34.5 -3 q-30 0 -56.5 9 q-26.5 9 -46 29 q-19.5 20 -31 51.5 q-11.5 31.5 -11.5 75.5 q0 60 28 117 q28 57 88 106 q-7 11 -15 24.5 q-8 13.5 -14 24.5 q-23 41 -30 74 q-7 33 -7 63 q0 28 8.5 52.5 q8.5 24.5 24 42.5 q15.5 18 37 28.5 q21.5 10.5 48.5 10.5 ZM176 360 q-63 -56 -83.5 -107 q-20.5 -51 -20.5 -95 q0 -62 30.5 -102.5 q30.5 -40.5 95.5 -40.5 q28 0 63 18.5 q35 18.5 67 63.5 l-152 263 Z" /><glyph glyph-name="quoteright" unicode="&#x2019;" d="M62 583 l-18 0 l17 82 l-9 0 l0 36 l36 0 l0 -36 l-26 -82 Z" /><glyph glyph-name="parenleft" unicode="(" d="M179 -118 q-25 38 -46 86 q-21 48 -36.5 101.5 q-15.5 53.5 -24.5 111 q-9 57.5 -9 115.5 q0 54 8 110.5 q8 56.5 22.5 111 q14.5 54.5 35.5 104.5 q21 50 48 91 l11 -5 q-46 -91 -73.5 -196.5 q-27.5 -105.5 -27.5 -209.5 q0 -113 28.5 -220 q28.5 -107 73.5 -195 l-10 -5 Z" /><glyph glyph-name="parenright" unicode=")" d="M63 -113 q45 88 73.5 195 q28.5 107 28.5 220 q0 104 -27.5 209.5 q-27.5 105.5 -73.5 196.5 l11 5 q27 -41 48 -91 q21 -50 35.5 -104.5 q14.5 -54.5 22.5 -111 q8 -56.5 8 -110.5 q0 -58 -9 -115.5 q-9 -57.5 -24.5 -111 q-15.5 -53.5 -36.5 -101.5 q-21 -48 -46 -86 l-10 5 Z" /><glyph glyph-name="asterisk" unicode="*" d="M254 447 l-25 -17 l-68 111 l-66 -111 l-25 17 l76 102 l-118 38 l9 30 l114 -50 l-6 127 l31 0 l-7 -127 l116 50 l9 -30 l-118 -38 l78 -102 Z" /><glyph glyph-name="plus" unicode="+" d="M180 125 l-23 0 l0 156 l-138 0 l0 24 l138 0 l0 153 l23 0 l0 -153 l138 0 l0 -24 l-138 0 l0 -156 Z" /><glyph glyph-name="comma" unicode="," d="M48 -82 l-18 0 l17 82 l-9 0 l0 36 l36 0 l0 -36 l-26 -82 Z" /><glyph glyph-name="hyphen" unicode="-" d="M49 300 l222 0 l0 -28 l-222 0 l0 28 Z" /><glyph glyph-name="period" unicode="." d="M36 0 l0 38 l36 0 l0 -38 l-36 0 Z" /><glyph glyph-name="slash" unicode="/" d="M29 -42 l-23 0 l186 767 l23 0 l-186 -767 Z" /><glyph glyph-name="zero" unicode="0" d="M268 588 q0 42 -27.5 66.5 q-27.5 24.5 -70.5 24.5 q-44 0 -71 -24.5 q-27 -24.5 -27 -66.5 l0 -480 q0 -42 27 -66.5 q27 -24.5 71 -24.5 q43 0 70.5 24.5 q27.5 24.5 27.5 66.5 l0 480 ZM170 -7 q-25 0 -47 7 q-22 7 -39 21 q-17 14 -27 35.5 q-10 21.5 -10 51.5 l0 480 q0 29 10 50.5 q10 21.5 27 35.5 q17 14 39 21 q22 7 47 7 q25 0 47 -7 q22 -7 39 -21 q17 -14 27 -35.5 q10 -21.5 10 -50.5 l0 -480 q0 -30 -10 -51.5 q-10 -21.5 -27 -35.5 q-17 -14 -39 -21 q-22 -7 -47 -7 Z" /><glyph glyph-name="one" unicode="1" d="M192 667 l-110 -74 l0 30 l108 73 l27 0 l0 -695 l-25 0 l0 666 Z" /><glyph glyph-name="two" unicode="2" d="M72 24 l221 0 l0 -24 l-246 0 l0 26 l197 398 q17 35 23 66 q6 31 6 69 q0 23 -4.5 45 q-4.5 22 -15.5 38.5 q-11 16.5 -30.5 26.5 q-19.5 10 -50.5 10 q-18 0 -35.5 -5.5 q-17.5 -5.5 -32 -18.5 q-14.5 -13 -23.5 -34.5 q-9 -21.5 -9 -53.5 l-24 4 q1 35 11 60 q10 25 26.5 40.5 q16.5 15.5 39 23 q22.5 7.5 48.5 7.5 q67 0 96.5 -39.5 q29.5 -39.5 29.5 -103.5 q0 -50 -9 -83.5 q-9 -33.5 -27 -69.5 l-191 -382 Z" /><glyph glyph-name="three" unicode="3" d="M172 702 q34 0 57.5 -8.5 q23.5 -8.5 38 -25 q14.5 -16.5 21 -40 q6.5 -23.5 5.5 -52.5 l0 -70 q0 -18 -1.5 -40 q-1.5 -22 -8 -42 q-6.5 -20 -20 -35.5 q-13.5 -15.5 -37.5 -22.5 q22 -7 35.5 -21 q13.5 -14 20.5 -32.5 q7 -18.5 9 -40 q2 -21.5 2 -43.5 l0 -109 q0 -56 -28.5 -91.5 q-28.5 -35.5 -96.5 -35.5 q-23 0 -44.5 6.5 q-21.5 6.5 -38.5 22 q-17 15.5 -27.5 41 q-10.5 25.5 -10.5 63.5 l25 5 q0 -52 22 -83 q22 -31 75 -31 q44 0 71.5 24 q27.5 24 27.5 79 l0 122 q0 31 -7.5 52 q-7.5 21 -19.5 34 q-12 13 -28 18.5 q-16 5.5 -33 5.5 l-25 0 l0 27 l27 0 q17 0 32.5 5.5 q15.5 5.5 27.5 17.5 q12 12 19 32 q7 20 7 49 l0 103 q0 43 -24 68 q-24 25 -75 25 q-52 0 -74.5 -32 q-22.5 -32 -22.5 -79 l-25 5 q0 60 31 94.5 q31 34.5 93 34.5 Z" /><glyph glyph-name="four" unicode="4" d="M258 1 l-25 0 l0 126 l-205 0 l0 23 l144 546 l25 0 l-146 -546 l182 0 l0 196 l25 0 l0 -196 l60 0 l0 -23 l-60 0 l0 -126 Z" /><glyph glyph-name="five" unicode="5" d="M273 318 q0 54 -28.5 77 q-28.5 23 -70.5 23 q-29 0 -54.5 -12 q-25.5 -12 -34.5 -32 l-25 0 l0 322 l233 0 l0 -21 l-210 0 l0 -268 l2 0 q15 16 39.5 25 q24.5 9 55.5 9 q53 0 85.5 -29 q32.5 -29 32.5 -83 l0 -209 q0 -56 -28.5 -91.5 q-28.5 -35.5 -96.5 -35.5 q-23 0 -44.5 6.5 q-21.5 6.5 -38.5 22 q-17 15.5 -27.5 41 q-10.5 25.5 -10.5 63.5 l25 5 q0 -52 22 -83 q22 -31 75 -31 q44 0 71.5 24 q27.5 24 27.5 79 l0 198 Z" /><glyph glyph-name="six" unicode="6" d="M47 245 q0 27 4 47 q4 20 11 38 l138 366 l25 0 l-128 -339 l3 0 q11 12 32 21 q21 9 41 9 q24 0 46 -7 q22 -7 38.5 -21 q16.5 -14 26 -35.5 q9.5 -21.5 9.5 -50.5 l0 -164 q0 -30 -10 -51.5 q-10 -21.5 -27 -35.5 q-17 -14 -39 -21 q-22 -7 -47 -7 q-25 0 -47 7 q-22 7 -39 21 q-17 14 -27 35.5 q-10 21.5 -10 51.5 l0 136 ZM268 272 q0 42 -27.5 66.5 q-27.5 24.5 -70.5 24.5 q-23 0 -41.5 -9 q-18.5 -9 -31 -24.5 q-12.5 -15.5 -19 -35 q-6.5 -19.5 -6.5 -40.5 l0 -146 q0 -42 27 -66.5 q27 -24.5 71 -24.5 q43 0 70.5 24.5 q27.5 24.5 27.5 66.5 l0 164 Z" /><glyph glyph-name="seven" unicode="7" d="M64 675 l0 -88 l-22 0 l0 109 l258 0 l0 -21 l-192 -675 l-25 0 l192 675 l-211 0 Z" /><glyph glyph-name="eight" unicode="8" d="M170 -7 q-25 0 -47 7 q-22 7 -39 21 q-17 14 -27 35.5 q-10 21.5 -10 51.5 l0 149 q0 39 17.5 64.5 q17.5 25.5 45.5 37.5 q-28 12 -45.5 37.5 q-17.5 25.5 -17.5 66.5 l0 125 q0 29 10 50.5 q10 21.5 27 35.5 q17 14 39 21 q22 7 47 7 q25 0 47 -7 q22 -7 39 -21 q17 -14 27 -35.5 q10 -21.5 10 -50.5 l0 -125 q0 -41 -17.5 -66 q-17.5 -25 -45.5 -38 q28 -12 45.5 -37.5 q17.5 -25.5 17.5 -64.5 l0 -149 q0 -30 -10 -51.5 q-10 -21.5 -27 -35.5 q-17 -14 -39 -21 q-22 -7 -47 -7 ZM268 257 q0 41 -26.5 65 q-26.5 24 -71.5 26 q-44 0 -71 -24.5 q-27 -24.5 -27 -66.5 l0 -149 q0 -42 27 -66.5 q27 -24.5 71 -24.5 q43 0 70.5 24.5 q27.5 24.5 27.5 66.5 l0 149 ZM268 588 q0 42 -27.5 66.5 q-27.5 24.5 -70.5 24.5 q-44 0 -71 -24.5 q-27 -24.5 -27 -66.5 l0 -125 q0 -42 27 -66.5 q27 -24.5 71 -24.5 q43 0 70.5 24.5 q27.5 24.5 27.5 66.5 l0 125 Z" /><glyph glyph-name="nine" unicode="9" d="M293 451 q0 -27 -4 -47 q-4 -20 -11 -38 l-138 -366 l-25 0 l128 339 l-3 0 q-11 -12 -32 -21 q-21 -9 -41 -9 q-24 0 -46 7 q-22 7 -38.5 21 q-16.5 14 -26 35.5 q-9.5 21.5 -9.5 50.5 l0 164 q0 30 10 51.5 q10 21.5 27 35.5 q17 14 39 21 q22 7 47 7 q25 0 47 -7 q22 -7 39 -21 q17 -14 27 -35.5 q10 -21.5 10 -51.5 l0 -136 ZM72 424 q0 -42 27.5 -66.5 q27.5 -24.5 70.5 -24.5 q23 0 41.5 9 q18.5 9 31 24.5 q12.5 15.5 19 35 q6.5 19.5 6.5 40.5 l0 146 q0 42 -27 66.5 q-27 24.5 -71 24.5 q-43 0 -70.5 -24.5 q-27.5 -24.5 -27.5 -66.5 l0 -164 Z" /><glyph glyph-name="colon" unicode=":" d="M37 309 l0 38 l36 0 l0 -38 l-36 0 ZM37 0 l0 38 l36 0 l0 -38 l-36 0 Z" /><glyph glyph-name="semicolon" unicode=";" d="M48 -82 l-18 0 l17 82 l-9 0 l0 36 l36 0 l0 -36 l-26 -82 ZM37 309 l0 38 l36 0 l0 -38 l-36 0 Z" /><glyph glyph-name="less" unicode="&lt;" d="M318 108 l-299 173 l0 24 l299 173 l0 -24 l-277 -161 l277 -160 l0 -25 Z" /><glyph glyph-name="equal" unicode="=" d="M19 368 l299 0 l0 -23 l-299 0 l0 23 ZM19 228 l299 0 l0 -23 l-299 0 l0 23 Z" /><glyph glyph-name="greater" unicode="&gt;" d="M20 133 l277 160 l-277 161 l0 24 l299 -173 l0 -24 l-299 -173 l0 25 Z" /><glyph glyph-name="question" unicode="?" d="M163 702 q43 0 71 -12.5 q28 -12.5 44.5 -33.5 q16.5 -21 23 -49 q6.5 -28 6.5 -58 q0 -27 -2 -46.5 q-2 -19.5 -5.5 -33.5 q-3.5 -14 -8.5 -25 q-5 -11 -10 -20 q-15 -27 -25.5 -45 q-10.5 -18 -18.5 -30 q-8 -12 -13.5 -19.5 q-5.5 -7.5 -8.5 -13.5 q-9 -16 -16 -41 q-7 -25 -7 -48 l0 -74 l-24 0 l0 80 q0 8 1.5 19.5 q1.5 11.5 4.5 23.5 q3 12 7 23.5 q4 11.5 9 20.5 l69 113 q16 27 19 56 q3 29 3 58 q0 65 -28.5 98 q-28.5 33 -91.5 33 q-21 0 -40.5 -7.5 q-19.5 -7.5 -35 -22 q-15.5 -14.5 -25.5 -36.5 q-10 -22 -11 -52 l-25 5 q4 62 41 99.5 q37 37.5 97 37.5 ZM165 0 l0 35 l34 0 l0 -35 l-34 0 Z" /><glyph glyph-name="at" unicode="@" d="M458 262 q0 -21 7 -36.5 q7 -15.5 18 -26.5 q11 -11 25 -16.5 q14 -5.5 28 -5.5 q19 0 41 7.5 q22 7.5 40.5 29.5 q18.5 22 30.5 63 q12 41 12 107 q0 70 -21 125 q-21 55 -58 93.5 q-37 38.5 -88 58.5 q-51 20 -110 20 q-78 0 -135.5 -27 q-57.5 -27 -95 -73.5 q-37.5 -46.5 -56 -109.5 q-18.5 -63 -18.5 -136 q0 -80 19.5 -144 q19.5 -64 58.5 -110 q39 -46 96.5 -70.5 q57.5 -24.5 133.5 -24.5 q38 0 84.5 9 q46.5 9 83.5 29 l9 -21 q-40 -17 -84.5 -28.5 q-44.5 -11.5 -87.5 -11.5 q-79 0 -141.5 23.5 q-62.5 23.5 -106 70 q-43.5 46.5 -66.5 116 q-23 69.5 -23 162.5 q0 82 21.5 150 q21.5 68 62.5 116.5 q41 48.5 102 75 q61 26.5 140 26.5 q74 0 130.5 -24 q56.5 -24 95 -66.5 q38.5 -42.5 58 -101 q19.5 -58.5 19.5 -127.5 q0 -71 -14 -115.5 q-14 -44.5 -35.5 -69.5 q-21.5 -25 -47 -34.5 q-25.5 -9.5 -48.5 -9.5 q-6 0 -18.5 2 q-12.5 2 -26.5 8.5 q-14 6.5 -27.5 19 q-13.5 12.5 -21.5 33.5 q-11 -20 -25 -31 q-14 -11 -28 -16 q-14 -5 -26.5 -6.5 q-12.5 -1.5 -20.5 -1.5 q-27 0 -45.5 8.5 q-18.5 8.5 -30 23 q-11.5 14.5 -16.5 33.5 q-5 19 -5 40 q0 21 5.5 43 q5.5 22 19 39 q13.5 17 34.5 28 q21 11 53 11 l73 0 l0 52 q0 34 -16 56 q-16 22 -63 22 q-28 0 -46 -13 q-18 -13 -26 -32 l-24 10 q11 23 35 40.5 q24 17.5 63 17.5 q22 0 40.5 -5 q18.5 -5 32.5 -16 q14 -11 22 -30.5 q8 -19.5 8 -47.5 l0 -181 ZM358 367 q-38 0 -62 -23.5 q-24 -23.5 -24 -77.5 q0 -15 4 -30 q4 -15 13 -26 q9 -11 24 -18 q15 -7 38 -7 q33 0 57 21.5 q24 21.5 24 57.5 l0 103 l-74 0 Z" /><glyph glyph-name="A" unicode="a" d="M289 196 l-213 0 l-44 -196 l-24 0 l156 696 l37 0 l158 -696 l-25 0 l-45 196 ZM142 493 l-61 -274 l203 0 l-62 276 l-39 178 l-2 0 l-39 -180 Z" /><glyph glyph-name="B" unicode="b" d="M77 674 l0 -295 l141 0 q67 0 91.5 38.5 q24.5 38.5 24.5 110.5 q0 70 -32 108 q-32 38 -110 38 l-115 0 ZM77 357 l0 -332 l123 0 q43 0 70.5 14 q27.5 14 43.5 38 q16 24 22.5 56 q6.5 32 6.5 68 q0 74 -30.5 115 q-30.5 41 -89.5 41 l-146 0 ZM283 367 q25 -9 41.5 -25 q16.5 -16 26.5 -38 q10 -22 14 -48.5 q4 -26.5 4 -55.5 q0 -56 -12.5 -94 q-12.5 -38 -35 -61.5 q-22.5 -23.5 -53 -34 q-30.5 -10.5 -66.5 -10.5 l-150 0 l0 696 l145 0 q46 0 77 -11.5 q31 -11.5 50 -33 q19 -21.5 27.5 -52.5 q8.5 -31 8.5 -70 q0 -27 -3 -51.5 q-3 -24.5 -11.5 -45.5 q-8.5 -21 -23.5 -37.5 q-15 -16.5 -39 -26.5 l0 -1 Z" /><glyph glyph-name="C" unicode="c" d="M197 16 q23 0 45.5 7 q22.5 7 40 22 q17.5 15 28.5 39.5 q11 24.5 11 59.5 l25 -5 q0 -41 -13.5 -69 q-13.5 -28 -35 -45 q-21.5 -17 -48 -24.5 q-26.5 -7.5 -53.5 -7.5 q-69 0 -110 36 q-41 36 -41 111 l0 413 q0 75 41 112 q41 37 110 37 q28 0 55 -7.5 q27 -7.5 48 -25 q21 -17.5 34 -45 q13 -27.5 13 -66.5 l-25 -6 q0 34 -10 58 q-10 24 -27.5 39.5 q-17.5 15.5 -40 22.5 q-22.5 7 -47.5 7 q-59 0 -92.5 -33.5 q-33.5 -33.5 -33.5 -93.5 l0 -413 q0 -61 33.5 -92 q33.5 -31 92.5 -31 Z" /><glyph glyph-name="D" unicode="d" d="M328 516 q0 33 -5.5 62 q-5.5 29 -19.5 50.5 q-14 21.5 -40 33.5 q-26 12 -66 12 l-120 0 l0 -650 l121 0 q67 0 98.5 35 q31.5 35 31.5 116 l0 341 ZM195 696 q64 0 100 -22.5 q36 -22.5 50 -73.5 q10 -36 10 -100 q0 -64 0 -151 q0 -86 -0.5 -154.5 q-0.5 -68.5 -10.5 -102.5 q-9 -30 -25 -48 q-16 -18 -36.5 -27.5 q-20.5 -9.5 -45 -13 q-24.5 -3.5 -51.5 -3.5 l-135 0 l0 696 l144 0 Z" /><glyph glyph-name="E" unicode="e" d="M52 696 l276 0 l0 -23 l-251 0 l0 -302 l223 0 l0 -23 l-223 0 l0 -324 l251 0 l0 -24 l-276 0 l0 696 Z" /><glyph glyph-name="F" unicode="f" d="M53 696 l276 0 l0 -23 l-251 0 l0 -302 l223 0 l0 -23 l-223 0 l0 -348 l-25 0 l0 696 Z" /><glyph glyph-name="G" unicode="g" d="M197 -7 q-69 0 -110 36 q-41 36 -41 111 l0 413 q0 75 41 112 q41 37 110 37 q28 0 55 -7.5 q27 -7.5 48 -25 q21 -17.5 34 -45 q13 -27.5 13 -66.5 l-25 -6 q0 34 -10 58 q-10 24 -27.5 39.5 q-17.5 15.5 -40 22.5 q-22.5 7 -47.5 7 q-59 0 -92.5 -33.5 q-33.5 -33.5 -33.5 -93.5 l0 -413 q0 -61 34 -91.5 q34 -30.5 93 -30.5 q25 0 48 8.5 q23 8.5 41 24.5 q18 16 29 39 q11 23 11 52 l0 187 l-88 0 l0 25 l114 0 l0 -212 q0 -36 -13 -63.5 q-13 -27.5 -34.5 -46 q-21.5 -18.5 -49.5 -28.5 q-28 -10 -59 -10 Z" /><glyph glyph-name="H" unicode="h" d="M328 345 l-251 0 l0 -345 l-25 0 l0 696 l25 0 l0 -327 l251 0 l0 327 l26 0 l0 -696 l-26 0 l0 345 Z" /><glyph glyph-name="I" unicode="i" d="M70 696 l25 0 l0 -696 l-25 0 l0 696 Z" /><glyph glyph-name="J" unicode="j" d="M239 136 q0 -66 -40 -104.5 q-40 -38.5 -117 -38.5 q-25 0 -49.5 6 q-24.5 6 -38.5 15 l12 22 q17 -11 39 -15 q22 -4 40 -4 q18 0 40 4 q22 4 42 17 q20 13 33.5 37.5 q13.5 24.5 13.5 64.5 l0 556 l25 0 l0 -560 Z" /><glyph glyph-name="K" unicode="k" d="M78 243 l246 453 l29 0 l-149 -273 l181 -423 l-30 0 l-168 394 l-111 -203 l0 -191 l-25 0 l0 696 l25 0 l0 -453 l2 0 Z" /><glyph glyph-name="L" unicode="l" d="M53 696 l25 0 l0 -672 l241 0 l0 -24 l-266 0 l0 696 Z" /><glyph glyph-name="M" unicode="m" d="M440 624 l-170 -464 l-27 0 l-165 456 l-3 0 l0 -616 l-25 0 l0 696 l26 0 l179 -501 l3 0 l183 501 l25 0 l0 -696 l-24 0 l0 624 l-2 0 Z" /><glyph glyph-name="N" unicode="n" d="M75 627 l0 -627 l-25 0 l0 696 l24 0 l271 -627 l3 0 l0 627 l24 0 l0 -696 l-24 0 l-271 627 l-2 0 Z" /><glyph glyph-name="O" unicode="o" d="M328 558 q0 60 -37.5 90.5 q-37.5 30.5 -91.5 30.5 q-56 0 -92.5 -33 q-36.5 -33 -36.5 -93 l0 -416 q0 -61 36.5 -91 q36.5 -30 92.5 -30 q62 0 95.5 32 q33.5 32 33.5 93 l0 417 ZM199 -7 q-32 0 -60 8.5 q-28 8.5 -49 26.5 q-21 18 -33 45 q-12 27 -12 65 l0 416 q0 37 12 65 q12 28 33 46.5 q21 18.5 49 27.5 q28 9 60 9 q32 0 60 -8.5 q28 -8.5 49 -26 q21 -17.5 33 -44.5 q12 -27 12 -64 l0 -419 q0 -38 -12 -65.5 q-12 -27.5 -33 -45.5 q-21 -18 -49 -27 q-28 -9 -60 -9 Z" /><glyph glyph-name="P" unicode="p" d="M184 696 q52 0 86.5 -14.5 q34.5 -14.5 54 -40 q19.5 -25.5 27.5 -60 q8 -34.5 8 -75.5 q0 -46 -9 -83 q-9 -37 -29.5 -63.5 q-20.5 -26.5 -54.5 -40.5 q-34 -14 -84 -14 l-106 0 l0 -304 l-25 0 l0 695 l132 0 ZM77 674 l0 -347 l103 0 q83 0 119.5 42.5 q36.5 42.5 36.5 135.5 q0 37 -7.5 68.5 q-7.5 31.5 -25.5 53.5 q-18 22 -47.5 34.5 q-29.5 12.5 -73.5 12.5 l-105 0 Z" /><glyph glyph-name="Q" unicode="q" d="M199 -7 q-32 0 -60 8.5 q-28 8.5 -49 26.5 q-21 18 -33 45 q-12 27 -12 65 l0 416 q0 37 12 65 q12 28 33 46.5 q21 18.5 49 27.5 q28 9 60 9 q32 0 60 -8.5 q28 -8.5 49 -26 q21 -17.5 33 -44.5 q12 -27 12 -64 l0 -419 q0 -27 -6.5 -49 q-6.5 -22 -17.5 -39 l64 -47 l-15 -20 l-66 48 q-21 -20 -50 -30 q-29 -10 -63 -10 ZM328 558 q0 60 -37.5 90.5 q-37.5 30.5 -91.5 30.5 q-56 0 -92.5 -33 q-36.5 -33 -36.5 -93 l0 -416 q0 -61 36.5 -91 q36.5 -30 92.5 -30 q62 0 94 31 l-71 53 l15 20 l72 -54 q19 29 19 75 l0 417 Z" /><glyph glyph-name="R" unicode="r" d="M179 696 q52 0 87 -12.5 q35 -12.5 55 -36 q20 -23.5 28.5 -56.5 q8.5 -33 8.5 -74 q0 -75 -27 -122 q-27 -47 -90 -62 q12 -37 26.5 -80 q14.5 -43 29.5 -86.5 q15 -43.5 30 -86.5 q15 -43 27 -80 l-29 0 l-108 328 q-10 -1 -20 -1.5 q-10 -0.5 -21 -0.5 l-99 0 l0 -326 l-25 0 l0 696 l127 0 ZM77 674 l0 -326 l96 0 q82 0 121.5 38 q39.5 38 39.5 130 q0 75 -35.5 116.5 q-35.5 41.5 -123.5 41.5 l-98 0 Z" /><glyph glyph-name="S" unicode="s" d="M340 178 q0 -42 -7.5 -76 q-7.5 -34 -25 -58.5 q-17.5 -24.5 -47 -37.5 q-29.5 -13 -73.5 -13 q-42 0 -70.5 11 q-28.5 11 -47 30.5 q-18.5 19.5 -27 45.5 q-8.5 26 -9.5 57 l27 5 q0 -25 7 -47.5 q7 -22.5 22 -40 q15 -17.5 39 -27.5 q24 -10 59 -10 q41 0 65.5 13 q24.5 13 38 35 q13.5 22 18 51 q4.5 29 4.5 61 q0 37 -3.5 62 q-3.5 25 -16 44.5 q-12.5 19.5 -37 35.5 q-24.5 16 -67.5 36 q-51 23 -80.5 43 q-29.5 20 -45 41 q-15.5 21 -20 43.5 q-4.5 22.5 -4.5 49.5 q0 37 8.5 68.5 q8.5 31.5 27 54 q18.5 22.5 47 35 q28.5 12.5 68.5 12.5 q44 0 73 -12.5 q29 -12.5 46 -32.5 q17 -20 24 -45 q7 -25 7 -50 l-26 -6 q0 24 -6.5 46 q-6.5 22 -21 39 q-14.5 17 -38.5 27 q-24 10 -59 10 q-39 0 -63 -13.5 q-24 -13.5 -37.5 -35 q-13.5 -21.5 -18 -47 q-4.5 -25.5 -4.5 -49.5 q0 -27 6 -48 q6 -21 22 -39 q16 -18 44.5 -35.5 q28.5 -17.5 74.5 -38.5 q46 -20 71.5 -39 q25.5 -19 38 -41.5 q12.5 -22.5 15 -50 q2.5 -27.5 2.5 -63.5 Z" /><glyph glyph-name="T" unicode="t" d="M171 0 l-25 0 l0 673 l-140 0 l0 23 l304 0 l0 -23 l-139 0 l0 -673 Z" /><glyph glyph-name="U" unicode="u" d="M343 695 l0 -555 q0 -38 -12 -65.5 q-12 -27.5 -33 -45.5 q-21 -18 -49 -27 q-28 -9 -60 -9 q-32 0 -60 8.5 q-28 8.5 -49 26.5 q-21 18 -33 45 q-12 27 -12 65 l0 557 l25 0 l0 -558 q0 -61 36.5 -91 q36.5 -30 92.5 -30 q62 0 95.5 32 q33.5 32 33.5 93 l0 554 l25 0 Z" /><glyph glyph-name="V" unicode="v" d="M333 696 l25 0 l-158 -696 l-37 0 l-156 696 l24 0 l110 -493 l39 -180 l2 0 l39 178 l112 495 Z" /><glyph glyph-name="W" unicode="w" d="M290 632 l-35 -187 l-83 -445 l-39 0 l-125 696 l24 0 l78 -442 l41 -235 l2 0 l43 233 l83 444 l25 0 l84 -451 l42 -226 l2 0 l39 225 l80 452 l24 0 l-125 -696 l-39 0 l-84 446 l-35 186 l-2 0 Z" /><glyph glyph-name="X" unicode="x" d="M4 0 l147 348 l-146 346 l29 0 l132 -317 l130 317 l29 0 l-147 -346 l148 -348 l-29 0 l-131 318 l-133 -318 l-29 0 Z" /><glyph glyph-name="Y" unicode="y" d="M167 326 l131 370 l27 0 l-146 -403 l0 -293 l-25 0 l0 293 l-146 403 l25 0 l132 -370 l2 0 Z" /><glyph glyph-name="Z" unicode="z" d="M267 24 l0 -24 l-259 0 l0 23 l249 650 l-225 0 l0 23 l250 0 l0 -22 l-249 -650 l234 0 Z" /><glyph glyph-name="bracketleft" unicode="[" d="M62 696 l108 0 l0 -24 l-81 0 l0 -760 l81 0 l0 -23 l-108 0 l0 807 Z" /><glyph glyph-name="backslash" unicode="\" d="M7 725 l23 0 l186 -767 l-23 0 l-186 767 Z" /><glyph glyph-name="bracketright" unicode="]" d="M170 -111 l-108 0 l0 23 l81 0 l0 760 l-81 0 l0 24 l108 0 l0 -807 Z" /><glyph glyph-name="asciicircum" unicode="^" d="M6 395 l153 299 l24 0 l153 -299 l-24 0 l-142 278 l-139 -278 l-25 0 Z" /><glyph glyph-name="underscore" unicode="_" d="M0 -90 l500 0 l0 -24 l-500 0 l0 24 Z" /><glyph glyph-name="quoteleft" unicode="&#x2018;" d="M70 701 l18 0 l-17 -82 l9 0 l0 -36 l-36 0 l0 36 l26 82 Z" /><glyph glyph-name="a" unicode="a" d="M166 259 q-51 0 -84 -30.5 q-33 -30.5 -33 -102.5 q0 -21 5.5 -41 q5.5 -20 18 -35 q12.5 -15 33 -24.5 q20.5 -9.5 50.5 -9.5 q46 0 78.5 25 q32.5 25 32.5 75 l0 143 l-101 0 ZM39 423 q15 32 46 52 q31 20 82 20 q61 0 93.5 -27.5 q32.5 -27.5 32.5 -99.5 l0 -368 l-26 0 l0 44 l-2 0 q-13 -17 -28 -27 q-15 -10 -30.5 -15 q-15.5 -5 -31 -6.5 q-15.5 -1.5 -28.5 -1.5 q-34 0 -57.5 11 q-23.5 11 -38 29.5 q-14.5 18.5 -21 43 q-6.5 24.5 -6.5 51.5 q0 28 6.5 55.5 q6.5 27.5 22.5 49.5 q16 22 42.5 35.5 q26.5 13.5 66.5 13.5 l105 0 l0 83 q0 23 -4 42.5 q-4 19.5 -15 33.5 q-11 14 -31 22 q-20 8 -52 8 q-39 0 -65.5 -17 q-26.5 -17 -36.5 -42 l-24 10 Z" /><glyph glyph-name="b" unicode="b" d="M179 16 q29 0 56 16 q27 16 38 57 q5 16 6 54.5 q1 38.5 1 85.5 q0 23 -0.5 50 q-0.5 27 -1 52 q-0.5 25 -2.5 45 q-2 20 -5 31 q-10 33 -33.5 49 q-23.5 16 -54.5 16 q-27 0 -49 -11.5 q-22 -11.5 -37.5 -30 q-15.5 -18.5 -23.5 -41.5 q-8 -23 -8 -45 l0 -209 q0 -53 32 -86 q32 -33 82 -33 ZM181 -7 q-41 0 -69 15.5 q-28 15.5 -45 41.5 l-2 0 l0 -50 l-25 0 l0 726 l25 0 l0 -301 l2 0 q17 32 48.5 51 q31.5 19 67.5 19 q51 -2 76 -21.5 q25 -19.5 36 -48.5 q4 -15 6.5 -36 q2.5 -21 4 -45.5 q1.5 -24.5 1.5 -50 q0 -25.5 0 -49.5 l0 -21 q0 -26 -0.5 -55 q-0.5 -29 -3.5 -61 q-3 -33 -15.5 -54.5 q-12.5 -21.5 -29.5 -35 q-17 -13.5 -37.5 -19 q-20.5 -5.5 -39.5 -5.5 Z" /><glyph glyph-name="c" unicode="c" d="M172 495 q57 0 91.5 -30.5 q34.5 -30.5 34.5 -90.5 l-26 -5 q0 48 -26 75 q-26 27 -77 27 q-28 0 -54.5 -12 q-26.5 -12 -40.5 -46 q-8 -19 -9.5 -67 q-1.5 -48 -2.5 -109 l0 -18 q0 -18 0.5 -39 q0.5 -21 1.5 -40.5 q1 -19.5 3 -36 q2 -16.5 5 -25.5 q10 -29 33.5 -45.5 q23.5 -16.5 61.5 -16.5 q48 0 75.5 24.5 q27.5 24.5 29.5 77.5 l26 -5 q-2 -61 -37 -90.5 q-35 -29.5 -92 -29.5 q-30 0 -51.5 7 q-21.5 7 -36.5 19 q-15 12 -24 27 q-9 15 -13 31 q-3 12 -5 31.5 q-2 19.5 -3 41.5 q-1 22 -1 45 q0 23 0 43 q0 27 0.5 54.5 q0.5 27.5 2 52 q1.5 24.5 4 44 q2.5 19.5 6.5 31.5 q12 33 42 54 q30 21 82 21 Z" /><glyph glyph-name="d" unicode="d" d="M161 16 q50 0 82 33 q32 33 32 86 l0 205 q0 24 -7 47.5 q-7 23.5 -21 42 q-14 18.5 -34.5 30 q-20.5 11.5 -47.5 11.5 q-33 0 -59 -18.5 q-26 -18.5 -36 -51.5 q-3 -11 -4.5 -30 q-1.5 -19 -2.5 -43 q-1 -24 -1 -50 q0 -26 0 -49 q0 -47 1 -85.5 q1 -38.5 6 -54.5 q11 -41 34.5 -57 q23.5 -16 57.5 -16 ZM159 -7 q-21 0 -41.5 5.5 q-20.5 5.5 -37 19 q-16.5 13.5 -28 35 q-11.5 21.5 -14.5 54.5 q-3 32 -3 61 q0 29 0 55 l0 21 q0 57 0.5 102 q0.5 45 11.5 74 q10 29 37.5 52 q27.5 23 81.5 23 q26 0 44 -7 q18 -7 30.5 -17 q12.5 -10 20 -21 q7.5 -11 12.5 -19 l2 0 l0 295 l25 0 l0 -726 l-25 0 l0 50 l-2 0 q-17 -26 -45 -41.5 q-28 -15.5 -69 -15.5 Z" /><glyph glyph-name="e" unicode="e" d="M171 495 q59 0 93 -31.5 q34 -31.5 34 -91.5 l0 -127 l-237 0 l0 -26 q0 -18 0.5 -39 q0.5 -21 1.5 -40.5 q1 -19.5 3 -36 q2 -16.5 5 -25.5 q8 -25 30.5 -43.5 q22.5 -18.5 63.5 -18.5 q26 0 45.5 8 q19.5 8 32 21.5 q12.5 13.5 19.5 31 q7 17.5 9 37.5 l24 -5 q-5 -56 -41 -86 q-36 -30 -86 -30 q-30 0 -51.5 7 q-21.5 7 -36.5 19 q-15 12 -24 27 q-9 15 -13 31 q-3 12 -5 31.5 q-2 19.5 -3 41.5 q-1 22 -1 45 q0 23 0 43 q0 27 0.5 55 q0.5 28 2 53 q1.5 25 4.5 45 q3 20 7 32 q12 33 41.5 52.5 q29.5 19.5 81.5 19.5 ZM73 414 q-8 -20 -9.5 -57.5 q-1.5 -37.5 -2.5 -88.5 l211 0 l0 103 q0 43 -24 71.5 q-24 28.5 -78 28.5 q-28 0 -55.5 -11.5 q-27.5 -11.5 -41.5 -45.5 Z" /><glyph glyph-name="f" unicode="f" d="M94 0 l-25 0 l0 465 l-57 0 l0 22 l57 0 l0 129 q0 61 29.5 85.5 q29.5 24.5 73.5 24.5 l14 0 l0 -22 l-14 0 q-44 0 -61 -23.5 q-17 -23.5 -17 -59.5 l0 -134 l86 0 l0 -22 l-86 0 l0 -465 Z" /><glyph glyph-name="g" unicode="g" d="M163 495 q41 0 69 -15.5 q28 -15.5 45 -41.5 l2 0 l0 50 l25 0 l0 -558 q0 -34 -10.5 -59 q-10.5 -25 -28.5 -41.5 q-18 -16.5 -42 -24.5 q-24 -8 -51 -8 q-52 0 -87.5 29.5 q-35.5 29.5 -37.5 90.5 l26 5 q0 -48 26.5 -75 q26.5 -27 74.5 -27 q48 0 76.5 29.5 q28.5 29.5 28.5 78.5 l0 135 l-2 0 q-17 -32 -48.5 -51 q-31.5 -19 -67.5 -19 q-51 2 -76 21.5 q-25 19.5 -36 48.5 q-5 15 -7 36 q-2 21 -3.5 45.5 q-1.5 24.5 -1.5 50 q0 25.5 0 49.5 l0 21 q0 26 0.5 55 q0.5 29 3.5 61 q3 33 15.5 54.5 q12.5 21.5 29.5 35 q17 13.5 37.5 19 q20.5 5.5 39.5 5.5 ZM165 472 q-29 0 -56 -16 q-27 -16 -38 -57 q-5 -16 -6 -54.5 q-1 -38.5 -1 -85.5 q0 -23 0.5 -50 q0.5 -27 1 -52 q0.5 -25 2.5 -45.5 q2 -20.5 5 -30.5 q10 -33 33.5 -49 q23.5 -16 54.5 -16 q27 0 49 11.5 q22 11.5 37.5 30 q15.5 18.5 23.5 41.5 q8 23 8 45 l0 209 q0 53 -32 86 q-32 33 -82 33 Z" /><glyph glyph-name="h" unicode="h" d="M71 430 q17 31 47.5 48 q30.5 17 65.5 17 q37 0 61.5 -11 q24.5 -11 38 -29 q13.5 -18 19 -42.5 q5.5 -24.5 5.5 -51.5 l0 -361 l-26 0 l0 351 q0 24 -4 46 q-4 22 -15 38 q-11 16 -30.5 25.5 q-19.5 9.5 -49.5 9.5 q-28 0 -49 -11.5 q-21 -11.5 -35.5 -29.5 q-14.5 -18 -21.5 -41 q-7 -23 -7 -46 l0 -342 l-25 0 l0 727 l25 0 l0 -297 l1 0 Z" /><glyph glyph-name="i" unicode="i" d="M60 487 l25 0 l0 -487 l-25 0 l0 487 ZM59 636 l28 0 l0 -32 l-28 0 l0 32 Z" /><glyph glyph-name="j" unicode="j" d="M58 487 l25 0 l0 -595 q0 -55 -24.5 -75.5 q-24.5 -20.5 -68.5 -20.5 l-4 0 l0 22 l4 0 q43 0 55.5 21 q12.5 21 12.5 62 l0 586 ZM58 636 l28 0 l0 -32 l-28 0 l0 32 Z" /><glyph glyph-name="k" unicode="k" d="M67 173 l202 313 l29 0 l-114 -175 l143 -311 l-29 0 l-130 286 l-101 -155 l0 -131 l-25 0 l0 727 l25 0 l0 -554 Z" /><glyph glyph-name="l" unicode="l" d="M73 108 q0 -41 14.5 -67 q14.5 -26 55.5 -26 l12 0 l0 -22 l-14 0 q-44 0 -68.5 23.5 q-24.5 23.5 -24.5 82.5 l0 627 l25 0 l0 -618 Z" /><glyph glyph-name="m" unicode="m" d="M293 418 q17 39 49 58 q32 19 66 19 q36 0 59 -11 q23 -11 36.5 -29 q13.5 -18 19 -42.5 q5.5 -24.5 5.5 -51.5 l0 -361 l-25 0 l0 351 q0 56 -21 87.5 q-21 31.5 -75 31.5 q-28 0 -48 -11.5 q-20 -11.5 -33.5 -29.5 q-13.5 -18 -20 -41 q-6.5 -23 -6.5 -46 l0 -342 l-25 0 l0 351 q0 56 -21 87.5 q-21 31.5 -75 31.5 q-28 0 -48 -11.5 q-20 -11.5 -33.5 -29.5 q-13.5 -18 -20 -41 q-6.5 -23 -6.5 -46 l0 -342 l-25 0 l0 487 l25 0 l0 -57 l2 0 q17 31 44.5 48 q27.5 17 62.5 17 q52 0 78 -21.5 q26 -21.5 35 -55.5 l1 0 Z" /><glyph glyph-name="n" unicode="n" d="M72 430 q17 31 47 48 q30 17 65 17 q37 0 61.5 -11 q24.5 -11 38 -29 q13.5 -18 19 -42.5 q5.5 -24.5 5.5 -51.5 l0 -361 l-26 0 l0 351 q0 24 -4 46 q-4 22 -15 38 q-11 16 -30.5 25.5 q-19.5 9.5 -49.5 9.5 q-28 0 -49 -11.5 q-21 -11.5 -35.5 -29.5 q-14.5 -18 -21.5 -41 q-7 -23 -7 -46 l0 -342 l-25 0 l0 487 l25 0 l0 -57 l2 0 Z" /><glyph glyph-name="o" unicode="o" d="M172 495 q55 0 82 -21 q27 -21 39 -51 q4 -15 6.5 -36 q2.5 -21 4 -45 q1.5 -24 1.5 -49 q0 -25 0 -49 l0 -21 q0 -26 -0.5 -54 q-0.5 -28 -3.5 -60 q-3 -33 -15.5 -55 q-12.5 -22 -30.5 -35.5 q-18 -13.5 -39.5 -19.5 q-21.5 -6 -43.5 -6 q-60 0 -89 22.5 q-29 22.5 -40 61.5 q-3 12 -4.5 31 q-1.5 19 -2.5 41 q-1 22 -1 45.5 q0 23.5 0 43.5 q0 27 0.5 55 q0.5 28 1.5 53 q1 25 3.5 45 q2.5 20 6.5 32 q12 33 42.5 52.5 q30.5 19.5 82.5 19.5 ZM171 471 q-14 0 -28.5 -2.5 q-14.5 -2.5 -27.5 -8.5 q-13 -6 -24 -17 q-11 -11 -18 -28 q-9 -23 -10 -70 q-1 -47 -2 -108 l0 -18 q0 -56 2 -89.5 q2 -33.5 8 -52.5 q10 -29 34 -45 q24 -16 66 -16 q34 0 62 17 q28 17 39 55 q5 16 6.5 55 q1.5 39 1.5 86 q0 23 -0.5 50 q-0.5 27 -1.5 52 q-1 25 -3 45 q-2 20 -5 31 q-10 33 -37 48.5 q-27 15.5 -62 15.5 Z" /><glyph glyph-name="p" unicode="p" d="M178 470 q-50 0 -82 -33 q-32 -33 -32 -86 l0 -205 q0 -24 7 -47.5 q7 -23.5 21 -42 q14 -18.5 34.5 -30 q20.5 -11.5 47.5 -11.5 q33 0 59 18.5 q26 18.5 36 51.5 q3 10 4.5 29.5 q1.5 19.5 2.5 43.5 q1 24 1 50 q0 26 0 49 q0 47 -1 85.5 q-1 38.5 -6 54.5 q-11 41 -34.5 57 q-23.5 16 -57.5 16 ZM180 493 q21 0 41.5 -5.5 q20.5 -5.5 37 -19 q16.5 -13.5 28 -35 q11.5 -21.5 14.5 -54.5 q3 -32 3 -61 q0 -29 0 -55 l0 -21 q0 -57 -0.5 -102 q-0.5 -45 -11.5 -74 q-5 -15 -14.5 -28.5 q-9.5 -13.5 -23.5 -24 q-14 -10.5 -34 -16.5 q-20 -6 -47 -6 q-26 0 -44 7 q-18 7 -30.5 17 q-12.5 10 -20 21 q-7.5 11 -12.5 19 l-2 0 l0 -251 l-25 0 l0 682 l25 0 l0 -50 l2 0 q17 26 45 41.5 q28 15.5 69 15.5 Z" /><glyph glyph-name="q" unicode="q" d="M165 472 q-29 0 -56 -16 q-27 -16 -38 -57 q-5 -16 -6 -54.5 q-1 -38.5 -1 -85.5 q0 -23 0.5 -50 q0.5 -27 1 -52 q0.5 -25 2.5 -45.5 q2 -20.5 5 -30.5 q10 -33 33.5 -49 q23.5 -16 54.5 -16 q27 0 49 11.5 q22 11.5 37.5 30 q15.5 18.5 23.5 41.5 q8 23 8 45 l0 209 q0 53 -32 86 q-32 33 -82 33 ZM163 495 q41 0 69 -15.5 q28 -15.5 45 -41.5 l2 0 l0 50 l25 0 l0 -685 l-25 0 l0 260 l-2 0 q-17 -32 -48.5 -51 q-31.5 -19 -67.5 -19 q-51 2 -76 21.5 q-25 19.5 -36 48.5 q-5 15 -7 36 q-2 21 -3.5 45.5 q-1.5 24.5 -1.5 50 q0 25.5 0 49.5 l0 21 q0 26 0.5 55 q0.5 29 3.5 61 q3 33 15.5 54.5 q12.5 21.5 29.5 35 q17 13.5 37.5 19 q20.5 5.5 39.5 5.5 Z" /><glyph glyph-name="r" unicode="r" d="M220 466 q-6 2 -12.5 2 q-6.5 0 -11.5 0 q-54 0 -83.5 -41 q-29.5 -41 -29.5 -109 l0 -318 l-25 0 l0 487 l25 0 l0 -72 l3 0 q14 39 42 59.5 q28 20.5 66 20.5 q7 0 13 0 q6 0 13 -2 l0 -27 Z" /><glyph glyph-name="s" unicode="s" d="M154 -7 q-60 0 -95 29.5 q-35 29.5 -37 90.5 l26 5 q0 -48 28.5 -75.5 q28.5 -27.5 78.5 -26.5 q58 0 81 30 q23 30 23 77 q0 24 -3.5 41.5 q-3.5 17.5 -15 31 q-11.5 13.5 -31.5 25.5 q-20 12 -53 24 q-40 15 -64.5 30 q-24.5 15 -38 30.5 q-13.5 15.5 -18.5 32.5 q-5 17 -5 36 q0 53 31 87 q31 34 99 34 q57 0 93 -30.5 q36 -30.5 36 -90.5 l-26 -5 q0 48 -28.5 75 q-28.5 27 -76.5 27 q-30 0 -49 -8.5 q-19 -8.5 -30.5 -22 q-11.5 -13.5 -16 -31 q-4.5 -17.5 -4.5 -35.5 q0 -18 4.5 -32 q4.5 -14 17 -27 q12.5 -13 35.5 -25 q23 -12 59 -25 q38 -14 60.5 -29 q22.5 -15 34 -32 q11.5 -17 14.5 -36.5 q3 -19.5 3 -43.5 q0 -28 -7 -52 q-7 -24 -22.5 -41.5 q-15.5 -17.5 -40.5 -27.5 q-25 -10 -62 -10 Z" /><glyph glyph-name="t" unicode="t" d="M22 487 l58 0 l0 140 l25 0 l0 -140 l79 0 l0 -22 l-79 0 l0 -359 q0 -36 17 -60 q17 -24 61 -24 l9 0 l0 -22 l-9 0 q-22 0 -40.5 6 q-18.5 6 -32.5 19 q-14 13 -22 34 q-8 21 -8 52 l0 354 l-58 0 l0 22 Z" /><glyph glyph-name="u" unicode="u" d="M282 57 q-17 -31 -47 -48 q-30 -17 -65 -17 q-38 0 -62 11 q-24 11 -37.5 29 q-13.5 18 -19 42.5 q-5.5 24.5 -5.5 51.5 l0 361 l26 0 l0 -351 q0 -24 4 -46 q4 -22 15 -38 q11 -16 30.5 -25.5 q19.5 -9.5 49.5 -9.5 q28 0 49 11.5 q21 11.5 35 29.5 q14 18 21.5 41 q7.5 23 7.5 46 l0 342 l25 0 l0 -487 l-25 0 l0 57 l-2 0 Z" /><glyph glyph-name="v" unicode="v" d="M134 1 l-129 486 l26 0 l116 -438 l2 0 l113 438 l27 0 l-129 -486 l-26 0 Z" /><glyph glyph-name="w" unicode="w" d="M258 436 l-103 -435 l-27 0 l-117 486 l26 0 l104 -439 l2 0 l103 439 l27 0 l103 -439 l2 0 l104 439 l26 0 l-117 -486 l-27 0 l-104 435 l-2 0 Z" /><glyph glyph-name="x" unicode="x" d="M138 232 l-104 -232 l-28 0 l113 250 l-105 236 l28 0 l96 -219 l99 219 l28 0 l-109 -236 l116 -250 l-29 0 l-105 232 Z" /><glyph glyph-name="y" unicode="y" d="M151 46 l122 441 l26 0 l-166 -595 q-10 -39 -34.5 -66 q-24.5 -27 -68.5 -27 l-7 0 l0 23 l7 0 q33 0 52.5 23.5 q19.5 23.5 29.5 63.5 l24 96 l-129 482 l27 0 l115 -441 l2 0 Z" /><glyph glyph-name="z" unicode="z" d="M10 22 l221 442 l-198 0 l0 22 l226 0 l0 -21 l-221 -443 l214 0 l0 -22 l-242 0 l0 22 Z" /><glyph glyph-name="braceleft" unicode="{" d="M98 128 q0 35 -1.5 62 q-1.5 27 -7.5 46 q-6 19 -18.5 31.5 q-12.5 12.5 -34.5 19.5 l0 13 q24 7 36.5 24.5 q12.5 17.5 18.5 40 q6 22.5 7 48 q1 25.5 1 48.5 l0 135 q0 45 18.5 72.5 q18.5 27.5 54.5 27.5 l16 0 l0 -16 l-11 0 q-20 0 -32 -10 q-12 -10 -18 -24.5 q-6 -14.5 -7.5 -31.5 q-1.5 -17 -1.5 -32 l0 -139 q0 -60 -15.5 -99.5 q-15.5 -39.5 -41.5 -48.5 l0 -1 q31 -10 44 -47 q13 -37 13 -93 l0 -152 q0 -14 1.5 -31 q1.5 -17 7.5 -31.5 q6 -14.5 18 -24.5 q12 -10 32 -10 l11 0 l0 -17 l-16 0 q-36 0 -55 27.5 q-19 27.5 -19 72.5 l0 140 l0 0 Z" /><glyph glyph-name="bar" unicode="|" d="M73 716 l19 0 l0 -878 l-19 0 l0 878 Z" /><glyph glyph-name="braceright" unicode="}" d="M126 -12 q0 -45 -19 -72.5 q-19 -27.5 -55 -27.5 l-16 0 l0 17 l11 0 q20 0 32 10 q12 10 18 24.5 q6 14.5 7.5 31.5 q1.5 17 1.5 31 l0 152 q0 56 13 93 q13 37 44 47 l0 1 q-26 9 -41.5 48.5 q-15.5 39.5 -15.5 99.5 l0 139 q0 15 -1.5 32 q-1.5 17 -7.5 31.5 q-6 14.5 -18 24.5 q-12 10 -32 10 l-11 0 l0 16 l16 0 q36 0 54.5 -27.5 q18.5 -27.5 18.5 -72.5 l0 -135 q0 -23 1 -48.5 q1 -25.5 7 -48 q6 -22.5 18.5 -40 q12.5 -17.5 36.5 -24.5 l0 -13 q-22 -7 -34.5 -19.5 q-12.5 -12.5 -18.5 -31.5 q-6 -19 -7.5 -46 q-1.5 -27 -1.5 -62 l0 -140 Z" /><glyph glyph-name="asciitilde" unicode="~" d="M250 205 q-19 0 -38.5 7 q-19.5 7 -39 15.5 q-19.5 8.5 -39.5 15.5 q-20 7 -40 7 q-17 0 -32.5 -6.5 q-15.5 -6.5 -29.5 -23.5 l-13 14 q27 39 76 39 q22 0 43 -7 q21 -7 40.5 -16 q19.5 -9 37.5 -16 q18 -7 34 -7 q17 0 33 5.5 q16 5.5 33 28.5 l15 -12 q-27 -44 -80 -44 Z" /><glyph glyph-name="sterling" unicode="£" d="M182 703 q28 0 53.5 -7.5 q25.5 -7.5 45 -25 q19.5 -17.5 31 -45 q11.5 -27.5 11.5 -66.5 l-25 -6 q0 68 -33 97.5 q-33 29.5 -83 29.5 q-54 0 -83 -31 q-29 -31 -29 -82 q0 -27 5 -52 q5 -25 12 -50 q7 -25 14.5 -51.5 q7.5 -26.5 12.5 -56.5 l113 0 l0 -23 l-110 0 q3 -23 3 -46 q0 -83 -16 -144 q-16 -61 -45 -120 l253 0 l0 -24 l-282 0 l0 24 q32 58 48.5 127 q16.5 69 16.5 141 q0 10 -1 20.5 q-1 10.5 -3 21.5 l-65 0 l0 23 l62 0 q-6 28 -13.5 57.5 q-7.5 29.5 -14.5 57 q-7 27.5 -12 51.5 q-5 24 -5 41 q0 63 36.5 101 q36.5 38 102.5 38 Z" /><glyph glyph-name="yen" unicode="¥" d="M153 306 l-131 390 l25 0 l122 -369 l2 0 l121 369 l27 0 l-132 -390 l120 0 l0 -21 l-124 0 l0 -79 l124 0 l0 -21 l-124 0 l0 -185 l-25 0 l0 185 l-115 0 l0 21 l115 0 l0 79 l-115 0 l0 21 l110 0 Z" /><glyph glyph-name="section" unicode="§" d="M357 289 q0 -34 -23.5 -66 q-23.5 -32 -61.5 -58 q33 -31 46 -58 q13 -27 13 -53 q0 -31 -11.5 -55.5 q-11.5 -24.5 -32 -41.5 q-20.5 -17 -48.5 -26 q-28 -9 -61 -9 q-28 0 -58.5 9.5 q-30.5 9.5 -58.5 27.5 l13 19 q24 -16 49 -25 q25 -9 54 -9 q60 0 94.5 30 q34.5 30 34.5 75 q0 41 -30.5 77 q-30.5 36 -106.5 80 q-58 34 -87.5 67.5 q-29.5 33.5 -29.5 72.5 q0 45 24 74.5 q24 29.5 60 49.5 q-35 26 -47.5 51.5 q-12.5 25.5 -12.5 53.5 q0 54 34.5 90.5 q34.5 36.5 96.5 36.5 q35 0 62 -8 q27 -8 57 -30 l-19 -20 q-23 18 -45 26.5 q-22 8.5 -55 8.5 q-26 0 -45 -9 q-19 -9 -32.5 -23.5 q-13.5 -14.5 -20 -33 q-6.5 -18.5 -6.5 -37.5 q0 -22 8.5 -38.5 q8.5 -16.5 24 -30.5 q15.5 -14 36.5 -26.5 q21 -12.5 46 -27.5 q29 -17 54.5 -34.5 q25.5 -17.5 44 -37 q18.5 -19.5 29.5 -42.5 q11 -23 11 -50 ZM333 287 q0 49 -44.5 87.5 q-44.5 38.5 -125.5 81.5 q-16 -7 -31.5 -17 q-15.5 -10 -28 -23.5 q-12.5 -13.5 -20 -30.5 q-7.5 -17 -7.5 -38 q0 -23 11.5 -42 q11.5 -19 30 -35 q18.5 -16 40.5 -29.5 q22 -13.5 43 -25.5 q14 -8 28 -16.5 q14 -8.5 25 -16.5 q15 8 29 20 q14 12 25 26 q11 14 18 29.5 q7 15.5 7 29.5 Z" /><glyph glyph-name="quotesingle" unicode="&#39;" d="M50 696 l23 0 l0 -158 l-23 0 l0 158 Z" /><glyph glyph-name="quotedblleft" unicode="&#x201c;" d="M60 701 l18 0 l-17 -82 l9 0 l0 -36 l-36 0 l0 36 l26 82 ZM138 701 l18 0 l-17 -82 l9 0 l0 -36 l-36 0 l0 36 l26 82 Z" /><glyph glyph-name="guillemotleft" unicode="«" d="M141 46 l-107 186 l107 186 l27 0 l-106 -186 l106 -186 l-27 0 ZM245 46 l-107 186 l107 186 l27 0 l-106 -186 l106 -186 l-27 0 Z" /><glyph glyph-name="endash" unicode="&#x2013;" d="M20 272 l460 0 l0 -26 l-460 0 l0 26 Z" /><glyph glyph-name="dagger" unicode="&#x2020;" d="M172 -198 l-29 0 l0 622 l-141 0 l0 26 l141 0 l0 246 l29 0 l0 -246 l142 0 l0 -26 l-142 0 l0 -622 Z" /><glyph glyph-name="periodcentered" unicode="·" d="M36 239 l0 40 l38 0 l0 -40 l-38 0 Z" /><glyph glyph-name="bullet" unicode="&#x2022;" d="M167 187 q-30 0 -51 21.5 q-21 21.5 -21 51.5 q0 31 21 52.5 q21 21.5 51 21.5 q29 0 50 -21.5 q21 -21.5 21 -52.5 q0 -31 -21 -52 q-21 -21 -50 -21 Z" /><glyph glyph-name="quotedblright" unicode="&#x201d;" d="M130 583 l-18 0 l17 82 l-9 0 l0 36 l36 0 l0 -36 l-26 -82 ZM52 583 l-18 0 l17 82 l-9 0 l0 36 l36 0 l0 -36 l-26 -82 Z" /><glyph glyph-name="guillemotright" unicode="»" d="M138 46 l106 186 l-106 186 l27 0 l107 -186 l-107 -186 l-27 0 ZM34 46 l106 186 l-106 186 l27 0 l107 -186 l-107 -186 l-27 0 Z" /><glyph glyph-name="ellipsis" unicode="&#x2026;" d="M36 0 l0 38 l36 0 l0 -38 l-36 0 ZM228 0 l0 38 l36 0 l0 -38 l-36 0 ZM428 0 l0 38 l36 0 l0 -38 l-36 0 Z" /><glyph glyph-name="grave" unicode="`" d="M236 556 l-84 136 l33 13 l66 -143 l-15 -6 Z" /><glyph glyph-name="dieresis" unicode="¨" d="M79 615 l28 0 l0 -32 l-28 0 l0 32 ZM221 615 l28 0 l0 -32 l-28 0 l0 32 Z" /><glyph glyph-name="oe" unicode="&#x153;" d="M421 495 q59 0 93 -31.5 q34 -31.5 34 -91.5 l0 -127 l-237 0 l0 -26 q0 -18 0.5 -39 q0.5 -21 1.5 -40.5 q1 -19.5 3 -36 q2 -16.5 5 -25.5 q8 -25 30.5 -43.5 q22.5 -18.5 63.5 -18.5 q26 0 45.5 8 q19.5 8 32 21.5 q12.5 13.5 19.5 31 q7 17.5 9 37.5 l24 -5 q-5 -56 -41 -86 q-36 -30 -86 -30 q-29 0 -50.5 6.5 q-21.5 6.5 -36.5 18 q-15 11.5 -24 26 q-9 14.5 -13 29.5 q-15 -44 -50 -62 q-35 -18 -72 -18 q-60 0 -89 22.5 q-29 22.5 -40 61.5 q-3 12 -4.5 31 q-1.5 19 -2.5 41 q-1 22 -1 45.5 q0 23.5 0 43.5 q0 27 0.5 55 q0.5 28 1.5 53 q1 25 3.5 45 q2.5 20 6.5 32 q12 33 42.5 52.5 q30.5 19.5 82.5 19.5 q55 0 83 -22.5 q28 -22.5 40 -52.5 l3 0 q12 33 41.5 54 q29.5 21 81.5 21 ZM171 471 q-14 0 -28.5 -2.5 q-14.5 -2.5 -27.5 -8.5 q-13 -6 -24 -17 q-11 -11 -18 -28 q-9 -23 -10 -70 q-1 -47 -2 -108 l0 -18 q0 -56 2 -89.5 q2 -33.5 8 -52.5 q10 -29 34 -45 q24 -16 66 -16 q34 0 62 17 q28 17 39 55 q5 16 6.5 55 q1.5 39 1.5 86 q0 23 -0.5 50 q-0.5 27 -1.5 52 q-1 25 -3 45 q-2 20 -5 31 q-10 33 -37 48.5 q-27 15.5 -62 15.5 ZM323 414 q-8 -20 -9.5 -57.5 q-1.5 -37.5 -2.5 -88.5 l211 0 l0 103 q0 43 -24 71.5 q-24 28.5 -78 28.5 q-28 0 -55.5 -11.5 q-27.5 -11.5 -41.5 -45.5 Z" /><glyph glyph-name="germandbls" unicode="ß" d="M227 431 q26 -5 41.5 -18 q15.5 -13 24 -31 q8.5 -18 11.5 -39.5 q3 -21.5 3 -43.5 l0 -157 q0 -32 -5 -59 q-5 -27 -17.5 -47 q-12.5 -20 -34 -31.5 q-21.5 -11.5 -55.5 -11.5 l-40 0 l0 22 l22 0 q61 0 82.5 33 q21.5 33 21.5 94 l0 164 q0 48 -24.5 80 q-24.5 32 -73.5 32 l0 26 q22 0 38.5 8.5 q16.5 8.5 27.5 22 q11 13.5 17 30.5 q6 17 6 34 l0 59 q0 43 -29.5 73.5 q-29.5 30.5 -77.5 30.5 q-48 0 -76.5 -30.5 q-28.5 -30.5 -28.5 -73.5 l0 -598 l-25 0 l0 601 q0 31 10.5 54 q10.5 23 28.5 39 q18 16 42 24 q24 8 51 8 q26 0 49.5 -8.5 q23.5 -8.5 41.5 -24 q18 -15.5 29 -39 q11 -23.5 11 -53.5 l0 -61 q0 -16 -3.5 -32 q-3.5 -16 -12 -30.5 q-8.5 -14.5 -22 -26 q-13.5 -11.5 -33.5 -17.5 l0 -3 Z" /><glyph glyph-name="mu" unicode="µ&#x3bc;" d="M71 -199 l-25 0 l0 686 l26 0 l0 -351 q0 -24 4 -46 q4 -22 15 -38 q11 -16 30.5 -25.5 q19.5 -9.5 49.5 -9.5 q28 0 49 11.5 q21 11.5 35 29.5 q14 18 21.5 41 q7.5 23 7.5 46 l0 342 l25 0 l0 -487 l-25 0 l0 57 l-2 0 q-17 -31 -47 -48 q-30 -17 -65 -17 q-38 0 -61.5 10.5 q-23.5 10.5 -37.5 28.5 l0 -230 Z" /><glyph glyph-name="trademark" unicode="&#x2122;" d="M502 630 l-110 -253 l-15 0 l-111 260 l-3 0 l0 -317 l-21 0 l0 375 l21 0 l122 -286 l122 286 l19 0 l0 -375 l-21 0 l0 310 l-3 0 ZM127 320 l-22 0 l0 353 l-84 0 l0 23 l190 0 l0 -23 l-84 0 l0 -353 Z" /><glyph glyph-name="plusminus" unicode="±" d="M180 125 l-23 0 l0 156 l-138 0 l0 24 l138 0 l0 153 l23 0 l0 -153 l138 0 l0 -24 l-138 0 l0 -156 ZM19 61 l0 24 l299 0 l0 -24 l-299 0 Z" /><glyph glyph-name="divide" unicode="÷" d="M170 406 q-11 0 -18.5 8 q-7.5 8 -7.5 19 q0 11 7.5 19 q7.5 8 18.5 8 q11 0 19 -8 q8 -8 8 -19 q0 -11 -8 -19 q-8 -8 -19 -8 ZM170 116 q-11 0 -18.5 8.5 q-7.5 8.5 -7.5 19.5 q0 11 7.5 19 q7.5 8 18.5 8 q11 0 19 -8 q8 -8 8 -19 q0 -11 -8 -19.5 q-8 -8.5 -19 -8.5 ZM19 281 l0 24 l299 0 l0 -24 l-299 0 Z" /><glyph glyph-name="degree" unicode="°" d="M146 670 q-27 0 -46 -19 q-19 -19 -19 -47 q0 -29 19 -47.5 q19 -18.5 46 -18.5 q28 0 46.5 18.5 q18.5 18.5 18.5 47.5 q0 28 -18.5 47 q-18.5 19 -46.5 19 ZM146 692 q37 0 62 -25.5 q25 -25.5 25 -62.5 q0 -38 -25 -63 q-25 -25 -62 -25 q-36 0 -61.5 25 q-25.5 25 -25.5 63 q0 37 25.5 62.5 q25.5 25.5 61.5 25.5 Z" /><glyph glyph-name="registered" unicode="®" d="M292 363 l-40 112 l-41 0 l0 -112 l-24 0 l0 257 l57 0 q34 0 53.5 -18.5 q19.5 -18.5 19.5 -56.5 q0 -20 -9 -39 q-9 -19 -32 -30 q11 -27 22 -56.5 q11 -29.5 21 -56.5 l-27 0 ZM292 545 q0 24 -12 38 q-12 14 -38 14 l-31 0 l0 -103 l34 0 q27 0 37 14 q10 14 10 37 ZM248 276 q-45 0 -80.5 16.5 q-35.5 16.5 -59.5 45.5 q-24 29 -37 68.5 q-13 39.5 -13 85.5 q0 47 12 87 q12 40 36 69 q24 29 59.5 45.5 q35.5 16.5 82.5 16.5 q45 0 79.5 -16.5 q34.5 -16.5 58 -45.5 q23.5 -29 36 -69 q12.5 -40 12.5 -87 q0 -46 -12.5 -85.5 q-12.5 -39.5 -36.5 -68.5 q-24 -29 -58.5 -45.5 q-34.5 -16.5 -78.5 -16.5 ZM248 689 q-41 0 -72.5 -15 q-31.5 -15 -52.5 -41.5 q-21 -26.5 -31.5 -62 q-10.5 -35.5 -10.5 -76.5 q0 -42 11.5 -78 q11.5 -36 33 -62 q21.5 -26 52.5 -40.5 q31 -14.5 70 -14.5 q40 0 70.5 15.5 q30.5 15.5 51 42 q20.5 26.5 30.5 62 q10 35.5 10 75.5 q0 41 -11 76.5 q-11 35.5 -32 62 q-21 26.5 -51 41.5 q-30 15 -68 15 Z" /><glyph glyph-name="copyright" unicode="©" d="M467 236 q0 -24 -8.5 -42.5 q-8.5 -18.5 -23 -31.5 q-14.5 -13 -33.5 -20 q-19 -7 -40 -7 q-21 0 -40 6 q-19 6 -34 19 q-15 13 -23.5 32.5 q-8.5 19.5 -8.5 45.5 l0 192 q0 52 31 79 q31 27 75 27 q42 0 73.5 -25.5 q31.5 -25.5 31.5 -77.5 l-24 -4 q0 40 -23 61.5 q-23 21.5 -59 21.5 q-36 0 -58 -22 q-22 -22 -22 -56 l0 -198 q0 -34 22.5 -55.5 q22.5 -21.5 57.5 -21.5 q36 0 58 21.5 q22 21.5 22 58.5 l26 -3 ZM363 -8 q-74 0 -130 26.5 q-56 26.5 -94 73.5 q-38 47 -57.5 110.5 q-19.5 63.5 -19.5 138.5 q0 75 19.5 139 q19.5 64 57.5 111.5 q38 47.5 94 74 q56 26.5 130 26.5 q73 0 129 -26.5 q56 -26.5 94 -74 q38 -47.5 58 -111.5 q20 -64 20 -139 q0 -75 -20 -138.5 q-20 -63.5 -58 -110.5 q-38 -47 -94 -73.5 q-56 -26.5 -129 -26.5 ZM363 669 q-69 0 -120.5 -26 q-51.5 -26 -86 -70.5 q-34.5 -44.5 -52 -104 q-17.5 -59.5 -17.5 -127.5 q0 -72 19 -131.5 q19 -59.5 54.5 -103 q35.5 -43.5 86.5 -67.5 q51 -24 116 -24 q66 0 117.5 24.5 q51.5 24.5 86.5 68 q35 43.5 53.5 103 q18.5 59.5 18.5 130.5 q0 71 -18.5 131 q-18.5 60 -53.5 104 q-35 44 -86.5 68.5 q-51.5 24.5 -117.5 24.5 Z" /><glyph glyph-name="Adieresis" unicode="ä" d="M289 196 l-213 0 l-44 -196 l-24 0 l156 696 l37 0 l158 -696 l-25 0 l-45 196 ZM142 493 l-61 -274 l203 0 l-62 276 l-39 178 l-2 0 l-39 -180 ZM97 773 l28 0 l0 -32 l-28 0 l0 32 ZM239 773 l28 0 l0 -32 l-28 0 l0 32 Z" /><glyph glyph-name="Eacute" unicode="é" d="M52 696 l276 0 l0 -23 l-251 0 l0 -302 l223 0 l0 -23 l-223 0 l0 -324 l251 0 l0 -24 l-276 0 l0 696 ZM133 745 l120 102 l25 -26 l-134 -88 l-11 12 Z" /><glyph glyph-name="Odieresis" unicode="ö" d="M328 558 q0 60 -37.5 90.5 q-37.5 30.5 -91.5 30.5 q-56 0 -92.5 -33 q-36.5 -33 -36.5 -93 l0 -416 q0 -61 36.5 -91 q36.5 -30 92.5 -30 q62 0 95.5 32 q33.5 32 33.5 93 l0 417 ZM199 -7 q-32 0 -60 8.5 q-28 8.5 -49 26.5 q-21 18 -33 45 q-12 27 -12 65 l0 416 q0 37 12 65 q12 28 33 46.5 q21 18.5 49 27.5 q28 9 60 9 q32 0 60 -8.5 q28 -8.5 49 -26 q21 -17.5 33 -44.5 q12 -27 12 -64 l0 -419 q0 -38 -12 -65.5 q-12 -27.5 -33 -45.5 q-21 -18 -49 -27 q-28 -9 -60 -9 ZM113 773 l28 0 l0 -32 l-28 0 l0 32 ZM255 773 l28 0 l0 -32 l-28 0 l0 32 Z" /><glyph glyph-name="Udieresis" unicode="ü" d="M343 695 l0 -555 q0 -38 -12 -65.5 q-12 -27.5 -33 -45.5 q-21 -18 -49 -27 q-28 -9 -60 -9 q-32 0 -60 8.5 q-28 8.5 -49 26.5 q-21 18 -33 45 q-12 27 -12 65 l0 557 l25 0 l0 -558 q0 -61 36.5 -91 q36.5 -30 92.5 -30 q62 0 95.5 32 q33.5 32 33.5 93 l0 554 l25 0 ZM107 773 l28 0 l0 -32 l-28 0 l0 32 ZM249 773 l28 0 l0 -32 l-28 0 l0 32 Z" /><glyph glyph-name="acircumflex" unicode="â" d="M166 259 q-51 0 -84 -30.5 q-33 -30.5 -33 -102.5 q0 -21 5.5 -41 q5.5 -20 18 -35 q12.5 -15 33 -24.5 q20.5 -9.5 50.5 -9.5 q46 0 78.5 25 q32.5 25 32.5 75 l0 143 l-101 0 ZM39 423 q15 32 46 52 q31 20 82 20 q61 0 93.5 -27.5 q32.5 -27.5 32.5 -99.5 l0 -368 l-26 0 l0 44 l-2 0 q-13 -17 -28 -27 q-15 -10 -30.5 -15 q-15.5 -5 -31 -6.5 q-15.5 -1.5 -28.5 -1.5 q-34 0 -57.5 11 q-23.5 11 -38 29.5 q-14.5 18.5 -21 43 q-6.5 24.5 -6.5 51.5 q0 28 6.5 55.5 q6.5 27.5 22.5 49.5 q16 22 42.5 35.5 q26.5 13.5 66.5 13.5 l105 0 l0 83 q0 23 -4 42.5 q-4 19.5 -15 33.5 q-11 14 -31 22 q-20 8 -52 8 q-39 0 -65.5 -17 q-26.5 -17 -36.5 -42 l-24 10 ZM169 649 l-107 -98 l-11 10 l107 114 l24 0 l104 -112 l-12 -11 l-105 97 Z" /><glyph glyph-name="adieresis" unicode="ä" d="M166 259 q-51 0 -84 -30.5 q-33 -30.5 -33 -102.5 q0 -21 5.5 -41 q5.5 -20 18 -35 q12.5 -15 33 -24.5 q20.5 -9.5 50.5 -9.5 q46 0 78.5 25 q32.5 25 32.5 75 l0 143 l-101 0 ZM39 423 q15 32 46 52 q31 20 82 20 q61 0 93.5 -27.5 q32.5 -27.5 32.5 -99.5 l0 -368 l-26 0 l0 44 l-2 0 q-13 -17 -28 -27 q-15 -10 -30.5 -15 q-15.5 -5 -31 -6.5 q-15.5 -1.5 -28.5 -1.5 q-34 0 -57.5 11 q-23.5 11 -38 29.5 q-14.5 18.5 -21 43 q-6.5 24.5 -6.5 51.5 q0 28 6.5 55.5 q6.5 27.5 22.5 49.5 q16 22 42.5 35.5 q26.5 13.5 66.5 13.5 l105 0 l0 83 q0 23 -4 42.5 q-4 19.5 -15 33.5 q-11 14 -31 22 q-20 8 -52 8 q-39 0 -65.5 -17 q-26.5 -17 -36.5 -42 l-24 10 ZM83 615 l28 0 l0 -32 l-28 0 l0 32 ZM225 615 l28 0 l0 -32 l-28 0 l0 32 Z" /><glyph glyph-name="agrave" unicode="à" d="M166 259 q-51 0 -84 -30.5 q-33 -30.5 -33 -102.5 q0 -21 5.5 -41 q5.5 -20 18 -35 q12.5 -15 33 -24.5 q20.5 -9.5 50.5 -9.5 q46 0 78.5 25 q32.5 25 32.5 75 l0 143 l-101 0 ZM39 423 q15 32 46 52 q31 20 82 20 q61 0 93.5 -27.5 q32.5 -27.5 32.5 -99.5 l0 -368 l-26 0 l0 44 l-2 0 q-13 -17 -28 -27 q-15 -10 -30.5 -15 q-15.5 -5 -31 -6.5 q-15.5 -1.5 -28.5 -1.5 q-34 0 -57.5 11 q-23.5 11 -38 29.5 q-14.5 18.5 -21 43 q-6.5 24.5 -6.5 51.5 q0 28 6.5 55.5 q6.5 27.5 22.5 49.5 q16 22 42.5 35.5 q26.5 13.5 66.5 13.5 l105 0 l0 83 q0 23 -4 42.5 q-4 19.5 -15 33.5 q-11 14 -31 22 q-20 8 -52 8 q-39 0 -65.5 -17 q-26.5 -17 -36.5 -42 l-24 10 ZM182 556 l-84 136 l33 13 l66 -143 l-15 -6 Z" /><glyph glyph-name="ccedilla" unicode="ç" d="M172 495 q57 0 91.5 -30.5 q34.5 -30.5 34.5 -90.5 l-26 -5 q0 48 -26 75 q-26 27 -77 27 q-28 0 -54.5 -12 q-26.5 -12 -40.5 -46 q-8 -19 -9.5 -67 q-1.5 -48 -2.5 -109 l0 -18 q0 -18 0.5 -39 q0.5 -21 1.5 -40.5 q1 -19.5 3 -36 q2 -16.5 5 -25.5 q10 -29 33.5 -45.5 q23.5 -16.5 61.5 -16.5 q48 0 75.5 24.5 q27.5 24.5 29.5 77.5 l26 -5 q-2 -58 -34 -87 q-32 -29 -84 -32 l-15 -61 q24 -2 39.5 -9 q15.5 -7 24.5 -17.5 q9 -10.5 13 -22 q4 -11.5 4 -21.5 q0 -26 -18 -48 q-18 -22 -56 -22 q-19 0 -35.5 3 q-16.5 3 -36.5 13 l9 19 q16 -8 31 -10.5 q15 -2.5 27 -2.5 q24 0 39 12 q15 12 15 35 q0 20 -16.5 34.5 q-16.5 14.5 -49.5 16.5 l-16 11 l19 69 q-54 3 -80 28 q-26 25 -34 56 q-3 12 -5 31.5 q-2 19.5 -3 41.5 q-1 22 -1 45 q0 23 0 43 q0 27 0.5 54.5 q0.5 27.5 2 52 q1.5 24.5 4 44 q2.5 19.5 6.5 31.5 q12 33 42 54 q30 21 82 21 Z" /><glyph glyph-name="eacute" unicode="é" d="M171 495 q59 0 93 -31.5 q34 -31.5 34 -91.5 l0 -127 l-237 0 l0 -26 q0 -18 0.5 -39 q0.5 -21 1.5 -40.5 q1 -19.5 3 -36 q2 -16.5 5 -25.5 q8 -25 30.5 -43.5 q22.5 -18.5 63.5 -18.5 q26 0 45.5 8 q19.5 8 32 21.5 q12.5 13.5 19.5 31 q7 17.5 9 37.5 l24 -5 q-5 -56 -41 -86 q-36 -30 -86 -30 q-30 0 -51.5 7 q-21.5 7 -36.5 19 q-15 12 -24 27 q-9 15 -13 31 q-3 12 -5 31.5 q-2 19.5 -3 41.5 q-1 22 -1 45 q0 23 0 43 q0 27 0.5 55 q0.5 28 2 53 q1.5 25 4.5 45 q3 20 7 32 q12 33 41.5 52.5 q29.5 19.5 81.5 19.5 ZM73 414 q-8 -20 -9.5 -57.5 q-1.5 -37.5 -2.5 -88.5 l211 0 l0 103 q0 43 -24 71.5 q-24 28.5 -78 28.5 q-28 0 -55.5 -11.5 q-27.5 -11.5 -41.5 -45.5 ZM151 562 l66 143 l33 -13 l-84 -136 l-15 6 Z" /><glyph glyph-name="ecircumflex" unicode="ê" d="M171 495 q59 0 93 -31.5 q34 -31.5 34 -91.5 l0 -127 l-237 0 l0 -26 q0 -18 0.5 -39 q0.5 -21 1.5 -40.5 q1 -19.5 3 -36 q2 -16.5 5 -25.5 q8 -25 30.5 -43.5 q22.5 -18.5 63.5 -18.5 q26 0 45.5 8 q19.5 8 32 21.5 q12.5 13.5 19.5 31 q7 17.5 9 37.5 l24 -5 q-5 -56 -41 -86 q-36 -30 -86 -30 q-30 0 -51.5 7 q-21.5 7 -36.5 19 q-15 12 -24 27 q-9 15 -13 31 q-3 12 -5 31.5 q-2 19.5 -3 41.5 q-1 22 -1 45 q0 23 0 43 q0 27 0.5 55 q0.5 28 2 53 q1.5 25 4.5 45 q3 20 7 32 q12 33 41.5 52.5 q29.5 19.5 81.5 19.5 ZM73 414 q-8 -20 -9.5 -57.5 q-1.5 -37.5 -2.5 -88.5 l211 0 l0 103 q0 43 -24 71.5 q-24 28.5 -78 28.5 q-28 0 -55.5 -11.5 q-27.5 -11.5 -41.5 -45.5 ZM166 649 l-107 -98 l-11 10 l107 114 l24 0 l104 -112 l-12 -11 l-105 97 Z" /><glyph glyph-name="edieresis" unicode="ë" d="M171 495 q59 0 93 -31.5 q34 -31.5 34 -91.5 l0 -127 l-237 0 l0 -26 q0 -18 0.5 -39 q0.5 -21 1.5 -40.5 q1 -19.5 3 -36 q2 -16.5 5 -25.5 q8 -25 30.5 -43.5 q22.5 -18.5 63.5 -18.5 q26 0 45.5 8 q19.5 8 32 21.5 q12.5 13.5 19.5 31 q7 17.5 9 37.5 l24 -5 q-5 -56 -41 -86 q-36 -30 -86 -30 q-30 0 -51.5 7 q-21.5 7 -36.5 19 q-15 12 -24 27 q-9 15 -13 31 q-3 12 -5 31.5 q-2 19.5 -3 41.5 q-1 22 -1 45 q0 23 0 43 q0 27 0.5 55 q0.5 28 2 53 q1.5 25 4.5 45 q3 20 7 32 q12 33 41.5 52.5 q29.5 19.5 81.5 19.5 ZM73 414 q-8 -20 -9.5 -57.5 q-1.5 -37.5 -2.5 -88.5 l211 0 l0 103 q0 43 -24 71.5 q-24 28.5 -78 28.5 q-28 0 -55.5 -11.5 q-27.5 -11.5 -41.5 -45.5 ZM79 615 l28 0 l0 -32 l-28 0 l0 32 ZM221 615 l28 0 l0 -32 l-28 0 l0 32 Z" /><glyph glyph-name="egrave" unicode="è" d="M171 495 q59 0 93 -31.5 q34 -31.5 34 -91.5 l0 -127 l-237 0 l0 -26 q0 -18 0.5 -39 q0.5 -21 1.5 -40.5 q1 -19.5 3 -36 q2 -16.5 5 -25.5 q8 -25 30.5 -43.5 q22.5 -18.5 63.5 -18.5 q26 0 45.5 8 q19.5 8 32 21.5 q12.5 13.5 19.5 31 q7 17.5 9 37.5 l24 -5 q-5 -56 -41 -86 q-36 -30 -86 -30 q-30 0 -51.5 7 q-21.5 7 -36.5 19 q-15 12 -24 27 q-9 15 -13 31 q-3 12 -5 31.5 q-2 19.5 -3 41.5 q-1 22 -1 45 q0 23 0 43 q0 27 0.5 55 q0.5 28 2 53 q1.5 25 4.5 45 q3 20 7 32 q12 33 41.5 52.5 q29.5 19.5 81.5 19.5 ZM73 414 q-8 -20 -9.5 -57.5 q-1.5 -37.5 -2.5 -88.5 l211 0 l0 103 q0 43 -24 71.5 q-24 28.5 -78 28.5 q-28 0 -55.5 -11.5 q-27.5 -11.5 -41.5 -45.5 ZM183 556 l-84 136 l33 13 l66 -143 l-15 -6 Z" /><glyph glyph-name="icircumflex" unicode="î" d="M84 487 l25 0 l0 -487 l-25 0 l0 487 ZM98 649 l-107 -98 l-11 10 l107 114 l24 0 l104 -112 l-12 -11 l-105 97 Z" /><glyph glyph-name="idieresis" unicode="ï" d="M68 487 l25 0 l0 -487 l-25 0 l0 487 ZM-5 615 l28 0 l0 -32 l-28 0 l0 32 ZM137 615 l28 0 l0 -32 l-28 0 l0 32 Z" /><glyph glyph-name="ocircumflex" unicode="ô" d="M172 495 q55 0 82 -21 q27 -21 39 -51 q4 -15 6.5 -36 q2.5 -21 4 -45 q1.5 -24 1.5 -49 q0 -25 0 -49 l0 -21 q0 -26 -0.5 -54 q-0.5 -28 -3.5 -60 q-3 -33 -15.5 -55 q-12.5 -22 -30.5 -35.5 q-18 -13.5 -39.5 -19.5 q-21.5 -6 -43.5 -6 q-60 0 -89 22.5 q-29 22.5 -40 61.5 q-3 12 -4.5 31 q-1.5 19 -2.5 41 q-1 22 -1 45.5 q0 23.5 0 43.5 q0 27 0.5 55 q0.5 28 1.5 53 q1 25 3.5 45 q2.5 20 6.5 32 q12 33 42.5 52.5 q30.5 19.5 82.5 19.5 ZM171 471 q-14 0 -28.5 -2.5 q-14.5 -2.5 -27.5 -8.5 q-13 -6 -24 -17 q-11 -11 -18 -28 q-9 -23 -10 -70 q-1 -47 -2 -108 l0 -18 q0 -56 2 -89.5 q2 -33.5 8 -52.5 q10 -29 34 -45 q24 -16 66 -16 q34 0 62 17 q28 17 39 55 q5 16 6.5 55 q1.5 39 1.5 86 q0 23 -0.5 50 q-0.5 27 -1.5 52 q-1 25 -3 45 q-2 20 -5 31 q-10 33 -37 48.5 q-27 15.5 -62 15.5 ZM175 649 l-107 -98 l-11 10 l107 114 l24 0 l104 -112 l-12 -11 l-105 97 Z" /><glyph glyph-name="odieresis" unicode="ö" d="M172 495 q55 0 82 -21 q27 -21 39 -51 q4 -15 6.5 -36 q2.5 -21 4 -45 q1.5 -24 1.5 -49 q0 -25 0 -49 l0 -21 q0 -26 -0.5 -54 q-0.5 -28 -3.5 -60 q-3 -33 -15.5 -55 q-12.5 -22 -30.5 -35.5 q-18 -13.5 -39.5 -19.5 q-21.5 -6 -43.5 -6 q-60 0 -89 22.5 q-29 22.5 -40 61.5 q-3 12 -4.5 31 q-1.5 19 -2.5 41 q-1 22 -1 45.5 q0 23.5 0 43.5 q0 27 0.5 55 q0.5 28 1.5 53 q1 25 3.5 45 q2.5 20 6.5 32 q12 33 42.5 52.5 q30.5 19.5 82.5 19.5 ZM171 471 q-14 0 -28.5 -2.5 q-14.5 -2.5 -27.5 -8.5 q-13 -6 -24 -17 q-11 -11 -18 -28 q-9 -23 -10 -70 q-1 -47 -2 -108 l0 -18 q0 -56 2 -89.5 q2 -33.5 8 -52.5 q10 -29 34 -45 q24 -16 66 -16 q34 0 62 17 q28 17 39 55 q5 16 6.5 55 q1.5 39 1.5 86 q0 23 -0.5 50 q-0.5 27 -1.5 52 q-1 25 -3 45 q-2 20 -5 31 q-10 33 -37 48.5 q-27 15.5 -62 15.5 ZM89 615 l28 0 l0 -32 l-28 0 l0 32 ZM231 615 l28 0 l0 -32 l-28 0 l0 32 Z" /><glyph glyph-name="ucircumflex" unicode="û" d="M282 57 q-17 -31 -47 -48 q-30 -17 -65 -17 q-38 0 -62 11 q-24 11 -37.5 29 q-13.5 18 -19 42.5 q-5.5 24.5 -5.5 51.5 l0 361 l26 0 l0 -351 q0 -24 4 -46 q4 -22 15 -38 q11 -16 30.5 -25.5 q19.5 -9.5 49.5 -9.5 q28 0 49 11.5 q21 11.5 35 29.5 q14 18 21.5 41 q7.5 23 7.5 46 l0 342 l25 0 l0 -487 l-25 0 l0 57 l-2 0 ZM180 649 l-107 -98 l-11 10 l107 114 l24 0 l104 -112 l-12 -11 l-105 97 Z" /><glyph glyph-name="udieresis" unicode="ü" d="M282 57 q-17 -31 -47 -48 q-30 -17 -65 -17 q-38 0 -62 11 q-24 11 -37.5 29 q-13.5 18 -19 42.5 q-5.5 24.5 -5.5 51.5 l0 361 l26 0 l0 -351 q0 -24 4 -46 q4 -22 15 -38 q11 -16 30.5 -25.5 q19.5 -9.5 49.5 -9.5 q28 0 49 11.5 q21 11.5 35 29.5 q14 18 21.5 41 q7.5 23 7.5 46 l0 342 l25 0 l0 -487 l-25 0 l0 57 l-2 0 ZM84 615 l28 0 l0 -32 l-28 0 l0 32 ZM226 615 l28 0 l0 -32 l-28 0 l0 32 Z" /><glyph glyph-name="ugrave" unicode="ù" d="M282 57 q-17 -31 -47 -48 q-30 -17 -65 -17 q-38 0 -62 11 q-24 11 -37.5 29 q-13.5 18 -19 42.5 q-5.5 24.5 -5.5 51.5 l0 361 l26 0 l0 -351 q0 -24 4 -46 q4 -22 15 -38 q11 -16 30.5 -25.5 q19.5 -9.5 49.5 -9.5 q28 0 49 11.5 q21 11.5 35 29.5 q14 18 21.5 41 q7.5 23 7.5 46 l0 342 l25 0 l0 -487 l-25 0 l0 57 l-2 0 ZM193 556 l-84 136 l33 13 l66 -143 l-15 -6 Z" /><glyph glyph-name="pi" unicode="&#x3c0;" d="M283 466 l-211 0 l0 -466 l-27 0 l0 487 l263 0 l0 -487 l-25 0 l0 466 Z" /><glyph glyph-name="dieresistonos" unicode="&#x385;" d="M79 615 l28 0 l0 -32 l-28 0 l0 32 ZM221 615 l28 0 l0 -32 l-28 0 l0 32 ZM131 562 l66 143 l33 -13 l-84 -136 l-15 6 Z" /><glyph glyph-name="tonos" unicode="&#x384;" d="M151 562 l66 143 l33 -13 l-84 -136 l-15 6 Z" /><glyph glyph-name="sfthyphen" unicode="­" d="M49 300 l222 0 l0 -28 l-222 0 l0 28 Z" /><glyph glyph-name="Gamma" unicode="&#x393;" d="M53 696 l276 0 l0 -23 l-251 0 l0 -673 l-25 0 l0 696 Z" /><glyph glyph-name="Delta" unicode="&#x394;&#x2206;" d="M8 0 l156 696 l37 0 l158 -696 l-351 0 ZM136 469 l-99 -446 l291 0 l-99 443 l-46 212 l-2 0 l-45 -209 Z" /><glyph glyph-name="Theta" unicode="&#x398;" d="M92 371 l215 0 l0 -22 l-215 0 l0 22 ZM328 558 q0 60 -37.5 90.5 q-37.5 30.5 -91.5 30.5 q-56 0 -92.5 -33 q-36.5 -33 -36.5 -93 l0 -416 q0 -61 36.5 -91 q36.5 -30 92.5 -30 q62 0 95.5 32 q33.5 32 33.5 93 l0 417 ZM199 -7 q-32 0 -60 8.5 q-28 8.5 -49 26.5 q-21 18 -33 45 q-12 27 -12 65 l0 416 q0 37 12 65 q12 28 33 46.5 q21 18.5 49 27.5 q28 9 60 9 q32 0 60 -8.5 q28 -8.5 49 -26 q21 -17.5 33 -44.5 q12 -27 12 -64 l0 -419 q0 -38 -12 -65.5 q-12 -27.5 -33 -45.5 q-21 -18 -49 -27 q-28 -9 -60 -9 Z" /><glyph glyph-name="Lambda" unicode="&#x39b;" d="M222 495 l-39 178 l-2 0 l-39 -180 l-110 -493 l-24 0 l156 696 l37 0 l158 -696 l-25 0 l-112 495 Z" /><glyph glyph-name="Xi" unicode="&#x39e;" d="M54 371 l228 0 l0 -23 l-228 0 l0 23 ZM25 696 l286 0 l0 -23 l-286 0 l0 23 ZM25 24 l286 0 l0 -24 l-286 0 l0 24 Z" /><glyph glyph-name="Pi" unicode="&#x3a0;" d="M328 671 l-251 0 l0 -671 l-25 0 l0 696 l302 0 l0 -696 l-26 0 l0 671 Z" /><glyph glyph-name="Sigma" unicode="&#x3a3;" d="M43 24 l236 0 l0 -24 l-261 0 l0 23 l125 336 l-126 315 l0 22 l257 0 l0 -23 l-232 0 l125 -314 l-124 -335 Z" /><glyph glyph-name="Iotadieresis" unicode="&#x3aa;" d="M70 696 l25 0 l0 -696 l-25 0 l0 696 ZM-3 773 l28 0 l0 -32 l-28 0 l0 32 ZM139 773 l28 0 l0 -32 l-28 0 l0 32 Z" /><glyph glyph-name="Alpha" unicode="&#x391;" d="M289 196 l-213 0 l-44 -196 l-24 0 l156 696 l37 0 l158 -696 l-25 0 l-45 196 ZM142 493 l-61 -274 l203 0 l-62 276 l-39 178 l-2 0 l-39 -180 Z" /><glyph glyph-name="Beta" unicode="&#x392;" d="M77 674 l0 -295 l141 0 q67 0 91.5 38.5 q24.5 38.5 24.5 110.5 q0 70 -32 108 q-32 38 -110 38 l-115 0 ZM77 357 l0 -332 l123 0 q43 0 70.5 14 q27.5 14 43.5 38 q16 24 22.5 56 q6.5 32 6.5 68 q0 74 -30.5 115 q-30.5 41 -89.5 41 l-146 0 ZM283 367 q25 -9 41.5 -25 q16.5 -16 26.5 -38 q10 -22 14 -48.5 q4 -26.5 4 -55.5 q0 -56 -12.5 -94 q-12.5 -38 -35 -61.5 q-22.5 -23.5 -53 -34 q-30.5 -10.5 -66.5 -10.5 l-150 0 l0 696 l145 0 q46 0 77 -11.5 q31 -11.5 50 -33 q19 -21.5 27.5 -52.5 q8.5 -31 8.5 -70 q0 -27 -3 -51.5 q-3 -24.5 -11.5 -45.5 q-8.5 -21 -23.5 -37.5 q-15 -16.5 -39 -26.5 l0 -1 Z" /><glyph glyph-name="Epsilon" unicode="&#x395;" d="M52 696 l276 0 l0 -23 l-251 0 l0 -302 l223 0 l0 -23 l-223 0 l0 -324 l251 0 l0 -24 l-276 0 l0 696 Z" /><glyph glyph-name="Zeta" unicode="&#x396;" d="M267 24 l0 -24 l-259 0 l0 23 l249 650 l-225 0 l0 23 l250 0 l0 -22 l-249 -650 l234 0 Z" /><glyph glyph-name="Eta" unicode="&#x397;" d="M328 345 l-251 0 l0 -345 l-25 0 l0 696 l25 0 l0 -327 l251 0 l0 327 l26 0 l0 -696 l-26 0 l0 345 Z" /><glyph glyph-name="Iota" unicode="&#x399;" d="M70 696 l25 0 l0 -696 l-25 0 l0 696 Z" /><glyph glyph-name="Kappa" unicode="&#x39a;" d="M78 243 l246 453 l29 0 l-149 -273 l181 -423 l-30 0 l-168 394 l-111 -203 l0 -191 l-25 0 l0 696 l25 0 l0 -453 l2 0 Z" /><glyph glyph-name="Mu" unicode="&#x39c;" d="M440 624 l-170 -464 l-27 0 l-165 456 l-3 0 l0 -616 l-25 0 l0 696 l26 0 l179 -501 l3 0 l183 501 l25 0 l0 -696 l-24 0 l0 624 l-2 0 Z" /><glyph glyph-name="Phi" unicode="&#x3a6;" d="M223 629 q-29 0 -57 -8.5 q-28 -8.5 -49.5 -25 q-21.5 -16.5 -34.5 -40.5 q-13 -24 -13 -55 l0 -291 q0 -31 13 -55 q13 -24 34.5 -40 q21.5 -16 49.5 -24 q28 -8 57 -8 l0 547 ZM248 82 q29 0 57 8 q28 8 50 24 q22 16 35.5 40 q13.5 24 13.5 55 l0 291 q0 31 -13.5 55 q-13.5 24 -35.5 40.5 q-22 16.5 -50 25 q-28 8.5 -57 8.5 l0 -547 ZM248 0 l-25 0 l0 59 q-33 0 -65 9.5 q-32 9.5 -57 28.5 q-25 19 -40.5 47 q-15.5 28 -15.5 65 l0 291 q0 37 15.5 66 q15.5 29 40.5 48 q25 19 57 29 q32 10 65 10 l0 43 l25 0 l0 -43 q33 0 65.5 -10 q32.5 -10 58 -29 q25.5 -19 41.5 -48 q16 -29 16 -66 l0 -291 q0 -37 -16 -65 q-16 -28 -41.5 -47 q-25.5 -19 -58 -28.5 q-32.5 -9.5 -65.5 -9.5 l0 -59 Z" /><glyph glyph-name="Upsilondieresis" unicode="&#x3ab;" d="M167 326 l131 370 l27 0 l-146 -403 l0 -293 l-25 0 l0 293 l-146 403 l25 0 l132 -370 l2 0 ZM81 773 l28 0 l0 -32 l-28 0 l0 32 ZM223 773 l28 0 l0 -32 l-28 0 l0 32 Z" /><glyph glyph-name="Psi" unicode="&#x3a8;" d="M424 695 l0 -373 q0 -37 -16 -64 q-16 -27 -41.5 -45 q-25.5 -18 -58 -27 q-32.5 -9 -65.5 -10 l0 -176 l-25 0 l0 176 q-33 1 -65 10 q-32 9 -57 27 q-25 18 -40.5 45 q-15.5 27 -15.5 64 l0 373 l24 0 l0 -373 q0 -31 13 -54 q13 -23 34.5 -38 q21.5 -15 49.5 -22.5 q28 -7.5 57 -8.5 l0 496 l25 0 l0 -496 q29 1 57 8.5 q28 7.5 50 22.5 q22 15 35.5 38 q13.5 23 13.5 54 l0 373 l25 0 Z" /><glyph glyph-name="Omega" unicode="&#x3a9;" d="M304 24 l61 0 l0 -24 l-105 0 l0 26 q67 33 67 111 l0 426 q0 30 -11.5 52 q-11.5 22 -30 36 q-18.5 14 -41.5 21 q-23 7 -46 7 q-27 0 -50.5 -8.5 q-23.5 -8.5 -41 -24.5 q-17.5 -16 -27.5 -39.5 q-10 -23.5 -10 -53.5 l0 -418 q0 -39 18 -67.5 q18 -28.5 45 -41.5 l0 -26 l-99 0 l0 24 l58 0 l0 2 q-47 28 -47 110 l0 418 q0 37 13 65 q13 28 34.5 46.5 q21.5 18.5 49 27.5 q27.5 9 57.5 9 q29 0 56.5 -7.5 q27.5 -7.5 49.5 -24 q22 -16.5 35 -43 q13 -26.5 13 -63.5 l0 -428 q0 -42 -13.5 -68.5 q-13.5 -26.5 -35.5 -41.5 l1 -2 Z" /><glyph glyph-name="alphatonos" unicode="&#x3ac;" d="M165 472 q-29 0 -56 -16 q-27 -16 -38 -57 q-5 -16 -6 -54.5 q-1 -38.5 -1 -85.5 q0 -23 0.5 -50 q0.5 -27 1 -52 q0.5 -25 2.5 -45.5 q2 -20.5 5 -30.5 q10 -33 33.5 -49 q23.5 -16 54.5 -16 q27 0 49 11.5 q22 11.5 37.5 30 q15.5 18.5 23.5 41.5 q8 23 8 45 l0 209 q0 53 -32 86 q-32 33 -82 33 ZM163 495 q41 0 69 -15.5 q28 -15.5 45 -41.5 l2 0 l0 50 l25 0 l0 -488 l-25 0 l0 63 l-2 0 q-17 -32 -48.5 -51 q-31.5 -19 -67.5 -19 q-51 2 -76 21.5 q-25 19.5 -36 48.5 q-5 15 -7 36 q-2 21 -3.5 45.5 q-1.5 24.5 -1.5 50 q0 25.5 0 49.5 l0 21 q0 26 0.5 55 q0.5 29 3.5 61 q3 33 15.5 54.5 q12.5 21.5 29.5 35 q17 13.5 37.5 19 q20.5 5.5 39.5 5.5 ZM149 562 l66 143 l33 -13 l-84 -136 l-15 6 Z" /><glyph glyph-name="Nu" unicode="&#x39d;" d="M75 627 l0 -627 l-25 0 l0 696 l24 0 l271 -627 l3 0 l0 627 l24 0 l0 -696 l-24 0 l-271 627 l-2 0 Z" /><glyph glyph-name="Omicron" unicode="&#x39f;" d="M328 558 q0 60 -37.5 90.5 q-37.5 30.5 -91.5 30.5 q-56 0 -92.5 -33 q-36.5 -33 -36.5 -93 l0 -416 q0 -61 36.5 -91 q36.5 -30 92.5 -30 q62 0 95.5 32 q33.5 32 33.5 93 l0 417 ZM199 -7 q-32 0 -60 8.5 q-28 8.5 -49 26.5 q-21 18 -33 45 q-12 27 -12 65 l0 416 q0 37 12 65 q12 28 33 46.5 q21 18.5 49 27.5 q28 9 60 9 q32 0 60 -8.5 q28 -8.5 49 -26 q21 -17.5 33 -44.5 q12 -27 12 -64 l0 -419 q0 -38 -12 -65.5 q-12 -27.5 -33 -45.5 q-21 -18 -49 -27 q-28 -9 -60 -9 Z" /><glyph glyph-name="Rho" unicode="&#x3a1;" d="M184 696 q52 0 86.5 -14.5 q34.5 -14.5 54 -40 q19.5 -25.5 27.5 -60 q8 -34.5 8 -75.5 q0 -46 -9 -83 q-9 -37 -29.5 -63.5 q-20.5 -26.5 -54.5 -40.5 q-34 -14 -84 -14 l-106 0 l0 -304 l-25 0 l0 695 l132 0 ZM77 674 l0 -347 l103 0 q83 0 119.5 42.5 q36.5 42.5 36.5 135.5 q0 37 -7.5 68.5 q-7.5 31.5 -25.5 53.5 q-18 22 -47.5 34.5 q-29.5 12.5 -73.5 12.5 l-105 0 Z" /><glyph glyph-name="Tau" unicode="&#x3a4;" d="M171 0 l-25 0 l0 673 l-140 0 l0 23 l304 0 l0 -23 l-139 0 l0 -673 Z" /><glyph glyph-name="Upsilon" unicode="&#x3a5;" d="M167 326 l131 370 l27 0 l-146 -403 l0 -293 l-25 0 l0 293 l-146 403 l25 0 l132 -370 l2 0 Z" /><glyph glyph-name="Chi" unicode="&#x3a7;" d="M4 0 l147 348 l-146 346 l29 0 l132 -317 l130 317 l29 0 l-147 -346 l148 -348 l-29 0 l-131 318 l-133 -318 l-29 0 Z" /><glyph glyph-name="Alphatonos" unicode="&#x386;" d="M289 196 l-213 0 l-44 -196 l-24 0 l156 696 l37 0 l158 -696 l-25 0 l-45 196 ZM142 493 l-61 -274 l203 0 l-62 276 l-39 178 l-2 0 l-39 -180 ZM-27 562 l66 143 l33 -13 l-84 -136 l-15 6 Z" /><glyph glyph-name="Epsilontonos" unicode="&#x388;" d="M52 696 l276 0 l0 -23 l-251 0 l0 -302 l223 0 l0 -23 l-223 0 l0 -324 l251 0 l0 -24 l-276 0 l0 696 ZM-82 562 l66 143 l33 -13 l-84 -136 l-15 6 Z" /><glyph glyph-name="afii00208" unicode="&#x2015;" d="M20 272 l961 0 l0 -26 l-961 0 l0 26 Z" /><glyph glyph-name="Etatonos" unicode="&#x389;" d="M328 345 l-251 0 l0 -345 l-25 0 l0 696 l25 0 l0 -327 l251 0 l0 327 l26 0 l0 -696 l-26 0 l0 345 ZM-85 562 l66 143 l33 -13 l-84 -136 l-15 6 Z" /><glyph glyph-name="Iotatonos" unicode="&#x38a;" d="M70 696 l25 0 l0 -696 l-25 0 l0 696 ZM-70 562 l66 143 l33 -13 l-84 -136 l-15 6 Z" /><glyph glyph-name="Omicrontonos" unicode="&#x38c;" d="M328 558 q0 60 -37.5 90.5 q-37.5 30.5 -91.5 30.5 q-56 0 -92.5 -33 q-36.5 -33 -36.5 -93 l0 -416 q0 -61 36.5 -91 q36.5 -30 92.5 -30 q62 0 95.5 32 q33.5 32 33.5 93 l0 417 ZM199 -7 q-32 0 -60 8.5 q-28 8.5 -49 26.5 q-21 18 -33 45 q-12 27 -12 65 l0 416 q0 37 12 65 q12 28 33 46.5 q21 18.5 49 27.5 q28 9 60 9 q32 0 60 -8.5 q28 -8.5 49 -26 q21 -17.5 33 -44.5 q12 -27 12 -64 l0 -419 q0 -38 -12 -65.5 q-12 -27.5 -33 -45.5 q-21 -18 -49 -27 q-28 -9 -60 -9 ZM-68 562 l66 143 l33 -13 l-84 -136 l-15 6 Z" /><glyph glyph-name="Upsilontonos" unicode="&#x38e;" d="M167 326 l131 370 l27 0 l-146 -403 l0 -293 l-25 0 l0 293 l-146 403 l25 0 l132 -370 l2 0 ZM-107 562 l66 143 l33 -13 l-84 -136 l-15 6 Z" /><glyph glyph-name="epsilontonos" unicode="&#x3ad;" d="M174 470 q-20 0 -39 -5 q-19 -5 -34 -18 q-15 -13 -24 -33.5 q-9 -20.5 -9 -51.5 q0 -53 26 -72.5 q26 -19.5 67 -19.5 l55 0 l0 -25 l-56 0 q-17 0 -34 -6.5 q-17 -6.5 -30.5 -21 q-13.5 -14.5 -22 -36.5 q-8.5 -22 -8.5 -53 q0 -37 11 -59 q11 -22 27.5 -34 q16.5 -12 36.5 -16 q20 -4 37 -4 q46 -1 74 26.5 q28 27.5 28 75.5 l26 -5 q-2 -61 -39.5 -90.5 q-37.5 -29.5 -89.5 -29.5 q-71 1 -104 35 q-33 34 -33 102 q0 44 17 77 q17 33 55 48 q-36 11 -52.5 36.5 q-16.5 25.5 -16.5 70.5 q0 65 36 99 q36 34 98 34 q26 0 49.5 -7.5 q23.5 -7.5 41 -23 q17.5 -15.5 28 -38 q10.5 -22.5 10.5 -52.5 l-26 -5 q0 48 -28.5 75 q-28.5 27 -76.5 27 ZM151 562 l66 143 l33 -13 l-84 -136 l-15 6 Z" /><glyph glyph-name="etatonos" unicode="&#x3ae;" d="M72 430 q17 31 47 48 q30 17 65 17 q37 0 61.5 -11 q24.5 -11 38 -29 q13.5 -18 19 -42.5 q5.5 -24.5 5.5 -51.5 l0 -361 l-26 0 l0 351 q0 24 -4 46 q-4 22 -15 38 q-11 16 -30.5 25.5 q-19.5 9.5 -49.5 9.5 q-28 0 -49 -11.5 q-21 -11.5 -35.5 -29.5 q-14.5 -18 -21.5 -41 q-7 -23 -7 -46 l0 -342 l-25 0 l0 487 l25 0 l0 -57 l2 0 ZM139 562 l66 143 l33 -13 l-84 -136 l-15 6 Z" /><glyph glyph-name="iotatonos" unicode="&#x3af;" d="M108 -4 q-16 -1 -25.5 2.5 q-9.5 3.5 -14.5 10 q-5 6.5 -6.5 17 q-1.5 10.5 -1.5 24.5 l0 437 l25 0 l0 -435 q0 -21 6.5 -26 q6.5 -5 18.5 -7 l-2 -23 ZM63 562 l66 143 l33 -13 l-84 -136 l-15 6 Z" /><glyph glyph-name="omicrontonos" unicode="&#x3cc;" d="M172 495 q55 0 82 -21 q27 -21 39 -51 q4 -15 6.5 -36 q2.5 -21 4 -45 q1.5 -24 1.5 -49 q0 -25 0 -49 l0 -21 q0 -26 -0.5 -54 q-0.5 -28 -3.5 -60 q-3 -33 -15.5 -55 q-12.5 -22 -30.5 -35.5 q-18 -13.5 -39.5 -19.5 q-21.5 -6 -43.5 -6 q-60 0 -89 22.5 q-29 22.5 -40 61.5 q-3 12 -4.5 31 q-1.5 19 -2.5 41 q-1 22 -1 45.5 q0 23.5 0 43.5 q0 27 0.5 55 q0.5 28 1.5 53 q1 25 3.5 45 q2.5 20 6.5 32 q12 33 42.5 52.5 q30.5 19.5 82.5 19.5 ZM171 471 q-14 0 -28.5 -2.5 q-14.5 -2.5 -27.5 -8.5 q-13 -6 -24 -17 q-11 -11 -18 -28 q-9 -23 -10 -70 q-1 -47 -2 -108 l0 -18 q0 -56 2 -89.5 q2 -33.5 8 -52.5 q10 -29 34 -45 q24 -16 66 -16 q34 0 62 17 q28 17 39 55 q5 16 6.5 55 q1.5 39 1.5 86 q0 23 -0.5 50 q-0.5 27 -1.5 52 q-1 25 -3 45 q-2 20 -5 31 q-10 33 -37 48.5 q-27 15.5 -62 15.5 ZM151 562 l66 143 l33 -13 l-84 -136 l-15 6 Z" /><glyph glyph-name="Omegatonos" unicode="&#x38f;" d="M304 24 l61 0 l0 -24 l-105 0 l0 26 q67 33 67 111 l0 426 q0 30 -11.5 52 q-11.5 22 -30 36 q-18.5 14 -41.5 21 q-23 7 -46 7 q-27 0 -50.5 -8.5 q-23.5 -8.5 -41 -24.5 q-17.5 -16 -27.5 -39.5 q-10 -23.5 -10 -53.5 l0 -418 q0 -39 18 -67.5 q18 -28.5 45 -41.5 l0 -26 l-99 0 l0 24 l58 0 l0 2 q-47 28 -47 110 l0 418 q0 37 13 65 q13 28 34.5 46.5 q21.5 18.5 49 27.5 q27.5 9 57.5 9 q29 0 56.5 -7.5 q27.5 -7.5 49.5 -24 q22 -16.5 35 -43 q13 -26.5 13 -63.5 l0 -428 q0 -42 -13.5 -68.5 q-13.5 -26.5 -35.5 -41.5 l1 -2 ZM-77 562 l66 143 l33 -13 l-84 -136 l-15 6 Z" /><glyph glyph-name="upsilontonos" unicode="&#x3cd;" d="M280 488 l25 0 l0 -265 q0 -13 0 -30.5 q0 -17.5 -0.5 -34 q-0.5 -16.5 -1 -30 q-0.5 -13.5 -0.5 -19.5 q-3 -33 -15.5 -55 q-12.5 -22 -30.5 -35.5 q-18 -13.5 -39.5 -19.5 q-21.5 -6 -43.5 -6 q-60 0 -89 22.5 q-29 22.5 -40 61.5 q-3 12 -4.5 31 q-1.5 19 -1.5 41 q0 22 0 45.5 q0 23.5 0 43.5 l0 248 l26 0 l0 -267 q0 -56 1 -89.5 q1 -33.5 7 -52.5 q10 -29 34 -45 q24 -16 66 -16 q34 0 62 17 q28 17 39 55 q5 16 5.5 55 q0.5 39 0.5 86 l0 259 ZM151 562 l66 143 l33 -13 l-84 -136 l-15 6 Z" /><glyph glyph-name="alpha" unicode="&#x3b1;" d="M165 472 q-29 0 -56 -16 q-27 -16 -38 -57 q-5 -16 -6 -54.5 q-1 -38.5 -1 -85.5 q0 -23 0.5 -50 q0.5 -27 1 -52 q0.5 -25 2.5 -45.5 q2 -20.5 5 -30.5 q10 -33 33.5 -49 q23.5 -16 54.5 -16 q27 0 49 11.5 q22 11.5 37.5 30 q15.5 18.5 23.5 41.5 q8 23 8 45 l0 209 q0 53 -32 86 q-32 33 -82 33 ZM163 495 q41 0 69 -15.5 q28 -15.5 45 -41.5 l2 0 l0 50 l25 0 l0 -488 l-25 0 l0 63 l-2 0 q-17 -32 -48.5 -51 q-31.5 -19 -67.5 -19 q-51 2 -76 21.5 q-25 19.5 -36 48.5 q-5 15 -7 36 q-2 21 -3.5 45.5 q-1.5 24.5 -1.5 50 q0 25.5 0 49.5 l0 21 q0 26 0.5 55 q0.5 29 3.5 61 q3 33 15.5 54.5 q12.5 21.5 29.5 35 q17 13.5 37.5 19 q20.5 5.5 39.5 5.5 Z" /><glyph glyph-name="beta" unicode="&#x3b2;" d="M164 726 q25 0 49 -8 q24 -8 42.5 -27 q18.5 -19 29.5 -49.5 q11 -30.5 11 -75.5 q0 -51 -15 -91 q-15 -40 -55 -52 l0 -3 q19 -6 34.5 -14 q15.5 -8 26 -27.5 q10.5 -19.5 16 -55 q5.5 -35.5 5.5 -96.5 q0 -42 -4.5 -84 q-4.5 -42 -20 -75.5 q-15.5 -33.5 -45 -54 q-29.5 -20.5 -79.5 -20.5 q-36 0 -58.5 13 q-22.5 13 -38.5 37 l-2 0 l0 -191 l-25 0 l0 749 q0 62 37.5 93.5 q37.5 31.5 91.5 31.5 ZM164 702 q-51 0 -77.5 -30.5 q-26.5 -30.5 -26.5 -73.5 l0 -472 q0 -20 5 -39.5 q5 -19.5 16.5 -35 q11.5 -15.5 29.5 -25 q18 -9.5 45 -9.5 q44 0 69.5 18.5 q25.5 18.5 38 49 q12.5 30.5 15.5 69 q3 38.5 3 77.5 q0 47 -4.5 80.5 q-4.5 33.5 -15.5 54.5 q-11 21 -31 31 q-20 10 -50 10 l-43 0 l0 23 l42 0 q27 0 44.5 11 q17.5 11 27 29.5 q9.5 18.5 13.5 43 q4 24.5 4 52.5 q0 69 -28.5 102.5 q-28.5 33.5 -76.5 33.5 Z" /><glyph glyph-name="psi" unicode="&#x3c8;" d="M384 487 l0 -363 q0 -35 -13.5 -59.5 q-13.5 -24.5 -35.5 -40.5 q-22 -16 -51.5 -23.5 q-29.5 -7.5 -60.5 -7.5 l0 -192 l-25 0 l0 192 q-32 0 -61 7.5 q-29 7.5 -50.5 23.5 q-21.5 16 -34 40.5 q-12.5 24.5 -12.5 59.5 l0 363 l25 0 l0 -365 q0 -48 35.5 -77 q35.5 -29 97.5 -29 l0 471 l25 0 l0 -471 q60 0 98 29 q38 29 38 77 l0 365 l25 0 Z" /><glyph glyph-name="delta" unicode="&#x3b4;" d="M305 219 q0 -26 -0.5 -52 q-0.5 -26 -3.5 -58 q-3 -33 -15.5 -55 q-12.5 -22 -30.5 -35.5 q-18 -13.5 -39.5 -19.5 q-21.5 -6 -43.5 -6 q-60 0 -89 22.5 q-29 22.5 -40 61.5 q-3 12 -4.5 30 q-1.5 18 -2.5 39.5 q-1 21.5 -1 44.5 q0 23 0 43 q0 55 3 91.5 q3 36.5 11 59.5 q11 29 38.5 52 q27.5 23 60.5 33 q-51 32 -69.5 60 q-18.5 28 -18.5 62 q0 28 8 52 q8 24 25.5 41.5 q17.5 17.5 46 27.5 q28.5 10 69.5 10 q7 0 30 -0.5 q23 -0.5 46 -3.5 l-3 -23 q-17 2 -36 3 q-19 1 -31 1 q-41 0 -66.5 -9 q-25.5 -9 -39 -24.5 q-13.5 -15.5 -18 -35 q-4.5 -19.5 -4.5 -40.5 q0 -26 20.5 -54.5 q20.5 -28.5 80.5 -57.5 q38 -18 61 -36 q23 -18 35.5 -39.5 q12.5 -21.5 16.5 -49 q4 -27.5 4 -65.5 l0 -70 ZM178 454 q-32 -5 -61.5 -24 q-29.5 -19 -43.5 -53 q-5 -11 -7 -23.5 q-2 -12.5 -3 -29 q-1 -16.5 -1.5 -39 q-0.5 -22.5 -0.5 -52.5 l0 -18 q0 -56 2 -87.5 q2 -31.5 8 -50.5 q10 -29 34 -45 q24 -16 66 -16 q34 0 62.5 17 q28.5 17 39.5 55 q5 16 6 53 q1 37 2 84 q1 46 0.5 85.5 q-0.5 39.5 -12.5 68.5 q-11 25 -33 44 q-22 19 -58 31 Z" /><glyph glyph-name="epsilon" unicode="&#x3b5;" d="M174 470 q-20 0 -39 -5 q-19 -5 -34 -18 q-15 -13 -24 -33.5 q-9 -20.5 -9 -51.5 q0 -53 26 -72.5 q26 -19.5 67 -19.5 l55 0 l0 -25 l-56 0 q-17 0 -34 -6.5 q-17 -6.5 -30.5 -21 q-13.5 -14.5 -22 -36.5 q-8.5 -22 -8.5 -53 q0 -37 11 -59 q11 -22 27.5 -34 q16.5 -12 36.5 -16 q20 -4 37 -4 q46 -1 74 26.5 q28 27.5 28 75.5 l26 -5 q-2 -61 -39.5 -90.5 q-37.5 -29.5 -89.5 -29.5 q-71 1 -104 35 q-33 34 -33 102 q0 44 17 77 q17 33 55 48 q-36 11 -52.5 36.5 q-16.5 25.5 -16.5 70.5 q0 65 36 99 q36 34 98 34 q26 0 49.5 -7.5 q23.5 -7.5 41 -23 q17.5 -15.5 28 -38 q10.5 -22.5 10.5 -52.5 l-26 -5 q0 48 -28.5 75 q-28.5 27 -76.5 27 Z" /><glyph glyph-name="phi" unicode="&#x3c6;" d="M223 15 q45 2 82.5 21.5 q37.5 19.5 48.5 62.5 q4 16 6 49.5 q2 33.5 2 80.5 q0 23 -0.5 48.5 q-0.5 25.5 -1 49 q-0.5 23.5 -2.5 42.5 q-2 19 -5 30 q-10 33 -42.5 53.5 q-32.5 20.5 -87.5 18.5 l0 -456 ZM387 223 q0 -26 -1 -56 q-1 -30 -3 -53 q-3 -32 -17 -54.5 q-14 -22.5 -36 -37 q-22 -14.5 -49.5 -21.5 q-27.5 -7 -57.5 -8 l0 -192 l-25 0 l0 192 q-69 3 -104.5 29.5 q-35.5 26.5 -46.5 65.5 q-3 12 -4.5 29.5 q-1.5 17.5 -2.5 38 q-1 20.5 -1 42.5 q0 22 0 42 q0 27 0.5 55 q0.5 28 1.5 52.5 q1 24.5 3.5 44 q2.5 19.5 6.5 31.5 q14 39 52 57 l12 -22 q-12 -7 -21.5 -17 q-9.5 -10 -16.5 -26 q-9 -23 -10 -69 q-1 -46 -2 -107 l0 -18 q0 -56 2 -85.5 q2 -29.5 8 -48.5 q10 -29 42.5 -49.5 q32.5 -20.5 80.5 -22.5 l0 478 l43 0 q32 0 55 -6.5 q23 -6.5 38.5 -17.5 q15.5 -11 25.5 -25 q10 -14 16 -29 q9 -29 10 -76.5 q1 -47.5 1 -94.5 l0 -21 Z" /><glyph glyph-name="gamma" unicode="&#x3b3;" d="M176 -197 l-27 0 l0 200 l-113 434 q-4 15 -8.5 22.5 q-4.5 7.5 -17.5 7.5 q-2 0 -1.5 0 q0.5 0 -2.5 -1 l-2 23 q5 1 7.5 1.5 q2.5 0.5 5.5 0.5 q23 0 31.5 -15 q8.5 -15 14.5 -38 l99 -389 l3 0 q26 106 56 219 q30 113 56 219 l28 0 l-129 -484 l0 -200 Z" /><glyph glyph-name="eta" unicode="&#x3b7;" d="M72 430 q17 31 47 48 q30 17 65 17 q37 0 61.5 -11 q24.5 -11 38 -29 q13.5 -18 19 -42.5 q5.5 -24.5 5.5 -51.5 l0 -361 l-26 0 l0 351 q0 24 -4 46 q-4 22 -15 38 q-11 16 -30.5 25.5 q-19.5 9.5 -49.5 9.5 q-28 0 -49 -11.5 q-21 -11.5 -35.5 -29.5 q-14.5 -18 -21.5 -41 q-7 -23 -7 -46 l0 -342 l-25 0 l0 487 l25 0 l0 -57 l2 0 Z" /><glyph glyph-name="iota" unicode="&#x3b9;" d="M108 -4 q-16 -1 -25.5 2.5 q-9.5 3.5 -14.5 10 q-5 6.5 -6.5 17 q-1.5 10.5 -1.5 24.5 l0 437 l25 0 l0 -435 q0 -21 6.5 -26 q6.5 -5 18.5 -7 l-2 -23 Z" /><glyph glyph-name="xi" unicode="&#x3be;" d="M39 548 q0 34 4.5 65.5 q4.5 31.5 19 56.5 q14.5 25 41.5 40 q27 15 72 15 q48 0 80 -21.5 q32 -21.5 42 -63.5 l-25 -12 q-14 73 -100 73 q-23 0 -42.5 -6.5 q-19.5 -6.5 -33.5 -23 q-14 -16.5 -22 -45.5 q-8 -29 -9 -74 q0 -43 4.5 -70.5 q4.5 -27.5 16 -43.5 q11.5 -16 32 -22.5 q20.5 -6.5 52.5 -6.5 l82 0 l0 -23 l-80 0 q-32 0 -53 -8 q-21 -8 -33.5 -29 q-12.5 -21 -17.5 -57.5 q-5 -36.5 -5 -93.5 q0 -42 4.5 -69.5 q4.5 -27.5 16 -46 q11.5 -18.5 32 -31.5 q20.5 -13 52.5 -26 l56 -23 q54 -22 54 -61 q0 -27 -24 -65 l-19 -30 l-20 12 l21 36 q14 24 14 43 q0 17 -13 28 q-13 11 -36 21 l-56 23 q-31 13 -51.5 27 q-20.5 14 -33 35 q-12.5 21 -17.5 51.5 q-5 30.5 -5 76.5 q0 40 2 73 q2 33 9.5 57.5 q7.5 24.5 21.5 41 q14 16.5 39 24.5 l0 3 q-24 5 -38.5 18.5 q-14.5 13.5 -22 33.5 q-7.5 20 -9.5 45 q-2 25 -2 53 Z" /><glyph glyph-name="kappa" unicode="&#x3ba;" d="M67 173 l203 313 l28 0 l-114 -175 l143 -311 l-29 0 l-130 286 l-101 -155 l0 -131 l-25 0 l0 486 l25 0 l0 -313 Z" /><glyph glyph-name="lambda" unicode="&#x3bb;" d="M50 722 q5 1 10.5 1.5 q5.5 0.5 10.5 0.5 q24 0 39 -13 q15 -13 23 -48 l145 -607 q4 -15 10.5 -24.5 q6.5 -9.5 21.5 -9.5 l0 -23 q-3 -1 -10 -1 q-23 0 -32.5 15 q-9.5 15 -15.5 41 l-88 374 l-2 0 l-129 -428 l-27 0 l145 475 l-39 170 q-7 30 -16.5 42 q-9.5 12 -32.5 12 l-11 0 l-2 23 Z" /><glyph glyph-name="nu" unicode="&#x3bd;" d="M134 1 l-129 486 l26 0 l116 -438 l2 0 l113 438 l27 0 l-129 -486 l-26 0 Z" /><glyph glyph-name="omicron" unicode="&#x3bf;" d="M172 495 q55 0 82 -21 q27 -21 39 -51 q4 -15 6.5 -36 q2.5 -21 4 -45 q1.5 -24 1.5 -49 q0 -25 0 -49 l0 -21 q0 -26 -0.5 -54 q-0.5 -28 -3.5 -60 q-3 -33 -15.5 -55 q-12.5 -22 -30.5 -35.5 q-18 -13.5 -39.5 -19.5 q-21.5 -6 -43.5 -6 q-60 0 -89 22.5 q-29 22.5 -40 61.5 q-3 12 -4.5 31 q-1.5 19 -2.5 41 q-1 22 -1 45.5 q0 23.5 0 43.5 q0 27 0.5 55 q0.5 28 1.5 53 q1 25 3.5 45 q2.5 20 6.5 32 q12 33 42.5 52.5 q30.5 19.5 82.5 19.5 ZM171 471 q-14 0 -28.5 -2.5 q-14.5 -2.5 -27.5 -8.5 q-13 -6 -24 -17 q-11 -11 -18 -28 q-9 -23 -10 -70 q-1 -47 -2 -108 l0 -18 q0 -56 2 -89.5 q2 -33.5 8 -52.5 q10 -29 34 -45 q24 -16 66 -16 q34 0 62 17 q28 17 39 55 q5 16 6.5 55 q1.5 39 1.5 86 q0 23 -0.5 50 q-0.5 27 -1.5 52 q-1 25 -3 45 q-2 20 -5 31 q-10 33 -37 48.5 q-27 15.5 -62 15.5 Z" /><glyph glyph-name="omegatonos" unicode="&#x3ce;" d="M378 -6 q-35 0 -65.5 17 q-30.5 17 -44.5 49 l-2 0 q-14 -32 -41 -49.5 q-27 -17.5 -62 -17.5 q-56 2 -83.5 24 q-27.5 22 -38.5 60 q-3 12 -4.5 31 q-1.5 19 -2 41 q-0.5 22 -0.5 45.5 q0 23.5 0 43.5 q0 27 0.5 55 q0.5 28 2 53 q1.5 25 4 45 q2.5 20 6.5 32 q11 29 34.5 47.5 q23.5 18.5 64.5 23.5 l0 -25 q-23 -4 -42.5 -16 q-19.5 -12 -30.5 -38 q-9 -23 -10.5 -70 q-1.5 -47 -2.5 -108 l0 -18 q0 -56 1.5 -89.5 q1.5 -33.5 7.5 -52.5 q10 -28 33 -44.5 q23 -16.5 57 -16.5 q48 0 71.5 31 q23.5 31 23.5 74 l0 197 l26 0 l0 -197 q0 -43 27 -74 q27 -31 75 -31 q29 0 51.5 16 q22.5 16 29.5 53 q3 16 6 56.5 q3 40.5 3 87.5 q0 23 -0.5 50 q-0.5 27 -2 52 q-1.5 25 -3.5 45 q-2 20 -5 31 q-8 26 -27.5 41.5 q-19.5 15.5 -45.5 20.5 l1 25 q42 -5 63 -25 q21 -20 32 -46 q4 -15 7 -36 q3 -21 4 -45 q1 -24 1.5 -49 q0.5 -25 0.5 -49 l0 -21 q0 -26 -1 -54 q-1 -28 -4 -60 q-6 -66 -36.5 -90.5 q-30.5 -24.5 -77.5 -24.5 ZM238 562 l66 143 l33 -13 l-84 -136 l-15 6 Z" /><glyph glyph-name="rho" unicode="&#x3c1;" d="M169 17 q34 0 63 16.5 q29 16.5 40 54.5 q5 16 6.5 55 q1.5 39 1.5 86 q0 23 -0.5 50 q-0.5 27 -1.5 52 q-1 25 -3 45 q-2 20 -5 31 q-10 33 -38 48.5 q-28 15.5 -63 15.5 q-54 0 -80 -30 q-26 -30 -26 -73 l0 -242 q0 -20 6.5 -39.5 q6.5 -19.5 20 -35 q13.5 -15.5 33 -25 q19.5 -9.5 46.5 -9.5 ZM172 -7 q-74 0 -107 50 l-2 0 l0 -242 l-25 0 l0 565 q0 62 35 95.5 q35 33.5 98 33.5 q55 0 82.5 -21 q27.5 -21 39.5 -51 q4 -15 6.5 -36 q2.5 -21 4 -45 q1.5 -24 1.5 -49 q0 -25 0 -49 l0 -21 q0 -26 -0.5 -54 q-0.5 -28 -3.5 -60 q-3 -33 -15.5 -55 q-12.5 -22 -30.5 -35.5 q-18 -13.5 -39.5 -19.5 q-21.5 -6 -43.5 -6 Z" /><glyph glyph-name="sigma" unicode="&#x3c3;" d="M252 464 q18 -9 26.5 -22 q8.5 -13 14.5 -27 q9 -29 10.5 -76.5 q1.5 -47.5 1.5 -94.5 l0 -21 q0 -26 -0.5 -54 q-0.5 -28 -3.5 -60 q-3 -33 -15.5 -55 q-12.5 -22 -30.5 -35.5 q-18 -13.5 -39.5 -19.5 q-21.5 -6 -43.5 -6 q-60 0 -89 22.5 q-29 22.5 -40 61.5 q-3 12 -4.5 31 q-1.5 19 -2.5 41 q-1 22 -1 45.5 q0 23.5 0 43.5 q0 27 0.5 54 q0.5 27 1.5 50.5 q1 23.5 3.5 42 q2.5 18.5 6.5 30.5 q12 32 42 51.5 q30 19.5 81 20.5 l163 0 l0 -22 l-81 0 l0 -1 ZM171 463 q-14 0 -28.5 -2.5 q-14.5 -2.5 -27.5 -8.5 q-13 -6 -24 -17 q-11 -11 -18 -28 q-9 -23 -10 -66 q-1 -43 -2 -104 l0 -18 q0 -56 2 -89.5 q2 -33.5 8 -52.5 q10 -29 34 -45 q24 -16 66 -16 q34 0 62 17 q28 17 39 55 q5 16 6.5 55 q1.5 39 1.5 86 q0 23 -0.5 48.5 q-0.5 25.5 -1.5 49 q-1 23.5 -3 42.5 q-2 19 -5 30 q-10 33 -37 48.5 q-27 15.5 -62 15.5 Z" /><glyph glyph-name="tau" unicode="&#x3c4;" d="M7 487 l207 0 l0 -22 l-98 0 l0 -359 q0 -36 17 -60 q17 -24 61 -24 l9 0 l0 -22 l-9 0 q-22 0 -40.5 6 q-18.5 6 -32.5 19 q-14 13 -22 34 q-8 21 -8 52 l0 354 l-84 0 l0 22 Z" /><glyph glyph-name="theta" unicode="&#x3b8;" d="M37 469 q0 27 0 55 q0 28 1 53 q1 25 3.5 45 q2.5 20 6.5 32 q12 33 42 52.5 q30 19.5 82 19.5 q55 0 81.5 -21 q26.5 -21 38.5 -51 q4 -15 6.5 -36 q2.5 -21 4 -45 q1.5 -24 1.5 -49 q0 -25 0 -49 l0 -252 q0 -26 -0.5 -54 q-0.5 -28 -3.5 -60 q-3 -33 -15 -55 q-12 -22 -30 -35.5 q-18 -13.5 -39.5 -19.5 q-21.5 -6 -43.5 -6 q-60 0 -88.5 22.5 q-28.5 22.5 -39.5 61.5 q-3 12 -4.5 31 q-1.5 19 -2 41 q-0.5 22 -0.5 45.5 q0 23.5 0 43.5 l0 231 ZM271 88 q5 16 6.5 55 q1.5 39 1.5 86 l0 135 l-217 0 l0 -145 q0 -56 2 -89.5 q2 -33.5 8 -52.5 q10 -29 33.5 -45 q23.5 -16 65.5 -16 q34 0 61.5 17 q27.5 17 38.5 55 ZM62 387 l217 0 l0 73 q0 23 -0.5 50 q-0.5 27 -1.5 52 q-1 25 -3 45 q-2 20 -5 31 q-10 33 -36.5 48.5 q-26.5 15.5 -61.5 15.5 q-28 0 -55.5 -11 q-27.5 -11 -41.5 -45 q-9 -23 -10.5 -70 q-1.5 -47 -1.5 -108 l0 -81 Z" /><glyph glyph-name="omega" unicode="&#x3c9;" d="M378 -6 q-35 0 -65.5 17 q-30.5 17 -44.5 49 l-2 0 q-14 -32 -41 -49.5 q-27 -17.5 -62 -17.5 q-56 2 -83.5 24 q-27.5 22 -38.5 60 q-3 12 -4.5 31 q-1.5 19 -2 41 q-0.5 22 -0.5 45.5 q0 23.5 0 43.5 q0 27 0.5 55 q0.5 28 2 53 q1.5 25 4 45 q2.5 20 6.5 32 q11 29 34.5 47.5 q23.5 18.5 64.5 23.5 l0 -25 q-23 -4 -42.5 -16 q-19.5 -12 -30.5 -38 q-9 -23 -10.5 -70 q-1.5 -47 -2.5 -108 l0 -18 q0 -56 1.5 -89.5 q1.5 -33.5 7.5 -52.5 q10 -28 33 -44.5 q23 -16.5 57 -16.5 q48 0 71.5 31 q23.5 31 23.5 74 l0 197 l26 0 l0 -197 q0 -43 27 -74 q27 -31 75 -31 q29 0 51.5 16 q22.5 16 29.5 53 q3 16 6 56.5 q3 40.5 3 87.5 q0 23 -0.5 50 q-0.5 27 -2 52 q-1.5 25 -3.5 45 q-2 20 -5 31 q-8 26 -27.5 41.5 q-19.5 15.5 -45.5 20.5 l1 25 q42 -5 63 -25 q21 -20 32 -46 q4 -15 7 -36 q3 -21 4 -45 q1 -24 1.5 -49 q0.5 -25 0.5 -49 l0 -21 q0 -26 -1 -54 q-1 -28 -4 -60 q-6 -66 -36.5 -90.5 q-30.5 -24.5 -77.5 -24.5 Z" /><glyph glyph-name="sigma1" unicode="&#x3c2;" d="M178 495 q57 0 91.5 -30.5 q34.5 -30.5 34.5 -90.5 l-26 -5 q0 48 -26 75 q-26 27 -77 27 q-27 0 -54 -12 q-27 -12 -41 -46 q-8 -18 -10 -66.5 q-2 -48.5 -2 -109.5 l0 -72 q0 -29 5.5 -48.5 q5.5 -19.5 16.5 -34 q11 -14.5 28.5 -25 q17.5 -10.5 40.5 -21.5 l57 -29 q29 -14 39.5 -31.5 q10.5 -17.5 10.5 -36.5 q0 -13 -6 -26 q-6 -13 -10 -21 q-7 -13 -13 -22.5 q-6 -9.5 -14 -20.5 l-20 12 l20 33 q6 11 10.5 22 q4.5 11 4.5 22 q2 29 -40 50 l-70 36 q-20 10 -35.5 21.5 q-15.5 11.5 -26.5 26.5 q-11 15 -17 35 q-6 20 -6 48 l0 83 q0 27 0.5 54.5 q0.5 27.5 1.5 52 q1 24.5 3.5 44 q2.5 19.5 6.5 31.5 q12 33 41.5 54 q29.5 21 81.5 21 Z" /><glyph glyph-name="chi" unicode="&#x3c7;" d="M138 232 l-104 -232 l-28 0 l113 250 l-105 236 l28 0 l96 -219 l99 219 l28 0 l-109 -236 l116 -250 l-29 0 l-105 232 Z" /><glyph glyph-name="upsilon" unicode="&#x3c5;" d="M280 488 l25 0 l0 -265 q0 -13 0 -30.5 q0 -17.5 -0.5 -34 q-0.5 -16.5 -1 -30 q-0.5 -13.5 -0.5 -19.5 q-3 -33 -15.5 -55 q-12.5 -22 -30.5 -35.5 q-18 -13.5 -39.5 -19.5 q-21.5 -6 -43.5 -6 q-60 0 -89 22.5 q-29 22.5 -40 61.5 q-3 12 -4.5 31 q-1.5 19 -1.5 41 q0 22 0 45.5 q0 23.5 0 43.5 l0 248 l26 0 l0 -267 q0 -56 1 -89.5 q1 -33.5 7 -52.5 q10 -29 34 -45 q24 -16 66 -16 q34 0 62 17 q28 17 39 55 q5 16 5.5 55 q0.5 39 0.5 86 l0 259 Z" /><glyph glyph-name="zeta" unicode="&#x3b6;" d="M270 464 l-235 0 l0 22 l268 0 l0 -24 q-58 -45 -104 -90 q-46 -45 -78 -87.5 q-32 -42.5 -49 -81 q-17 -38.5 -17 -70.5 q0 -21 6 -36 q6 -15 19.5 -26.5 q13.5 -11.5 35 -21.5 q21.5 -10 51.5 -22 l51 -20 q32 -13 46.5 -30 q14.5 -17 14.5 -38 q0 -29 -26 -63 l-23 -28 l-19 14 l22 31 q17 26 17 44 q0 30 -52 50 l-56 21 q-27 10 -48 21 q-21 11 -35.5 25 q-14.5 14 -21.5 33 q-7 19 -7 45 q0 28 13.5 65 q13.5 37 42.5 79.5 q29 42.5 74.5 89.5 q45.5 47 109.5 96 l0 2 Z" /><glyph glyph-name="iotadieresis" unicode="&#x3ca;" d="M108 -4 q-16 -1 -25.5 2.5 q-9.5 3.5 -14.5 10 q-5 6.5 -6.5 17 q-1.5 10.5 -1.5 24.5 l0 437 l25 0 l0 -435 q0 -21 6.5 -26 q6.5 -5 18.5 -7 l-2 -23 ZM-11 615 l28 0 l0 -32 l-28 0 l0 32 ZM131 615 l28 0 l0 -32 l-28 0 l0 32 Z" /><glyph glyph-name="upsilondieresis" unicode="&#x3cb;" d="M280 488 l25 0 l0 -265 q0 -13 0 -30.5 q0 -17.5 -0.5 -34 q-0.5 -16.5 -1 -30 q-0.5 -13.5 -0.5 -19.5 q-3 -33 -15.5 -55 q-12.5 -22 -30.5 -35.5 q-18 -13.5 -39.5 -19.5 q-21.5 -6 -43.5 -6 q-60 0 -89 22.5 q-29 22.5 -40 61.5 q-3 12 -4.5 31 q-1.5 19 -1.5 41 q0 22 0 45.5 q0 23.5 0 43.5 l0 248 l26 0 l0 -267 q0 -56 1 -89.5 q1 -33.5 7 -52.5 q10 -29 34 -45 q24 -16 66 -16 q34 0 62 17 q28 17 39 55 q5 16 5.5 55 q0.5 39 0.5 86 l0 259 ZM227 615 l28 0 l0 -32 l-28 0 l0 32 ZM85 615 l28 0 l0 -32 l-28 0 l0 32 Z" /><glyph glyph-name="iotadieresistonos" unicode="&#x390;" d="M112 -4 q-16 -1 -25.5 2.5 q-9.5 3.5 -14.5 10 q-5 6.5 -6.5 17 q-1.5 10.5 -1.5 24.5 l0 437 l25 0 l0 -435 q0 -21 6.5 -26 q6.5 -5 18.5 -7 l-2 -23 ZM-7 615 l28 0 l0 -32 l-28 0 l0 32 ZM135 615 l28 0 l0 -32 l-28 0 l0 32 ZM45 562 l66 143 l33 -13 l-84 -136 l-15 6 Z" /><glyph glyph-name="upsilondieresistonos" unicode="&#x3b0;" d="M280 488 l25 0 l0 -265 q0 -13 0 -30.5 q0 -17.5 -0.5 -34 q-0.5 -16.5 -1 -30 q-0.5 -13.5 -0.5 -19.5 q-3 -33 -15.5 -55 q-12.5 -22 -30.5 -35.5 q-18 -13.5 -39.5 -19.5 q-21.5 -6 -43.5 -6 q-60 0 -89 22.5 q-29 22.5 -40 61.5 q-3 12 -4.5 31 q-1.5 19 -1.5 41 q0 22 0 45.5 q0 23.5 0 43.5 l0 248 l26 0 l0 -267 q0 -56 1 -89.5 q1 -33.5 7 -52.5 q10 -29 34 -45 q24 -16 66 -16 q34 0 62 17 q28 17 39 55 q5 16 5.5 55 q0.5 39 0.5 86 l0 259 ZM139 562 l66 143 l33 -13 l-84 -136 l-15 6 ZM229 615 l28 0 l0 -32 l-28 0 l0 32 ZM87 615 l28 0 l0 -32 l-28 0 l0 32 Z" /><glyph glyph-name="Euro" unicode="&#x20ac;" d="M15 321 l38 0 l0 77 l-38 0 l0 21 l38 0 l0 145 q0 37 12 63.5 q12 26.5 31.5 43 q19.5 16.5 44 24 q24.5 7.5 50.5 7.5 q25 0 48.5 -6.5 q23.5 -6.5 42.5 -20.5 q19 -14 32 -36 q13 -22 16 -53 l-24 -6 q-3 25 -13 44 q-10 19 -26 31 q-16 12 -35.5 18 q-19.5 6 -40.5 6 q-48 0 -81 -28 q-33 -28 -33 -88 l0 -144 l187 0 l0 -21 l-187 0 l0 -77 l187 0 l0 -21 l-187 0 l0 -171 q0 -30 9.5 -51.5 q9.5 -21.5 25 -35 q15.5 -13.5 36 -20 q20.5 -6.5 43.5 -6.5 q21 0 41 5.5 q20 5.5 35.5 17.5 q15.5 12 25.5 30.5 q10 18.5 13 44.5 l26 -5 q-3 -32 -16.5 -54 q-13.5 -22 -33 -36 q-19.5 -14 -43.5 -20 q-24 -6 -48 -6 q-26 0 -50.5 7.5 q-24.5 7.5 -44 23.5 q-19.5 16 -31.5 42 q-12 26 -12 64 l0 170 l-38 0 l0 21 Z" /><glyph glyph-name="logicalnot" unicode="¬" d="M318 125 l-23 0 l0 156 l-276 0 l0 24 l299 0 l0 -180 Z" /><glyph glyph-name="space" unicode=" " d="" /><glyph glyph-name="acute" unicode="´" d="M151 562 l66 143 l33 -13 l-84 -136 l-15 6 Z" /><glyph glyph-name="cedilla" unicode="¸" d="M195 3 l-18 -70 q24 -2 39.5 -9 q15.5 -7 24.5 -17.5 q9 -10.5 13 -22 q4 -11.5 4 -21.5 q0 -26 -18 -48 q-18 -22 -56 -22 q-19 0 -35.5 3 q-16.5 3 -36.5 13 l9 19 q16 -8 31 -10.5 q15 -2.5 27 -2.5 q24 0 39 12 q15 12 15 35 q0 20 -16.5 34.5 q-16.5 14.5 -49.5 16.5 l-16 11 l22 81 l22 -2 Z" /><glyph glyph-name="AE" unicode="æ" d="M332 196 l-213 0 l-88 -196 l-27 0 l310 696 l294 0 l0 -23 l-251 0 l0 -302 l223 0 l0 -23 l-223 0 l0 -324 l251 0 l0 -24 l-276 0 l0 196 ZM130 219 l202 0 l0 452 l-2 0 l-200 -452 Z" /><glyph glyph-name="Ccedilla" unicode="ç" d="M197 16 q23 0 45.5 7 q22.5 7 40 22 q17.5 15 28.5 39.5 q11 24.5 11 59.5 l25 -5 q0 -38 -11.5 -64.5 q-11.5 -26.5 -30.5 -44 q-19 -17.5 -43 -26 q-24 -8.5 -49 -10.5 l-15 -61 q24 -2 39.5 -9 q15.5 -7 24.5 -17.5 q9 -10.5 13 -22 q4 -11.5 4 -21.5 q0 -26 -18 -48 q-18 -22 -56 -22 q-19 0 -35.5 3 q-16.5 3 -36.5 13 l9 19 q16 -8 31 -10.5 q15 -2.5 27 -2.5 q24 0 39 12 q15 12 15 35 q0 20 -16.5 34.5 q-16.5 14.5 -49.5 16.5 l-16 11 l18 69 q-66 2 -105 37.5 q-39 35.5 -39 109.5 l0 413 q0 75 41 112 q41 37 110 37 q28 0 55 -7.5 q27 -7.5 48 -25 q21 -17.5 34 -45 q13 -27.5 13 -66.5 l-25 -6 q0 34 -10 58 q-10 24 -27.5 39.5 q-17.5 15.5 -40 22.5 q-22.5 7 -47.5 7 q-59 0 -92.5 -33.5 q-33.5 -33.5 -33.5 -93.5 l0 -413 q0 -61 33.5 -92 q33.5 -31 92.5 -31 Z" /><glyph glyph-name="Ntilde" unicode="ñ" d="M75 627 l0 -627 l-25 0 l0 696 l24 0 l271 -627 l3 0 l0 627 l24 0 l0 -696 l-24 0 l-271 627 l-2 0 ZM269 741 q-15 0 -29.5 6 q-14.5 6 -29 13 q-14.5 7 -28 13 q-13.5 6 -27.5 6 q-12 0 -24 -9.5 q-12 -9.5 -22 -24.5 l-16 10 q25 47 63 47 q16 0 30 -6 q14 -6 27.5 -12.5 q13.5 -6.5 28 -12.5 q14.5 -6 30.5 -6 q32 0 50 38 l16 -7 q-9 -30 -29 -42.5 q-20 -12.5 -40 -12.5 Z" /><glyph glyph-name="multiply" unicode="×" d="M56 147 l-16 17 l132 131 l-119 119 l17 17 l119 -119 l129 130 l16 -17 l-129 -129 l126 -126 l-17 -17 l-126 126 l-132 -132 Z" /><glyph glyph-name="ae" unicode="æ" d="M403 -7 q-41 0 -73.5 16 q-32.5 16 -48.5 49 q-18 -26 -36.5 -39 q-18.5 -13 -36 -18.5 q-17.5 -5.5 -33.5 -6 q-16 -0.5 -28 -0.5 q-34 0 -57.5 11 q-23.5 11 -38 29.5 q-14.5 18.5 -21 43 q-6.5 24.5 -6.5 51.5 q0 28 6.5 55.5 q6.5 27.5 22.5 49.5 q16 22 42.5 35.5 q26.5 13.5 66.5 13.5 l105 0 l0 83 q0 23 -5 42.5 q-5 19.5 -17 33.5 q-12 14 -32.5 22 q-20.5 8 -52.5 8 q-39 0 -63 -17 q-24 -17 -34 -42 l-24 10 q15 32 43.5 52 q28.5 20 79.5 20 q45 0 75.5 -14 q30.5 -14 44.5 -49 q17 32 49.5 47.5 q32.5 15.5 71.5 15.5 q59 0 96.5 -31.5 q37.5 -31.5 37.5 -91.5 l0 -114 l-244 0 l0 -141 q0 -20 7.5 -38 q7.5 -18 21 -32 q13.5 -14 33.5 -22.5 q20 -8.5 46 -8.5 q51 0 77.5 29.5 q26.5 29.5 30.5 68.5 l24 -5 q-5 -56 -42.5 -86 q-37.5 -30 -87.5 -30 ZM166 258 q-51 0 -84 -30 q-33 -30 -33 -102 q0 -21 5.5 -41 q5.5 -20 18 -35 q12.5 -15 33 -24.5 q20.5 -9.5 50.5 -9.5 q46 0 78.5 25 q32.5 25 32.5 75 l0 142 l-101 0 ZM511 283 l0 88 q0 43 -28 71.5 q-28 28.5 -82 28.5 q-51 0 -78.5 -27.5 q-27.5 -27.5 -29.5 -72.5 l0 -88 l218 0 Z" /><glyph glyph-name="eth" unicode="ð" d="M173 475 q9 0 23.5 -2.5 q14.5 -2.5 29.5 -8.5 q15 -6 29.5 -16.5 q14.5 -10.5 23.5 -26.5 l1 0 l-1 64 q0 32 -5 64 q-5 32 -16 55 l-82 -55 l-14 20 l85 57 q-9 13 -21 26 q-12 13 -28.5 24.5 q-16.5 11.5 -39 20 q-22.5 8.5 -53.5 12.5 l5 24 q65 -9 102.5 -34.5 q37.5 -25.5 57.5 -57.5 l63 42 l13 -20 l-65 -44 q15 -35 19.5 -76.5 q4.5 -41.5 4.5 -89.5 l0 -230 q0 -26 -0.5 -53.5 q-0.5 -27.5 -3.5 -59.5 q-3 -33 -15.5 -55 q-12.5 -22 -30.5 -36 q-18 -14 -39.5 -20 q-21.5 -6 -43.5 -6 q-60 0 -89 23 q-29 23 -40 62 q-3 12 -4.5 34.5 q-1.5 22.5 -2.5 48.5 q-1 26 -1 53 q0 27 0 47 q0 46 2.5 81 q2.5 35 10.5 58 q12 33 43.5 54 q31.5 21 81.5 21 ZM172 451 q-28 0 -56 -12.5 q-28 -12.5 -42 -46.5 q-4 -9 -6 -19.5 q-2 -10.5 -3.5 -25.5 q-1.5 -15 -2.5 -36 q-1 -21 -1 -51 l0 -41 q0 -56 2 -89 q2 -33 8 -52 q10 -29 34 -45.5 q24 -16.5 66 -16.5 q34 0 62 17.5 q28 17.5 39 55.5 q5 16 6.5 54.5 q1.5 38.5 1.5 85.5 l0 77 q0 27 -4 53 q-4 26 -15.5 46.5 q-11.5 20.5 -32.5 33 q-21 12.5 -56 12.5 Z" /><glyph glyph-name="otilde" unicode="õ" d="M172 495 q55 0 82 -21 q27 -21 39 -51 q4 -15 6.5 -36 q2.5 -21 4 -45 q1.5 -24 1.5 -49 q0 -25 0 -49 l0 -21 q0 -26 -0.5 -54 q-0.5 -28 -3.5 -60 q-3 -33 -15.5 -55 q-12.5 -22 -30.5 -35.5 q-18 -13.5 -39.5 -19.5 q-21.5 -6 -43.5 -6 q-60 0 -89 22.5 q-29 22.5 -40 61.5 q-3 12 -4.5 31 q-1.5 19 -2.5 41 q-1 22 -1 45.5 q0 23.5 0 43.5 q0 27 0.5 55 q0.5 28 1.5 53 q1 25 3.5 45 q2.5 20 6.5 32 q12 33 42.5 52.5 q30.5 19.5 82.5 19.5 ZM171 471 q-14 0 -28.5 -2.5 q-14.5 -2.5 -27.5 -8.5 q-13 -6 -24 -17 q-11 -11 -18 -28 q-9 -23 -10 -70 q-1 -47 -2 -108 l0 -18 q0 -56 2 -89.5 q2 -33.5 8 -52.5 q10 -29 34 -45 q24 -16 66 -16 q34 0 62 17 q28 17 39 55 q5 16 6.5 55 q1.5 39 1.5 86 q0 23 -0.5 50 q-0.5 27 -1.5 52 q-1 25 -3 45 q-2 20 -5 31 q-10 33 -37 48.5 q-27 15.5 -62 15.5 ZM228 571 q-15 0 -29.5 6 q-14.5 6 -29 13 q-14.5 7 -28 13 q-13.5 6 -27.5 6 q-12 0 -24 -9.5 q-12 -9.5 -22 -24.5 l-16 10 q25 47 63 47 q16 0 30 -6 q14 -6 27.5 -12.5 q13.5 -6.5 28 -12.5 q14.5 -6 30.5 -6 q32 0 50 38 l16 -7 q-9 -30 -29 -42.5 q-20 -12.5 -40 -12.5 Z" /><glyph glyph-name="dotlessi" unicode="&#x131;" d="M60 487 l25 0 l0 -487 l-25 0 l0 487 Z" /><glyph glyph-name="florin" unicode="&#x192;" d="M-13 -68 q13 -3 29 -3 q22 0 40 7 q18 7 32 25 q14 18 23.5 47.5 q9.5 29.5 15.5 74.5 l36 295 l-81 0 l0 23 l83 0 l17 146 q10 79 40 117 q30 38 90 38 q17 0 40 -5 l-7 -23 q-18 5 -33 5 q-17 0 -33.5 -5 q-16.5 -5 -30.5 -20 q-14 -15 -25 -41.5 q-11 -26.5 -16 -69.5 l-16 -142 l97 0 l0 -23 l-100 0 l-34 -292 q-12 -95 -45 -138 q-33 -43 -93 -43 q-18 0 -36 3 l7 24 Z" /><glyph glyph-name="circumflex" unicode="&#x2c6;" d="M166 649 l-107 -98 l-11 10 l107 114 l24 0 l104 -112 l-12 -11 l-105 97 Z" /><glyph glyph-name="caron" unicode="&#x2c7;" d="M278 674 l12 -11 l-104 -112 l-24 0 l-107 114 l11 10 l107 -98 l105 97 Z" /><glyph glyph-name="breve" unicode="&#x2d8;" d="M173 576 q32 0 58 20.5 q26 20.5 34 62.5 l23 0 q-3 -19 -11 -38 q-8 -19 -22 -34.5 q-14 -15.5 -34.5 -25 q-20.5 -9.5 -47.5 -9.5 q-27 0 -47 10 q-20 10 -33.5 25.5 q-13.5 15.5 -21.5 34.5 q-8 19 -11 37 l22 0 q7 -38 33 -60.5 q26 -22.5 58 -22.5 Z" /><glyph glyph-name="tilde" unicode="&#x2dc;" d="M234 571 q-15 0 -29.5 6 q-14.5 6 -29 13 q-14.5 7 -28 13 q-13.5 6 -27.5 6 q-12 0 -24 -9.5 q-12 -9.5 -22 -24.5 l-16 10 q25 47 63 47 q16 0 30 -6 q14 -6 27.5 -12.5 q13.5 -6.5 28 -12.5 q14.5 -6 30.5 -6 q32 0 50 38 l16 -7 q-9 -30 -29 -42.5 q-20 -12.5 -40 -12.5 Z" /><glyph glyph-name="Acute" unicode="&#xf6c9;" d="M134 745 l120 102 l25 -26 l-134 -88 l-11 12 Z" /><glyph glyph-name="Dieresis" unicode="&#xf6cb;" d="M90 773 l28 0 l0 -32 l-28 0 l0 32 ZM232 773 l28 0 l0 -32 l-28 0 l0 32 Z" /><glyph glyph-name="Circumflex" unicode="&#xf6c0;" d="M182 816 l-107 -78 l-11 10 l107 94 l24 0 l104 -92 l-12 -11 l-105 77 Z" /><glyph glyph-name="commaaccent" unicode="&#xf6c3;" d="M190 -178 l-18 0 l17 82 l-9 0 l0 36 l36 0 l0 -36 l-26 -82 Z" /><glyph glyph-name="Caron" unicode="&#xf6ca;" d="M286 841 l12 -11 l-104 -92 l-24 0 l-107 94 l11 10 l107 -78 l105 77 Z" /><glyph glyph-name="DieresisAcute" unicode="&#xf6cc;" d="M98 788 l28 0 l0 -32 l-28 0 l0 32 ZM240 788 l28 0 l0 -32 l-28 0 l0 32 ZM125 741 l114 109 l27 -25 l-128 -95 l-13 11 Z" /><glyph glyph-name="DieresisGrave" unicode="&#xf6cd;" d="M266 756 l-28 0 l0 32 l28 0 l0 -32 ZM124 756 l-28 0 l0 32 l28 0 l0 -32 ZM226 730 l-128 95 l27 25 l114 -109 l-13 -11 Z" /><glyph glyph-name="Grave" unicode="&#xf6ce;" d="M186 733 l-134 88 l25 26 l120 -102 l-11 -12 Z" /><glyph glyph-name="Hungarumlaut" unicode="&#xf6cf;" d="M132 745 l120 102 l25 -26 l-134 -88 l-11 12 ZM222 745 l120 102 l25 -26 l-134 -88 l-11 12 Z" /><glyph glyph-name="cyrBreve" unicode="&#xf6d1;" d="M182 753 q32 0 58 20.5 q26 20.5 34 62.5 l23 0 q-3 -19 -11 -38 q-8 -19 -22 -34.5 q-14 -15.5 -34.5 -25 q-20.5 -9.5 -47.5 -9.5 q-27 0 -47 10 q-20 10 -33.5 25.5 q-13.5 15.5 -21.5 34.5 q-8 19 -11 37 l22 0 q7 -38 33 -60.5 q26 -22.5 58 -22.5 Z" /><glyph glyph-name="cyrbreve" unicode="&#xf6d4;" d="M168 576 q32 0 58 20.5 q26 20.5 34 62.5 l23 0 q-3 -19 -11 -38 q-8 -19 -22 -34.5 q-14 -15.5 -34.5 -25 q-20.5 -9.5 -47.5 -9.5 q-27 0 -47 10 q-20 10 -33.5 25.5 q-13.5 15.5 -21.5 34.5 q-8 19 -11 37 l22 0 q7 -38 33 -60.5 q26 -22.5 58 -22.5 Z" /><glyph glyph-name="quotesinglbase" unicode="&#x201a;" d="M48 -82 l-18 0 l17 82 l-9 0 l0 36 l36 0 l0 -36 l-26 -82 Z" /><glyph glyph-name="quotedblbase" unicode="&#x201e;" d="M126 -82 l-18 0 l17 82 l-9 0 l0 36 l36 0 l0 -36 l-26 -82 ZM48 -82 l-18 0 l17 82 l-9 0 l0 36 l36 0 l0 -36 l-26 -82 Z" /><glyph glyph-name="daggerdbl" unicode="&#x2021;" d="M143 424 l-141 0 l0 26 l141 0 l0 246 l29 0 l0 -246 l142 0 l0 -26 l-142 0 l0 -229 l142 0 l0 -26 l-142 0 l0 -367 l-29 0 l0 367 l-141 0 l0 26 l141 0 l0 229 Z" /><glyph glyph-name="emdash" unicode="&#x2014;" d="M20 272 l961 0 l0 -26 l-961 0 l0 26 Z" /><glyph glyph-name="guilsinglright" unicode="&#x203a;" d="M34 46 l106 186 l-106 186 l27 0 l107 -186 l-107 -186 l-27 0 Z" /><glyph glyph-name="exclamdown" unicode="¡" d="M103 334 q1 -64 1.5 -132.5 q0.5 -68.5 0.5 -138.5 q0 -70 0.5 -139 q0.5 -69 1.5 -133 l-29 0 q1 64 1.5 133 q0.5 69 0.5 139 q0 70 0.5 138.5 q0.5 68.5 1.5 132.5 l21 0 ZM110 487 l0 -35 l-34 0 l0 35 l34 0 Z" /><glyph glyph-name="questiondown" unicode="¿" d="M191 -217 q-43 0 -71 12.5 q-28 12.5 -44.5 33.5 q-16.5 21 -23 49 q-6.5 28 -6.5 58 q0 27 2 46.5 q2 19.5 5.5 33.5 q3.5 14 8.5 25 q5 11 10 20 q15 27 25.5 45 q10.5 18 18.5 30 q8 12 13.5 19.5 q5.5 7.5 8.5 13.5 q9 16 16 41 q7 25 7 48 l0 74 l24 0 l0 -80 q0 -8 -1.5 -19.5 q-1.5 -11.5 -4.5 -23.5 q-3 -12 -7 -23.5 q-4 -11.5 -9 -20.5 l-69 -113 q-16 -27 -19 -56 q-3 -29 -3 -58 q0 -65 28.5 -98 q28.5 -33 91.5 -33 q21 0 40.5 7.5 q19.5 7.5 35 22 q15.5 14.5 25 36.5 q9.5 22 11.5 52 l25 -5 q-4 -62 -41 -99.5 q-37 -37.5 -97 -37.5 ZM189 485 l0 -35 l-34 0 l0 35 l34 0 Z" /><glyph glyph-name="brokenbar" unicode="¦" d="M73 308 l0 408 l19 0 l0 -408 l-19 0 ZM92 245 l0 -407 l-19 0 l0 407 l19 0 Z" /><glyph glyph-name="dotaccent" unicode="&#x2d9;" d="M163 615 l28 0 l0 -32 l-28 0 l0 32 Z" /><glyph glyph-name="ring" unicode="&#x2da;" d="M172 554 q-30 0 -52 22.5 q-22 22.5 -22 54.5 q0 34 22 56 q22 22 52 22 q32 0 54 -22 q22 -22 22 -56 q0 -32 -22 -54.5 q-22 -22.5 -54 -22.5 ZM172 690 q-22 0 -38.5 -17 q-16.5 -17 -16.5 -42 q0 -23 16.5 -40.5 q16.5 -17.5 38.5 -17.5 q23 0 40 17.5 q17 17.5 17 40.5 q0 25 -17 42 q-17 17 -40 17 Z" /><glyph glyph-name="ogonek" unicode="&#x2db;" d="M228 -94 q0 19 10 46 q10 27 31 52 l22 -3 l1 -1 q-17 -20 -28.5 -46.5 q-11.5 -26.5 -11.5 -43.5 q0 -30 13 -43.5 q13 -13.5 32 -13.5 q10 0 23 3.5 q13 3.5 25 12.5 l8 -21 q-10 -8 -25.5 -13.5 q-15.5 -5.5 -31.5 -5.5 q-32 0 -50 23 q-18 23 -18 54 Z" /><glyph glyph-name="hungarumlaut" unicode="&#x2dd;" d="M116 562 l66 143 l33 -13 l-84 -136 l-15 6 ZM194 562 l66 143 l33 -13 l-84 -136 l-15 6 Z" /><glyph glyph-name="guilsinglleft" unicode="&#x2039;" d="M141 46 l-107 186 l107 186 l27 0 l-106 -186 l106 -186 l-27 0 Z" /><glyph glyph-name="currency" unicode="¤" d="M86 324 q0 30 10 57 q10 27 28 48 l-52 52 l17 17 l52 -52 q21 19 48 29.5 q27 10.5 58 10.5 q30 0 57 -10.5 q27 -10.5 48 -28.5 l51 51 l17 -18 l-50 -50 q18 -22 28.5 -49 q10.5 -27 10.5 -57 q0 -30 -10.5 -57 q-10.5 -27 -28.5 -48 l51 -52 l-18 -18 l-51 52 q-21 -18 -48 -28 q-27 -10 -57 -10 q-61 0 -105 38 l-53 -53 l-18 18 l53 53 q-38 44 -38 105 ZM112 324 q0 -28 11 -53 q11 -25 29.5 -43.5 q18.5 -18.5 43.5 -29.5 q25 -11 53 -11 q28 0 53 11 q25 11 43.5 29.5 q18.5 18.5 29.5 43.5 q11 25 11 53 q0 28 -11 53 q-11 25 -29.5 43.5 q-18.5 18.5 -43.5 29.5 q-25 11 -53 11 q-28 0 -53 -11 q-25 -11 -43.5 -29.5 q-18.5 -18.5 -29.5 -43.5 q-11 -25 -11 -53 Z" /><glyph glyph-name="cent" unicode="¢" d="M176 495 q54 -2 87.5 -32 q33.5 -30 33.5 -89 l-26 -5 q0 46 -24 73 q-24 27 -71 29 l0 -455 q43 2 68.5 26.5 q25.5 24.5 26.5 75.5 l26 -5 q-2 -59 -35 -88.5 q-33 -29.5 -86 -31.5 l0 -107 l-19 0 l0 107 q-54 3 -80 28 q-26 25 -34 56 q-3 12 -5 31.5 q-2 19.5 -3 41.5 q-1 22 -1 45 q0 23 0 43 q0 27 0.5 54.5 q0.5 27.5 2 52 q1.5 24.5 4 44 q2.5 19.5 6.5 31.5 q11 31 37.5 51 q26.5 20 72.5 23 l0 115 l19 0 l0 -114 ZM71 78 q9 -28 30.5 -44 q21.5 -16 55.5 -18 l0 455 q-26 -2 -48.5 -15 q-22.5 -13 -35.5 -43 q-6 -16 -9 -65.5 q-3 -49.5 -3 -110.5 l0 -18 q0 -18 0.5 -39 q0.5 -21 1.5 -40.5 q1 -19.5 3 -36 q2 -16.5 5 -25.5 Z" /><glyph glyph-name="paragraph" unicode="¶" d="M226 703 l0 -784 l-32 0 l0 458 q-72 0 -116.5 45.5 q-44.5 45.5 -44.5 135.5 q0 36 7.5 68 q7.5 32 26 56 q18.5 24 49.5 38 q31 14 78 14 l183 0 l0 -31 l-52 0 l0 -784 l-32 0 l0 784 l-67 0 Z" /><glyph glyph-name="Scaron" unicode="&#x160;" d="M340 178 q0 -42 -7.5 -76 q-7.5 -34 -25 -58.5 q-17.5 -24.5 -47 -37.5 q-29.5 -13 -73.5 -13 q-42 0 -70.5 11 q-28.5 11 -47 30.5 q-18.5 19.5 -27 45.5 q-8.5 26 -9.5 57 l27 5 q0 -25 7 -47.5 q7 -22.5 22 -40 q15 -17.5 39 -27.5 q24 -10 59 -10 q41 0 65.5 13 q24.5 13 38 35 q13.5 22 18 51 q4.5 29 4.5 61 q0 37 -3.5 62 q-3.5 25 -16 44.5 q-12.5 19.5 -37 35.5 q-24.5 16 -67.5 36 q-51 23 -80.5 43 q-29.5 20 -45 41 q-15.5 21 -20 43.5 q-4.5 22.5 -4.5 49.5 q0 37 8.5 68.5 q8.5 31.5 27 54 q18.5 22.5 47 35 q28.5 12.5 68.5 12.5 q44 0 73 -12.5 q29 -12.5 46 -32.5 q17 -20 24 -45 q7 -25 7 -50 l-26 -6 q0 24 -6.5 46 q-6.5 22 -21 39 q-14.5 17 -38.5 27 q-24 10 -59 10 q-39 0 -63 -13.5 q-24 -13.5 -37.5 -35 q-13.5 -21.5 -18 -47 q-4.5 -25.5 -4.5 -49.5 q0 -27 6 -48 q6 -21 22 -39 q16 -18 44.5 -35.5 q28.5 -17.5 74.5 -38.5 q46 -20 71.5 -39 q25.5 -19 38 -41.5 q12.5 -22.5 15 -50 q2.5 -27.5 2.5 -63.5 ZM286 841 l12 -11 l-104 -92 l-24 0 l-107 94 l11 10 l107 -78 l105 77 Z" /><glyph glyph-name="Zcaron" unicode="&#x17d;" d="M267 24 l0 -24 l-259 0 l0 23 l249 650 l-225 0 l0 23 l250 0 l0 -22 l-249 -650 l234 0 ZM266 841 l12 -11 l-104 -92 l-24 0 l-107 94 l11 10 l107 -78 l105 77 Z" /><glyph glyph-name="scaron" unicode="&#x161;" d="M154 -7 q-60 0 -95 29.5 q-35 29.5 -37 90.5 l26 5 q0 -48 28.5 -75.5 q28.5 -27.5 78.5 -26.5 q58 0 81 30 q23 30 23 77 q0 24 -3.5 41.5 q-3.5 17.5 -15 31 q-11.5 13.5 -31.5 25.5 q-20 12 -53 24 q-40 15 -64.5 30 q-24.5 15 -38 30.5 q-13.5 15.5 -18.5 32.5 q-5 17 -5 36 q0 53 31 87 q31 34 99 34 q57 0 93 -30.5 q36 -30.5 36 -90.5 l-26 -5 q0 48 -28.5 75 q-28.5 27 -76.5 27 q-30 0 -49 -8.5 q-19 -8.5 -30.5 -22 q-11.5 -13.5 -16 -31 q-4.5 -17.5 -4.5 -35.5 q0 -18 4.5 -32 q4.5 -14 17 -27 q12.5 -13 35.5 -25 q23 -12 59 -25 q38 -14 60.5 -29 q22.5 -15 34 -32 q11.5 -17 14.5 -36.5 q3 -19.5 3 -43.5 q0 -28 -7 -52 q-7 -24 -22.5 -41.5 q-15.5 -17.5 -40.5 -27.5 q-25 -10 -62 -10 ZM266 674 l12 -11 l-104 -112 l-24 0 l-107 114 l11 10 l107 -98 l105 97 Z" /><glyph glyph-name="zcaron" unicode="&#x17e;" d="M10 22 l221 442 l-198 0 l0 22 l226 0 l0 -21 l-221 -443 l214 0 l0 -22 l-242 0 l0 22 ZM252 674 l12 -11 l-104 -112 l-24 0 l-107 114 l11 10 l107 -98 l105 97 Z" /><glyph glyph-name="Ydieresis" unicode="&#x178;" d="M167 326 l131 370 l27 0 l-146 -403 l0 -293 l-25 0 l0 293 l-146 403 l25 0 l132 -370 l2 0 ZM82 773 l28 0 l0 -32 l-28 0 l0 32 ZM224 773 l28 0 l0 -32 l-28 0 l0 32 Z" /><glyph glyph-name="macron" unicode="¯" d="M77 614 l191 0 l0 -24 l-191 0 l0 24 Z" /><glyph glyph-name="Macron" unicode="&#xf6d0;" d="M87 774 l191 0 l0 -24 l-191 0 l0 24 Z" /><glyph glyph-name="thorn" unicode="þ" d="M178 470 q-50 0 -82 -33 q-32 -33 -32 -86 l0 -205 q0 -24 7 -47.5 q7 -23.5 21 -42 q14 -18.5 34.5 -30 q20.5 -11.5 47.5 -11.5 q33 0 59 18.5 q26 18.5 36 51.5 q3 10 4.5 29.5 q1.5 19.5 2.5 43.5 q1 24 1 50 q0 26 0 49 q0 47 -1 85.5 q-1 38.5 -6 54.5 q-11 41 -34.5 57 q-23.5 16 -57.5 16 ZM180 493 q21 0 41.5 -5.5 q20.5 -5.5 37 -19 q16.5 -13.5 28 -35 q11.5 -21.5 14.5 -54.5 q3 -32 3 -61 q0 -29 0 -55 l0 -21 q0 -57 -0.5 -102 q-0.5 -45 -11.5 -74 q-5 -15 -14.5 -28.5 q-9.5 -13.5 -23.5 -24 q-14 -10.5 -34 -16.5 q-20 -6 -47 -6 q-26 0 -44 7 q-18 7 -30.5 17 q-12.5 10 -20 21 q-7.5 11 -12.5 19 l-2 0 l0 -251 l-25 0 l0 891 l25 0 l0 -259 l2 0 q17 26 45 41.5 q28 15.5 69 15.5 Z" /><glyph glyph-name="Thorn" unicode="þ" d="M184 555 q52 0 86.5 -14.5 q34.5 -14.5 54 -40 q19.5 -25.5 27.5 -60 q8 -34.5 8 -75.5 q0 -46 -9 -83 q-9 -37 -29.5 -63.5 q-20.5 -26.5 -54.5 -40.5 q-34 -14 -84 -14 l-106 0 l0 -163 l-25 0 l0 695 l25 0 l0 -141 l107 0 ZM77 533 l0 -347 l103 0 q83 0 119.5 42.5 q36.5 42.5 36.5 135.5 q0 37 -7.5 68.5 q-7.5 31.5 -25.5 53.5 q-18 22 -47.5 34.5 q-29.5 12.5 -73.5 12.5 l-105 0 Z" /><glyph glyph-name="Agrave" unicode="à" d="M289 196 l-213 0 l-44 -196 l-24 0 l156 696 l37 0 l158 -696 l-25 0 l-45 196 ZM142 493 l-61 -274 l203 0 l-62 276 l-39 178 l-2 0 l-39 -180 ZM178 733 l-134 88 l25 26 l120 -102 l-11 -12 Z" /><glyph glyph-name="Aacute" unicode="á" d="M289 196 l-213 0 l-44 -196 l-24 0 l156 696 l37 0 l158 -696 l-25 0 l-45 196 ZM142 493 l-61 -274 l203 0 l-62 276 l-39 178 l-2 0 l-39 -180 ZM169 745 l120 102 l25 -26 l-134 -88 l-11 12 Z" /><glyph glyph-name="Acircumflex" unicode="â" d="M289 196 l-213 0 l-44 -196 l-24 0 l156 696 l37 0 l158 -696 l-25 0 l-45 196 ZM142 493 l-61 -274 l203 0 l-62 276 l-39 178 l-2 0 l-39 -180 ZM183 816 l-107 -78 l-11 10 l107 94 l24 0 l104 -92 l-12 -11 l-105 77 Z" /><glyph glyph-name="Atilde" unicode="ã" d="M289 196 l-213 0 l-44 -196 l-24 0 l156 696 l37 0 l158 -696 l-25 0 l-45 196 ZM142 493 l-61 -274 l203 0 l-62 276 l-39 178 l-2 0 l-39 -180 ZM236 741 q-15 0 -29.5 6 q-14.5 6 -29 13 q-14.5 7 -28 13 q-13.5 6 -27.5 6 q-12 0 -24 -9.5 q-12 -9.5 -22 -24.5 l-16 10 q25 47 63 47 q16 0 30 -6 q14 -6 27.5 -12.5 q13.5 -6.5 28 -12.5 q14.5 -6 30.5 -6 q32 0 50 38 l16 -7 q-9 -30 -29 -42.5 q-20 -12.5 -40 -12.5 Z" /><glyph glyph-name="Aring" unicode="å" d="M289 196 l-213 0 l-44 -196 l-24 0 l156 696 l37 0 l158 -696 l-25 0 l-45 196 ZM142 493 l-61 -274 l203 0 l-62 276 l-39 178 l-2 0 l-39 -180 ZM181 718 q-30 0 -52 22.5 q-22 22.5 -22 54.5 q0 34 22 56 q22 22 52 22 q32 0 54 -22 q22 -22 22 -56 q0 -32 -22 -54.5 q-22 -22.5 -54 -22.5 ZM181 854 q-22 0 -38.5 -17 q-16.5 -17 -16.5 -42 q0 -23 16.5 -40.5 q16.5 -17.5 38.5 -17.5 q23 0 40 17.5 q17 17.5 17 40.5 q0 25 -17 42 q-17 17 -40 17 Z" /><glyph glyph-name="Egrave" unicode="è" d="M52 696 l276 0 l0 -23 l-251 0 l0 -302 l223 0 l0 -23 l-223 0 l0 -324 l251 0 l0 -24 l-276 0 l0 696 ZM198 733 l-134 88 l25 26 l120 -102 l-11 -12 Z" /><glyph glyph-name="Ecircumflex" unicode="ê" d="M52 696 l276 0 l0 -23 l-251 0 l0 -302 l223 0 l0 -23 l-223 0 l0 -324 l251 0 l0 -24 l-276 0 l0 696 ZM183 816 l-107 -78 l-11 10 l107 94 l24 0 l104 -92 l-12 -11 l-105 77 Z" /><glyph glyph-name="Edieresis" unicode="ë" d="M52 696 l276 0 l0 -23 l-251 0 l0 -302 l223 0 l0 -23 l-223 0 l0 -324 l251 0 l0 -24 l-276 0 l0 696 ZM90 773 l28 0 l0 -32 l-28 0 l0 32 ZM232 773 l28 0 l0 -32 l-28 0 l0 32 Z" /><glyph glyph-name="Igrave" unicode="ì" d="M70 696 l25 0 l0 -696 l-25 0 l0 696 ZM80 733 l-134 88 l25 26 l120 -102 l-11 -12 Z" /><glyph glyph-name="Iacute" unicode="í" d="M70 696 l25 0 l0 -696 l-25 0 l0 696 ZM72 745 l120 102 l25 -26 l-134 -88 l-11 12 Z" /><glyph glyph-name="Icircumflex" unicode="î" d="M70 696 l25 0 l0 -696 l-25 0 l0 696 ZM84 816 l-107 -78 l-11 10 l107 94 l24 0 l104 -92 l-12 -11 l-105 77 Z" /><glyph glyph-name="Idieresis" unicode="ï" d="M70 696 l25 0 l0 -696 l-25 0 l0 696 ZM-3 773 l28 0 l0 -32 l-28 0 l0 32 ZM139 773 l28 0 l0 -32 l-28 0 l0 32 Z" /><glyph glyph-name="Eth" unicode="ð" d="M4 388 l47 0 l0 308 l144 0 q64 0 100 -22.5 q36 -22.5 50 -73.5 q10 -36 10 -100 q0 -64 0 -151 q0 -86 -0.5 -154.5 q-0.5 -68.5 -10.5 -102.5 q-9 -30 -25 -48 q-16 -18 -36.5 -27.5 q-20.5 -9.5 -45 -13 q-24.5 -3.5 -51.5 -3.5 l-135 0 l0 366 l-47 0 l0 22 ZM328 516 q0 33 -5.5 62 q-5.5 29 -19.5 50.5 q-14 21.5 -40 33.5 q-26 12 -66 12 l-120 0 l0 -286 l130 0 l0 -22 l-130 0 l0 -342 l121 0 q67 0 98.5 35 q31.5 35 31.5 116 l0 341 Z" /><glyph glyph-name="Ograve" unicode="ò" d="M328 558 q0 60 -37.5 90.5 q-37.5 30.5 -91.5 30.5 q-56 0 -92.5 -33 q-36.5 -33 -36.5 -93 l0 -416 q0 -61 36.5 -91 q36.5 -30 92.5 -30 q62 0 95.5 32 q33.5 32 33.5 93 l0 417 ZM199 -7 q-32 0 -60 8.5 q-28 8.5 -49 26.5 q-21 18 -33 45 q-12 27 -12 65 l0 416 q0 37 12 65 q12 28 33 46.5 q21 18.5 49 27.5 q28 9 60 9 q32 0 60 -8.5 q28 -8.5 49 -26 q21 -17.5 33 -44.5 q12 -27 12 -64 l0 -419 q0 -38 -12 -65.5 q-12 -27.5 -33 -45.5 q-21 -18 -49 -27 q-28 -9 -60 -9 ZM204 733 l-134 88 l25 26 l120 -102 l-11 -12 Z" /><glyph glyph-name="Oacute" unicode="ó" d="M328 558 q0 60 -37.5 90.5 q-37.5 30.5 -91.5 30.5 q-56 0 -92.5 -33 q-36.5 -33 -36.5 -93 l0 -416 q0 -61 36.5 -91 q36.5 -30 92.5 -30 q62 0 95.5 32 q33.5 32 33.5 93 l0 417 ZM199 -7 q-32 0 -60 8.5 q-28 8.5 -49 26.5 q-21 18 -33 45 q-12 27 -12 65 l0 416 q0 37 12 65 q12 28 33 46.5 q21 18.5 49 27.5 q28 9 60 9 q32 0 60 -8.5 q28 -8.5 49 -26 q21 -17.5 33 -44.5 q12 -27 12 -64 l0 -419 q0 -38 -12 -65.5 q-12 -27.5 -33 -45.5 q-21 -18 -49 -27 q-28 -9 -60 -9 ZM160 745 l120 102 l25 -26 l-134 -88 l-11 12 Z" /><glyph glyph-name="Ocircumflex" unicode="ô" d="M328 558 q0 60 -37.5 90.5 q-37.5 30.5 -91.5 30.5 q-56 0 -92.5 -33 q-36.5 -33 -36.5 -93 l0 -416 q0 -61 36.5 -91 q36.5 -30 92.5 -30 q62 0 95.5 32 q33.5 32 33.5 93 l0 417 ZM199 -7 q-32 0 -60 8.5 q-28 8.5 -49 26.5 q-21 18 -33 45 q-12 27 -12 65 l0 416 q0 37 12 65 q12 28 33 46.5 q21 18.5 49 27.5 q28 9 60 9 q32 0 60 -8.5 q28 -8.5 49 -26 q21 -17.5 33 -44.5 q12 -27 12 -64 l0 -419 q0 -38 -12 -65.5 q-12 -27.5 -33 -45.5 q-21 -18 -49 -27 q-28 -9 -60 -9 ZM200 816 l-107 -78 l-11 10 l107 94 l24 0 l104 -92 l-12 -11 l-105 77 Z" /><glyph glyph-name="Otilde" unicode="õ" d="M328 558 q0 60 -37.5 90.5 q-37.5 30.5 -91.5 30.5 q-56 0 -92.5 -33 q-36.5 -33 -36.5 -93 l0 -416 q0 -61 36.5 -91 q36.5 -30 92.5 -30 q62 0 95.5 32 q33.5 32 33.5 93 l0 417 ZM199 -7 q-32 0 -60 8.5 q-28 8.5 -49 26.5 q-21 18 -33 45 q-12 27 -12 65 l0 416 q0 37 12 65 q12 28 33 46.5 q21 18.5 49 27.5 q28 9 60 9 q32 0 60 -8.5 q28 -8.5 49 -26 q21 -17.5 33 -44.5 q12 -27 12 -64 l0 -419 q0 -38 -12 -65.5 q-12 -27.5 -33 -45.5 q-21 -18 -49 -27 q-28 -9 -60 -9 ZM263 741 q-15 0 -29.5 6 q-14.5 6 -29 13 q-14.5 7 -28 13 q-13.5 6 -27.5 6 q-12 0 -24 -9.5 q-12 -9.5 -22 -24.5 l-16 10 q25 47 63 47 q16 0 30 -6 q14 -6 27.5 -12.5 q13.5 -6.5 28 -12.5 q14.5 -6 30.5 -6 q32 0 50 38 l16 -7 q-9 -30 -29 -42.5 q-20 -12.5 -40 -12.5 Z" /><glyph glyph-name="Oslash" unicode="ø" d="M199 -7 q-37 0 -68.5 11.5 q-31.5 11.5 -52.5 34.5 l-23 -54 l-19 9 l28 65 q-19 33 -19 79 l0 416 q0 37 12 65 q12 28 33 46.5 q21 18.5 49 27.5 q28 9 60 9 q36 0 66.5 -10.5 q30.5 -10.5 52.5 -33.5 l23 54 l20 -9 l-28 -65 q20 -32 20 -79 l0 -419 q0 -38 -12 -65.5 q-12 -27.5 -33 -45.5 q-21 -18 -49 -27 q-28 -9 -60 -9 ZM328 558 q0 26 -8 48 l-231 -541 q17 -25 45.5 -37 q28.5 -12 64.5 -12 q62 0 95.5 32 q33.5 32 33.5 93 l0 417 ZM70 137 q0 -13 2 -24.5 q2 -11.5 5 -21.5 l229 540 q-17 23 -45 35.5 q-28 12.5 -62 12.5 q-56 0 -92.5 -33 q-36.5 -33 -36.5 -93 l0 -416 Z" /><glyph glyph-name="Ugrave" unicode="ù" d="M343 695 l0 -555 q0 -38 -12 -65.5 q-12 -27.5 -33 -45.5 q-21 -18 -49 -27 q-28 -9 -60 -9 q-32 0 -60 8.5 q-28 8.5 -49 26.5 q-21 18 -33 45 q-12 27 -12 65 l0 557 l25 0 l0 -558 q0 -61 36.5 -91 q36.5 -30 92.5 -30 q62 0 95.5 32 q33.5 32 33.5 93 l0 554 l25 0 ZM202 733 l-134 88 l25 26 l120 -102 l-11 -12 Z" /><glyph glyph-name="Uacute" unicode="ú" d="M343 695 l0 -555 q0 -38 -12 -65.5 q-12 -27.5 -33 -45.5 q-21 -18 -49 -27 q-28 -9 -60 -9 q-32 0 -60 8.5 q-28 8.5 -49 26.5 q-21 18 -33 45 q-12 27 -12 65 l0 557 l25 0 l0 -558 q0 -61 36.5 -91 q36.5 -30 92.5 -30 q62 0 95.5 32 q33.5 32 33.5 93 l0 554 l25 0 ZM150 745 l120 102 l25 -26 l-134 -88 l-11 12 Z" /><glyph glyph-name="Ucircumflex" unicode="û" d="M343 695 l0 -555 q0 -38 -12 -65.5 q-12 -27.5 -33 -45.5 q-21 -18 -49 -27 q-28 -9 -60 -9 q-32 0 -60 8.5 q-28 8.5 -49 26.5 q-21 18 -33 45 q-12 27 -12 65 l0 557 l25 0 l0 -558 q0 -61 36.5 -91 q36.5 -30 92.5 -30 q62 0 95.5 32 q33.5 32 33.5 93 l0 554 l25 0 ZM190 816 l-107 -78 l-11 10 l107 94 l24 0 l104 -92 l-12 -11 l-105 77 Z" /><glyph glyph-name="Yacute" unicode="ý" d="M167 326 l131 370 l27 0 l-146 -403 l0 -293 l-25 0 l0 293 l-146 403 l25 0 l132 -370 l2 0 ZM147 745 l120 102 l25 -26 l-134 -88 l-11 12 Z" /><glyph glyph-name="aacute" unicode="á" d="M166 259 q-51 0 -84 -30.5 q-33 -30.5 -33 -102.5 q0 -21 5.5 -41 q5.5 -20 18 -35 q12.5 -15 33 -24.5 q20.5 -9.5 50.5 -9.5 q46 0 78.5 25 q32.5 25 32.5 75 l0 143 l-101 0 ZM39 423 q15 32 46 52 q31 20 82 20 q61 0 93.5 -27.5 q32.5 -27.5 32.5 -99.5 l0 -368 l-26 0 l0 44 l-2 0 q-13 -17 -28 -27 q-15 -10 -30.5 -15 q-15.5 -5 -31 -6.5 q-15.5 -1.5 -28.5 -1.5 q-34 0 -57.5 11 q-23.5 11 -38 29.5 q-14.5 18.5 -21 43 q-6.5 24.5 -6.5 51.5 q0 28 6.5 55.5 q6.5 27.5 22.5 49.5 q16 22 42.5 35.5 q26.5 13.5 66.5 13.5 l105 0 l0 83 q0 23 -4 42.5 q-4 19.5 -15 33.5 q-11 14 -31 22 q-20 8 -52 8 q-39 0 -65.5 -17 q-26.5 -17 -36.5 -42 l-24 10 ZM157 562 l66 143 l33 -13 l-84 -136 l-15 6 Z" /><glyph glyph-name="atilde" unicode="ã" d="M166 259 q-51 0 -84 -30.5 q-33 -30.5 -33 -102.5 q0 -21 5.5 -41 q5.5 -20 18 -35 q12.5 -15 33 -24.5 q20.5 -9.5 50.5 -9.5 q46 0 78.5 25 q32.5 25 32.5 75 l0 143 l-101 0 ZM39 423 q15 32 46 52 q31 20 82 20 q61 0 93.5 -27.5 q32.5 -27.5 32.5 -99.5 l0 -368 l-26 0 l0 44 l-2 0 q-13 -17 -28 -27 q-15 -10 -30.5 -15 q-15.5 -5 -31 -6.5 q-15.5 -1.5 -28.5 -1.5 q-34 0 -57.5 11 q-23.5 11 -38 29.5 q-14.5 18.5 -21 43 q-6.5 24.5 -6.5 51.5 q0 28 6.5 55.5 q6.5 27.5 22.5 49.5 q16 22 42.5 35.5 q26.5 13.5 66.5 13.5 l105 0 l0 83 q0 23 -4 42.5 q-4 19.5 -15 33.5 q-11 14 -31 22 q-20 8 -52 8 q-39 0 -65.5 -17 q-26.5 -17 -36.5 -42 l-24 10 ZM235 571 q-15 0 -29.5 6 q-14.5 6 -29 13 q-14.5 7 -28 13 q-13.5 6 -27.5 6 q-12 0 -24 -9.5 q-12 -9.5 -22 -24.5 l-16 10 q25 47 63 47 q16 0 30 -6 q14 -6 27.5 -12.5 q13.5 -6.5 28 -12.5 q14.5 -6 30.5 -6 q32 0 50 38 l16 -7 q-9 -30 -29 -42.5 q-20 -12.5 -40 -12.5 Z" /><glyph glyph-name="aring" unicode="å" d="M166 259 q-51 0 -84 -30.5 q-33 -30.5 -33 -102.5 q0 -21 5.5 -41 q5.5 -20 18 -35 q12.5 -15 33 -24.5 q20.5 -9.5 50.5 -9.5 q46 0 78.5 25 q32.5 25 32.5 75 l0 143 l-101 0 ZM39 423 q15 32 46 52 q31 20 82 20 q61 0 93.5 -27.5 q32.5 -27.5 32.5 -99.5 l0 -368 l-26 0 l0 44 l-2 0 q-13 -17 -28 -27 q-15 -10 -30.5 -15 q-15.5 -5 -31 -6.5 q-15.5 -1.5 -28.5 -1.5 q-34 0 -57.5 11 q-23.5 11 -38 29.5 q-14.5 18.5 -21 43 q-6.5 24.5 -6.5 51.5 q0 28 6.5 55.5 q6.5 27.5 22.5 49.5 q16 22 42.5 35.5 q26.5 13.5 66.5 13.5 l105 0 l0 83 q0 23 -4 42.5 q-4 19.5 -15 33.5 q-11 14 -31 22 q-20 8 -52 8 q-39 0 -65.5 -17 q-26.5 -17 -36.5 -42 l-24 10 ZM172 554 q-30 0 -52 22.5 q-22 22.5 -22 54.5 q0 34 22 56 q22 22 52 22 q32 0 54 -22 q22 -22 22 -56 q0 -32 -22 -54.5 q-22 -22.5 -54 -22.5 ZM172 690 q-22 0 -38.5 -17 q-16.5 -17 -16.5 -42 q0 -23 16.5 -40.5 q16.5 -17.5 38.5 -17.5 q23 0 40 17.5 q17 17.5 17 40.5 q0 25 -17 42 q-17 17 -40 17 Z" /><glyph glyph-name="igrave" unicode="ì" d="M60 487 l25 0 l0 -487 l-25 0 l0 487 ZM63 556 l-84 136 l33 13 l66 -143 l-15 -6 Z" /><glyph glyph-name="iacute" unicode="í" d="M60 487 l25 0 l0 -487 l-25 0 l0 487 ZM61 562 l66 143 l33 -13 l-84 -136 l-15 6 Z" /><glyph glyph-name="ntilde" unicode="ñ" d="M72 430 q17 31 47 48 q30 17 65 17 q37 0 61.5 -11 q24.5 -11 38 -29 q13.5 -18 19 -42.5 q5.5 -24.5 5.5 -51.5 l0 -361 l-26 0 l0 351 q0 24 -4 46 q-4 22 -15 38 q-11 16 -30.5 25.5 q-19.5 9.5 -49.5 9.5 q-28 0 -49 -11.5 q-21 -11.5 -35.5 -29.5 q-14.5 -18 -21.5 -41 q-7 -23 -7 -46 l0 -342 l-25 0 l0 487 l25 0 l0 -57 l2 0 ZM234 571 q-15 0 -29.5 6 q-14.5 6 -29 13 q-14.5 7 -28 13 q-13.5 6 -27.5 6 q-12 0 -24 -9.5 q-12 -9.5 -22 -24.5 l-16 10 q25 47 63 47 q16 0 30 -6 q14 -6 27.5 -12.5 q13.5 -6.5 28 -12.5 q14.5 -6 30.5 -6 q32 0 50 38 l16 -7 q-9 -30 -29 -42.5 q-20 -12.5 -40 -12.5 Z" /><glyph glyph-name="ograve" unicode="ò" d="M172 495 q55 0 82 -21 q27 -21 39 -51 q4 -15 6.5 -36 q2.5 -21 4 -45 q1.5 -24 1.5 -49 q0 -25 0 -49 l0 -21 q0 -26 -0.5 -54 q-0.5 -28 -3.5 -60 q-3 -33 -15.5 -55 q-12.5 -22 -30.5 -35.5 q-18 -13.5 -39.5 -19.5 q-21.5 -6 -43.5 -6 q-60 0 -89 22.5 q-29 22.5 -40 61.5 q-3 12 -4.5 31 q-1.5 19 -2.5 41 q-1 22 -1 45.5 q0 23.5 0 43.5 q0 27 0.5 55 q0.5 28 1.5 53 q1 25 3.5 45 q2.5 20 6.5 32 q12 33 42.5 52.5 q30.5 19.5 82.5 19.5 ZM171 471 q-14 0 -28.5 -2.5 q-14.5 -2.5 -27.5 -8.5 q-13 -6 -24 -17 q-11 -11 -18 -28 q-9 -23 -10 -70 q-1 -47 -2 -108 l0 -18 q0 -56 2 -89.5 q2 -33.5 8 -52.5 q10 -29 34 -45 q24 -16 66 -16 q34 0 62 17 q28 17 39 55 q5 16 6.5 55 q1.5 39 1.5 86 q0 23 -0.5 50 q-0.5 27 -1.5 52 q-1 25 -3 45 q-2 20 -5 31 q-10 33 -37 48.5 q-27 15.5 -62 15.5 ZM179 556 l-84 136 l33 13 l66 -143 l-15 -6 Z" /><glyph glyph-name="oacute" unicode="ó" d="M172 495 q55 0 82 -21 q27 -21 39 -51 q4 -15 6.5 -36 q2.5 -21 4 -45 q1.5 -24 1.5 -49 q0 -25 0 -49 l0 -21 q0 -26 -0.5 -54 q-0.5 -28 -3.5 -60 q-3 -33 -15.5 -55 q-12.5 -22 -30.5 -35.5 q-18 -13.5 -39.5 -19.5 q-21.5 -6 -43.5 -6 q-60 0 -89 22.5 q-29 22.5 -40 61.5 q-3 12 -4.5 31 q-1.5 19 -2.5 41 q-1 22 -1 45.5 q0 23.5 0 43.5 q0 27 0.5 55 q0.5 28 1.5 53 q1 25 3.5 45 q2.5 20 6.5 32 q12 33 42.5 52.5 q30.5 19.5 82.5 19.5 ZM171 471 q-14 0 -28.5 -2.5 q-14.5 -2.5 -27.5 -8.5 q-13 -6 -24 -17 q-11 -11 -18 -28 q-9 -23 -10 -70 q-1 -47 -2 -108 l0 -18 q0 -56 2 -89.5 q2 -33.5 8 -52.5 q10 -29 34 -45 q24 -16 66 -16 q34 0 62 17 q28 17 39 55 q5 16 6.5 55 q1.5 39 1.5 86 q0 23 -0.5 50 q-0.5 27 -1.5 52 q-1 25 -3 45 q-2 20 -5 31 q-10 33 -37 48.5 q-27 15.5 -62 15.5 ZM152 562 l66 143 l33 -13 l-84 -136 l-15 6 Z" /><glyph glyph-name="uacute" unicode="ú" d="M282 57 q-17 -31 -47 -48 q-30 -17 -65 -17 q-38 0 -62 11 q-24 11 -37.5 29 q-13.5 18 -19 42.5 q-5.5 24.5 -5.5 51.5 l0 361 l26 0 l0 -351 q0 -24 4 -46 q4 -22 15 -38 q11 -16 30.5 -25.5 q19.5 -9.5 49.5 -9.5 q28 0 49 11.5 q21 11.5 35 29.5 q14 18 21.5 41 q7.5 23 7.5 46 l0 342 l25 0 l0 -487 l-25 0 l0 57 l-2 0 ZM177 562 l66 143 l33 -13 l-84 -136 l-15 6 Z" /><glyph glyph-name="yacute" unicode="ý" d="M151 46 l122 441 l26 0 l-166 -595 q-10 -39 -34.5 -66 q-24.5 -27 -68.5 -27 l-7 0 l0 23 l7 0 q33 0 52.5 23.5 q19.5 23.5 29.5 63.5 l24 96 l-129 482 l27 0 l115 -441 l2 0 ZM138 562 l66 143 l33 -13 l-84 -136 l-15 6 Z" /><glyph glyph-name="ydieresis" unicode="ÿ" d="M151 46 l122 441 l26 0 l-166 -595 q-10 -39 -34.5 -66 q-24.5 -27 -68.5 -27 l-7 0 l0 23 l7 0 q33 0 52.5 23.5 q19.5 23.5 29.5 63.5 l24 96 l-129 482 l27 0 l115 -441 l2 0 ZM70 615 l28 0 l0 -32 l-28 0 l0 32 ZM212 615 l28 0 l0 -32 l-28 0 l0 32 Z" /><glyph glyph-name="Amacron" unicode="&#x100;" d="M289 196 l-213 0 l-44 -196 l-24 0 l156 696 l37 0 l158 -696 l-25 0 l-45 196 ZM142 493 l-61 -274 l203 0 l-62 276 l-39 178 l-2 0 l-39 -180 ZM86 774 l191 0 l0 -24 l-191 0 l0 24 Z" /><glyph glyph-name="amacron" unicode="&#x101;" d="M166 259 q-51 0 -84 -30.5 q-33 -30.5 -33 -102.5 q0 -21 5.5 -41 q5.5 -20 18 -35 q12.5 -15 33 -24.5 q20.5 -9.5 50.5 -9.5 q46 0 78.5 25 q32.5 25 32.5 75 l0 143 l-101 0 ZM39 423 q15 32 46 52 q31 20 82 20 q61 0 93.5 -27.5 q32.5 -27.5 32.5 -99.5 l0 -368 l-26 0 l0 44 l-2 0 q-13 -17 -28 -27 q-15 -10 -30.5 -15 q-15.5 -5 -31 -6.5 q-15.5 -1.5 -28.5 -1.5 q-34 0 -57.5 11 q-23.5 11 -38 29.5 q-14.5 18.5 -21 43 q-6.5 24.5 -6.5 51.5 q0 28 6.5 55.5 q6.5 27.5 22.5 49.5 q16 22 42.5 35.5 q26.5 13.5 66.5 13.5 l105 0 l0 83 q0 23 -4 42.5 q-4 19.5 -15 33.5 q-11 14 -31 22 q-20 8 -52 8 q-39 0 -65.5 -17 q-26.5 -17 -36.5 -42 l-24 10 ZM67 614 l191 0 l0 -24 l-191 0 l0 24 Z" /><glyph glyph-name="Abreve" unicode="&#x102;" d="M289 196 l-213 0 l-44 -196 l-24 0 l156 696 l37 0 l158 -696 l-25 0 l-45 196 ZM142 493 l-61 -274 l203 0 l-62 276 l-39 178 l-2 0 l-39 -180 ZM182 753 q32 0 58 20.5 q26 20.5 34 62.5 l23 0 q-3 -19 -11 -38 q-8 -19 -22 -34.5 q-14 -15.5 -34.5 -25 q-20.5 -9.5 -47.5 -9.5 q-27 0 -47 10 q-20 10 -33.5 25.5 q-13.5 15.5 -21.5 34.5 q-8 19 -11 37 l22 0 q7 -38 33 -60.5 q26 -22.5 58 -22.5 Z" /><glyph glyph-name="abreve" unicode="&#x103;" d="M166 259 q-51 0 -84 -30.5 q-33 -30.5 -33 -102.5 q0 -21 5.5 -41 q5.5 -20 18 -35 q12.5 -15 33 -24.5 q20.5 -9.5 50.5 -9.5 q46 0 78.5 25 q32.5 25 32.5 75 l0 143 l-101 0 ZM39 423 q15 32 46 52 q31 20 82 20 q61 0 93.5 -27.5 q32.5 -27.5 32.5 -99.5 l0 -368 l-26 0 l0 44 l-2 0 q-13 -17 -28 -27 q-15 -10 -30.5 -15 q-15.5 -5 -31 -6.5 q-15.5 -1.5 -28.5 -1.5 q-34 0 -57.5 11 q-23.5 11 -38 29.5 q-14.5 18.5 -21 43 q-6.5 24.5 -6.5 51.5 q0 28 6.5 55.5 q6.5 27.5 22.5 49.5 q16 22 42.5 35.5 q26.5 13.5 66.5 13.5 l105 0 l0 83 q0 23 -4 42.5 q-4 19.5 -15 33.5 q-11 14 -31 22 q-20 8 -52 8 q-39 0 -65.5 -17 q-26.5 -17 -36.5 -42 l-24 10 ZM173 576 q32 0 58 20.5 q26 20.5 34 62.5 l23 0 q-3 -19 -11 -38 q-8 -19 -22 -34.5 q-14 -15.5 -34.5 -25 q-20.5 -9.5 -47.5 -9.5 q-27 0 -47 10 q-20 10 -33.5 25.5 q-13.5 15.5 -21.5 34.5 q-8 19 -11 37 l22 0 q7 -38 33 -60.5 q26 -22.5 58 -22.5 Z" /><glyph glyph-name="Aogonek" unicode="&#x104;" d="M295 -94 q0 18 9 44.5 q9 26.5 29 50.5 l-44 195 l-213 0 l-44 -196 l-24 0 l156 696 l37 0 l158 -696 q-17 -20 -28.5 -46.5 q-11.5 -26.5 -11.5 -43.5 q0 -30 13 -43.5 q13 -13.5 32 -13.5 q10 0 23 3.5 q13 3.5 25 12.5 l8 -21 q-10 -8 -25.5 -13.5 q-15.5 -5.5 -31.5 -5.5 q-32 0 -50 23 q-18 23 -18 54 ZM142 493 l-61 -274 l203 0 l-62 276 l-39 178 l-2 0 l-39 -180 Z" /><glyph glyph-name="aogonek" unicode="&#x105;" d="M228 -94 q0 19 9.5 45 q9.5 26 29.5 50 l0 43 l-2 0 q-13 -17 -28 -27 q-15 -10 -30.5 -15 q-15.5 -5 -31 -6.5 q-15.5 -1.5 -28.5 -1.5 q-34 0 -57.5 11 q-23.5 11 -38 29.5 q-14.5 18.5 -21 43 q-6.5 24.5 -6.5 51.5 q0 28 6.5 55.5 q6.5 27.5 22.5 49.5 q16 22 42.5 35.5 q26.5 13.5 66.5 13.5 l105 0 l0 83 q0 23 -4 42.5 q-4 19.5 -15 33.5 q-11 14 -31 22 q-20 8 -52 8 q-39 0 -65.5 -17 q-26.5 -17 -36.5 -42 l-24 10 q15 32 46 52 q31 20 82 20 q61 0 93.5 -27.5 q32.5 -27.5 32.5 -99.5 l0 -368 l-1 0 q-17 -20 -28.5 -46.5 q-11.5 -26.5 -11.5 -43.5 q0 -30 13 -43.5 q13 -13.5 32 -13.5 q10 0 23 3.5 q13 3.5 25 12.5 l8 -21 q-10 -8 -25.5 -13.5 q-15.5 -5.5 -31.5 -5.5 q-32 0 -50 23 q-18 23 -18 54 ZM166 259 q-51 0 -84 -30.5 q-33 -30.5 -33 -102.5 q0 -21 5.5 -41 q5.5 -20 18 -35 q12.5 -15 33 -24.5 q20.5 -9.5 50.5 -9.5 q46 0 78.5 25 q32.5 25 32.5 75 l0 143 l-101 0 Z" /><glyph glyph-name="Cacute" unicode="&#x106;" d="M197 16 q23 0 45.5 7 q22.5 7 40 22 q17.5 15 28.5 39.5 q11 24.5 11 59.5 l25 -5 q0 -41 -13.5 -69 q-13.5 -28 -35 -45 q-21.5 -17 -48 -24.5 q-26.5 -7.5 -53.5 -7.5 q-69 0 -110 36 q-41 36 -41 111 l0 413 q0 75 41 112 q41 37 110 37 q28 0 55 -7.5 q27 -7.5 48 -25 q21 -17.5 34 -45 q13 -27.5 13 -66.5 l-25 -6 q0 34 -10 58 q-10 24 -27.5 39.5 q-17.5 15.5 -40 22.5 q-22.5 7 -47.5 7 q-59 0 -92.5 -33.5 q-33.5 -33.5 -33.5 -93.5 l0 -413 q0 -61 33.5 -92 q33.5 -31 92.5 -31 ZM134 745 l120 102 l25 -26 l-134 -88 l-11 12 Z" /><glyph glyph-name="cacute" unicode="&#x107;" d="M172 495 q57 0 91.5 -30.5 q34.5 -30.5 34.5 -90.5 l-26 -5 q0 48 -26 75 q-26 27 -77 27 q-28 0 -54.5 -12 q-26.5 -12 -40.5 -46 q-8 -19 -9.5 -67 q-1.5 -48 -2.5 -109 l0 -18 q0 -18 0.5 -39 q0.5 -21 1.5 -40.5 q1 -19.5 3 -36 q2 -16.5 5 -25.5 q10 -29 33.5 -45.5 q23.5 -16.5 61.5 -16.5 q48 0 75.5 24.5 q27.5 24.5 29.5 77.5 l26 -5 q-2 -61 -37 -90.5 q-35 -29.5 -92 -29.5 q-30 0 -51.5 7 q-21.5 7 -36.5 19 q-15 12 -24 27 q-9 15 -13 31 q-3 12 -5 31.5 q-2 19.5 -3 41.5 q-1 22 -1 45 q0 23 0 43 q0 27 0.5 54.5 q0.5 27.5 2 52 q1.5 24.5 4 44 q2.5 19.5 6.5 31.5 q12 33 42 54 q30 21 82 21 ZM154 562 l66 143 l33 -13 l-84 -136 l-15 6 Z" /><glyph glyph-name="Ccircumflex" unicode="&#x108;" d="M197 16 q23 0 45.5 7 q22.5 7 40 22 q17.5 15 28.5 39.5 q11 24.5 11 59.5 l25 -5 q0 -41 -13.5 -69 q-13.5 -28 -35 -45 q-21.5 -17 -48 -24.5 q-26.5 -7.5 -53.5 -7.5 q-69 0 -110 36 q-41 36 -41 111 l0 413 q0 75 41 112 q41 37 110 37 q28 0 55 -7.5 q27 -7.5 48 -25 q21 -17.5 34 -45 q13 -27.5 13 -66.5 l-25 -6 q0 34 -10 58 q-10 24 -27.5 39.5 q-17.5 15.5 -40 22.5 q-22.5 7 -47.5 7 q-59 0 -92.5 -33.5 q-33.5 -33.5 -33.5 -93.5 l0 -413 q0 -61 33.5 -92 q33.5 -31 92.5 -31 ZM199 816 l-107 -78 l-11 10 l107 94 l24 0 l104 -92 l-12 -11 l-105 77 Z" /><glyph glyph-name="ccircumflex" unicode="&#x109;" d="M172 495 q57 0 91.5 -30.5 q34.5 -30.5 34.5 -90.5 l-26 -5 q0 48 -26 75 q-26 27 -77 27 q-28 0 -54.5 -12 q-26.5 -12 -40.5 -46 q-8 -19 -9.5 -67 q-1.5 -48 -2.5 -109 l0 -18 q0 -18 0.5 -39 q0.5 -21 1.5 -40.5 q1 -19.5 3 -36 q2 -16.5 5 -25.5 q10 -29 33.5 -45.5 q23.5 -16.5 61.5 -16.5 q48 0 75.5 24.5 q27.5 24.5 29.5 77.5 l26 -5 q-2 -61 -37 -90.5 q-35 -29.5 -92 -29.5 q-30 0 -51.5 7 q-21.5 7 -36.5 19 q-15 12 -24 27 q-9 15 -13 31 q-3 12 -5 31.5 q-2 19.5 -3 41.5 q-1 22 -1 45 q0 23 0 43 q0 27 0.5 54.5 q0.5 27.5 2 52 q1.5 24.5 4 44 q2.5 19.5 6.5 31.5 q12 33 42 54 q30 21 82 21 ZM172 649 l-107 -98 l-11 10 l107 114 l24 0 l104 -112 l-12 -11 l-105 97 Z" /><glyph glyph-name="Cdotaccent" unicode="&#x10a;" d="M197 16 q23 0 45.5 7 q22.5 7 40 22 q17.5 15 28.5 39.5 q11 24.5 11 59.5 l25 -5 q0 -41 -13.5 -69 q-13.5 -28 -35 -45 q-21.5 -17 -48 -24.5 q-26.5 -7.5 -53.5 -7.5 q-69 0 -110 36 q-41 36 -41 111 l0 413 q0 75 41 112 q41 37 110 37 q28 0 55 -7.5 q27 -7.5 48 -25 q21 -17.5 34 -45 q13 -27.5 13 -66.5 l-25 -6 q0 34 -10 58 q-10 24 -27.5 39.5 q-17.5 15.5 -40 22.5 q-22.5 7 -47.5 7 q-59 0 -92.5 -33.5 q-33.5 -33.5 -33.5 -93.5 l0 -413 q0 -61 33.5 -92 q33.5 -31 92.5 -31 ZM183 785 l28 0 l0 -32 l-28 0 l0 32 Z" /><glyph glyph-name="cdotaccent" unicode="&#x10b;" d="M172 495 q57 0 91.5 -30.5 q34.5 -30.5 34.5 -90.5 l-26 -5 q0 48 -26 75 q-26 27 -77 27 q-28 0 -54.5 -12 q-26.5 -12 -40.5 -46 q-8 -19 -9.5 -67 q-1.5 -48 -2.5 -109 l0 -18 q0 -18 0.5 -39 q0.5 -21 1.5 -40.5 q1 -19.5 3 -36 q2 -16.5 5 -25.5 q10 -29 33.5 -45.5 q23.5 -16.5 61.5 -16.5 q48 0 75.5 24.5 q27.5 24.5 29.5 77.5 l26 -5 q-2 -61 -37 -90.5 q-35 -29.5 -92 -29.5 q-30 0 -51.5 7 q-21.5 7 -36.5 19 q-15 12 -24 27 q-9 15 -13 31 q-3 12 -5 31.5 q-2 19.5 -3 41.5 q-1 22 -1 45 q0 23 0 43 q0 27 0.5 54.5 q0.5 27.5 2 52 q1.5 24.5 4 44 q2.5 19.5 6.5 31.5 q12 33 42 54 q30 21 82 21 ZM159 615 l28 0 l0 -32 l-28 0 l0 32 Z" /><glyph glyph-name="Ccaron" unicode="&#x10c;" d="M197 16 q23 0 45.5 7 q22.5 7 40 22 q17.5 15 28.5 39.5 q11 24.5 11 59.5 l25 -5 q0 -41 -13.5 -69 q-13.5 -28 -35 -45 q-21.5 -17 -48 -24.5 q-26.5 -7.5 -53.5 -7.5 q-69 0 -110 36 q-41 36 -41 111 l0 413 q0 75 41 112 q41 37 110 37 q28 0 55 -7.5 q27 -7.5 48 -25 q21 -17.5 34 -45 q13 -27.5 13 -66.5 l-25 -6 q0 34 -10 58 q-10 24 -27.5 39.5 q-17.5 15.5 -40 22.5 q-22.5 7 -47.5 7 q-59 0 -92.5 -33.5 q-33.5 -33.5 -33.5 -93.5 l0 -413 q0 -61 33.5 -92 q33.5 -31 92.5 -31 ZM301 841 l12 -11 l-104 -92 l-24 0 l-107 94 l11 10 l107 -78 l105 77 Z" /><glyph glyph-name="ccaron" unicode="&#x10d;" d="M172 495 q57 0 91.5 -30.5 q34.5 -30.5 34.5 -90.5 l-26 -5 q0 48 -26 75 q-26 27 -77 27 q-28 0 -54.5 -12 q-26.5 -12 -40.5 -46 q-8 -19 -9.5 -67 q-1.5 -48 -2.5 -109 l0 -18 q0 -18 0.5 -39 q0.5 -21 1.5 -40.5 q1 -19.5 3 -36 q2 -16.5 5 -25.5 q10 -29 33.5 -45.5 q23.5 -16.5 61.5 -16.5 q48 0 75.5 24.5 q27.5 24.5 29.5 77.5 l26 -5 q-2 -61 -37 -90.5 q-35 -29.5 -92 -29.5 q-30 0 -51.5 7 q-21.5 7 -36.5 19 q-15 12 -24 27 q-9 15 -13 31 q-3 12 -5 31.5 q-2 19.5 -3 41.5 q-1 22 -1 45 q0 23 0 43 q0 27 0.5 54.5 q0.5 27.5 2 52 q1.5 24.5 4 44 q2.5 19.5 6.5 31.5 q12 33 42 54 q30 21 82 21 ZM278 674 l12 -11 l-104 -112 l-24 0 l-107 114 l11 10 l107 -98 l105 97 Z" /><glyph glyph-name="Dcaron" unicode="&#x10e;" d="M328 516 q0 33 -5.5 62 q-5.5 29 -19.5 50.5 q-14 21.5 -40 33.5 q-26 12 -66 12 l-120 0 l0 -650 l121 0 q67 0 98.5 35 q31.5 35 31.5 116 l0 341 ZM195 696 q64 0 100 -22.5 q36 -22.5 50 -73.5 q10 -36 10 -100 q0 -64 0 -151 q0 -86 -0.5 -154.5 q-0.5 -68.5 -10.5 -102.5 q-9 -30 -25 -48 q-16 -18 -36.5 -27.5 q-20.5 -9.5 -45 -13 q-24.5 -3.5 -51.5 -3.5 l-135 0 l0 696 l144 0 ZM289 841 l12 -11 l-104 -92 l-24 0 l-107 94 l11 10 l107 -78 l105 77 Z" /><glyph glyph-name="dcaron" unicode="&#x10f;" d="M385 608 l-18 0 l17 82 l-9 0 l0 36 l36 0 l0 -36 l-26 -82 ZM161 16 q50 0 82 33 q32 33 32 86 l0 205 q0 24 -7 47.5 q-7 23.5 -21 42 q-14 18.5 -34.5 30 q-20.5 11.5 -47.5 11.5 q-33 0 -59 -18.5 q-26 -18.5 -36 -51.5 q-3 -11 -4.5 -30 q-1.5 -19 -2.5 -43 q-1 -24 -1 -50 q0 -26 0 -49 q0 -47 1 -85.5 q1 -38.5 6 -54.5 q11 -41 34.5 -57 q23.5 -16 57.5 -16 ZM159 -7 q-21 0 -41.5 5.5 q-20.5 5.5 -37 19 q-16.5 13.5 -28 35 q-11.5 21.5 -14.5 54.5 q-3 32 -3 61 q0 29 0 55 l0 21 q0 57 0.5 102 q0.5 45 11.5 74 q10 29 37.5 52 q27.5 23 81.5 23 q26 0 44 -7 q18 -7 30.5 -17 q12.5 -10 20 -21 q7.5 -11 12.5 -19 l2 0 l0 295 l25 0 l0 -726 l-25 0 l0 50 l-2 0 q-17 -26 -45 -41.5 q-28 -15.5 -69 -15.5 Z" /><glyph glyph-name="Dcroat" unicode="&#x110;" d="M4 388 l47 0 l0 308 l144 0 q64 0 100 -22.5 q36 -22.5 50 -73.5 q10 -36 10 -100 q0 -64 0 -151 q0 -86 -0.5 -154.5 q-0.5 -68.5 -10.5 -102.5 q-9 -30 -25 -48 q-16 -18 -36.5 -27.5 q-20.5 -9.5 -45 -13 q-24.5 -3.5 -51.5 -3.5 l-135 0 l0 368 l-47 0 l0 20 ZM328 516 q0 33 -5.5 62 q-5.5 29 -19.5 50.5 q-14 21.5 -40 33.5 q-26 12 -66 12 l-120 0 l0 -286 l130 0 l0 -20 l-130 0 l0 -344 l121 0 q67 0 98.5 35 q31.5 35 31.5 116 l0 341 Z" /><glyph glyph-name="dcroat" unicode="&#x111;" d="M190 610 l85 0 l0 116 l25 0 l0 -116 l41 0 l0 -20 l-41 0 l0 -590 l-25 0 l0 50 l-2 0 q-17 -26 -45 -41.5 q-28 -15.5 -69 -15.5 q-21 0 -41.5 5.5 q-20.5 5.5 -37 19 q-16.5 13.5 -28 35 q-11.5 21.5 -14.5 54.5 q-3 32 -3 61 q0 29 0 55 l0 21 q0 57 0.5 102 q0.5 45 11.5 74 q10 29 37.5 52 q27.5 23 81.5 23 q26 0 44 -7 q18 -7 30.5 -17 q12.5 -10 20 -21 q7.5 -11 12.5 -19 l2 0 l0 159 l-85 0 l0 20 ZM161 16 q50 0 82 33 q32 33 32 86 l0 205 q0 24 -7 47.5 q-7 23.5 -21 42 q-14 18.5 -34.5 30 q-20.5 11.5 -47.5 11.5 q-33 0 -59 -18.5 q-26 -18.5 -36 -51.5 q-3 -11 -4.5 -30 q-1.5 -19 -2.5 -43 q-1 -24 -1 -50 q0 -26 0 -49 q0 -47 1 -85.5 q1 -38.5 6 -54.5 q11 -41 34.5 -57 q23.5 -16 57.5 -16 Z" /><glyph glyph-name="Emacron" unicode="&#x112;" d="M52 696 l276 0 l0 -23 l-251 0 l0 -302 l223 0 l0 -23 l-223 0 l0 -324 l251 0 l0 -24 l-276 0 l0 696 ZM93 774 l191 0 l0 -24 l-191 0 l0 24 Z" /><glyph glyph-name="emacron" unicode="&#x113;" d="M171 495 q59 0 93 -31.5 q34 -31.5 34 -91.5 l0 -127 l-237 0 l0 -26 q0 -18 0.5 -39 q0.5 -21 1.5 -40.5 q1 -19.5 3 -36 q2 -16.5 5 -25.5 q8 -25 30.5 -43.5 q22.5 -18.5 63.5 -18.5 q26 0 45.5 8 q19.5 8 32 21.5 q12.5 13.5 19.5 31 q7 17.5 9 37.5 l24 -5 q-5 -56 -41 -86 q-36 -30 -86 -30 q-30 0 -51.5 7 q-21.5 7 -36.5 19 q-15 12 -24 27 q-9 15 -13 31 q-3 12 -5 31.5 q-2 19.5 -3 41.5 q-1 22 -1 45 q0 23 0 43 q0 27 0.5 55 q0.5 28 2 53 q1.5 25 4.5 45 q3 20 7 32 q12 33 41.5 52.5 q29.5 19.5 81.5 19.5 ZM73 414 q-8 -20 -9.5 -57.5 q-1.5 -37.5 -2.5 -88.5 l211 0 l0 103 q0 43 -24 71.5 q-24 28.5 -78 28.5 q-28 0 -55.5 -11.5 q-27.5 -11.5 -41.5 -45.5 ZM80 614 l191 0 l0 -24 l-191 0 l0 24 Z" /><glyph glyph-name="Ebreve" unicode="&#x114;" d="M52 696 l276 0 l0 -23 l-251 0 l0 -302 l223 0 l0 -23 l-223 0 l0 -324 l251 0 l0 -24 l-276 0 l0 696 ZM186 753 q32 0 58 20.5 q26 20.5 34 62.5 l23 0 q-3 -19 -11 -38 q-8 -19 -22 -34.5 q-14 -15.5 -34.5 -25 q-20.5 -9.5 -47.5 -9.5 q-27 0 -47 10 q-20 10 -33.5 25.5 q-13.5 15.5 -21.5 34.5 q-8 19 -11 37 l22 0 q7 -38 33 -60.5 q26 -22.5 58 -22.5 Z" /><glyph glyph-name="ebreve" unicode="&#x115;" d="M171 495 q59 0 93 -31.5 q34 -31.5 34 -91.5 l0 -127 l-237 0 l0 -26 q0 -18 0.5 -39 q0.5 -21 1.5 -40.5 q1 -19.5 3 -36 q2 -16.5 5 -25.5 q8 -25 30.5 -43.5 q22.5 -18.5 63.5 -18.5 q26 0 45.5 8 q19.5 8 32 21.5 q12.5 13.5 19.5 31 q7 17.5 9 37.5 l24 -5 q-5 -56 -41 -86 q-36 -30 -86 -30 q-30 0 -51.5 7 q-21.5 7 -36.5 19 q-15 12 -24 27 q-9 15 -13 31 q-3 12 -5 31.5 q-2 19.5 -3 41.5 q-1 22 -1 45 q0 23 0 43 q0 27 0.5 55 q0.5 28 2 53 q1.5 25 4.5 45 q3 20 7 32 q12 33 41.5 52.5 q29.5 19.5 81.5 19.5 ZM73 414 q-8 -20 -9.5 -57.5 q-1.5 -37.5 -2.5 -88.5 l211 0 l0 103 q0 43 -24 71.5 q-24 28.5 -78 28.5 q-28 0 -55.5 -11.5 q-27.5 -11.5 -41.5 -45.5 ZM168 576 q32 0 58 20.5 q26 20.5 34 62.5 l23 0 q-3 -19 -11 -38 q-8 -19 -22 -34.5 q-14 -15.5 -34.5 -25 q-20.5 -9.5 -47.5 -9.5 q-27 0 -47 10 q-20 10 -33.5 25.5 q-13.5 15.5 -21.5 34.5 q-8 19 -11 37 l22 0 q7 -38 33 -60.5 q26 -22.5 58 -22.5 Z" /><glyph glyph-name="Edotaccent" unicode="&#x116;" d="M52 696 l276 0 l0 -23 l-251 0 l0 -302 l223 0 l0 -23 l-223 0 l0 -324 l251 0 l0 -24 l-276 0 l0 696 ZM174 785 l28 0 l0 -32 l-28 0 l0 32 Z" /><glyph glyph-name="edotaccent" unicode="&#x117;" d="M171 495 q59 0 93 -31.5 q34 -31.5 34 -91.5 l0 -127 l-237 0 l0 -26 q0 -18 0.5 -39 q0.5 -21 1.5 -40.5 q1 -19.5 3 -36 q2 -16.5 5 -25.5 q8 -25 30.5 -43.5 q22.5 -18.5 63.5 -18.5 q26 0 45.5 8 q19.5 8 32 21.5 q12.5 13.5 19.5 31 q7 17.5 9 37.5 l24 -5 q-5 -56 -41 -86 q-36 -30 -86 -30 q-30 0 -51.5 7 q-21.5 7 -36.5 19 q-15 12 -24 27 q-9 15 -13 31 q-3 12 -5 31.5 q-2 19.5 -3 41.5 q-1 22 -1 45 q0 23 0 43 q0 27 0.5 55 q0.5 28 2 53 q1.5 25 4.5 45 q3 20 7 32 q12 33 41.5 52.5 q29.5 19.5 81.5 19.5 ZM73 414 q-8 -20 -9.5 -57.5 q-1.5 -37.5 -2.5 -88.5 l211 0 l0 103 q0 43 -24 71.5 q-24 28.5 -78 28.5 q-28 0 -55.5 -11.5 q-27.5 -11.5 -41.5 -45.5 ZM164 615 l28 0 l0 -32 l-28 0 l0 32 Z" /><glyph glyph-name="Eogonek" unicode="&#x118;" d="M52 696 l276 0 l0 -23 l-251 0 l0 -302 l223 0 l0 -23 l-223 0 l0 -324 l251 0 l0 -24 q-17 -20 -28.5 -46.5 q-11.5 -26.5 -11.5 -43.5 q0 -30 13 -43.5 q13 -13.5 32 -13.5 q10 0 23 3.5 q13 3.5 25 12.5 l8 -21 q-10 -8 -25.5 -13.5 q-15.5 -5.5 -31.5 -5.5 q-32 0 -50 23 q-18 23 -18 54 q0 18 9 44 q9 26 29 50 l-250 0 l0 696 Z" /><glyph glyph-name="eogonek" unicode="&#x119;" d="M199 -65 q0 14 4.5 31.5 q4.5 17.5 15.5 35.5 q-24 -9 -51 -9 q-30 0 -51.5 7 q-21.5 7 -36.5 19 q-15 12 -24 27 q-9 15 -13 31 q-3 12 -5 31.5 q-2 19.5 -3 41.5 q-1 22 -1 45 q0 23 0 43 q0 27 0.5 55 q0.5 28 2 53 q1.5 25 4.5 45 q3 20 7 32 q12 33 41.5 52.5 q29.5 19.5 81.5 19.5 q59 0 93 -31.5 q34 -31.5 34 -91.5 l0 -127 l-237 0 l0 -26 q0 -18 0.5 -39 q0.5 -21 1.5 -40.5 q1 -19.5 3 -36 q2 -16.5 5 -25.5 q8 -25 30.5 -43.5 q22.5 -18.5 63.5 -18.5 q26 0 45.5 8 q19.5 8 32 21.5 q12.5 13.5 19.5 31 q7 17.5 9 37.5 l24 -5 q-5 -50 -34 -79 l1 0 l1 -1 q-17 -20 -28.5 -46.5 q-11.5 -26.5 -11.5 -43.5 q0 -30 13 -43.5 q13 -13.5 32 -13.5 q10 0 23 3.5 q13 3.5 25 12.5 l8 -21 q-10 -8 -25.5 -13.5 q-15.5 -5.5 -31.5 -5.5 q-32 0 -50 23 q-18 23 -18 54 ZM73 414 q-8 -20 -9.5 -57.5 q-1.5 -37.5 -2.5 -88.5 l211 0 l0 103 q0 43 -24 71.5 q-24 28.5 -78 28.5 q-28 0 -55.5 -11.5 q-27.5 -11.5 -41.5 -45.5 Z" /><glyph glyph-name="Ecaron" unicode="&#x11a;" d="M52 696 l276 0 l0 -23 l-251 0 l0 -302 l223 0 l0 -23 l-223 0 l0 -324 l251 0 l0 -24 l-276 0 l0 696 ZM288 841 l12 -11 l-104 -92 l-24 0 l-107 94 l11 10 l107 -78 l105 77 Z" /><glyph glyph-name="ecaron" unicode="&#x11b;" d="M171 495 q59 0 93 -31.5 q34 -31.5 34 -91.5 l0 -127 l-237 0 l0 -26 q0 -18 0.5 -39 q0.5 -21 1.5 -40.5 q1 -19.5 3 -36 q2 -16.5 5 -25.5 q8 -25 30.5 -43.5 q22.5 -18.5 63.5 -18.5 q26 0 45.5 8 q19.5 8 32 21.5 q12.5 13.5 19.5 31 q7 17.5 9 37.5 l24 -5 q-5 -56 -41 -86 q-36 -30 -86 -30 q-30 0 -51.5 7 q-21.5 7 -36.5 19 q-15 12 -24 27 q-9 15 -13 31 q-3 12 -5 31.5 q-2 19.5 -3 41.5 q-1 22 -1 45 q0 23 0 43 q0 27 0.5 55 q0.5 28 2 53 q1.5 25 4.5 45 q3 20 7 32 q12 33 41.5 52.5 q29.5 19.5 81.5 19.5 ZM73 414 q-8 -20 -9.5 -57.5 q-1.5 -37.5 -2.5 -88.5 l211 0 l0 103 q0 43 -24 71.5 q-24 28.5 -78 28.5 q-28 0 -55.5 -11.5 q-27.5 -11.5 -41.5 -45.5 ZM279 674 l12 -11 l-104 -112 l-24 0 l-107 114 l11 10 l107 -98 l105 97 Z" /><glyph glyph-name="Gcircumflex" unicode="&#x11c;" d="M197 -7 q-69 0 -110 36 q-41 36 -41 111 l0 413 q0 75 41 112 q41 37 110 37 q28 0 55 -7.5 q27 -7.5 48 -25 q21 -17.5 34 -45 q13 -27.5 13 -66.5 l-25 -6 q0 34 -10 58 q-10 24 -27.5 39.5 q-17.5 15.5 -40 22.5 q-22.5 7 -47.5 7 q-59 0 -92.5 -33.5 q-33.5 -33.5 -33.5 -93.5 l0 -413 q0 -61 34 -91.5 q34 -30.5 93 -30.5 q25 0 48 8.5 q23 8.5 41 24.5 q18 16 29 39 q11 23 11 52 l0 187 l-88 0 l0 25 l114 0 l0 -212 q0 -36 -13 -63.5 q-13 -27.5 -34.5 -46 q-21.5 -18.5 -49.5 -28.5 q-28 -10 -59 -10 ZM202 816 l-107 -78 l-11 10 l107 94 l24 0 l104 -92 l-12 -11 l-105 77 Z" /><glyph glyph-name="gcircumflex" unicode="&#x11d;" d="M163 495 q41 0 69 -15.5 q28 -15.5 45 -41.5 l2 0 l0 50 l25 0 l0 -558 q0 -34 -10.5 -59 q-10.5 -25 -28.5 -41.5 q-18 -16.5 -42 -24.5 q-24 -8 -51 -8 q-52 0 -87.5 29.5 q-35.5 29.5 -37.5 90.5 l26 5 q0 -48 26.5 -75 q26.5 -27 74.5 -27 q48 0 76.5 29.5 q28.5 29.5 28.5 78.5 l0 135 l-2 0 q-17 -32 -48.5 -51 q-31.5 -19 -67.5 -19 q-51 2 -76 21.5 q-25 19.5 -36 48.5 q-5 15 -7 36 q-2 21 -3.5 45.5 q-1.5 24.5 -1.5 50 q0 25.5 0 49.5 l0 21 q0 26 0.5 55 q0.5 29 3.5 61 q3 33 15.5 54.5 q12.5 21.5 29.5 35 q17 13.5 37.5 19 q20.5 5.5 39.5 5.5 ZM165 472 q-29 0 -56 -16 q-27 -16 -38 -57 q-5 -16 -6 -54.5 q-1 -38.5 -1 -85.5 q0 -23 0.5 -50 q0.5 -27 1 -52 q0.5 -25 2.5 -45.5 q2 -20.5 5 -30.5 q10 -33 33.5 -49 q23.5 -16 54.5 -16 q27 0 49 11.5 q22 11.5 37.5 30 q15.5 18.5 23.5 41.5 q8 23 8 45 l0 209 q0 53 -32 86 q-32 33 -82 33 ZM174 649 l-107 -98 l-11 10 l107 114 l24 0 l104 -112 l-12 -11 l-105 97 Z" /><glyph glyph-name="Gbreve" unicode="&#x11e;" d="M197 -7 q-69 0 -110 36 q-41 36 -41 111 l0 413 q0 75 41 112 q41 37 110 37 q28 0 55 -7.5 q27 -7.5 48 -25 q21 -17.5 34 -45 q13 -27.5 13 -66.5 l-25 -6 q0 34 -10 58 q-10 24 -27.5 39.5 q-17.5 15.5 -40 22.5 q-22.5 7 -47.5 7 q-59 0 -92.5 -33.5 q-33.5 -33.5 -33.5 -93.5 l0 -413 q0 -61 34 -91.5 q34 -30.5 93 -30.5 q25 0 48 8.5 q23 8.5 41 24.5 q18 16 29 39 q11 23 11 52 l0 187 l-88 0 l0 25 l114 0 l0 -212 q0 -36 -13 -63.5 q-13 -27.5 -34.5 -46 q-21.5 -18.5 -49.5 -28.5 q-28 -10 -59 -10 ZM198 753 q32 0 58 20.5 q26 20.5 34 62.5 l23 0 q-3 -19 -11 -38 q-8 -19 -22 -34.5 q-14 -15.5 -34.5 -25 q-20.5 -9.5 -47.5 -9.5 q-27 0 -47 10 q-20 10 -33.5 25.5 q-13.5 15.5 -21.5 34.5 q-8 19 -11 37 l22 0 q7 -38 33 -60.5 q26 -22.5 58 -22.5 Z" /><glyph glyph-name="gbreve" unicode="&#x11f;" d="M163 495 q41 0 69 -15.5 q28 -15.5 45 -41.5 l2 0 l0 50 l25 0 l0 -558 q0 -34 -10.5 -59 q-10.5 -25 -28.5 -41.5 q-18 -16.5 -42 -24.5 q-24 -8 -51 -8 q-52 0 -87.5 29.5 q-35.5 29.5 -37.5 90.5 l26 5 q0 -48 26.5 -75 q26.5 -27 74.5 -27 q48 0 76.5 29.5 q28.5 29.5 28.5 78.5 l0 135 l-2 0 q-17 -32 -48.5 -51 q-31.5 -19 -67.5 -19 q-51 2 -76 21.5 q-25 19.5 -36 48.5 q-5 15 -7 36 q-2 21 -3.5 45.5 q-1.5 24.5 -1.5 50 q0 25.5 0 49.5 l0 21 q0 26 0.5 55 q0.5 29 3.5 61 q3 33 15.5 54.5 q12.5 21.5 29.5 35 q17 13.5 37.5 19 q20.5 5.5 39.5 5.5 ZM165 472 q-29 0 -56 -16 q-27 -16 -38 -57 q-5 -16 -6 -54.5 q-1 -38.5 -1 -85.5 q0 -23 0.5 -50 q0.5 -27 1 -52 q0.5 -25 2.5 -45.5 q2 -20.5 5 -30.5 q10 -33 33.5 -49 q23.5 -16 54.5 -16 q27 0 49 11.5 q22 11.5 37.5 30 q15.5 18.5 23.5 41.5 q8 23 8 45 l0 209 q0 53 -32 86 q-32 33 -82 33 ZM171 576 q32 0 58 20.5 q26 20.5 34 62.5 l23 0 q-3 -19 -11 -38 q-8 -19 -22 -34.5 q-14 -15.5 -34.5 -25 q-20.5 -9.5 -47.5 -9.5 q-27 0 -47 10 q-20 10 -33.5 25.5 q-13.5 15.5 -21.5 34.5 q-8 19 -11 37 l22 0 q7 -38 33 -60.5 q26 -22.5 58 -22.5 Z" /><glyph glyph-name="Gdotaccent" unicode="&#x120;" d="M197 -7 q-69 0 -110 36 q-41 36 -41 111 l0 413 q0 75 41 112 q41 37 110 37 q28 0 55 -7.5 q27 -7.5 48 -25 q21 -17.5 34 -45 q13 -27.5 13 -66.5 l-25 -6 q0 34 -10 58 q-10 24 -27.5 39.5 q-17.5 15.5 -40 22.5 q-22.5 7 -47.5 7 q-59 0 -92.5 -33.5 q-33.5 -33.5 -33.5 -93.5 l0 -413 q0 -61 34 -91.5 q34 -30.5 93 -30.5 q25 0 48 8.5 q23 8.5 41 24.5 q18 16 29 39 q11 23 11 52 l0 187 l-88 0 l0 25 l114 0 l0 -212 q0 -36 -13 -63.5 q-13 -27.5 -34.5 -46 q-21.5 -18.5 -49.5 -28.5 q-28 -10 -59 -10 ZM190 785 l28 0 l0 -32 l-28 0 l0 32 Z" /><glyph glyph-name="gdotaccent" unicode="&#x121;" d="M163 495 q41 0 69 -15.5 q28 -15.5 45 -41.5 l2 0 l0 50 l25 0 l0 -558 q0 -34 -10.5 -59 q-10.5 -25 -28.5 -41.5 q-18 -16.5 -42 -24.5 q-24 -8 -51 -8 q-52 0 -87.5 29.5 q-35.5 29.5 -37.5 90.5 l26 5 q0 -48 26.5 -75 q26.5 -27 74.5 -27 q48 0 76.5 29.5 q28.5 29.5 28.5 78.5 l0 135 l-2 0 q-17 -32 -48.5 -51 q-31.5 -19 -67.5 -19 q-51 2 -76 21.5 q-25 19.5 -36 48.5 q-5 15 -7 36 q-2 21 -3.5 45.5 q-1.5 24.5 -1.5 50 q0 25.5 0 49.5 l0 21 q0 26 0.5 55 q0.5 29 3.5 61 q3 33 15.5 54.5 q12.5 21.5 29.5 35 q17 13.5 37.5 19 q20.5 5.5 39.5 5.5 ZM165 472 q-29 0 -56 -16 q-27 -16 -38 -57 q-5 -16 -6 -54.5 q-1 -38.5 -1 -85.5 q0 -23 0.5 -50 q0.5 -27 1 -52 q0.5 -25 2.5 -45.5 q2 -20.5 5 -30.5 q10 -33 33.5 -49 q23.5 -16 54.5 -16 q27 0 49 11.5 q22 11.5 37.5 30 q15.5 18.5 23.5 41.5 q8 23 8 45 l0 209 q0 53 -32 86 q-32 33 -82 33 ZM157 615 l28 0 l0 -32 l-28 0 l0 32 Z" /><glyph glyph-name="Gcommaaccent" unicode="&#x122;" d="M197 -7 q-69 0 -110 36 q-41 36 -41 111 l0 413 q0 75 41 112 q41 37 110 37 q28 0 55 -7.5 q27 -7.5 48 -25 q21 -17.5 34 -45 q13 -27.5 13 -66.5 l-25 -6 q0 34 -10 58 q-10 24 -27.5 39.5 q-17.5 15.5 -40 22.5 q-22.5 7 -47.5 7 q-59 0 -92.5 -33.5 q-33.5 -33.5 -33.5 -93.5 l0 -413 q0 -61 34 -91.5 q34 -30.5 93 -30.5 q25 0 48 8.5 q23 8.5 41 24.5 q18 16 29 39 q11 23 11 52 l0 187 l-88 0 l0 25 l114 0 l0 -212 q0 -36 -13 -63.5 q-13 -27.5 -34.5 -46 q-21.5 -18.5 -49.5 -28.5 q-28 -10 -59 -10 ZM190 -178 l-18 0 l17 82 l-9 0 l0 36 l36 0 l0 -36 l-26 -82 Z" /><glyph glyph-name="gcommaaccent" unicode="&#x123;" d="M187 684 l18 0 l-17 -82 l9 0 l0 -36 l-36 0 l0 36 l26 82 ZM163 495 q41 0 69 -15.5 q28 -15.5 45 -41.5 l2 0 l0 50 l25 0 l0 -558 q0 -34 -10.5 -59 q-10.5 -25 -28.5 -41.5 q-18 -16.5 -42 -24.5 q-24 -8 -51 -8 q-52 0 -87.5 29.5 q-35.5 29.5 -37.5 90.5 l26 5 q0 -48 26.5 -75 q26.5 -27 74.5 -27 q48 0 76.5 29.5 q28.5 29.5 28.5 78.5 l0 135 l-2 0 q-17 -32 -48.5 -51 q-31.5 -19 -67.5 -19 q-51 2 -76 21.5 q-25 19.5 -36 48.5 q-5 15 -7 36 q-2 21 -3.5 45.5 q-1.5 24.5 -1.5 50 q0 25.5 0 49.5 l0 21 q0 26 0.5 55 q0.5 29 3.5 61 q3 33 15.5 54.5 q12.5 21.5 29.5 35 q17 13.5 37.5 19 q20.5 5.5 39.5 5.5 ZM165 472 q-29 0 -56 -16 q-27 -16 -38 -57 q-5 -16 -6 -54.5 q-1 -38.5 -1 -85.5 q0 -23 0.5 -50 q0.5 -27 1 -52 q0.5 -25 2.5 -45.5 q2 -20.5 5 -30.5 q10 -33 33.5 -49 q23.5 -16 54.5 -16 q27 0 49 11.5 q22 11.5 37.5 30 q15.5 18.5 23.5 41.5 q8 23 8 45 l0 209 q0 53 -32 86 q-32 33 -82 33 Z" /><glyph glyph-name="Hcircumflex" unicode="&#x124;" d="M328 345 l-251 0 l0 -345 l-25 0 l0 696 l25 0 l0 -327 l251 0 l0 327 l26 0 l0 -696 l-26 0 l0 345 ZM204 816 l-107 -78 l-11 10 l107 94 l24 0 l104 -92 l-12 -11 l-105 77 Z" /><glyph glyph-name="hcircumflex" unicode="&#x125;" d="M71 430 q17 31 47.5 48 q30.5 17 65.5 17 q37 0 61.5 -11 q24.5 -11 38 -29 q13.5 -18 19 -42.5 q5.5 -24.5 5.5 -51.5 l0 -361 l-26 0 l0 351 q0 24 -4 46 q-4 22 -15 38 q-11 16 -30.5 25.5 q-19.5 9.5 -49.5 9.5 q-28 0 -49 -11.5 q-21 -11.5 -35.5 -29.5 q-14.5 -18 -21.5 -41 q-7 -23 -7 -46 l0 -342 l-25 0 l0 727 l25 0 l0 -297 l1 0 ZM58 816 l-107 -78 l-11 10 l107 94 l24 0 l104 -92 l-12 -11 l-105 77 Z" /><glyph glyph-name="Hbar" unicode="&#x126;" d="M328 345 l-251 0 l0 -345 l-25 0 l0 575 l-40 0 l0 20 l40 0 l0 101 l25 0 l0 -101 l251 0 l0 101 l26 0 l0 -101 l41 0 l0 -20 l-41 0 l0 -575 l-26 0 l0 345 ZM328 369 l0 206 l-251 0 l0 -206 l251 0 Z" /><glyph glyph-name="hbar" unicode="&#x127;" d="M0 603 l45 0 l0 124 l25 0 l0 -124 l193 0 l0 -20 l-193 0 l0 -153 l1 0 q17 31 47.5 48 q30.5 17 65.5 17 q37 0 61.5 -11 q24.5 -11 38 -29 q13.5 -18 19 -42.5 q5.5 -24.5 5.5 -51.5 l0 -361 l-26 0 l0 351 q0 24 -4 46 q-4 22 -15 38 q-11 16 -30.5 25.5 q-19.5 9.5 -49.5 9.5 q-28 0 -49 -11.5 q-21 -11.5 -35.5 -29.5 q-14.5 -18 -21.5 -41 q-7 -23 -7 -46 l0 -342 l-25 0 l0 583 l-45 0 l0 20 Z" /><glyph glyph-name="Itilde" unicode="&#x128;" d="M84 696 l25 0 l0 -696 l-25 0 l0 696 ZM151 721 q-15 0 -29.5 6 q-14.5 6 -29 13 q-14.5 7 -28 13 q-13.5 6 -27.5 6 q-12 0 -24 -9.5 q-12 -9.5 -22 -24.5 l-16 10 q25 47 63 47 q16 0 30 -6 q14 -6 27.5 -12.5 q13.5 -6.5 28 -12.5 q14.5 -6 30.5 -6 q32 0 50 38 l16 -7 q-9 -30 -29 -42.5 q-20 -12.5 -40 -12.5 Z" /><glyph glyph-name="itilde" unicode="&#x129;" d="M93 487 l25 0 l0 -487 l-25 0 l0 487 ZM162 571 q-15 0 -29.5 6 q-14.5 6 -29 13 q-14.5 7 -28 13 q-13.5 6 -27.5 6 q-12 0 -24 -9.5 q-12 -9.5 -22 -24.5 l-16 10 q25 47 63 47 q16 0 30 -6 q14 -6 27.5 -12.5 q13.5 -6.5 28 -12.5 q14.5 -6 30.5 -6 q32 0 50 38 l16 -7 q-9 -30 -29 -42.5 q-20 -12.5 -40 -12.5 Z" /><glyph glyph-name="Imacron" unicode="&#x12a;" d="M70 696 l25 0 l0 -696 l-25 0 l0 696 ZM-12 774 l191 0 l0 -24 l-191 0 l0 24 Z" /><glyph glyph-name="imacron" unicode="&#x12b;" d="M65 487 l25 0 l0 -487 l-25 0 l0 487 ZM-18 614 l191 0 l0 -24 l-191 0 l0 24 Z" /><glyph glyph-name="Ibreve" unicode="&#x12c;" d="M81 753 q32 0 58 20.5 q26 20.5 34 62.5 l23 0 q-3 -19 -11 -38 q-8 -19 -22 -34.5 q-14 -15.5 -34.5 -25 q-20.5 -9.5 -47.5 -9.5 q-27 0 -47 10 q-20 10 -33.5 25.5 q-13.5 15.5 -21.5 34.5 q-8 19 -11 37 l22 0 q7 -38 33 -60.5 q26 -22.5 58 -22.5 ZM70 696 l25 0 l0 -696 l-25 0 l0 696 Z" /><glyph glyph-name="ibreve" unicode="&#x12d;" d="M86 487 l25 0 l0 -487 l-25 0 l0 487 ZM98 582 q32 0 58 20.5 q26 20.5 34 62.5 l23 0 q-3 -19 -11 -38 q-8 -19 -22 -34.5 q-14 -15.5 -34.5 -25 q-20.5 -9.5 -47.5 -9.5 q-27 0 -47 10 q-20 10 -33.5 25.5 q-13.5 15.5 -21.5 34.5 q-8 19 -11 37 l22 0 q7 -38 33 -60.5 q26 -22.5 58 -22.5 Z" /><glyph glyph-name="Iogonek" unicode="&#x12e;" d="M31 -94 q0 19 9.5 45 q9.5 26 29.5 50 l0 695 l25 0 l0 -696 q-17 -20 -28.5 -46.5 q-11.5 -26.5 -11.5 -43.5 q0 -30 13 -43.5 q13 -13.5 32 -13.5 q10 0 23 3.5 q13 3.5 25 12.5 l8 -21 q-10 -8 -25.5 -13.5 q-15.5 -5.5 -31.5 -5.5 q-32 0 -50 23 q-18 23 -18 54 Z" /><glyph glyph-name="iogonek" unicode="&#x12f;" d="M21 -94 q0 19 9.5 45 q9.5 26 29.5 50 l0 486 l25 0 l0 -487 q-17 -20 -28.5 -46.5 q-11.5 -26.5 -11.5 -43.5 q0 -30 13 -43.5 q13 -13.5 32 -13.5 q10 0 23 3.5 q13 3.5 25 12.5 l8 -21 q-10 -8 -25.5 -13.5 q-15.5 -5.5 -31.5 -5.5 q-32 0 -50 23 q-18 23 -18 54 ZM59 636 l28 0 l0 -32 l-28 0 l0 32 Z" /><glyph glyph-name="Idotaccent" unicode="&#x130;" d="M70 696 l25 0 l0 -696 l-25 0 l0 696 ZM69 765 l28 0 l0 -32 l-28 0 l0 32 Z" /><glyph glyph-name="IJ" unicode="&#x132;" d="M68 696 l25 0 l0 -696 l-25 0 l0 696 ZM397 136 q0 -66 -40 -104.5 q-40 -38.5 -117 -38.5 q-25 0 -49.5 6 q-24.5 6 -38.5 15 l12 22 q17 -11 39 -15 q22 -4 40 -4 q18 0 40 4 q22 4 42 17 q20 13 33.5 37.5 q13.5 24.5 13.5 64.5 l0 556 l25 0 l0 -560 Z" /><glyph glyph-name="ij" unicode="&#x133;" d="M58 487 l25 0 l0 -487 l-25 0 l0 487 ZM57 636 l28 0 l0 -32 l-28 0 l0 32 ZM191 487 l25 0 l0 -595 q0 -55 -24.5 -75.5 q-24.5 -20.5 -68.5 -20.5 l-4 0 l0 22 l4 0 q43 0 55.5 21 q12.5 21 12.5 62 l0 586 ZM191 636 l28 0 l0 -32 l-28 0 l0 32 Z" /><glyph glyph-name="Jcircumflex" unicode="&#x134;" d="M239 137 q0 -66 -40 -104.5 q-40 -38.5 -117 -38.5 q-25 0 -49.5 6 q-24.5 6 -38.5 15 l12 22 q17 -11 39 -15 q22 -4 40 -4 q18 0 40 4 q22 4 42 17 q20 13 33.5 37.5 q13.5 24.5 13.5 64.5 l0 556 l25 0 l0 -560 ZM228 818 l-107 -78 l-11 10 l107 94 l24 0 l104 -92 l-12 -11 l-105 77 Z" /><glyph glyph-name="jcircumflex" unicode="&#x135;" d="M85 487 l25 0 l0 -595 q0 -55 -24.5 -75.5 q-24.5 -20.5 -68.5 -20.5 l-4 0 l0 22 l4 0 q43 0 55.5 21 q12.5 21 12.5 62 l0 586 ZM98 649 l-107 -98 l-11 10 l107 114 l24 0 l104 -112 l-12 -11 l-105 97 Z" /><glyph glyph-name="Kcommaaccent" unicode="&#x136;" d="M78 243 l246 453 l29 0 l-149 -273 l181 -423 l-30 0 l-168 394 l-111 -203 l0 -191 l-25 0 l0 696 l25 0 l0 -453 l2 0 ZM203 -158 l-18 0 l17 82 l-9 0 l0 36 l36 0 l0 -36 l-26 -82 Z" /><glyph glyph-name="kcommaaccent" unicode="&#x137;" d="M67 173 l202 313 l29 0 l-114 -175 l143 -311 l-29 0 l-130 286 l-101 -155 l0 -131 l-25 0 l0 727 l25 0 l0 -554 ZM171 -178 l-18 0 l17 82 l-9 0 l0 36 l36 0 l0 -36 l-26 -82 Z" /><glyph glyph-name="kgreenlandic" unicode="&#x138;" d="M67 173 l203 313 l28 0 l-114 -175 l143 -311 l-29 0 l-130 286 l-101 -155 l0 -131 l-25 0 l0 486 l25 0 l0 -313 Z" /><glyph glyph-name="Lacute" unicode="&#x139;" d="M53 696 l25 0 l0 -672 l241 0 l0 -24 l-266 0 l0 696 ZM53 745 l120 102 l25 -26 l-134 -88 l-11 12 Z" /><glyph glyph-name="lacute" unicode="&#x13a;" d="M73 108 q0 -41 14.5 -67 q14.5 -26 55.5 -26 l12 0 l0 -22 l-14 0 q-44 0 -68.5 23.5 q-24.5 23.5 -24.5 82.5 l0 627 l25 0 l0 -618 ZM47 765 l120 102 l25 -26 l-134 -88 l-11 12 Z" /><glyph glyph-name="Lcommaaccent" unicode="&#x13b;" d="M53 696 l25 0 l0 -672 l241 0 l0 -24 l-266 0 l0 696 ZM173 -178 l-18 0 l17 82 l-9 0 l0 36 l36 0 l0 -36 l-26 -82 Z" /><glyph glyph-name="lcommaaccent" unicode="&#x13c;" d="M73 108 q0 -41 14.5 -67 q14.5 -26 55.5 -26 l12 0 l0 -22 l-14 0 q-44 0 -68.5 23.5 q-24.5 23.5 -24.5 82.5 l0 627 l25 0 l0 -618 ZM85 -178 l-18 0 l17 82 l-9 0 l0 36 l36 0 l0 -36 l-26 -82 Z" /><glyph glyph-name="Lcaron" unicode="&#x13d;" d="M53 696 l25 0 l0 -672 l241 0 l0 -24 l-266 0 l0 696 ZM206 578 l-18 0 l17 82 l-9 0 l0 36 l36 0 l0 -36 l-26 -82 Z" /><glyph glyph-name="lcaron" unicode="&#x13e;" d="M152 608 l-18 0 l17 82 l-9 0 l0 36 l36 0 l0 -36 l-26 -82 ZM73 108 q0 -41 14.5 -67 q14.5 -26 55.5 -26 l12 0 l0 -22 l-14 0 q-44 0 -68.5 23.5 q-24.5 23.5 -24.5 82.5 l0 627 l25 0 l0 -618 Z" /><glyph glyph-name="Ldot" unicode="&#x13f;" d="M53 696 l25 0 l0 -672 l241 0 l0 -24 l-266 0 l0 696 ZM219 365 l28 0 l0 -32 l-28 0 l0 32 Z" /><glyph glyph-name="ldot" unicode="&#x140;" d="M163 385 l28 0 l0 -32 l-28 0 l0 32 ZM73 108 q0 -41 14.5 -67 q14.5 -26 55.5 -26 l12 0 l0 -22 l-14 0 q-44 0 -68.5 23.5 q-24.5 23.5 -24.5 82.5 l0 627 l25 0 l0 -618 Z" /><glyph glyph-name="Lslash" unicode="&#x141;" d="M91 277 l-81 -46 l-10 17 l91 52 l0 396 l25 0 l0 -381 l122 70 l10 -17 l-132 -76 l0 -268 l241 0 l0 -24 l-266 0 l0 277 Z" /><glyph glyph-name="lslash" unicode="&#x142;" d="M120 352 l91 52 l10 -17 l-101 -58 l0 -221 q0 -41 14.5 -67 q14.5 -26 55.5 -26 l12 0 l0 -22 l-14 0 q-44 0 -68.5 23.5 q-24.5 23.5 -24.5 82.5 l0 216 l-85 -48 l-10 17 l95 54 l0 388 l25 0 l0 -374 Z" /><glyph glyph-name="Nacute" unicode="&#x143;" d="M75 627 l0 -627 l-25 0 l0 696 l24 0 l271 -627 l3 0 l0 627 l24 0 l0 -696 l-24 0 l-271 627 l-2 0 ZM177 745 l120 102 l25 -26 l-134 -88 l-11 12 Z" /><glyph glyph-name="nacute" unicode="&#x144;" d="M72 430 q17 31 47 48 q30 17 65 17 q37 0 61.5 -11 q24.5 -11 38 -29 q13.5 -18 19 -42.5 q5.5 -24.5 5.5 -51.5 l0 -361 l-26 0 l0 351 q0 24 -4 46 q-4 22 -15 38 q-11 16 -30.5 25.5 q-19.5 9.5 -49.5 9.5 q-28 0 -49 -11.5 q-21 -11.5 -35.5 -29.5 q-14.5 -18 -21.5 -41 q-7 -23 -7 -46 l0 -342 l-25 0 l0 487 l25 0 l0 -57 l2 0 ZM140 562 l66 143 l33 -13 l-84 -136 l-15 6 Z" /><glyph glyph-name="Ncommaaccent" unicode="&#x145;" d="M75 627 l0 -627 l-25 0 l0 696 l24 0 l271 -627 l3 0 l0 627 l24 0 l0 -696 l-24 0 l-271 627 l-2 0 ZM205 -138 l-18 0 l17 82 l-9 0 l0 36 l36 0 l0 -36 l-26 -82 Z" /><glyph glyph-name="ncommaaccent" unicode="&#x146;" d="M72 430 q17 31 47 48 q30 17 65 17 q37 0 61.5 -11 q24.5 -11 38 -29 q13.5 -18 19 -42.5 q5.5 -24.5 5.5 -51.5 l0 -361 l-26 0 l0 351 q0 24 -4 46 q-4 22 -15 38 q-11 16 -30.5 25.5 q-19.5 9.5 -49.5 9.5 q-28 0 -49 -11.5 q-21 -11.5 -35.5 -29.5 q-14.5 -18 -21.5 -41 q-7 -23 -7 -46 l0 -342 l-25 0 l0 487 l25 0 l0 -57 l2 0 ZM168 -178 l-18 0 l17 82 l-9 0 l0 36 l36 0 l0 -36 l-26 -82 Z" /><glyph glyph-name="Ncaron" unicode="&#x147;" d="M75 627 l0 -627 l-25 0 l0 696 l24 0 l271 -627 l3 0 l0 627 l24 0 l0 -696 l-24 0 l-271 627 l-2 0 ZM320 841 l12 -11 l-104 -92 l-24 0 l-107 94 l11 10 l107 -78 l105 77 Z" /><glyph glyph-name="ncaron" unicode="&#x148;" d="M72 430 q17 31 47 48 q30 17 65 17 q37 0 61.5 -11 q24.5 -11 38 -29 q13.5 -18 19 -42.5 q5.5 -24.5 5.5 -51.5 l0 -361 l-26 0 l0 351 q0 24 -4 46 q-4 22 -15 38 q-11 16 -30.5 25.5 q-19.5 9.5 -49.5 9.5 q-28 0 -49 -11.5 q-21 -11.5 -35.5 -29.5 q-14.5 -18 -21.5 -41 q-7 -23 -7 -46 l0 -342 l-25 0 l0 487 l25 0 l0 -57 l2 0 ZM276 674 l12 -11 l-104 -112 l-24 0 l-107 114 l11 10 l107 -98 l105 97 Z" /><glyph glyph-name="napostrophe" unicode="&#x149;" d="M99 430 q17 31 47 48 q30 17 65 17 q37 0 61.5 -11 q24.5 -11 38 -29 q13.5 -18 19 -42.5 q5.5 -24.5 5.5 -51.5 l0 -361 l-26 0 l0 351 q0 24 -4 46 q-4 22 -15 38 q-11 16 -30.5 25.5 q-19.5 9.5 -49.5 9.5 q-28 0 -49 -11.5 q-21 -11.5 -35.5 -29.5 q-14.5 -18 -21.5 -41 q-7 -23 -7 -46 l0 -342 l-25 0 l0 487 l25 0 l0 -57 l2 0 ZM43 509 l-18 0 l17 82 l-9 0 l0 36 l36 0 l0 -36 l-26 -82 Z" /><glyph glyph-name="Eng" unicode="&#x14a;" d="M75 627 l0 -627 l-25 0 l0 696 l24 0 l271 -627 l3 0 l0 627 l24 0 l0 -751 q0 -53 -20 -75 q-20 -22 -50 -22 q-17 0 -27 3 q-10 3 -21 9 l10 20 q9 -5 17 -7 q8 -2 19 -2 q27 0 36.5 22 q9.5 22 9.5 50 l0 61 l-269 623 l-2 0 Z" /><glyph glyph-name="eng" unicode="&#x14b;" d="M72 430 q17 31 47 48 q30 17 65 17 q37 0 61.5 -11 q24.5 -11 38 -29 q13.5 -18 19 -42.5 q5.5 -24.5 5.5 -51.5 l0 -416 q0 -53 -20 -75 q-20 -22 -50 -22 q-17 0 -27 3 q-10 3 -21 9 l10 20 q9 -5 17 -7 q8 -2 19 -2 q27 0 36.5 22 q9.5 22 9.5 50 l0 408 q0 24 -4 46 q-4 22 -15 38 q-11 16 -30.5 25.5 q-19.5 9.5 -49.5 9.5 q-28 0 -49 -11.5 q-21 -11.5 -35.5 -29.5 q-14.5 -18 -21.5 -41 q-7 -23 -7 -46 l0 -342 l-25 0 l0 487 l25 0 l0 -57 l2 0 Z" /><glyph glyph-name="Omacron" unicode="&#x14c;" d="M328 558 q0 60 -37.5 90.5 q-37.5 30.5 -91.5 30.5 q-56 0 -92.5 -33 q-36.5 -33 -36.5 -93 l0 -416 q0 -61 36.5 -91 q36.5 -30 92.5 -30 q62 0 95.5 32 q33.5 32 33.5 93 l0 417 ZM199 -7 q-32 0 -60 8.5 q-28 8.5 -49 26.5 q-21 18 -33 45 q-12 27 -12 65 l0 416 q0 37 12 65 q12 28 33 46.5 q21 18.5 49 27.5 q28 9 60 9 q32 0 60 -8.5 q28 -8.5 49 -26 q21 -17.5 33 -44.5 q12 -27 12 -64 l0 -419 q0 -38 -12 -65.5 q-12 -27.5 -33 -45.5 q-21 -18 -49 -27 q-28 -9 -60 -9 ZM105 774 l191 0 l0 -24 l-191 0 l0 24 Z" /><glyph glyph-name="omacron" unicode="&#x14d;" d="M172 495 q55 0 82 -21 q27 -21 39 -51 q4 -15 6.5 -36 q2.5 -21 4 -45 q1.5 -24 1.5 -49 q0 -25 0 -49 l0 -21 q0 -26 -0.5 -54 q-0.5 -28 -3.5 -60 q-3 -33 -15.5 -55 q-12.5 -22 -30.5 -35.5 q-18 -13.5 -39.5 -19.5 q-21.5 -6 -43.5 -6 q-60 0 -89 22.5 q-29 22.5 -40 61.5 q-3 12 -4.5 31 q-1.5 19 -2.5 41 q-1 22 -1 45.5 q0 23.5 0 43.5 q0 27 0.5 55 q0.5 28 1.5 53 q1 25 3.5 45 q2.5 20 6.5 32 q12 33 42.5 52.5 q30.5 19.5 82.5 19.5 ZM171 471 q-14 0 -28.5 -2.5 q-14.5 -2.5 -27.5 -8.5 q-13 -6 -24 -17 q-11 -11 -18 -28 q-9 -23 -10 -70 q-1 -47 -2 -108 l0 -18 q0 -56 2 -89.5 q2 -33.5 8 -52.5 q10 -29 34 -45 q24 -16 66 -16 q34 0 62 17 q28 17 39 55 q5 16 6.5 55 q1.5 39 1.5 86 q0 23 -0.5 50 q-0.5 27 -1.5 52 q-1 25 -3 45 q-2 20 -5 31 q-10 33 -37 48.5 q-27 15.5 -62 15.5 ZM76 614 l191 0 l0 -24 l-191 0 l0 24 Z" /><glyph glyph-name="Obreve" unicode="&#x14e;" d="M328 558 q0 60 -37.5 90.5 q-37.5 30.5 -91.5 30.5 q-56 0 -92.5 -33 q-36.5 -33 -36.5 -93 l0 -416 q0 -61 36.5 -91 q36.5 -30 92.5 -30 q62 0 95.5 32 q33.5 32 33.5 93 l0 417 ZM199 -7 q-32 0 -60 8.5 q-28 8.5 -49 26.5 q-21 18 -33 45 q-12 27 -12 65 l0 416 q0 37 12 65 q12 28 33 46.5 q21 18.5 49 27.5 q28 9 60 9 q32 0 60 -8.5 q28 -8.5 49 -26 q21 -17.5 33 -44.5 q12 -27 12 -64 l0 -419 q0 -38 -12 -65.5 q-12 -27.5 -33 -45.5 q-21 -18 -49 -27 q-28 -9 -60 -9 ZM199 753 q32 0 58 20.5 q26 20.5 34 62.5 l23 0 q-3 -19 -11 -38 q-8 -19 -22 -34.5 q-14 -15.5 -34.5 -25 q-20.5 -9.5 -47.5 -9.5 q-27 0 -47 10 q-20 10 -33.5 25.5 q-13.5 15.5 -21.5 34.5 q-8 19 -11 37 l22 0 q7 -38 33 -60.5 q26 -22.5 58 -22.5 Z" /><glyph glyph-name="obreve" unicode="&#x14f;" d="M172 495 q55 0 82 -21 q27 -21 39 -51 q4 -15 6.5 -36 q2.5 -21 4 -45 q1.5 -24 1.5 -49 q0 -25 0 -49 l0 -21 q0 -26 -0.5 -54 q-0.5 -28 -3.5 -60 q-3 -33 -15.5 -55 q-12.5 -22 -30.5 -35.5 q-18 -13.5 -39.5 -19.5 q-21.5 -6 -43.5 -6 q-60 0 -89 22.5 q-29 22.5 -40 61.5 q-3 12 -4.5 31 q-1.5 19 -2.5 41 q-1 22 -1 45.5 q0 23.5 0 43.5 q0 27 0.5 55 q0.5 28 1.5 53 q1 25 3.5 45 q2.5 20 6.5 32 q12 33 42.5 52.5 q30.5 19.5 82.5 19.5 ZM171 471 q-14 0 -28.5 -2.5 q-14.5 -2.5 -27.5 -8.5 q-13 -6 -24 -17 q-11 -11 -18 -28 q-9 -23 -10 -70 q-1 -47 -2 -108 l0 -18 q0 -56 2 -89.5 q2 -33.5 8 -52.5 q10 -29 34 -45 q24 -16 66 -16 q34 0 62 17 q28 17 39 55 q5 16 6.5 55 q1.5 39 1.5 86 q0 23 -0.5 50 q-0.5 27 -1.5 52 q-1 25 -3 45 q-2 20 -5 31 q-10 33 -37 48.5 q-27 15.5 -62 15.5 ZM171 576 q32 0 58 20.5 q26 20.5 34 62.5 l23 0 q-3 -19 -11 -38 q-8 -19 -22 -34.5 q-14 -15.5 -34.5 -25 q-20.5 -9.5 -47.5 -9.5 q-27 0 -47 10 q-20 10 -33.5 25.5 q-13.5 15.5 -21.5 34.5 q-8 19 -11 37 l22 0 q7 -38 33 -60.5 q26 -22.5 58 -22.5 Z" /><glyph glyph-name="Ohungarumlaut" unicode="&#x150;" d="M328 558 q0 60 -37.5 90.5 q-37.5 30.5 -91.5 30.5 q-56 0 -92.5 -33 q-36.5 -33 -36.5 -93 l0 -416 q0 -61 36.5 -91 q36.5 -30 92.5 -30 q62 0 95.5 32 q33.5 32 33.5 93 l0 417 ZM199 -7 q-32 0 -60 8.5 q-28 8.5 -49 26.5 q-21 18 -33 45 q-12 27 -12 65 l0 416 q0 37 12 65 q12 28 33 46.5 q21 18.5 49 27.5 q28 9 60 9 q32 0 60 -8.5 q28 -8.5 49 -26 q21 -17.5 33 -44.5 q12 -27 12 -64 l0 -419 q0 -38 -12 -65.5 q-12 -27.5 -33 -45.5 q-21 -18 -49 -27 q-28 -9 -60 -9 ZM129 745 l120 102 l25 -26 l-134 -88 l-11 12 ZM219 745 l120 102 l25 -26 l-134 -88 l-11 12 Z" /><glyph glyph-name="ohungarumlaut" unicode="&#x151;" d="M172 495 q55 0 82 -21 q27 -21 39 -51 q4 -15 6.5 -36 q2.5 -21 4 -45 q1.5 -24 1.5 -49 q0 -25 0 -49 l0 -21 q0 -26 -0.5 -54 q-0.5 -28 -3.5 -60 q-3 -33 -15.5 -55 q-12.5 -22 -30.5 -35.5 q-18 -13.5 -39.5 -19.5 q-21.5 -6 -43.5 -6 q-60 0 -89 22.5 q-29 22.5 -40 61.5 q-3 12 -4.5 31 q-1.5 19 -2.5 41 q-1 22 -1 45.5 q0 23.5 0 43.5 q0 27 0.5 55 q0.5 28 1.5 53 q1 25 3.5 45 q2.5 20 6.5 32 q12 33 42.5 52.5 q30.5 19.5 82.5 19.5 ZM171 471 q-14 0 -28.5 -2.5 q-14.5 -2.5 -27.5 -8.5 q-13 -6 -24 -17 q-11 -11 -18 -28 q-9 -23 -10 -70 q-1 -47 -2 -108 l0 -18 q0 -56 2 -89.5 q2 -33.5 8 -52.5 q10 -29 34 -45 q24 -16 66 -16 q34 0 62 17 q28 17 39 55 q5 16 6.5 55 q1.5 39 1.5 86 q0 23 -0.5 50 q-0.5 27 -1.5 52 q-1 25 -3 45 q-2 20 -5 31 q-10 33 -37 48.5 q-27 15.5 -62 15.5 ZM122 562 l66 143 l33 -13 l-84 -136 l-15 6 ZM200 562 l66 143 l33 -13 l-84 -136 l-15 6 Z" /><glyph glyph-name="Racute" unicode="&#x154;" d="M179 696 q52 0 87 -12.5 q35 -12.5 55 -36 q20 -23.5 28.5 -56.5 q8.5 -33 8.5 -74 q0 -75 -27 -122 q-27 -47 -90 -62 q12 -37 26.5 -80 q14.5 -43 29.5 -86.5 q15 -43.5 30 -86.5 q15 -43 27 -80 l-29 0 l-108 328 q-10 -1 -20 -1.5 q-10 -0.5 -21 -0.5 l-99 0 l0 -326 l-25 0 l0 696 l127 0 ZM77 674 l0 -326 l96 0 q82 0 121.5 38 q39.5 38 39.5 130 q0 75 -35.5 116.5 q-35.5 41.5 -123.5 41.5 l-98 0 ZM134 745 l120 102 l25 -26 l-134 -88 l-11 12 Z" /><glyph glyph-name="racute" unicode="&#x155;" d="M220 466 q-6 2 -12.5 2 q-6.5 0 -11.5 0 q-54 0 -83.5 -41 q-29.5 -41 -29.5 -109 l0 -318 l-25 0 l0 487 l25 0 l0 -72 l3 0 q14 39 42 59.5 q28 20.5 66 20.5 q7 0 13 0 q6 0 13 -2 l0 -27 ZM104 562 l66 143 l33 -13 l-84 -136 l-15 6 Z" /><glyph glyph-name="Rcommaaccent" unicode="&#x156;" d="M179 696 q52 0 87 -12.5 q35 -12.5 55 -36 q20 -23.5 28.5 -56.5 q8.5 -33 8.5 -74 q0 -75 -27 -122 q-27 -47 -90 -62 q12 -37 26.5 -80 q14.5 -43 29.5 -86.5 q15 -43.5 30 -86.5 q15 -43 27 -80 l-29 0 l-108 328 q-10 -1 -20 -1.5 q-10 -0.5 -21 -0.5 l-99 0 l0 -326 l-25 0 l0 696 l127 0 ZM77 674 l0 -326 l96 0 q82 0 121.5 38 q39.5 38 39.5 130 q0 75 -35.5 116.5 q-35.5 41.5 -123.5 41.5 l-98 0 ZM185 -158 l-18 0 l17 82 l-9 0 l0 36 l36 0 l0 -36 l-26 -82 Z" /><glyph glyph-name="rcommaaccent" unicode="&#x157;" d="M220 466 q-6 2 -12.5 2 q-6.5 0 -11.5 0 q-54 0 -83.5 -41 q-29.5 -41 -29.5 -109 l0 -318 l-25 0 l0 487 l25 0 l0 -72 l3 0 q14 39 42 59.5 q28 20.5 66 20.5 q7 0 13 0 q6 0 13 -2 l0 -27 ZM63 -178 l-18 0 l17 82 l-9 0 l0 36 l36 0 l0 -36 l-26 -82 Z" /><glyph glyph-name="Rcaron" unicode="&#x158;" d="M179 696 q52 0 87 -12.5 q35 -12.5 55 -36 q20 -23.5 28.5 -56.5 q8.5 -33 8.5 -74 q0 -75 -27 -122 q-27 -47 -90 -62 q12 -37 26.5 -80 q14.5 -43 29.5 -86.5 q15 -43.5 30 -86.5 q15 -43 27 -80 l-29 0 l-108 328 q-10 -1 -20 -1.5 q-10 -0.5 -21 -0.5 l-99 0 l0 -326 l-25 0 l0 696 l127 0 ZM77 674 l0 -326 l96 0 q82 0 121.5 38 q39.5 38 39.5 130 q0 75 -35.5 116.5 q-35.5 41.5 -123.5 41.5 l-98 0 ZM279 841 l12 -11 l-104 -92 l-24 0 l-107 94 l11 10 l107 -78 l105 77 Z" /><glyph glyph-name="rcaron" unicode="&#x159;" d="M220 466 q-6 2 -12.5 2 q-6.5 0 -11.5 0 q-54 0 -83.5 -41 q-29.5 -41 -29.5 -109 l0 -318 l-25 0 l0 487 l25 0 l0 -72 l3 0 q14 39 42 59.5 q28 20.5 66 20.5 q7 0 13 0 q6 0 13 -2 l0 -27 ZM219 674 l12 -11 l-104 -112 l-24 0 l-107 114 l11 10 l107 -98 l105 97 Z" /><glyph glyph-name="Sacute" unicode="&#x15a;" d="M340 178 q0 -42 -7.5 -76 q-7.5 -34 -25 -58.5 q-17.5 -24.5 -47 -37.5 q-29.5 -13 -73.5 -13 q-42 0 -70.5 11 q-28.5 11 -47 30.5 q-18.5 19.5 -27 45.5 q-8.5 26 -9.5 57 l27 5 q0 -25 7 -47.5 q7 -22.5 22 -40 q15 -17.5 39 -27.5 q24 -10 59 -10 q41 0 65.5 13 q24.5 13 38 35 q13.5 22 18 51 q4.5 29 4.5 61 q0 37 -3.5 62 q-3.5 25 -16 44.5 q-12.5 19.5 -37 35.5 q-24.5 16 -67.5 36 q-51 23 -80.5 43 q-29.5 20 -45 41 q-15.5 21 -20 43.5 q-4.5 22.5 -4.5 49.5 q0 37 8.5 68.5 q8.5 31.5 27 54 q18.5 22.5 47 35 q28.5 12.5 68.5 12.5 q44 0 73 -12.5 q29 -12.5 46 -32.5 q17 -20 24 -45 q7 -25 7 -50 l-26 -6 q0 24 -6.5 46 q-6.5 22 -21 39 q-14.5 17 -38.5 27 q-24 10 -59 10 q-39 0 -63 -13.5 q-24 -13.5 -37.5 -35 q-13.5 -21.5 -18 -47 q-4.5 -25.5 -4.5 -49.5 q0 -27 6 -48 q6 -21 22 -39 q16 -18 44.5 -35.5 q28.5 -17.5 74.5 -38.5 q46 -20 71.5 -39 q25.5 -19 38 -41.5 q12.5 -22.5 15 -50 q2.5 -27.5 2.5 -63.5 ZM142 745 l120 102 l25 -26 l-134 -88 l-11 12 Z" /><glyph glyph-name="sacute" unicode="&#x15b;" d="M154 -7 q-60 0 -95 29.5 q-35 29.5 -37 90.5 l26 5 q0 -48 28.5 -75.5 q28.5 -27.5 78.5 -26.5 q58 0 81 30 q23 30 23 77 q0 24 -3.5 41.5 q-3.5 17.5 -15 31 q-11.5 13.5 -31.5 25.5 q-20 12 -53 24 q-40 15 -64.5 30 q-24.5 15 -38 30.5 q-13.5 15.5 -18.5 32.5 q-5 17 -5 36 q0 53 31 87 q31 34 99 34 q57 0 93 -30.5 q36 -30.5 36 -90.5 l-26 -5 q0 48 -28.5 75 q-28.5 27 -76.5 27 q-30 0 -49 -8.5 q-19 -8.5 -30.5 -22 q-11.5 -13.5 -16 -31 q-4.5 -17.5 -4.5 -35.5 q0 -18 4.5 -32 q4.5 -14 17 -27 q12.5 -13 35.5 -25 q23 -12 59 -25 q38 -14 60.5 -29 q22.5 -15 34 -32 q11.5 -17 14.5 -36.5 q3 -19.5 3 -43.5 q0 -28 -7 -52 q-7 -24 -22.5 -41.5 q-15.5 -17.5 -40.5 -27.5 q-25 -10 -62 -10 ZM141 562 l66 143 l33 -13 l-84 -136 l-15 6 Z" /><glyph glyph-name="Scircumflex" unicode="&#x15c;" d="M340 178 q0 -42 -7.5 -76 q-7.5 -34 -25 -58.5 q-17.5 -24.5 -47 -37.5 q-29.5 -13 -73.5 -13 q-42 0 -70.5 11 q-28.5 11 -47 30.5 q-18.5 19.5 -27 45.5 q-8.5 26 -9.5 57 l27 5 q0 -25 7 -47.5 q7 -22.5 22 -40 q15 -17.5 39 -27.5 q24 -10 59 -10 q41 0 65.5 13 q24.5 13 38 35 q13.5 22 18 51 q4.5 29 4.5 61 q0 37 -3.5 62 q-3.5 25 -16 44.5 q-12.5 19.5 -37 35.5 q-24.5 16 -67.5 36 q-51 23 -80.5 43 q-29.5 20 -45 41 q-15.5 21 -20 43.5 q-4.5 22.5 -4.5 49.5 q0 37 8.5 68.5 q8.5 31.5 27 54 q18.5 22.5 47 35 q28.5 12.5 68.5 12.5 q44 0 73 -12.5 q29 -12.5 46 -32.5 q17 -20 24 -45 q7 -25 7 -50 l-26 -6 q0 24 -6.5 46 q-6.5 22 -21 39 q-14.5 17 -38.5 27 q-24 10 -59 10 q-39 0 -63 -13.5 q-24 -13.5 -37.5 -35 q-13.5 -21.5 -18 -47 q-4.5 -25.5 -4.5 -49.5 q0 -27 6 -48 q6 -21 22 -39 q16 -18 44.5 -35.5 q28.5 -17.5 74.5 -38.5 q46 -20 71.5 -39 q25.5 -19 38 -41.5 q12.5 -22.5 15 -50 q2.5 -27.5 2.5 -63.5 ZM191 816 l-107 -78 l-11 10 l107 94 l24 0 l104 -92 l-12 -11 l-105 77 Z" /><glyph glyph-name="scircumflex" unicode="&#x15d;" d="M154 -7 q-60 0 -95 29.5 q-35 29.5 -37 90.5 l26 5 q0 -48 28.5 -75.5 q28.5 -27.5 78.5 -26.5 q58 0 81 30 q23 30 23 77 q0 24 -3.5 41.5 q-3.5 17.5 -15 31 q-11.5 13.5 -31.5 25.5 q-20 12 -53 24 q-40 15 -64.5 30 q-24.5 15 -38 30.5 q-13.5 15.5 -18.5 32.5 q-5 17 -5 36 q0 53 31 87 q31 34 99 34 q57 0 93 -30.5 q36 -30.5 36 -90.5 l-26 -5 q0 48 -28.5 75 q-28.5 27 -76.5 27 q-30 0 -49 -8.5 q-19 -8.5 -30.5 -22 q-11.5 -13.5 -16 -31 q-4.5 -17.5 -4.5 -35.5 q0 -18 4.5 -32 q4.5 -14 17 -27 q12.5 -13 35.5 -25 q23 -12 59 -25 q38 -14 60.5 -29 q22.5 -15 34 -32 q11.5 -17 14.5 -36.5 q3 -19.5 3 -43.5 q0 -28 -7 -52 q-7 -24 -22.5 -41.5 q-15.5 -17.5 -40.5 -27.5 q-25 -10 -62 -10 ZM157 649 l-107 -98 l-11 10 l107 114 l24 0 l104 -112 l-12 -11 l-105 97 Z" /><glyph glyph-name="Scedilla" unicode="&#x15e;" d="M340 178 q0 -41 -7 -74.5 q-7 -33.5 -24 -57.5 q-17 -24 -44.5 -38 q-27.5 -14 -69.5 -15 l-15 -60 q24 -2 39.5 -9 q15.5 -7 24.5 -17.5 q9 -10.5 13 -22 q4 -11.5 4 -21.5 q0 -26 -18 -48 q-18 -22 -56 -22 q-19 0 -35.5 3 q-16.5 3 -36.5 13 l9 19 q16 -8 31 -10.5 q15 -2.5 27 -2.5 q24 0 39 12 q15 12 15 35 q0 20 -16.5 34.5 q-16.5 14.5 -49.5 16.5 l-16 11 l19 70 q-38 2 -64 13.5 q-26 11.5 -42.5 30.5 q-16.5 19 -24.5 44 q-8 25 -9 55 l27 5 q0 -25 7 -47.5 q7 -22.5 22 -40 q15 -17.5 39 -27.5 q24 -10 59 -10 q41 0 65.5 13 q24.5 13 38 35 q13.5 22 18 51 q4.5 29 4.5 61 q0 37 -3.5 62 q-3.5 25 -16 44.5 q-12.5 19.5 -37 35.5 q-24.5 16 -67.5 36 q-51 23 -80.5 43 q-29.5 20 -45 41 q-15.5 21 -20 43.5 q-4.5 22.5 -4.5 49.5 q0 37 8.5 68.5 q8.5 31.5 27 54 q18.5 22.5 47 35 q28.5 12.5 68.5 12.5 q44 0 73 -12.5 q29 -12.5 46 -32.5 q17 -20 24 -45 q7 -25 7 -50 l-26 -6 q0 24 -6.5 46 q-6.5 22 -21 39 q-14.5 17 -38.5 27 q-24 10 -59 10 q-39 0 -63 -13.5 q-24 -13.5 -37.5 -35 q-13.5 -21.5 -18 -47 q-4.5 -25.5 -4.5 -49.5 q0 -27 6 -48 q6 -21 22 -39 q16 -18 44.5 -35.5 q28.5 -17.5 74.5 -38.5 q46 -20 71.5 -39 q25.5 -19 38 -41.5 q12.5 -22.5 15 -50 q2.5 -27.5 2.5 -63.5 Z" /><glyph glyph-name="scedilla" unicode="&#x15f;" d="M286 124 q0 -54 -26 -89.5 q-26 -35.5 -90 -40.5 l-15 -61 q24 -2 39.5 -9 q15.5 -7 24.5 -17.5 q9 -10.5 13 -22 q4 -11.5 4 -21.5 q0 -26 -18 -48 q-18 -22 -56 -22 q-19 0 -35.5 3 q-16.5 3 -36.5 13 l9 19 q16 -8 31 -10.5 q15 -2.5 27 -2.5 q24 0 39 12 q15 12 15 35 q0 20 -16.5 34.5 q-16.5 14.5 -49.5 16.5 l-16 11 l18 69 q-57 2 -90 31 q-33 29 -35 89 l26 5 q0 -48 28.5 -75.5 q28.5 -27.5 78.5 -26.5 q58 0 81 30 q23 30 23 77 q0 24 -3.5 41.5 q-3.5 17.5 -15 31 q-11.5 13.5 -31.5 25.5 q-20 12 -53 24 q-40 15 -64.5 30 q-24.5 15 -38 30.5 q-13.5 15.5 -18.5 32.5 q-5 17 -5 36 q0 53 31 87 q31 34 99 34 q57 0 93 -30.5 q36 -30.5 36 -90.5 l-26 -5 q0 48 -28.5 75 q-28.5 27 -76.5 27 q-30 0 -49 -8.5 q-19 -8.5 -30.5 -22 q-11.5 -13.5 -16 -31 q-4.5 -17.5 -4.5 -35.5 q0 -18 4.5 -32 q4.5 -14 17 -27 q12.5 -13 35.5 -25 q23 -12 59 -25 q38 -14 60.5 -29 q22.5 -15 34 -32 q11.5 -17 14.5 -36.5 q3 -19.5 3 -43.5 Z" /><glyph glyph-name="Tcommaaccent" unicode="&#x162;" d="M171 0 l-25 0 l0 673 l-140 0 l0 23 l304 0 l0 -23 l-139 0 l0 -673 ZM151 -178 l-18 0 l17 82 l-9 0 l0 36 l36 0 l0 -36 l-26 -82 Z" /><glyph glyph-name="tcommaaccent" unicode="&#x163;" d="M22 487 l58 0 l0 140 l25 0 l0 -140 l79 0 l0 -22 l-79 0 l0 -359 q0 -36 17 -60 q17 -24 61 -24 l9 0 l0 -22 l-9 0 q-22 0 -40.5 6 q-18.5 6 -32.5 19 q-14 13 -22 34 q-8 21 -8 52 l0 354 l-58 0 l0 22 ZM102 -178 l-18 0 l17 82 l-9 0 l0 36 l36 0 l0 -36 l-26 -82 Z" /><glyph glyph-name="Tcaron" unicode="&#x164;" d="M171 0 l-25 0 l0 673 l-140 0 l0 23 l304 0 l0 -23 l-139 0 l0 -673 ZM264 841 l12 -11 l-104 -92 l-24 0 l-107 94 l11 10 l107 -78 l105 77 Z" /><glyph glyph-name="tcaron" unicode="&#x165;" d="M199 553 l-18 0 l17 82 l-9 0 l0 36 l36 0 l0 -36 l-26 -82 ZM22 487 l58 0 l0 140 l25 0 l0 -140 l79 0 l0 -22 l-79 0 l0 -359 q0 -36 17 -60 q17 -24 61 -24 l9 0 l0 -22 l-9 0 q-22 0 -40.5 6 q-18.5 6 -32.5 19 q-14 13 -22 34 q-8 21 -8 52 l0 354 l-58 0 l0 22 Z" /><glyph glyph-name="Tbar" unicode="&#x166;" d="M171 403 l109 0 l0 -20 l-109 0 l0 -383 l-25 0 l0 383 l-110 0 l0 20 l110 0 l0 270 l-140 0 l0 23 l304 0 l0 -23 l-139 0 l0 -270 Z" /><glyph glyph-name="tbar" unicode="&#x167;" d="M22 487 l58 0 l0 140 l25 0 l0 -140 l79 0 l0 -22 l-79 0 l0 -134 l79 0 l0 -22 l-79 0 l0 -203 q0 -36 17 -60 q17 -24 61 -24 l9 0 l0 -22 l-9 0 q-22 0 -40.5 6 q-18.5 6 -32.5 19 q-14 13 -22 34 q-8 21 -8 52 l0 198 l-58 0 l0 22 l58 0 l0 134 l-58 0 l0 22 Z" /><glyph glyph-name="Utilde" unicode="&#x168;" d="M343 695 l0 -555 q0 -38 -12 -65.5 q-12 -27.5 -33 -45.5 q-21 -18 -49 -27 q-28 -9 -60 -9 q-32 0 -60 8.5 q-28 8.5 -49 26.5 q-21 18 -33 45 q-12 27 -12 65 l0 557 l25 0 l0 -558 q0 -61 36.5 -91 q36.5 -30 92.5 -30 q62 0 95.5 32 q33.5 32 33.5 93 l0 554 l25 0 ZM246 741 q-15 0 -29.5 6 q-14.5 6 -29 13 q-14.5 7 -28 13 q-13.5 6 -27.5 6 q-12 0 -24 -9.5 q-12 -9.5 -22 -24.5 l-16 10 q25 47 63 47 q16 0 30 -6 q14 -6 27.5 -12.5 q13.5 -6.5 28 -12.5 q14.5 -6 30.5 -6 q32 0 50 38 l16 -7 q-9 -30 -29 -42.5 q-20 -12.5 -40 -12.5 Z" /><glyph glyph-name="utilde" unicode="&#x169;" d="M282 57 q-17 -31 -47 -48 q-30 -17 -65 -17 q-38 0 -62 11 q-24 11 -37.5 29 q-13.5 18 -19 42.5 q-5.5 24.5 -5.5 51.5 l0 361 l26 0 l0 -351 q0 -24 4 -46 q4 -22 15 -38 q11 -16 30.5 -25.5 q19.5 -9.5 49.5 -9.5 q28 0 49 11.5 q21 11.5 35 29.5 q14 18 21.5 41 q7.5 23 7.5 46 l0 342 l25 0 l0 -487 l-25 0 l0 57 l-2 0 ZM234 571 q-15 0 -29.5 6 q-14.5 6 -29 13 q-14.5 7 -28 13 q-13.5 6 -27.5 6 q-12 0 -24 -9.5 q-12 -9.5 -22 -24.5 l-16 10 q25 47 63 47 q16 0 30 -6 q14 -6 27.5 -12.5 q13.5 -6.5 28 -12.5 q14.5 -6 30.5 -6 q32 0 50 38 l16 -7 q-9 -30 -29 -42.5 q-20 -12.5 -40 -12.5 Z" /><glyph glyph-name="Umacron" unicode="&#x16a;" d="M343 695 l0 -555 q0 -38 -12 -65.5 q-12 -27.5 -33 -45.5 q-21 -18 -49 -27 q-28 -9 -60 -9 q-32 0 -60 8.5 q-28 8.5 -49 26.5 q-21 18 -33 45 q-12 27 -12 65 l0 557 l25 0 l0 -558 q0 -61 36.5 -91 q36.5 -30 92.5 -30 q62 0 95.5 32 q33.5 32 33.5 93 l0 554 l25 0 ZM97 774 l191 0 l0 -24 l-191 0 l0 24 Z" /><glyph glyph-name="umacron" unicode="&#x16b;" d="M282 57 q-17 -31 -47 -48 q-30 -17 -65 -17 q-38 0 -62 11 q-24 11 -37.5 29 q-13.5 18 -19 42.5 q-5.5 24.5 -5.5 51.5 l0 361 l26 0 l0 -351 q0 -24 4 -46 q4 -22 15 -38 q11 -16 30.5 -25.5 q19.5 -9.5 49.5 -9.5 q28 0 49 11.5 q21 11.5 35 29.5 q14 18 21.5 41 q7.5 23 7.5 46 l0 342 l25 0 l0 -487 l-25 0 l0 57 l-2 0 ZM83 614 l191 0 l0 -24 l-191 0 l0 24 Z" /><glyph glyph-name="Ubreve" unicode="&#x16c;" d="M343 695 l0 -555 q0 -38 -12 -65.5 q-12 -27.5 -33 -45.5 q-21 -18 -49 -27 q-28 -9 -60 -9 q-32 0 -60 8.5 q-28 8.5 -49 26.5 q-21 18 -33 45 q-12 27 -12 65 l0 557 l25 0 l0 -558 q0 -61 36.5 -91 q36.5 -30 92.5 -30 q62 0 95.5 32 q33.5 32 33.5 93 l0 554 l25 0 ZM188 753 q32 0 58 20.5 q26 20.5 34 62.5 l23 0 q-3 -19 -11 -38 q-8 -19 -22 -34.5 q-14 -15.5 -34.5 -25 q-20.5 -9.5 -47.5 -9.5 q-27 0 -47 10 q-20 10 -33.5 25.5 q-13.5 15.5 -21.5 34.5 q-8 19 -11 37 l22 0 q7 -38 33 -60.5 q26 -22.5 58 -22.5 Z" /><glyph glyph-name="ubreve" unicode="&#x16d;" d="M282 57 q-17 -31 -47 -48 q-30 -17 -65 -17 q-38 0 -62 11 q-24 11 -37.5 29 q-13.5 18 -19 42.5 q-5.5 24.5 -5.5 51.5 l0 361 l26 0 l0 -351 q0 -24 4 -46 q4 -22 15 -38 q11 -16 30.5 -25.5 q19.5 -9.5 49.5 -9.5 q28 0 49 11.5 q21 11.5 35 29.5 q14 18 21.5 41 q7.5 23 7.5 46 l0 342 l25 0 l0 -487 l-25 0 l0 57 l-2 0 ZM179 576 q32 0 58 20.5 q26 20.5 34 62.5 l23 0 q-3 -19 -11 -38 q-8 -19 -22 -34.5 q-14 -15.5 -34.5 -25 q-20.5 -9.5 -47.5 -9.5 q-27 0 -47 10 q-20 10 -33.5 25.5 q-13.5 15.5 -21.5 34.5 q-8 19 -11 37 l22 0 q7 -38 33 -60.5 q26 -22.5 58 -22.5 Z" /><glyph glyph-name="Uring" unicode="&#x16e;" d="M343 695 l0 -555 q0 -38 -12 -65.5 q-12 -27.5 -33 -45.5 q-21 -18 -49 -27 q-28 -9 -60 -9 q-32 0 -60 8.5 q-28 8.5 -49 26.5 q-21 18 -33 45 q-12 27 -12 65 l0 557 l25 0 l0 -558 q0 -61 36.5 -91 q36.5 -30 92.5 -30 q62 0 95.5 32 q33.5 32 33.5 93 l0 554 l25 0 ZM193 716 q-30 0 -52 22.5 q-22 22.5 -22 54.5 q0 34 22 56 q22 22 52 22 q32 0 54 -22 q22 -22 22 -56 q0 -32 -22 -54.5 q-22 -22.5 -54 -22.5 ZM193 852 q-22 0 -38.5 -17 q-16.5 -17 -16.5 -42 q0 -23 16.5 -40.5 q16.5 -17.5 38.5 -17.5 q23 0 40 17.5 q17 17.5 17 40.5 q0 25 -17 42 q-17 17 -40 17 Z" /><glyph glyph-name="uring" unicode="&#x16f;" d="M282 57 q-17 -31 -47 -48 q-30 -17 -65 -17 q-38 0 -62 11 q-24 11 -37.5 29 q-13.5 18 -19 42.5 q-5.5 24.5 -5.5 51.5 l0 361 l26 0 l0 -351 q0 -24 4 -46 q4 -22 15 -38 q11 -16 30.5 -25.5 q19.5 -9.5 49.5 -9.5 q28 0 49 11.5 q21 11.5 35 29.5 q14 18 21.5 41 q7.5 23 7.5 46 l0 342 l25 0 l0 -487 l-25 0 l0 57 l-2 0 ZM180 554 q-30 0 -52 22.5 q-22 22.5 -22 54.5 q0 34 22 56 q22 22 52 22 q32 0 54 -22 q22 -22 22 -56 q0 -32 -22 -54.5 q-22 -22.5 -54 -22.5 ZM180 690 q-22 0 -38.5 -17 q-16.5 -17 -16.5 -42 q0 -23 16.5 -40.5 q16.5 -17.5 38.5 -17.5 q23 0 40 17.5 q17 17.5 17 40.5 q0 25 -17 42 q-17 17 -40 17 Z" /><glyph glyph-name="Uhungarumlaut" unicode="&#x170;" d="M343 695 l0 -555 q0 -38 -12 -65.5 q-12 -27.5 -33 -45.5 q-21 -18 -49 -27 q-28 -9 -60 -9 q-32 0 -60 8.5 q-28 8.5 -49 26.5 q-21 18 -33 45 q-12 27 -12 65 l0 557 l25 0 l0 -558 q0 -61 36.5 -91 q36.5 -30 92.5 -30 q62 0 95.5 32 q33.5 32 33.5 93 l0 554 l25 0 ZM125 745 l120 102 l25 -26 l-134 -88 l-11 12 ZM215 745 l120 102 l25 -26 l-134 -88 l-11 12 Z" /><glyph glyph-name="uhungarumlaut" unicode="&#x171;" d="M282 57 q-17 -31 -47 -48 q-30 -17 -65 -17 q-38 0 -62 11 q-24 11 -37.5 29 q-13.5 18 -19 42.5 q-5.5 24.5 -5.5 51.5 l0 361 l26 0 l0 -351 q0 -24 4 -46 q4 -22 15 -38 q11 -16 30.5 -25.5 q19.5 -9.5 49.5 -9.5 q28 0 49 11.5 q21 11.5 35 29.5 q14 18 21.5 41 q7.5 23 7.5 46 l0 342 l25 0 l0 -487 l-25 0 l0 57 l-2 0 ZM122 562 l66 143 l33 -13 l-84 -136 l-15 6 ZM200 562 l66 143 l33 -13 l-84 -136 l-15 6 Z" /><glyph glyph-name="Uogonek" unicode="&#x172;" d="M343 695 l0 -555 q0 -35 -10.5 -61 q-10.5 -26 -28.5 -44 q-18 -18 -42.5 -28 q-24.5 -10 -52.5 -13 q-14 -20 -25 -43.5 q-11 -23.5 -11 -40.5 q0 -30 13 -43.5 q13 -13.5 32 -13.5 q10 0 23 3.5 q13 3.5 25 12.5 l8 -21 q-10 -8 -25.5 -13.5 q-15.5 -5.5 -31.5 -5.5 q-32 0 -50 22.5 q-18 22.5 -18 53.5 q0 17 7 41 q7 24 25 47 q-30 1 -57 10 q-27 9 -46.5 27 q-19.5 18 -31 45 q-11.5 27 -11.5 63 l0 557 l25 0 l0 -558 q0 -61 36.5 -91 q36.5 -30 92.5 -30 q62 0 95.5 32 q33.5 32 33.5 93 l0 554 l25 0 Z" /><glyph glyph-name="uogonek" unicode="&#x173;" d="M245 -94 q0 19 9.5 45 q9.5 26 29.5 50 l0 56 l-2 0 q-17 -31 -47 -48 q-30 -17 -65 -17 q-38 0 -62 11 q-24 11 -37.5 29 q-13.5 18 -19 42.5 q-5.5 24.5 -5.5 51.5 l0 361 l26 0 l0 -351 q0 -24 4 -46 q4 -22 15 -38 q11 -16 30.5 -25.5 q19.5 -9.5 49.5 -9.5 q28 0 49 11.5 q21 11.5 35 29.5 q14 18 21.5 41 q7.5 23 7.5 46 l0 342 l25 0 l0 -487 q-17 -20 -28.5 -46.5 q-11.5 -26.5 -11.5 -43.5 q0 -30 13 -43.5 q13 -13.5 32 -13.5 q10 0 23 3.5 q13 3.5 25 12.5 l8 -21 q-10 -8 -25.5 -13.5 q-15.5 -5.5 -31.5 -5.5 q-32 0 -50 23 q-18 23 -18 54 Z" /><glyph glyph-name="Wcircumflex" unicode="&#x174;" d="M290 632 l-35 -187 l-83 -445 l-39 0 l-125 696 l24 0 l78 -442 l41 -235 l2 0 l43 233 l83 444 l25 0 l84 -451 l42 -226 l2 0 l39 225 l80 452 l24 0 l-125 -696 l-39 0 l-84 446 l-35 186 l-2 0 ZM294 816 l-107 -78 l-11 10 l107 94 l24 0 l104 -92 l-12 -11 l-105 77 Z" /><glyph glyph-name="wcircumflex" unicode="&#x175;" d="M258 436 l-103 -435 l-27 0 l-117 486 l26 0 l104 -439 l2 0 l103 439 l27 0 l103 -439 l2 0 l104 439 l26 0 l-117 -486 l-27 0 l-104 435 l-2 0 ZM261 649 l-107 -98 l-11 10 l107 114 l24 0 l104 -112 l-12 -11 l-105 97 Z" /><glyph glyph-name="Ycircumflex" unicode="&#x176;" d="M167 326 l131 370 l27 0 l-146 -403 l0 -293 l-25 0 l0 293 l-146 403 l25 0 l132 -370 l2 0 ZM167 816 l-107 -78 l-11 10 l107 94 l24 0 l104 -92 l-12 -11 l-105 77 Z" /><glyph glyph-name="ycircumflex" unicode="&#x177;" d="M151 46 l122 441 l26 0 l-166 -595 q-10 -39 -34.5 -66 q-24.5 -27 -68.5 -27 l-7 0 l0 23 l7 0 q33 0 52.5 23.5 q19.5 23.5 29.5 63.5 l24 96 l-129 482 l27 0 l115 -441 l2 0 ZM156 649 l-107 -98 l-11 10 l107 114 l24 0 l104 -112 l-12 -11 l-105 97 Z" /><glyph glyph-name="Zacute" unicode="&#x179;" d="M267 24 l0 -24 l-259 0 l0 23 l249 650 l-225 0 l0 23 l250 0 l0 -22 l-249 -650 l234 0 ZM110 745 l120 102 l25 -26 l-134 -88 l-11 12 Z" /><glyph glyph-name="zacute" unicode="&#x17a;" d="M10 22 l221 442 l-198 0 l0 22 l226 0 l0 -21 l-221 -443 l214 0 l0 -22 l-242 0 l0 22 ZM128 562 l66 143 l33 -13 l-84 -136 l-15 6 Z" /><glyph glyph-name="Zdotaccent" unicode="&#x17b;" d="M267 24 l0 -24 l-259 0 l0 23 l249 650 l-225 0 l0 23 l250 0 l0 -22 l-249 -650 l234 0 ZM145 785 l28 0 l0 -32 l-28 0 l0 32 Z" /><glyph glyph-name="zdotaccent" unicode="&#x17c;" d="M10 22 l221 442 l-198 0 l0 22 l226 0 l0 -21 l-221 -443 l214 0 l0 -22 l-242 0 l0 22 ZM141 615 l28 0 l0 -32 l-28 0 l0 32 Z" /><glyph glyph-name="AEacute" unicode="&#x1fc;" d="M332 196 l-213 0 l-88 -196 l-27 0 l310 696 l294 0 l0 -23 l-251 0 l0 -302 l223 0 l0 -23 l-223 0 l0 -324 l251 0 l0 -24 l-276 0 l0 196 ZM130 219 l202 0 l0 452 l-2 0 l-200 -452 ZM404 745 l120 102 l25 -26 l-134 -88 l-11 12 Z" /><glyph glyph-name="aeacute" unicode="&#x1fd;" d="M403 -7 q-41 0 -73.5 16 q-32.5 16 -48.5 49 q-18 -26 -36.5 -39 q-18.5 -13 -36 -18.5 q-17.5 -5.5 -33.5 -6 q-16 -0.5 -28 -0.5 q-34 0 -57.5 11 q-23.5 11 -38 29.5 q-14.5 18.5 -21 43 q-6.5 24.5 -6.5 51.5 q0 28 6.5 55.5 q6.5 27.5 22.5 49.5 q16 22 42.5 35.5 q26.5 13.5 66.5 13.5 l105 0 l0 83 q0 23 -5 42.5 q-5 19.5 -17 33.5 q-12 14 -32.5 22 q-20.5 8 -52.5 8 q-39 0 -63 -17 q-24 -17 -34 -42 l-24 10 q15 32 43.5 52 q28.5 20 79.5 20 q45 0 75.5 -14 q30.5 -14 44.5 -49 q17 32 49.5 47.5 q32.5 15.5 71.5 15.5 q59 0 96.5 -31.5 q37.5 -31.5 37.5 -91.5 l0 -114 l-244 0 l0 -141 q0 -20 7.5 -38 q7.5 -18 21 -32 q13.5 -14 33.5 -22.5 q20 -8.5 46 -8.5 q51 0 77.5 29.5 q26.5 29.5 30.5 68.5 l24 -5 q-5 -56 -42.5 -86 q-37.5 -30 -87.5 -30 ZM166 258 q-51 0 -84 -30 q-33 -30 -33 -102 q0 -21 5.5 -41 q5.5 -20 18 -35 q12.5 -15 33 -24.5 q20.5 -9.5 50.5 -9.5 q46 0 78.5 25 q32.5 25 32.5 75 l0 142 l-101 0 ZM511 283 l0 88 q0 43 -28 71.5 q-28 28.5 -82 28.5 q-51 0 -78.5 -27.5 q-27.5 -27.5 -29.5 -72.5 l0 -88 l218 0 ZM283 562 l66 143 l33 -13 l-84 -136 l-15 6 Z" /><glyph glyph-name="Oslashacute" unicode="&#x1fe;" d="M199 -7 q-37 0 -68.5 11.5 q-31.5 11.5 -52.5 34.5 l-23 -54 l-19 9 l28 65 q-19 33 -19 79 l0 416 q0 37 12 65 q12 28 33 46.5 q21 18.5 49 27.5 q28 9 60 9 q36 0 66.5 -10.5 q30.5 -10.5 52.5 -33.5 l23 54 l20 -9 l-28 -65 q20 -32 20 -79 l0 -419 q0 -38 -12 -65.5 q-12 -27.5 -33 -45.5 q-21 -18 -49 -27 q-28 -9 -60 -9 ZM328 558 q0 26 -8 48 l-231 -541 q17 -25 45.5 -37 q28.5 -12 64.5 -12 q62 0 95.5 32 q33.5 32 33.5 93 l0 417 ZM70 137 q0 -13 2 -24.5 q2 -11.5 5 -21.5 l229 540 q-17 23 -45 35.5 q-28 12.5 -62 12.5 q-56 0 -92.5 -33 q-36.5 -33 -36.5 -93 l0 -416 ZM168 745 l120 102 l25 -26 l-134 -88 l-11 12 Z" /><glyph glyph-name="oslashacute" unicode="&#x1ff;" d="M172 495 q33 0 55.5 -8 q22.5 -8 37.5 -22 l18 37 l20 -10 l-22 -46 q4 -5 6.5 -11 q2.5 -6 5.5 -12 q4 -15 6.5 -36 q2.5 -21 4 -45 q1.5 -24 1.5 -49 q0 -25 0 -49 l0 -21 q0 -26 -0.5 -54 q-0.5 -28 -3.5 -60 q-3 -33 -15.5 -55 q-12.5 -22 -30.5 -35.5 q-18 -13.5 -39.5 -19.5 q-21.5 -6 -43.5 -6 q-35 0 -59 8 q-24 8 -39 22 l-17 -34 l-19 11 l20 41 q-5 8 -8.5 16.5 q-3.5 8.5 -6.5 19.5 q-3 12 -4.5 31 q-1.5 19 -2.5 41 q-1 22 -1 45.5 q0 23.5 0 43.5 q0 27 0.5 55 q0.5 28 1.5 53 q1 25 3.5 45 q2.5 20 6.5 32 q12 33 42.5 52.5 q30.5 19.5 82.5 19.5 ZM270 407 q-1 2 -1.5 5 q-0.5 3 -2.5 5 l-180 -369 q26 -32 85 -32 q34 0 62 17 q28 17 39 55 q5 16 6.5 55 q1.5 39 1.5 86 q0 23 -0.5 50 q-0.5 27 -1.5 52 q-1 25 -3 45 q-2 20 -5 31 ZM171 471 q-14 0 -28.5 -2.5 q-14.5 -2.5 -27.5 -8.5 q-13 -6 -24 -17 q-11 -11 -18 -28 q-9 -23 -10 -70 q-1 -47 -2 -108 l0 -18 q0 -56 2 -89.5 q2 -33.5 8 -52.5 q0 -2 2 -6 l179 368 q-14 17 -35 24.5 q-21 7.5 -46 7.5 ZM144 562 l66 143 l33 -13 l-84 -136 l-15 6 Z" /><glyph glyph-name="oslash" unicode="ø" d="M172 495 q33 0 55.5 -8 q22.5 -8 37.5 -22 l18 37 l20 -10 l-22 -46 q4 -5 6.5 -11 q2.5 -6 5.5 -12 q4 -15 6.5 -36 q2.5 -21 4 -45 q1.5 -24 1.5 -49 q0 -25 0 -49 l0 -21 q0 -26 -0.5 -54 q-0.5 -28 -3.5 -60 q-3 -33 -15.5 -55 q-12.5 -22 -30.5 -35.5 q-18 -13.5 -39.5 -19.5 q-21.5 -6 -43.5 -6 q-35 0 -59 8 q-24 8 -39 22 l-17 -34 l-19 11 l20 41 q-5 8 -8.5 16.5 q-3.5 8.5 -6.5 19.5 q-3 12 -4.5 31 q-1.5 19 -2.5 41 q-1 22 -1 45.5 q0 23.5 0 43.5 q0 27 0.5 55 q0.5 28 1.5 53 q1 25 3.5 45 q2.5 20 6.5 32 q12 33 42.5 52.5 q30.5 19.5 82.5 19.5 ZM270 407 q-1 2 -1.5 5 q-0.5 3 -2.5 5 l-180 -369 q26 -32 85 -32 q34 0 62 17 q28 17 39 55 q5 16 6.5 55 q1.5 39 1.5 86 q0 23 -0.5 50 q-0.5 27 -1.5 52 q-1 25 -3 45 q-2 20 -5 31 ZM171 471 q-14 0 -28.5 -2.5 q-14.5 -2.5 -27.5 -8.5 q-13 -6 -24 -17 q-11 -11 -18 -28 q-9 -23 -10 -70 q-1 -47 -2 -108 l0 -18 q0 -56 2 -89.5 q2 -33.5 8 -52.5 q0 -2 2 -6 l179 368 q-14 17 -35 24.5 q-21 7.5 -46 7.5 Z" /><glyph glyph-name="afii10023" unicode="&#x401;" d="M52 696 l276 0 l0 -23 l-251 0 l0 -302 l223 0 l0 -23 l-223 0 l0 -324 l251 0 l0 -24 l-276 0 l0 696 ZM93 773 l28 0 l0 -32 l-28 0 l0 32 ZM235 773 l28 0 l0 -32 l-28 0 l0 32 Z" /><glyph glyph-name="afii10052" unicode="&#x403;" d="M53 696 l276 0 l0 -23 l-251 0 l0 -673 l-25 0 l0 696 ZM135 745 l120 102 l25 -26 l-134 -88 l-11 12 Z" /><glyph glyph-name="afii10054" unicode="&#x405;" d="M340 178 q0 -42 -7.5 -76 q-7.5 -34 -25 -58.5 q-17.5 -24.5 -47 -37.5 q-29.5 -13 -73.5 -13 q-42 0 -70.5 11 q-28.5 11 -47 30.5 q-18.5 19.5 -27 45.5 q-8.5 26 -9.5 57 l27 5 q0 -25 7 -47.5 q7 -22.5 22 -40 q15 -17.5 39 -27.5 q24 -10 59 -10 q41 0 65.5 13 q24.5 13 38 35 q13.5 22 18 51 q4.5 29 4.5 61 q0 37 -3.5 62 q-3.5 25 -16 44.5 q-12.5 19.5 -37 35.5 q-24.5 16 -67.5 36 q-51 23 -80.5 43 q-29.5 20 -45 41 q-15.5 21 -20 43.5 q-4.5 22.5 -4.5 49.5 q0 37 8.5 68.5 q8.5 31.5 27 54 q18.5 22.5 47 35 q28.5 12.5 68.5 12.5 q44 0 73 -12.5 q29 -12.5 46 -32.5 q17 -20 24 -45 q7 -25 7 -50 l-26 -6 q0 24 -6.5 46 q-6.5 22 -21 39 q-14.5 17 -38.5 27 q-24 10 -59 10 q-39 0 -63 -13.5 q-24 -13.5 -37.5 -35 q-13.5 -21.5 -18 -47 q-4.5 -25.5 -4.5 -49.5 q0 -27 6 -48 q6 -21 22 -39 q16 -18 44.5 -35.5 q28.5 -17.5 74.5 -38.5 q46 -20 71.5 -39 q25.5 -19 38 -41.5 q12.5 -22.5 15 -50 q2.5 -27.5 2.5 -63.5 Z" /><glyph glyph-name="afii10055" unicode="&#x406;" d="M70 696 l25 0 l0 -696 l-25 0 l0 696 Z" /><glyph glyph-name="afii10056" unicode="&#x407;" d="M70 696 l25 0 l0 -696 l-25 0 l0 696 ZM-3 794 l28 0 l0 -32 l-28 0 l0 32 ZM139 794 l28 0 l0 -32 l-28 0 l0 32 Z" /><glyph glyph-name="afii10057" unicode="&#x408;" d="M239 136 q0 -66 -40 -104.5 q-40 -38.5 -117 -38.5 q-25 0 -49.5 6 q-24.5 6 -38.5 15 l12 22 q17 -11 39 -15 q22 -4 40 -4 q18 0 40 4 q22 4 42 17 q20 13 33.5 37.5 q13.5 24.5 13.5 64.5 l0 556 l25 0 l0 -560 Z" /><glyph glyph-name="afii10017" unicode="&#x410;" d="M289 196 l-213 0 l-44 -196 l-24 0 l156 696 l37 0 l158 -696 l-25 0 l-45 196 ZM142 493 l-61 -274 l203 0 l-62 276 l-39 178 l-2 0 l-39 -180 Z" /><glyph glyph-name="afii10019" unicode="&#x412;" d="M77 674 l0 -295 l141 0 q67 0 91.5 38.5 q24.5 38.5 24.5 110.5 q0 70 -32 108 q-32 38 -110 38 l-115 0 ZM77 357 l0 -332 l123 0 q43 0 70.5 14 q27.5 14 43.5 38 q16 24 22.5 56 q6.5 32 6.5 68 q0 74 -30.5 115 q-30.5 41 -89.5 41 l-146 0 ZM283 367 q25 -9 41.5 -25 q16.5 -16 26.5 -38 q10 -22 14 -48.5 q4 -26.5 4 -55.5 q0 -56 -12.5 -94 q-12.5 -38 -35 -61.5 q-22.5 -23.5 -53 -34 q-30.5 -10.5 -66.5 -10.5 l-150 0 l0 696 l145 0 q46 0 77 -11.5 q31 -11.5 50 -33 q19 -21.5 27.5 -52.5 q8.5 -31 8.5 -70 q0 -27 -3 -51.5 q-3 -24.5 -11.5 -45.5 q-8.5 -21 -23.5 -37.5 q-15 -16.5 -39 -26.5 l0 -1 Z" /><glyph glyph-name="afii10020" unicode="&#x413;" d="M53 696 l276 0 l0 -23 l-251 0 l0 -673 l-25 0 l0 696 Z" /><glyph glyph-name="afii10022" unicode="&#x415;" d="M52 696 l276 0 l0 -23 l-251 0 l0 -302 l223 0 l0 -23 l-223 0 l0 -324 l251 0 l0 -24 l-276 0 l0 696 Z" /><glyph glyph-name="afii10030" unicode="&#x41c;" d="M440 624 l-170 -464 l-27 0 l-165 456 l-3 0 l0 -616 l-25 0 l0 696 l26 0 l179 -501 l3 0 l183 501 l25 0 l0 -696 l-24 0 l0 624 l-2 0 Z" /><glyph glyph-name="afii10031" unicode="&#x41d;" d="M328 345 l-251 0 l0 -345 l-25 0 l0 696 l25 0 l0 -327 l251 0 l0 327 l26 0 l0 -696 l-26 0 l0 345 Z" /><glyph glyph-name="afii10032" unicode="&#x41e;" d="M328 558 q0 60 -37.5 90.5 q-37.5 30.5 -91.5 30.5 q-56 0 -92.5 -33 q-36.5 -33 -36.5 -93 l0 -416 q0 -61 36.5 -91 q36.5 -30 92.5 -30 q62 0 95.5 32 q33.5 32 33.5 93 l0 417 ZM199 -7 q-32 0 -60 8.5 q-28 8.5 -49 26.5 q-21 18 -33 45 q-12 27 -12 65 l0 416 q0 37 12 65 q12 28 33 46.5 q21 18.5 49 27.5 q28 9 60 9 q32 0 60 -8.5 q28 -8.5 49 -26 q21 -17.5 33 -44.5 q12 -27 12 -64 l0 -419 q0 -38 -12 -65.5 q-12 -27.5 -33 -45.5 q-21 -18 -49 -27 q-28 -9 -60 -9 Z" /><glyph glyph-name="afii10033" unicode="&#x41f;" d="M328 671 l-251 0 l0 -671 l-25 0 l0 696 l302 0 l0 -696 l-26 0 l0 671 Z" /><glyph glyph-name="afii10034" unicode="&#x420;" d="M184 696 q52 0 86.5 -14.5 q34.5 -14.5 54 -40 q19.5 -25.5 27.5 -60 q8 -34.5 8 -75.5 q0 -46 -9 -83 q-9 -37 -29.5 -63.5 q-20.5 -26.5 -54.5 -40.5 q-34 -14 -84 -14 l-106 0 l0 -304 l-25 0 l0 695 l132 0 ZM77 674 l0 -347 l103 0 q83 0 119.5 42.5 q36.5 42.5 36.5 135.5 q0 37 -7.5 68.5 q-7.5 31.5 -25.5 53.5 q-18 22 -47.5 34.5 q-29.5 12.5 -73.5 12.5 l-105 0 Z" /><glyph glyph-name="afii10035" unicode="&#x421;" d="M197 16 q23 0 45.5 7 q22.5 7 40 22 q17.5 15 28.5 39.5 q11 24.5 11 59.5 l25 -5 q0 -41 -13.5 -69 q-13.5 -28 -35 -45 q-21.5 -17 -48 -24.5 q-26.5 -7.5 -53.5 -7.5 q-69 0 -110 36 q-41 36 -41 111 l0 413 q0 75 41 112 q41 37 110 37 q28 0 55 -7.5 q27 -7.5 48 -25 q21 -17.5 34 -45 q13 -27.5 13 -66.5 l-25 -6 q0 34 -10 58 q-10 24 -27.5 39.5 q-17.5 15.5 -40 22.5 q-22.5 7 -47.5 7 q-59 0 -92.5 -33.5 q-33.5 -33.5 -33.5 -93.5 l0 -413 q0 -61 33.5 -92 q33.5 -31 92.5 -31 Z" /><glyph glyph-name="afii10036" unicode="&#x422;" d="M171 0 l-25 0 l0 673 l-140 0 l0 23 l304 0 l0 -23 l-139 0 l0 -673 Z" /><glyph glyph-name="afii10038" unicode="&#x424;" d="M223 629 q-29 0 -57 -8.5 q-28 -8.5 -49.5 -25 q-21.5 -16.5 -34.5 -40.5 q-13 -24 -13 -55 l0 -291 q0 -31 13 -55 q13 -24 34.5 -40 q21.5 -16 49.5 -24 q28 -8 57 -8 l0 547 ZM248 82 q29 0 57 8 q28 8 50 24 q22 16 35.5 40 q13.5 24 13.5 55 l0 291 q0 31 -13.5 55 q-13.5 24 -35.5 40.5 q-22 16.5 -50 25 q-28 8.5 -57 8.5 l0 -547 ZM248 0 l-25 0 l0 59 q-33 0 -65 9.5 q-32 9.5 -57 28.5 q-25 19 -40.5 47 q-15.5 28 -15.5 65 l0 291 q0 37 15.5 66 q15.5 29 40.5 48 q25 19 57 29 q32 10 65 10 l0 43 l25 0 l0 -43 q33 0 65.5 -10 q32.5 -10 58 -29 q25.5 -19 41.5 -48 q16 -29 16 -66 l0 -291 q0 -37 -16 -65 q-16 -28 -41.5 -47 q-25.5 -19 -58 -28.5 q-32.5 -9.5 -65.5 -9.5 l0 -59 Z" /><glyph glyph-name="afii10039" unicode="&#x425;" d="M4 0 l147 348 l-146 346 l29 0 l132 -317 l130 317 l29 0 l-147 -346 l148 -348 l-29 0 l-131 318 l-133 -318 l-29 0 Z" /><glyph glyph-name="afii10065" unicode="&#x430;" d="M166 259 q-51 0 -84 -30.5 q-33 -30.5 -33 -102.5 q0 -21 5.5 -41 q5.5 -20 18 -35 q12.5 -15 33 -24.5 q20.5 -9.5 50.5 -9.5 q46 0 78.5 25 q32.5 25 32.5 75 l0 143 l-101 0 ZM39 423 q15 32 46 52 q31 20 82 20 q61 0 93.5 -27.5 q32.5 -27.5 32.5 -99.5 l0 -368 l-26 0 l0 44 l-2 0 q-13 -17 -28 -27 q-15 -10 -30.5 -15 q-15.5 -5 -31 -6.5 q-15.5 -1.5 -28.5 -1.5 q-34 0 -57.5 11 q-23.5 11 -38 29.5 q-14.5 18.5 -21 43 q-6.5 24.5 -6.5 51.5 q0 28 6.5 55.5 q6.5 27.5 22.5 49.5 q16 22 42.5 35.5 q26.5 13.5 66.5 13.5 l105 0 l0 83 q0 23 -4 42.5 q-4 19.5 -15 33.5 q-11 14 -31 22 q-20 8 -52 8 q-39 0 -65.5 -17 q-26.5 -17 -36.5 -42 l-24 10 Z" /><glyph glyph-name="afii10070" unicode="&#x435;" d="M171 495 q59 0 93 -31.5 q34 -31.5 34 -91.5 l0 -127 l-237 0 l0 -26 q0 -18 0.5 -39 q0.5 -21 1.5 -40.5 q1 -19.5 3 -36 q2 -16.5 5 -25.5 q8 -25 30.5 -43.5 q22.5 -18.5 63.5 -18.5 q26 0 45.5 8 q19.5 8 32 21.5 q12.5 13.5 19.5 31 q7 17.5 9 37.5 l24 -5 q-5 -56 -41 -86 q-36 -30 -86 -30 q-30 0 -51.5 7 q-21.5 7 -36.5 19 q-15 12 -24 27 q-9 15 -13 31 q-3 12 -5 31.5 q-2 19.5 -3 41.5 q-1 22 -1 45 q0 23 0 43 q0 27 0.5 55 q0.5 28 2 53 q1.5 25 4.5 45 q3 20 7 32 q12 33 41.5 52.5 q29.5 19.5 81.5 19.5 ZM73 414 q-8 -20 -9.5 -57.5 q-1.5 -37.5 -2.5 -88.5 l211 0 l0 103 q0 43 -24 71.5 q-24 28.5 -78 28.5 q-28 0 -55.5 -11.5 q-27.5 -11.5 -41.5 -45.5 Z" /><glyph glyph-name="afii10076" unicode="&#x43a;" d="M43 0 l0 487 l25 0 l0 -225 l81 0 q14 0 28.5 3 q14.5 3 27.5 11 q13 8 23.5 22 q10.5 14 16.5 37 l41 152 l23 0 l-36 -141 q-10 -36 -25.5 -60.5 q-15.5 -24.5 -43.5 -32.5 q35 -8 50 -33.5 q15 -25.5 25 -61.5 l40 -158 l-26 0 l-40 161 q-13 49 -37.5 64 q-24.5 15 -59.5 15 l-88 0 l0 -240 l-25 0 Z" /><glyph glyph-name="afii10080" unicode="&#x43e;" d="M172 495 q55 0 82 -21 q27 -21 39 -51 q4 -15 6.5 -36 q2.5 -21 4 -45 q1.5 -24 1.5 -49 q0 -25 0 -49 l0 -21 q0 -26 -0.5 -54 q-0.5 -28 -3.5 -60 q-3 -33 -15.5 -55 q-12.5 -22 -30.5 -35.5 q-18 -13.5 -39.5 -19.5 q-21.5 -6 -43.5 -6 q-60 0 -89 22.5 q-29 22.5 -40 61.5 q-3 12 -4.5 31 q-1.5 19 -2.5 41 q-1 22 -1 45.5 q0 23.5 0 43.5 q0 27 0.5 55 q0.5 28 1.5 53 q1 25 3.5 45 q2.5 20 6.5 32 q12 33 42.5 52.5 q30.5 19.5 82.5 19.5 ZM171 471 q-14 0 -28.5 -2.5 q-14.5 -2.5 -27.5 -8.5 q-13 -6 -24 -17 q-11 -11 -18 -28 q-9 -23 -10 -70 q-1 -47 -2 -108 l0 -18 q0 -56 2 -89.5 q2 -33.5 8 -52.5 q10 -29 34 -45 q24 -16 66 -16 q34 0 62 17 q28 17 39 55 q5 16 6.5 55 q1.5 39 1.5 86 q0 23 -0.5 50 q-0.5 27 -1.5 52 q-1 25 -3 45 q-2 20 -5 31 q-10 33 -37 48.5 q-27 15.5 -62 15.5 Z" /><glyph glyph-name="afii10081" unicode="&#x43f;" d="M283 466 l-211 0 l0 -466 l-27 0 l0 487 l263 0 l0 -487 l-25 0 l0 466 Z" /><glyph glyph-name="afii10082" unicode="&#x440;" d="M178 470 q-50 0 -82 -33 q-32 -33 -32 -86 l0 -205 q0 -24 7 -47.5 q7 -23.5 21 -42 q14 -18.5 34.5 -30 q20.5 -11.5 47.5 -11.5 q33 0 59 18.5 q26 18.5 36 51.5 q3 10 4.5 29.5 q1.5 19.5 2.5 43.5 q1 24 1 50 q0 26 0 49 q0 47 -1 85.5 q-1 38.5 -6 54.5 q-11 41 -34.5 57 q-23.5 16 -57.5 16 ZM180 493 q21 0 41.5 -5.5 q20.5 -5.5 37 -19 q16.5 -13.5 28 -35 q11.5 -21.5 14.5 -54.5 q3 -32 3 -61 q0 -29 0 -55 l0 -21 q0 -57 -0.5 -102 q-0.5 -45 -11.5 -74 q-5 -15 -14.5 -28.5 q-9.5 -13.5 -23.5 -24 q-14 -10.5 -34 -16.5 q-20 -6 -47 -6 q-26 0 -44 7 q-18 7 -30.5 17 q-12.5 10 -20 21 q-7.5 11 -12.5 19 l-2 0 l0 -251 l-25 0 l0 682 l25 0 l0 -50 l2 0 q17 26 45 41.5 q28 15.5 69 15.5 Z" /><glyph glyph-name="afii10083" unicode="&#x441;" d="M172 495 q57 0 91.5 -30.5 q34.5 -30.5 34.5 -90.5 l-26 -5 q0 48 -26 75 q-26 27 -77 27 q-28 0 -54.5 -12 q-26.5 -12 -40.5 -46 q-8 -19 -9.5 -67 q-1.5 -48 -2.5 -109 l0 -18 q0 -18 0.5 -39 q0.5 -21 1.5 -40.5 q1 -19.5 3 -36 q2 -16.5 5 -25.5 q10 -29 33.5 -45.5 q23.5 -16.5 61.5 -16.5 q48 0 75.5 24.5 q27.5 24.5 29.5 77.5 l26 -5 q-2 -61 -37 -90.5 q-35 -29.5 -92 -29.5 q-30 0 -51.5 7 q-21.5 7 -36.5 19 q-15 12 -24 27 q-9 15 -13 31 q-3 12 -5 31.5 q-2 19.5 -3 41.5 q-1 22 -1 45 q0 23 0 43 q0 27 0.5 54.5 q0.5 27.5 2 52 q1.5 24.5 4 44 q2.5 19.5 6.5 31.5 q12 33 42 54 q30 21 82 21 Z" /><glyph glyph-name="afii10085" unicode="&#x443;" d="M151 46 l122 441 l26 0 l-166 -595 q-10 -39 -34.5 -66 q-24.5 -27 -68.5 -27 l-7 0 l0 23 l7 0 q33 0 52.5 23.5 q19.5 23.5 29.5 63.5 l24 96 l-129 482 l27 0 l115 -441 l2 0 Z" /><glyph glyph-name="afii10087" unicode="&#x445;" d="M138 232 l-104 -232 l-28 0 l113 250 l-105 236 l28 0 l96 -219 l99 219 l28 0 l-109 -236 l116 -250 l-29 0 l-105 232 Z" /><glyph glyph-name="afii10071" unicode="&#x451;" d="M171 495 q59 0 93 -31.5 q34 -31.5 34 -91.5 l0 -127 l-237 0 l0 -26 q0 -18 0.5 -39 q0.5 -21 1.5 -40.5 q1 -19.5 3 -36 q2 -16.5 5 -25.5 q8 -25 30.5 -43.5 q22.5 -18.5 63.5 -18.5 q26 0 45.5 8 q19.5 8 32 21.5 q12.5 13.5 19.5 31 q7 17.5 9 37.5 l24 -5 q-5 -56 -41 -86 q-36 -30 -86 -30 q-30 0 -51.5 7 q-21.5 7 -36.5 19 q-15 12 -24 27 q-9 15 -13 31 q-3 12 -5 31.5 q-2 19.5 -3 41.5 q-1 22 -1 45 q0 23 0 43 q0 27 0.5 55 q0.5 28 2 53 q1.5 25 4.5 45 q3 20 7 32 q12 33 41.5 52.5 q29.5 19.5 81.5 19.5 ZM73 414 q-8 -20 -9.5 -57.5 q-1.5 -37.5 -2.5 -88.5 l211 0 l0 103 q0 43 -24 71.5 q-24 28.5 -78 28.5 q-28 0 -55.5 -11.5 q-27.5 -11.5 -41.5 -45.5 ZM85 622 l28 0 l0 -32 l-28 0 l0 32 ZM227 622 l28 0 l0 -32 l-28 0 l0 32 Z" /><glyph glyph-name="afii10102" unicode="&#x455;" d="M154 -7 q-60 0 -95 29.5 q-35 29.5 -37 90.5 l26 5 q0 -48 28.5 -75.5 q28.5 -27.5 78.5 -26.5 q58 0 81 30 q23 30 23 77 q0 24 -3.5 41.5 q-3.5 17.5 -15 31 q-11.5 13.5 -31.5 25.5 q-20 12 -53 24 q-40 15 -64.5 30 q-24.5 15 -38 30.5 q-13.5 15.5 -18.5 32.5 q-5 17 -5 36 q0 53 31 87 q31 34 99 34 q57 0 93 -30.5 q36 -30.5 36 -90.5 l-26 -5 q0 48 -28.5 75 q-28.5 27 -76.5 27 q-30 0 -49 -8.5 q-19 -8.5 -30.5 -22 q-11.5 -13.5 -16 -31 q-4.5 -17.5 -4.5 -35.5 q0 -18 4.5 -32 q4.5 -14 17 -27 q12.5 -13 35.5 -25 q23 -12 59 -25 q38 -14 60.5 -29 q22.5 -15 34 -32 q11.5 -17 14.5 -36.5 q3 -19.5 3 -43.5 q0 -28 -7 -52 q-7 -24 -22.5 -41.5 q-15.5 -17.5 -40.5 -27.5 q-25 -10 -62 -10 Z" /><glyph glyph-name="afii10103" unicode="&#x456;" d="M60 487 l25 0 l0 -487 l-25 0 l0 487 ZM59 636 l28 0 l0 -32 l-28 0 l0 32 Z" /><glyph glyph-name="afii10104" unicode="&#x457;" d="M-12 615 l28 0 l0 -32 l-28 0 l0 32 ZM130 615 l28 0 l0 -32 l-28 0 l0 32 ZM60 487 l25 0 l0 -487 l-25 0 l0 487 Z" /><glyph glyph-name="afii10105" unicode="&#x458;" d="M58 487 l25 0 l0 -595 q0 -55 -24.5 -75.5 q-24.5 -20.5 -68.5 -20.5 l-4 0 l0 22 l4 0 q43 0 55.5 21 q12.5 21 12.5 62 l0 586 ZM58 636 l28 0 l0 -32 l-28 0 l0 32 Z" /><glyph glyph-name="afii10053" unicode="&#x404;" d="M347 111 q-5 -33 -20 -55.5 q-15 -22.5 -35.5 -36.5 q-20.5 -14 -45.5 -20 q-25 -6 -49 -6 q-69 0 -110 36 q-41 36 -41 111 l0 413 q0 75 41 112 q41 37 110 37 q26 0 51.5 -6 q25.5 -6 46 -19.5 q20.5 -13.5 34.5 -36 q14 -22.5 18 -55.5 l-26 -9 q-3 28 -14 48 q-11 20 -28 32 q-17 12 -38 17.5 q-21 5.5 -44 5.5 q-59 0 -92.5 -33.5 q-33.5 -33.5 -33.5 -93.5 l0 -187 l182 0 l0 -24 l-182 0 l0 -202 q0 -61 33.5 -92 q33.5 -31 92.5 -31 q21 0 42 5.5 q21 5.5 38.5 18 q17.5 12.5 29.5 32 q12 19.5 16 48.5 l24 -9 Z" /><glyph glyph-name="afii10047" unicode="&#x42d;" d="M50 120 q4 -29 15.5 -48.5 q11.5 -19.5 28 -32 q16.5 -12.5 37 -18 q20.5 -5.5 41.5 -5.5 q69 0 100 37.5 q31 37.5 31 115.5 l0 173 l-182 0 l0 24 l182 0 l0 156 q0 81 -31 119 q-31 38 -93 38 q-23 0 -44 -6 q-21 -6 -38.5 -18 q-17.5 -12 -29.5 -31.5 q-12 -19.5 -16 -46.5 l-25 8 q4 32 19 54 q15 22 36.5 36 q21.5 14 46.5 20.5 q25 6.5 51 6.5 q71 0 110 -41 q39 -41 39 -138 l0 -353 q0 -51 -11 -85 q-11 -34 -31.5 -54.5 q-20.5 -20.5 -49 -29 q-28.5 -8.5 -64.5 -8.5 q-24 0 -48.5 6 q-24.5 6 -44.5 20.5 q-20 14.5 -34.5 37 q-14.5 22.5 -18.5 55.5 l24 8 Z" /><glyph glyph-name="afii10046" unicode="&#x42c;" d="M42 0 l0 696 l25 0 l0 -322 l106 0 q50 0 84 -13.5 q34 -13.5 55 -37.5 q21 -24 30.5 -58 q9.5 -34 9.5 -75 q0 -39 -8 -73.5 q-8 -34.5 -28.5 -60.5 q-20.5 -26 -55 -41 q-34.5 -15 -86.5 -15 l-132 0 ZM172 25 q44 0 73.5 12.5 q29.5 12.5 47.5 35 q18 22.5 25.5 52.5 q7.5 30 7.5 66 q0 80 -39.5 119 q-39.5 39 -116.5 39 l-103 0 l0 -324 l105 0 Z" /><glyph glyph-name="afii10045" unicode="&#x42b;" d="M52 0 l0 696 l25 0 l0 -322 l106 0 q50 0 84 -13.5 q34 -13.5 55 -37.5 q21 -24 30.5 -58 q9.5 -34 9.5 -75 q0 -39 -8 -73.5 q-8 -34.5 -28.5 -60.5 q-20.5 -26 -55 -41 q-34.5 -15 -86.5 -15 l-132 0 ZM182 25 q44 0 73.5 12.5 q29.5 12.5 47.5 35 q18 22.5 25.5 52.5 q7.5 30 7.5 66 q0 80 -39.5 119 q-39.5 39 -116.5 39 l-103 0 l0 -324 l105 0 ZM419 696 l25 0 l0 -696 l-25 0 l0 696 Z" /><glyph glyph-name="afii10044" unicode="&#x42a;" d="M5 696 l222 0 l0 -322 l106 0 q50 0 84 -13.5 q34 -13.5 55 -37.5 q21 -24 30.5 -58 q9.5 -34 9.5 -75 q0 -39 -8 -73.5 q-8 -34.5 -28.5 -60.5 q-20.5 -26 -55 -41 q-34.5 -15 -86.5 -15 l-132 0 l0 673 l-197 0 l0 23 ZM332 25 q44 0 73.5 12.5 q29.5 12.5 47.5 35 q18 22.5 25.5 52.5 q7.5 30 7.5 66 q0 80 -39.5 119 q-39.5 39 -116.5 39 l-103 0 l0 -324 l105 0 Z" /><glyph glyph-name="afii10059" unicode="&#x40a;" d="M308 0 l0 350 l-231 0 l0 -350 l-25 0 l0 696 l25 0 l0 -322 l231 0 l0 322 l25 0 l0 -322 l106 0 q50 0 84 -13.5 q34 -13.5 55 -37.5 q21 -24 30.5 -58 q9.5 -34 9.5 -75 q0 -39 -8 -73.5 q-8 -34.5 -28.5 -60.5 q-20.5 -26 -55 -41 q-34.5 -15 -86.5 -15 l-132 0 ZM438 25 q44 0 73.5 12.5 q29.5 12.5 47.5 35 q18 22.5 25.5 52.5 q7.5 30 7.5 66 q0 80 -39.5 119 q-39.5 39 -116.5 39 l-103 0 l0 -324 l105 0 Z" /><glyph glyph-name="afii10048" unicode="&#x42e;" d="M315 -7 q-27 0 -53.5 7.5 q-26.5 7.5 -47.5 23.5 q-21 16 -34.5 42 q-13.5 26 -13.5 64 l0 215 l-89 0 l0 -345 l-25 0 l0 696 l25 0 l0 -327 l89 0 l0 195 q0 37 13.5 63.5 q13.5 26.5 34.5 43 q21 16.5 47.5 24 q26.5 7.5 53.5 7.5 q27 0 53.5 -7.5 q26.5 -7.5 47.5 -24 q21 -16.5 34.5 -43 q13.5 -26.5 13.5 -63.5 l0 -434 q0 -38 -13.5 -64 q-13.5 -26 -34.5 -42 q-21 -16 -47.5 -23.5 q-26.5 -7.5 -53.5 -7.5 ZM439 559 q0 30 -10.5 52.5 q-10.5 22.5 -28 37.5 q-17.5 15 -40 22.5 q-22.5 7.5 -45.5 7.5 q-24 0 -46.5 -7.5 q-22.5 -7.5 -40 -22.5 q-17.5 -15 -27.5 -37.5 q-10 -22.5 -10 -52.5 l0 -425 q0 -30 11 -52.5 q11 -22.5 28.5 -37 q17.5 -14.5 39.5 -21.5 q22 -7 45 -7 q23 0 45.5 7.5 q22.5 7.5 40 22.5 q17.5 15 28 37.5 q10.5 22.5 10.5 52.5 l0 423 Z" /><glyph glyph-name="afii10049" unicode="&#x42f;" d="M9 0 l46 216 q10 47 29.5 81.5 q19.5 34.5 61.5 48.5 q-56 17 -79 57 q-23 40 -23 109 q0 41 9.5 75 q9.5 34 32 58 q22.5 24 58 37.5 q35.5 13.5 88.5 13.5 l118 0 l0 -696 l-25 0 l0 335 l-119 0 q-21 0 -40.5 -5 q-19.5 -5 -35.5 -17.5 q-16 -12.5 -28.5 -35 q-12.5 -22.5 -19.5 -57.5 l-47 -220 l-26 0 ZM234 674 q-89 0 -127.5 -43.5 q-38.5 -43.5 -38.5 -118.5 q0 -87 42.5 -121 q42.5 -34 120.5 -34 l94 0 l0 317 l-91 0 Z" /><glyph glyph-name="afii10040" unicode="&#x426;" d="M354 24 l38 0 l0 -154 l-25 0 l0 130 l-315 0 l0 696 l25 0 l0 -672 l251 0 l0 672 l26 0 l0 -672 Z" /><glyph glyph-name="afii10042" unicode="&#x428;" d="M513 696 l26 0 l0 -696 l-487 0 l0 696 l25 0 l0 -671 l204 0 l0 671 l26 0 l0 -671 l206 0 l0 671 Z" /><glyph glyph-name="afii10043" unicode="&#x429;" d="M539 25 l39 0 l0 -155 l-25 0 l0 130 l-501 0 l0 696 l25 0 l0 -671 l204 0 l0 671 l26 0 l0 -671 l206 0 l0 671 l26 0 l0 -671 Z" /><glyph glyph-name="afii10037" unicode="&#x423;" d="M208 130 q-12 -41 -24.5 -67.5 q-12.5 -26.5 -26 -42.5 q-13.5 -16 -29.5 -22.5 q-16 -6.5 -35 -6.5 l-15 0 l0 26 l14 0 q29 0 51.5 24.5 q22.5 24.5 36.5 81.5 l9 36 l-165 537 l27 0 l150 -490 l2 0 l137 490 l26 0 l-158 -566 Z" /><glyph glyph-name="afii10145" unicode="&#x40f;" d="M328 696 l26 0 l0 -696 l-138 0 l0 -150 l-27 0 l0 150 l-137 0 l0 696 l25 0 l0 -671 l251 0 l0 671 Z" /><glyph glyph-name="afii10041" unicode="&#x427;" d="M49 696 l0 -222 q0 -40 8 -67 q8 -27 25.5 -43.5 q17.5 -16.5 46 -24 q28.5 -7.5 69.5 -7.5 q20 0 49.5 5.5 q29.5 5.5 53.5 16.5 l0 342 l25 0 l0 -695 l-25 0 l0 329 q-9 -4 -22.5 -8 q-13.5 -4 -28.5 -7 q-15 -3 -30 -4.5 q-15 -1.5 -26 -1.5 q-46 0 -78 9 q-32 9 -52.5 28.5 q-20.5 19.5 -29.5 51 q-9 31.5 -9 77.5 l0 221 l24 0 Z" /><glyph glyph-name="afii10025" unicode="&#x417;" d="M289 240 q0 62 -25 91 q-25 29 -63 29 l-59 0 l0 27 l61 0 q34 0 59 26 q25 26 27 82 l0 59 q0 60 -33 91.5 q-33 31.5 -84 31.5 q-25 0 -48.5 -6.5 q-23.5 -6.5 -41.5 -21.5 q-18 -15 -29 -39 q-11 -24 -11 -58 l-25 6 q0 39 14 66.5 q14 27.5 36.5 45 q22.5 17.5 51 25 q28.5 7.5 56.5 7.5 q65 0 102 -39 q37 -39 37 -108 l0 -31 q0 -18 -1.5 -41.5 q-1.5 -23.5 -8 -45 q-6.5 -21.5 -20 -39 q-13.5 -17.5 -37.5 -24.5 q26 -9 40 -29 q14 -20 20 -42.5 q6 -22.5 6.5 -43.5 q0.5 -21 0.5 -32 l0 -80 q0 -42 -13.5 -71 q-13.5 -29 -35.5 -47.5 q-22 -18.5 -48.5 -27 q-26.5 -8.5 -53.5 -8.5 q-27 0 -53.5 7.5 q-26.5 7.5 -48 24.5 q-21.5 17 -35 45 q-13.5 28 -13.5 69 l25 5 q0 -35 11 -59.5 q11 -24.5 28.5 -39.5 q17.5 -15 40 -22 q22.5 -7 45.5 -7 q23 0 45.5 8 q22.5 8 40.5 24 q18 16 29 40.5 q11 24.5 11 57.5 l0 94 l0 0 Z" /><glyph glyph-name="afii10018" unicode="&#x411;" d="M42 0 l0 696 l268 0 l0 -23 l-243 0 l0 -299 l106 0 q50 0 84 -13.5 q34 -13.5 55 -37.5 q21 -24 30.5 -58 q9.5 -34 9.5 -75 q0 -39 -8 -73.5 q-8 -34.5 -28.5 -60.5 q-20.5 -26 -55 -41 q-34.5 -15 -86.5 -15 l-132 0 ZM172 25 q44 0 73.5 12.5 q29.5 12.5 47.5 35 q18 22.5 25.5 52.5 q7.5 30 7.5 66 q0 80 -39.5 119 q-39.5 39 -116.5 39 l-103 0 l0 -324 l105 0 Z" /><glyph glyph-name="afii10024" unicode="&#x416;" d="M300 0 l0 350 l-79 0 q-21 0 -40.5 -5 q-19.5 -5 -35.5 -17.5 q-16 -12.5 -28.5 -35 q-12.5 -22.5 -19.5 -57.5 l-51 -235 l-26 0 l50 231 q11 52 33.5 88 q22.5 36 71.5 47 q-38 11 -62 46.5 q-24 35.5 -36 86.5 l-45 197 l23 0 l52 -212 q8 -32 22 -53.5 q14 -21.5 31.5 -34 q17.5 -12.5 37 -17.5 q19.5 -5 38.5 -5 l64 0 l0 322 l25 0 l0 -322 l65 0 q19 0 38.5 5 q19.5 5 37 17.5 q17.5 12.5 31.5 34 q14 21.5 22 53.5 l52 212 l23 0 l-45 -197 q-12 -51 -36 -86.5 q-24 -35.5 -62 -46.5 q49 -11 71.5 -47 q22.5 -36 33.5 -88 l50 -231 l-26 0 l-51 235 q-8 35 -20 57.5 q-12 22.5 -28 35 q-16 12.5 -35.5 17.5 q-19.5 5 -40.5 5 l-80 0 l0 -350 l-25 0 Z" /><glyph glyph-name="afii10028" unicode="&#x41a;" d="M51 0 l0 696 l25 0 l0 -322 l95 0 q19 0 38.5 5 q19.5 5 37 17.5 q17.5 12.5 31.5 34 q14 21.5 22 53.5 l52 212 l23 0 l-45 -197 q-12 -51 -36 -86.5 q-24 -35.5 -62 -46.5 q49 -11 71.5 -47 q22.5 -36 33.5 -88 l50 -231 l-26 0 l-51 235 q-8 35 -20 57.5 q-12 22.5 -28 35 q-16 12.5 -35.5 17.5 q-19.5 5 -40.5 5 l-110 0 l0 -350 l-25 0 Z" /><glyph glyph-name="afii10029" unicode="&#x41b;" d="M354 673 l-232 0 l0 -334 q0 -90 -5 -149.5 q-5 -59.5 -17.5 -99.5 q-12.5 -40 -33.5 -64 q-21 -24 -53 -43 l-12 20 q27 19 45 39 q18 20 29.5 55.5 q11.5 35.5 16.5 94.5 q5 59 5 156 l0 348 l282 0 l0 -696 l-25 0 l0 673 Z" /><glyph glyph-name="afii10021" unicode="&#x414;" d="M29 -130 l-24 0 l0 154 l36 0 q16 24 27.5 49.5 q11.5 25.5 19.5 60.5 q8 35 13 83 q5 48 7 117 l11 362 l282 0 l0 -672 l41 0 l0 -154 l-24 0 l0 130 l-389 0 l0 -130 ZM144 671 l-11 -325 q-2 -55 -5 -102 q-3 -47 -10 -86.5 q-7 -39.5 -18 -73 q-11 -33.5 -29 -60.5 l304 0 l0 647 l-231 0 Z" /><glyph glyph-name="afii10058" unicode="&#x409;" d="M351 374 l106 0 q50 0 84 -13.5 q34 -13.5 55 -37.5 q21 -24 30.5 -58 q9.5 -34 9.5 -75 q0 -39 -8 -73.5 q-8 -34.5 -28.5 -60.5 q-20.5 -26 -55 -41 q-34.5 -15 -86.5 -15 l-132 0 l0 673 l-204 0 l0 -334 q0 -90 -5 -149.5 q-5 -59.5 -17.5 -99.5 q-12.5 -40 -33.5 -64 q-21 -24 -53 -43 l-12 19 q27 19 45 38 q18 19 29.5 53.5 q11.5 34.5 16.5 94 q5 59.5 5 160.5 l0 348 l254 0 l0 -322 ZM456 25 q44 0 73.5 12.5 q29.5 12.5 47.5 35 q18 22.5 25.5 52.5 q7.5 30 7.5 66 q0 80 -39.5 119 q-39.5 39 -116.5 39 l-103 0 l0 -324 l105 0 Z" /><glyph glyph-name="afii10026" unicode="&#x418;" d="M324 631 l-250 -631 l-24 0 l0 696 l24 0 l0 -629 l3 0 l249 629 l25 0 l0 -696 l-25 0 l0 631 l-2 0 Z" /><glyph glyph-name="afii10051" unicode="&#x402;" d="M295 471 q28 0 53 -8 q25 -8 43.5 -24.5 q18.5 -16.5 29 -43.5 q10.5 -27 10.5 -64 l0 -206 q0 -75 -35 -111 q-35 -36 -99 -36 l0 23 q59 0 83.5 34.5 q24.5 34.5 24.5 90.5 l0 201 q0 60 -30 89.5 q-30 29.5 -79 29.5 q-38 0 -70 -16 q-32 -16 -55 -36 l0 -394 l-25 0 l0 673 l-125 0 l0 23 l344 0 l0 -23 l-194 0 l0 -246 l1 0 q29 22 61.5 33 q32.5 11 61.5 11 Z" /><glyph glyph-name="afii10060" unicode="&#x40b;" d="M172 427 q29 21 60.5 32.5 q31.5 11.5 62.5 11.5 q38 0 64 -11.5 q26 -11.5 42 -30.5 q16 -19 23 -44.5 q7 -25.5 7 -52.5 l0 -332 l-26 0 l0 327 q0 24 -6 46 q-6 22 -19 38 q-13 16 -33.5 25.5 q-20.5 9.5 -50.5 9.5 q-26 0 -59.5 -11.5 q-33.5 -11.5 -65.5 -40.5 l0 -394 l-25 0 l0 673 l-125 0 l0 23 l344 0 l0 -23 l-194 0 l0 -246 l1 0 Z" /><glyph glyph-name="afii10067" unicode="&#x432;" d="M70 464 l0 -195 l119 0 q55 0 76 26 q21 26 21 73 q0 46 -27 71 q-27 25 -93 25 l-96 0 ZM70 246 l0 -222 l103 0 q36 0 59 9.5 q23 9.5 36.5 26 q13.5 16.5 19 37.5 q5.5 21 5.5 45 q0 50 -25.5 77 q-25.5 27 -75.5 27 l-122 0 ZM45 0 l0 487 l125 0 q79 0 110.5 -31.5 q31.5 -31.5 31.5 -88.5 q0 -36 -10.5 -65 q-10.5 -29 -45.5 -45 q18 -7 30.5 -19.5 q12.5 -12.5 19.5 -28.5 q7 -16 10 -33.5 q3 -17.5 3 -33.5 q0 -39 -11 -66.5 q-11 -27.5 -30 -44 q-19 -16.5 -45.5 -24 q-26.5 -7.5 -57.5 -7.5 l-130 0 Z" /><glyph glyph-name="afii10068" unicode="&#x433;" d="M45 487 l240 0 l0 -23 l-214 0 l0 -464 l-26 0 l0 487 Z" /><glyph glyph-name="afii10069" unicode="&#x434;" d="M30 -127 l-25 0 l0 151 l28 0 q26 19 37 71.5 q11 52.5 15 154.5 l8 237 l247 0 l0 -463 l32 0 l0 -151 l-25 0 l0 127 l-317 0 l0 -127 ZM118 464 l-8 -223 q-3 -81 -12.5 -136 q-9.5 -55 -32.5 -81 l249 0 l0 440 l-196 0 Z" /><glyph glyph-name="afii10073" unicode="&#x437;" d="M109 272 l63 0 q28 0 49.5 21 q21.5 21 21.5 78 q0 29 -9 48 q-9 19 -23 30.5 q-14 11.5 -32 16 q-18 4.5 -36 4.5 q-42 0 -72 -20 q-30 -20 -34 -67 l-24 5 q2 28 13.5 48 q11.5 20 29.5 33 q18 13 40.5 19 q22.5 6 46.5 6 q22 0 44.5 -5 q22.5 -5 40.5 -18.5 q18 -13.5 29 -37.5 q11 -24 11 -61 q0 -15 -2 -31.5 q-2 -16.5 -7 -32 q-5 -15.5 -15.5 -28 q-10.5 -12.5 -26.5 -20.5 q34 -16 42 -46.5 q8 -30.5 9 -74.5 q0 -40 -12 -67.5 q-12 -27.5 -30.5 -44.5 q-18.5 -17 -42 -24.5 q-23.5 -7.5 -46.5 -7.5 q-23 0 -45.5 5.5 q-22.5 5.5 -41 18 q-18.5 12.5 -30.5 33.5 q-12 21 -13 52 l25 3 q3 -47 34.5 -67.5 q31.5 -20.5 70.5 -20.5 q19 0 38 6 q19 6 34 20 q15 14 24.5 37 q9.5 23 9.5 57 q0 33 -6 54.5 q-6 21.5 -16.5 34 q-10.5 12.5 -24 17 q-13.5 4.5 -29.5 4.5 l-58 0 l0 23 Z" /><glyph glyph-name="afii10074" unicode="&#x438;" d="M286 0 l0 438 l-219 -438 l-25 0 l0 487 l25 0 l0 -438 l219 438 l25 0 l0 -487 l-25 0 Z" /><glyph glyph-name="afii10077" unicode="&#x43b;" d="M293 464 l-182 0 l0 -223 q0 -99 -19 -163.5 q-19 -64.5 -75 -95.5 l-12 19 q23 14 38.5 33 q15.5 19 25.5 47.5 q10 28.5 14 69 q4 40.5 4 99.5 l0 237 l232 0 l0 -487 l-26 0 l0 464 Z" /><glyph glyph-name="afii10078" unicode="&#x43c;" d="M377 428 l-143 -317 l-26 0 l-138 316 l-1 -1 l0 -426 l-25 0 l0 487 l26 0 l151 -350 l158 350 l24 0 l0 -487 l-25 0 l0 428 l-1 0 Z" /><glyph glyph-name="afii10079" unicode="&#x43d;" d="M280 238 l-210 0 l0 -238 l-26 0 l0 487 l26 0 l0 -224 l210 0 l0 224 l26 0 l0 -487 l-26 0 l0 238 Z" /><glyph glyph-name="afii10084" unicode="&#x442;" d="M149 0 l-25 0 l0 464 l-118 0 l0 23 l262 0 l0 -23 l-119 0 l0 -464 Z" /><glyph glyph-name="afii10086" unicode="&#x444;" d="M198 -7 q-60 0 -100.5 24.5 q-40.5 24.5 -51.5 67.5 q-3 12 -5 29.5 q-2 17.5 -3.5 38.5 q-1.5 21 -2 43 q-0.5 22 -0.5 42 q0 27 1 54.5 q1 27.5 3 51 q2 23.5 5 42 q3 18.5 8 29.5 q14 33 50 57 q36 24 96 24 l0 200 l25 0 l0 -200 q63 -1 100.5 -26.5 q37.5 -25.5 49.5 -60.5 q9 -29 11.5 -73 q2.5 -44 2.5 -92 l0 -21 q0 -26 -1.5 -51.5 q-1.5 -25.5 -4.5 -57.5 q-3 -33 -18 -56 q-15 -23 -37.5 -37.5 q-22.5 -14.5 -49.5 -21 q-27 -6.5 -53 -6.5 l0 -192 l-25 0 l0 192 ZM223 16 q44 0 81.5 22 q37.5 22 48.5 60 q5 16 6.5 50 q1.5 34 1.5 81 q0 23 -0.5 46.5 q-0.5 23.5 -1.5 45.5 q-1 22 -3 40.5 q-2 18.5 -6 31.5 q-6 19 -18.5 34.5 q-12.5 15.5 -30 25.5 q-17.5 10 -37.5 15 q-20 5 -41 4 l0 -456 ZM198 472 q-39 0 -72.5 -15.5 q-33.5 -15.5 -47.5 -49.5 q-9 -23 -12.5 -66 q-3.5 -43 -4.5 -104 l0 -18 q0 -56 3.5 -85.5 q3.5 -29.5 9.5 -48.5 q11 -32 46 -50.5 q35 -18.5 77 -18.5 l1 456 Z" /><glyph glyph-name="afii10088" unicode="&#x446;" d="M317 0 l-272 0 l0 487 l25 0 l0 -463 l210 0 l0 463 l27 0 l0 -463 l32 0 l0 -151 l-22 0 l0 127 Z" /><glyph glyph-name="afii10089" unicode="&#x447;" d="M262 229 q-29 -20 -60.5 -30 q-31.5 -10 -57.5 -10 q-38 0 -61 10 q-23 10 -36 26.5 q-13 16.5 -17.5 38.5 q-4.5 22 -4.5 46 l0 177 l26 0 l0 -167 q0 -23 3.5 -42 q3.5 -19 13.5 -33.5 q10 -14.5 28.5 -22.5 q18.5 -8 48.5 -8 q31 0 64 13 q33 13 54 32 l0 228 l25 0 l0 -486 l-25 0 l0 228 l-1 0 Z" /><glyph glyph-name="afii10090" unicode="&#x448;" d="M461 487 l27 0 l0 -487 l-443 0 l0 487 l26 0 l0 -463 l181 0 l0 463 l26 0 l0 -463 l183 0 l0 463 Z" /><glyph glyph-name="afii10091" unicode="&#x449;" d="M461 487 l27 0 l0 -463 l32 0 l0 -151 l-22 0 l0 127 l-453 0 l0 487 l26 0 l0 -463 l181 0 l0 463 l26 0 l0 -463 l183 0 l0 463 Z" /><glyph glyph-name="afii10092" unicode="&#x44a;" d="M174 0 l0 464 l-169 0 l0 23 l192 0 l0 -220 l90 0 q43 0 72.5 -9.5 q29.5 -9.5 47.5 -26 q18 -16.5 26 -40 q8 -23.5 8 -51.5 q0 -27 -7 -52 q-7 -25 -24 -44.5 q-17 -19.5 -47 -31.5 q-30 -12 -75 -12 l-114 0 ZM285 24 q37 0 62.5 9 q25.5 9 40.5 24.5 q15 15.5 21.5 36 q6.5 20.5 6.5 44.5 q0 54 -33.5 79 q-33.5 25 -98.5 25 l-87 0 l0 -218 l88 0 Z" /><glyph glyph-name="afii10093" unicode="&#x44b;" d="M358 487 l26 0 l0 -487 l-26 0 l0 487 ZM156 24 q37 0 62.5 9 q25.5 9 40.5 24.5 q15 15.5 21.5 36 q6.5 20.5 6.5 44.5 q0 54 -33.5 79 q-33.5 25 -98.5 25 l-87 0 l0 -218 l88 0 ZM45 0 l0 487 l23 0 l0 -220 l90 0 q43 0 72.5 -9.5 q29.5 -9.5 47.5 -26 q18 -16.5 26 -40 q8 -23.5 8 -51.5 q0 -27 -7 -52 q-7 -25 -24 -44.5 q-17 -19.5 -47 -31.5 q-30 -12 -75 -12 l-114 0 Z" /><glyph glyph-name="afii10094" unicode="&#x44c;" d="M148 24 q37 0 62.5 9 q25.5 9 40.5 24.5 q15 15.5 21.5 36 q6.5 20.5 6.5 44.5 q0 54 -33.5 79 q-33.5 25 -98.5 25 l-87 0 l0 -218 l88 0 ZM37 0 l0 487 l23 0 l0 -220 l90 0 q43 0 72.5 -9.5 q29.5 -9.5 47.5 -26 q18 -16.5 26 -40 q8 -23.5 8 -51.5 q0 -27 -7 -52 q-7 -25 -24 -44.5 q-17 -19.5 -47 -31.5 q-30 -12 -75 -12 l-114 0 Z" /><glyph glyph-name="afii10095" unicode="&#x44d;" d="M98 261 l154 0 q-1 53 -3 94 q-2 41 -9 58 q-14 34 -39.5 46 q-25.5 12 -53.5 12 q-45 0 -74 -24.5 q-29 -24.5 -31 -69.5 l-26 7 q3 56 40 83.5 q37 27.5 91 27.5 q54 0 80.5 -21 q26.5 -21 38.5 -54 q4 -12 6.5 -31.5 q2.5 -19.5 3.5 -44 q1 -24.5 1.5 -52 q0.5 -27.5 0.5 -54.5 q0 -20 0 -43 q0 -23 -0.5 -45 q-0.5 -22 -2.5 -41.5 q-2 -19.5 -5 -31.5 q-4 -16 -13 -31 q-9 -15 -24 -27 q-15 -12 -36.5 -19 q-21.5 -7 -51.5 -7 q-54 0 -89 27 q-35 27 -40 84 l26 5 q4 -48 32 -70.5 q28 -22.5 73 -22.5 q38 0 61.5 16.5 q23.5 16.5 33.5 45.5 q3 9 5 25.5 q2 16.5 3 36 q1 19.5 1.5 40.5 q0.5 21 0.5 39 l0 18 l-154 0 l0 24 Z" /><glyph glyph-name="afii10096" unicode="&#x44e;" d="M45 487 l25 0 l0 -224 l75 0 q0 24 0.5 48.5 q0.5 24.5 1.5 45.5 q1 21 3 38 q2 17 6 28 q12 33 40.5 52.5 q28.5 19.5 80.5 19.5 q27 0 46.5 -5.5 q19.5 -5.5 33 -15.5 q13.5 -10 22.5 -23 q9 -13 15 -28 q4 -15 6.5 -36 q2.5 -21 4 -45 q1.5 -24 1.5 -49 q0 -25 0 -49 l0 -21 q0 -26 -0.5 -54 q-0.5 -28 -3.5 -60 q-3 -33 -15 -55 q-12 -22 -29 -35.5 q-17 -13.5 -38 -19.5 q-21 -6 -43 -6 q-60 0 -87 22.5 q-27 22.5 -38 61.5 q-3 10 -4 28.5 q-1 18.5 -2 41.5 q-1 23 -1 47 q0 24 0 44 l-75 0 l0 -238 l-25 0 l0 487 ZM276 471 q-28 0 -54 -11 q-26 -11 -40 -45 q-9 -23 -9.5 -70 q-0.5 -47 -1.5 -108 l0 -18 q0 -56 1.5 -89.5 q1.5 -33.5 7.5 -52.5 q10 -29 32 -45 q22 -16 64 -16 q34 0 60 17 q26 17 37 55 q5 16 6.5 55 q1.5 39 1.5 86 q0 23 -0.5 50 q-0.5 27 -1.5 52 q-1 25 -3 45 q-2 20 -5 31 q-10 33 -35 48.5 q-25 15.5 -60 15.5 Z" /><glyph glyph-name="afii10097" unicode="&#x44f;" d="M26 0 l33 153 q7 32 20.5 57 q13.5 25 42.5 34 q-41 11 -62 37 q-21 26 -21 74 q0 27 7 51 q7 24 24.5 42 q17.5 18 47.5 28.5 q30 10.5 76 10.5 l109 0 l0 -487 l-25 0 l0 235 l-97 0 q-18 0 -33 -3 q-15 -3 -27.5 -11.5 q-12.5 -8.5 -22 -24 q-9.5 -15.5 -14.5 -40.5 l-33 -156 l-25 0 ZM190 464 q-37 0 -61 -8.5 q-24 -8.5 -38.5 -23 q-14.5 -14.5 -20.5 -34.5 q-6 -20 -6 -44 q0 -54 32 -75 q32 -21 97 -21 l85 0 l0 206 l-88 0 Z" /><glyph glyph-name="afii10101" unicode="&#x454;" d="M300 94 q-7 -51 -41.5 -76 q-34.5 -25 -86.5 -25 q-30 0 -51.5 7 q-21.5 7 -36.5 19 q-15 12 -24 27 q-9 15 -13 31 q-3 12 -5 31.5 q-2 19.5 -2.5 41.5 q-0.5 22 -0.5 45 q0 23 0 43 q0 27 0.5 54.5 q0.5 27.5 1.5 52 q1 24.5 3.5 44 q2.5 19.5 6.5 31.5 q12 33 42 54 q30 21 82 21 q53 0 86.5 -26.5 q33.5 -26.5 38.5 -79.5 l-26 -5 q-4 42 -29 64.5 q-25 22.5 -73 22.5 q-28 0 -54.5 -12 q-26.5 -12 -40.5 -46 q-7 -17 -9 -58 q-2 -41 -3 -94 l154 0 l0 -25 l-154 0 l0 -17 q0 -18 0.5 -39 q0.5 -21 1.5 -40.5 q1 -19.5 3 -36 q2 -16.5 5 -25.5 q10 -29 33.5 -45.5 q23.5 -16.5 61.5 -16.5 q44 0 71 20.5 q27 20.5 33 64.5 l26 -7 Z" /><glyph glyph-name="afii10106" unicode="&#x459;" d="M107 464 l0 -223 q0 -99 -19 -163.5 q-19 -64.5 -75 -95.5 l-12 19 q23 14 38.5 33 q15.5 19 25.5 47.5 q10 28.5 14 69 q4 40.5 4 99.5 l0 237 l212 0 l0 -221 l89 0 q42 0 71.5 -9.5 q29.5 -9.5 48 -27 q18.5 -17.5 26.5 -41.5 q8 -24 8 -53 q0 -28 -7 -52.5 q-7 -24.5 -24.5 -43 q-17.5 -18.5 -47.5 -29 q-30 -10.5 -75 -10.5 l-115 0 l0 464 l-162 0 ZM383 24 q37 0 61.5 8.5 q24.5 8.5 39.5 23.5 q15 15 21 35 q6 20 6 44 q0 106 -130 106 l-86 0 l0 -217 l88 0 Z" /><glyph glyph-name="afii10107" unicode="&#x45a;" d="M377 24 q37 0 62 8.5 q25 8.5 40 23.5 q15 15 21.5 35 q6.5 20 6.5 44 q0 106 -132 106 l-85 0 l0 -217 l87 0 ZM264 0 l0 242 l-193 0 l0 -242 l-25 0 l0 487 l25 0 l0 -221 l193 0 l0 221 l26 0 l0 -221 l87 0 q43 0 73 -9.5 q30 -9.5 48.5 -27 q18.5 -17.5 26.5 -41.5 q8 -24 8 -53 q0 -28 -7 -52.5 q-7 -24.5 -24.5 -43 q-17.5 -18.5 -47.5 -29 q-30 -10.5 -76 -10.5 l-114 0 Z" /><glyph glyph-name="afii10108" unicode="&#x45b;" d="M71 422 q17 31 47.5 48 q30.5 17 65.5 17 q37 0 61.5 -11 q24.5 -11 38 -29 q13.5 -18 19 -42.5 q5.5 -24.5 5.5 -51.5 l0 -353 l-26 0 l0 343 q0 24 -4 46 q-4 22 -15 38 q-11 16 -30.5 25.5 q-19.5 9.5 -49.5 9.5 q-28 0 -49 -11.5 q-21 -11.5 -35.5 -29.5 q-14.5 -18 -21.5 -41 q-7 -23 -7 -46 l0 -334 l-25 0 l0 583 l-45 0 l0 20 l45 0 l0 124 l25 0 l0 -124 l211 0 l0 -20 l-211 0 l0 -161 l1 0 Z" /><glyph glyph-name="afii10193" unicode="&#x45f;" d="M280 487 l26 0 l0 -487 l-117 0 l0 -137 l-27 0 l0 137 l-118 0 l0 487 l26 0 l0 -463 l210 0 l0 463 Z" /></font>
</defs>
</svg>
